%TF.GenerationSoftware,KiCad,Pcbnew,8.0.2*%
%TF.CreationDate,2024-07-19T10:45:18+07:00*%
%TF.ProjectId,chroma-pixel-zeta,6368726f-6d61-42d7-9069-78656c2d7a65,rev?*%
%TF.SameCoordinates,Original*%
%TF.FileFunction,Paste,Top*%
%TF.FilePolarity,Positive*%
%FSLAX46Y46*%
G04 Gerber Fmt 4.6, Leading zero omitted, Abs format (unit mm)*
G04 Created by KiCad (PCBNEW 8.0.2) date 2024-07-19 10:45:18*
%MOMM*%
%LPD*%
G01*
G04 APERTURE LIST*
G04 Aperture macros list*
%AMRoundRect*
0 Rectangle with rounded corners*
0 $1 Rounding radius*
0 $2 $3 $4 $5 $6 $7 $8 $9 X,Y pos of 4 corners*
0 Add a 4 corners polygon primitive as box body*
4,1,4,$2,$3,$4,$5,$6,$7,$8,$9,$2,$3,0*
0 Add four circle primitives for the rounded corners*
1,1,$1+$1,$2,$3*
1,1,$1+$1,$4,$5*
1,1,$1+$1,$6,$7*
1,1,$1+$1,$8,$9*
0 Add four rect primitives between the rounded corners*
20,1,$1+$1,$2,$3,$4,$5,0*
20,1,$1+$1,$4,$5,$6,$7,0*
20,1,$1+$1,$6,$7,$8,$9,0*
20,1,$1+$1,$8,$9,$2,$3,0*%
G04 Aperture macros list end*
%ADD10C,0.010000*%
%ADD11R,1.400000X2.600000*%
%ADD12RoundRect,0.140000X-0.170000X0.140000X-0.170000X-0.140000X0.170000X-0.140000X0.170000X0.140000X0*%
%ADD13RoundRect,0.135000X-0.185000X0.135000X-0.185000X-0.135000X0.185000X-0.135000X0.185000X0.135000X0*%
%ADD14RoundRect,0.135000X-0.135000X-0.185000X0.135000X-0.185000X0.135000X0.185000X-0.135000X0.185000X0*%
%ADD15RoundRect,0.140000X-0.140000X-0.170000X0.140000X-0.170000X0.140000X0.170000X-0.140000X0.170000X0*%
%ADD16RoundRect,0.140000X0.140000X0.170000X-0.140000X0.170000X-0.140000X-0.170000X0.140000X-0.170000X0*%
%ADD17R,1.550000X0.600000*%
%ADD18R,1.800000X1.200000*%
%ADD19RoundRect,0.135000X0.135000X0.185000X-0.135000X0.185000X-0.135000X-0.185000X0.135000X-0.185000X0*%
%ADD20RoundRect,0.135000X0.185000X-0.135000X0.185000X0.135000X-0.185000X0.135000X-0.185000X-0.135000X0*%
%ADD21RoundRect,0.375000X0.375000X-0.625000X0.375000X0.625000X-0.375000X0.625000X-0.375000X-0.625000X0*%
%ADD22RoundRect,0.500000X1.400000X-0.500000X1.400000X0.500000X-1.400000X0.500000X-1.400000X-0.500000X0*%
%ADD23RoundRect,0.250000X-0.475000X0.250000X-0.475000X-0.250000X0.475000X-0.250000X0.475000X0.250000X0*%
%ADD24RoundRect,0.140000X0.170000X-0.140000X0.170000X0.140000X-0.170000X0.140000X-0.170000X-0.140000X0*%
%ADD25R,0.500000X0.800000*%
%ADD26R,0.400000X0.800000*%
%ADD27R,1.100000X0.600000*%
%ADD28RoundRect,0.150000X0.150000X-0.512500X0.150000X0.512500X-0.150000X0.512500X-0.150000X-0.512500X0*%
%ADD29RoundRect,0.225000X0.250000X-0.225000X0.250000X0.225000X-0.250000X0.225000X-0.250000X-0.225000X0*%
%ADD30R,2.400000X0.740000*%
%ADD31RoundRect,0.243750X0.243750X0.456250X-0.243750X0.456250X-0.243750X-0.456250X0.243750X-0.456250X0*%
%ADD32RoundRect,0.225000X-0.225000X-0.250000X0.225000X-0.250000X0.225000X0.250000X-0.225000X0.250000X0*%
%ADD33RoundRect,0.250000X-0.435000X-0.615000X0.435000X-0.615000X0.435000X0.615000X-0.435000X0.615000X0*%
%ADD34RoundRect,0.125000X-0.200000X-0.125000X0.200000X-0.125000X0.200000X0.125000X-0.200000X0.125000X0*%
%ADD35RoundRect,0.150000X0.150000X-0.587500X0.150000X0.587500X-0.150000X0.587500X-0.150000X-0.587500X0*%
%ADD36RoundRect,0.075000X-0.675000X-0.075000X0.675000X-0.075000X0.675000X0.075000X-0.675000X0.075000X0*%
%ADD37RoundRect,0.075000X-0.075000X-0.675000X0.075000X-0.675000X0.075000X0.675000X-0.075000X0.675000X0*%
%ADD38R,4.500000X2.300000*%
%ADD39RoundRect,0.250000X0.450000X-0.262500X0.450000X0.262500X-0.450000X0.262500X-0.450000X-0.262500X0*%
%ADD40RoundRect,0.250000X-0.250000X-0.475000X0.250000X-0.475000X0.250000X0.475000X-0.250000X0.475000X0*%
%ADD41RoundRect,0.100000X-0.225000X-0.100000X0.225000X-0.100000X0.225000X0.100000X-0.225000X0.100000X0*%
%ADD42R,1.600000X0.700000*%
%ADD43R,1.500000X1.200000*%
%ADD44R,2.200000X1.200000*%
%ADD45R,1.500000X1.600000*%
%ADD46RoundRect,0.250000X0.250000X0.475000X-0.250000X0.475000X-0.250000X-0.475000X0.250000X-0.475000X0*%
%ADD47RoundRect,0.150000X0.200000X-0.150000X0.200000X0.150000X-0.200000X0.150000X-0.200000X-0.150000X0*%
%ADD48RoundRect,0.225000X-0.250000X0.225000X-0.250000X-0.225000X0.250000X-0.225000X0.250000X0.225000X0*%
%ADD49R,1.050000X0.650000*%
%ADD50R,1.500000X0.600000*%
%ADD51R,1.500000X0.300000*%
%ADD52R,0.458000X1.510000*%
%ADD53RoundRect,0.112500X-0.187500X-0.112500X0.187500X-0.112500X0.187500X0.112500X-0.187500X0.112500X0*%
%ADD54RoundRect,0.150000X-0.825000X-0.150000X0.825000X-0.150000X0.825000X0.150000X-0.825000X0.150000X0*%
%ADD55RoundRect,0.112500X0.112500X-0.187500X0.112500X0.187500X-0.112500X0.187500X-0.112500X-0.187500X0*%
%ADD56RoundRect,0.243750X-0.456250X0.243750X-0.456250X-0.243750X0.456250X-0.243750X0.456250X0.243750X0*%
%ADD57RoundRect,0.225000X0.225000X0.250000X-0.225000X0.250000X-0.225000X-0.250000X0.225000X-0.250000X0*%
%ADD58R,1.000000X1.150000*%
%ADD59R,1.800000X0.700000*%
%ADD60R,2.200000X1.600000*%
%ADD61RoundRect,0.150000X0.587500X0.150000X-0.587500X0.150000X-0.587500X-0.150000X0.587500X-0.150000X0*%
%ADD62RoundRect,0.200000X0.275000X-0.200000X0.275000X0.200000X-0.275000X0.200000X-0.275000X-0.200000X0*%
%ADD63RoundRect,0.018900X0.411100X0.116100X-0.411100X0.116100X-0.411100X-0.116100X0.411100X-0.116100X0*%
%ADD64RoundRect,0.018900X-0.116100X0.411100X-0.116100X-0.411100X0.116100X-0.411100X0.116100X0.411100X0*%
%ADD65RoundRect,0.018900X-0.411100X-0.116100X0.411100X-0.116100X0.411100X0.116100X-0.411100X0.116100X0*%
%ADD66RoundRect,0.018900X0.116100X-0.411100X0.116100X0.411100X-0.116100X0.411100X-0.116100X-0.411100X0*%
%ADD67R,0.610000X2.000000*%
%ADD68R,2.680000X3.600000*%
%ADD69RoundRect,0.175000X0.325000X-0.175000X0.325000X0.175000X-0.325000X0.175000X-0.325000X-0.175000X0*%
%ADD70RoundRect,0.150000X0.150000X-0.200000X0.150000X0.200000X-0.150000X0.200000X-0.150000X-0.200000X0*%
%ADD71RoundRect,0.225000X0.225000X0.375000X-0.225000X0.375000X-0.225000X-0.375000X0.225000X-0.375000X0*%
%ADD72RoundRect,0.150000X-0.150000X0.587500X-0.150000X-0.587500X0.150000X-0.587500X0.150000X0.587500X0*%
%ADD73R,0.250000X1.100000*%
%ADD74R,1.700000X1.500000*%
%ADD75R,0.500000X1.500000*%
%ADD76R,2.000000X1.700000*%
%ADD77RoundRect,0.250000X0.650000X-0.325000X0.650000X0.325000X-0.650000X0.325000X-0.650000X-0.325000X0*%
%ADD78RoundRect,0.150000X0.400000X0.150000X-0.400000X0.150000X-0.400000X-0.150000X0.400000X-0.150000X0*%
%ADD79RoundRect,0.150000X-0.400000X-0.150000X0.400000X-0.150000X0.400000X0.150000X-0.400000X0.150000X0*%
%ADD80RoundRect,0.150000X-0.587500X-0.150000X0.587500X-0.150000X0.587500X0.150000X-0.587500X0.150000X0*%
%ADD81RoundRect,0.100000X-0.100000X0.637500X-0.100000X-0.637500X0.100000X-0.637500X0.100000X0.637500X0*%
%ADD82RoundRect,0.250000X0.375000X1.075000X-0.375000X1.075000X-0.375000X-1.075000X0.375000X-1.075000X0*%
G04 APERTURE END LIST*
D10*
%TO.C,U6*%
X94153800Y-91385199D02*
X93375800Y-91385199D01*
X93375800Y-90607199D01*
X94153800Y-90607199D01*
X94153800Y-91385199D01*
G36*
X94153800Y-91385199D02*
G01*
X93375800Y-91385199D01*
X93375800Y-90607199D01*
X94153800Y-90607199D01*
X94153800Y-91385199D01*
G37*
%TD*%
D11*
%TO.C,J11*%
X84458200Y-100155800D03*
X82458200Y-106955800D03*
X89458200Y-106955800D03*
%TD*%
D12*
%TO.C,C40*%
X124466100Y-97466200D03*
X124466100Y-98426200D03*
%TD*%
D13*
%TO.C,R19*%
X134763800Y-75878600D03*
X134763800Y-76898600D03*
%TD*%
D14*
%TO.C,R43*%
X211021200Y-87976883D03*
X212041200Y-87976883D03*
%TD*%
D15*
%TO.C,C28*%
X135170640Y-134425800D03*
X136130640Y-134425800D03*
%TD*%
D12*
%TO.C,C59*%
X91601600Y-126824800D03*
X91601600Y-127784800D03*
%TD*%
D16*
%TO.C,C37*%
X171649000Y-84806000D03*
X170689000Y-84806000D03*
%TD*%
D17*
%TO.C,J5*%
X212579200Y-111205090D03*
X212579200Y-110205090D03*
X212579200Y-109205090D03*
X212579200Y-108205090D03*
D18*
X216454200Y-112505090D03*
X216454200Y-106905090D03*
%TD*%
D19*
%TO.C,R7*%
X98808000Y-67304200D03*
X97788000Y-67304200D03*
%TD*%
%TO.C,R15*%
X97726803Y-91246199D03*
X96706803Y-91246199D03*
%TD*%
D13*
%TO.C,R31*%
X115576600Y-106680000D03*
X115576600Y-107700000D03*
%TD*%
D20*
%TO.C,R23*%
X121386600Y-136253000D03*
X121386600Y-135233000D03*
%TD*%
D19*
%TO.C,R34*%
X140337000Y-74345800D03*
X139317000Y-74345800D03*
%TD*%
D16*
%TO.C,C45*%
X127635000Y-101346000D03*
X126675000Y-101346000D03*
%TD*%
D21*
%TO.C,U13*%
X190867000Y-66268600D03*
X193167000Y-66268600D03*
D22*
X193167000Y-59968600D03*
D21*
X195467000Y-66268600D03*
%TD*%
D23*
%TO.C,C63*%
X201599800Y-82087600D03*
X201599800Y-83987600D03*
%TD*%
D15*
%TO.C,C36*%
X177489000Y-84806000D03*
X178449000Y-84806000D03*
%TD*%
D14*
%TO.C,R48*%
X198803800Y-82092800D03*
X199823800Y-82092800D03*
%TD*%
D24*
%TO.C,C10*%
X133718600Y-76898600D03*
X133718600Y-75938600D03*
%TD*%
D15*
%TO.C,C27*%
X146151360Y-134425800D03*
X147111360Y-134425800D03*
%TD*%
D25*
%TO.C,RN7*%
X160190598Y-58429400D03*
D26*
X159390598Y-58429400D03*
X158590598Y-58429400D03*
D25*
X157790598Y-58429400D03*
X157790598Y-60229400D03*
D26*
X158590598Y-60229400D03*
X159390598Y-60229400D03*
D25*
X160190598Y-60229400D03*
%TD*%
D19*
%TO.C,R6*%
X105188000Y-108585000D03*
X104168000Y-108585000D03*
%TD*%
D27*
%TO.C,Y2*%
X122546400Y-87773600D03*
X122546400Y-86373600D03*
%TD*%
D28*
%TO.C,U8*%
X181584600Y-68772200D03*
X182534600Y-68772200D03*
X183484600Y-68772200D03*
X183484600Y-66497200D03*
X181584600Y-66497200D03*
%TD*%
D14*
%TO.C,R16*%
X96706803Y-92252800D03*
X97726803Y-92252800D03*
%TD*%
D29*
%TO.C,C56*%
X85420200Y-117878800D03*
X85420200Y-116328800D03*
%TD*%
D30*
%TO.C,J7*%
X215335400Y-100420449D03*
X211435400Y-100420449D03*
X215335400Y-99150449D03*
X211435400Y-99150449D03*
X215335400Y-97880449D03*
X211435400Y-97880449D03*
X215335400Y-96610449D03*
X211435400Y-96610449D03*
X215335400Y-95340449D03*
X211435400Y-95340449D03*
X215335400Y-94070449D03*
X211435400Y-94070449D03*
X215335400Y-92800449D03*
X211435400Y-92800449D03*
%TD*%
D12*
%TO.C,C29*%
X169969000Y-102306000D03*
X169969000Y-103266000D03*
%TD*%
D19*
%TO.C,R9*%
X98808000Y-72804200D03*
X97788000Y-72804200D03*
%TD*%
D31*
%TO.C,D4*%
X183452100Y-61193620D03*
X181577100Y-61193620D03*
%TD*%
D32*
%TO.C,C54*%
X93167200Y-118237000D03*
X94717200Y-118237000D03*
%TD*%
D33*
%TO.C,U4*%
X108809900Y-88747200D03*
X108809900Y-90897200D03*
X110509900Y-88747200D03*
X110509900Y-90897200D03*
D34*
X105909900Y-87917200D03*
X105909900Y-89187200D03*
X105909900Y-90457200D03*
X105909900Y-91727200D03*
X113409900Y-91727200D03*
X113409900Y-90457200D03*
X113409900Y-89187200D03*
X113409900Y-87917200D03*
%TD*%
D15*
%TO.C,C8*%
X151488600Y-76898600D03*
X152448600Y-76898600D03*
%TD*%
D35*
%TO.C,D7*%
X182838600Y-122705100D03*
X184738600Y-122705100D03*
X183788600Y-120830100D03*
%TD*%
D36*
%TO.C,U2*%
X129793600Y-82823600D03*
X129793600Y-83323600D03*
X129793600Y-83823600D03*
X129793600Y-84323600D03*
X129793600Y-84823600D03*
X129793600Y-85323600D03*
X129793600Y-85823600D03*
X129793600Y-86323600D03*
X129793600Y-86823600D03*
X129793600Y-87323600D03*
X129793600Y-87823600D03*
X129793600Y-88323600D03*
X129793600Y-88823600D03*
X129793600Y-89323600D03*
X129793600Y-89823600D03*
X129793600Y-90323600D03*
X129793600Y-90823600D03*
X129793600Y-91323600D03*
X129793600Y-91823600D03*
X129793600Y-92323600D03*
X129793600Y-92823600D03*
X129793600Y-93323600D03*
X129793600Y-93823600D03*
X129793600Y-94323600D03*
X129793600Y-94823600D03*
X129793600Y-95323600D03*
X129793600Y-95823600D03*
X129793600Y-96323600D03*
X129793600Y-96823600D03*
X129793600Y-97323600D03*
X129793600Y-97823600D03*
X129793600Y-98323600D03*
X129793600Y-98823600D03*
X129793600Y-99323600D03*
X129793600Y-99823600D03*
X129793600Y-100323600D03*
X129793600Y-100823600D03*
X129793600Y-101323600D03*
X129793600Y-101823600D03*
X129793600Y-102323600D03*
X129793600Y-102823600D03*
X129793600Y-103323600D03*
X129793600Y-103823600D03*
X129793600Y-104323600D03*
D37*
X131718600Y-106248600D03*
X132218600Y-106248600D03*
X132718600Y-106248600D03*
X133218600Y-106248600D03*
X133718600Y-106248600D03*
X134218600Y-106248600D03*
X134718600Y-106248600D03*
X135218600Y-106248600D03*
X135718600Y-106248600D03*
X136218600Y-106248600D03*
X136718600Y-106248600D03*
X137218600Y-106248600D03*
X137718600Y-106248600D03*
X138218600Y-106248600D03*
X138718600Y-106248600D03*
X139218600Y-106248600D03*
X139718600Y-106248600D03*
X140218600Y-106248600D03*
X140718600Y-106248600D03*
X141218600Y-106248600D03*
X141718600Y-106248600D03*
X142218600Y-106248600D03*
X142718600Y-106248600D03*
X143218600Y-106248600D03*
X143718600Y-106248600D03*
X144218600Y-106248600D03*
X144718600Y-106248600D03*
X145218600Y-106248600D03*
X145718600Y-106248600D03*
X146218600Y-106248600D03*
X146718600Y-106248600D03*
X147218600Y-106248600D03*
X147718600Y-106248600D03*
X148218600Y-106248600D03*
X148718600Y-106248600D03*
X149218600Y-106248600D03*
X149718600Y-106248600D03*
X150218600Y-106248600D03*
X150718600Y-106248600D03*
X151218600Y-106248600D03*
X151718600Y-106248600D03*
X152218600Y-106248600D03*
X152718600Y-106248600D03*
X153218600Y-106248600D03*
D36*
X155143600Y-104323600D03*
X155143600Y-103823600D03*
X155143600Y-103323600D03*
X155143600Y-102823600D03*
X155143600Y-102323600D03*
X155143600Y-101823600D03*
X155143600Y-101323600D03*
X155143600Y-100823600D03*
X155143600Y-100323600D03*
X155143600Y-99823600D03*
X155143600Y-99323600D03*
X155143600Y-98823600D03*
X155143600Y-98323600D03*
X155143600Y-97823600D03*
X155143600Y-97323600D03*
X155143600Y-96823600D03*
X155143600Y-96323600D03*
X155143600Y-95823600D03*
X155143600Y-95323600D03*
X155143600Y-94823600D03*
X155143600Y-94323600D03*
X155143600Y-93823600D03*
X155143600Y-93323600D03*
X155143600Y-92823600D03*
X155143600Y-92323600D03*
X155143600Y-91823600D03*
X155143600Y-91323600D03*
X155143600Y-90823600D03*
X155143600Y-90323600D03*
X155143600Y-89823600D03*
X155143600Y-89323600D03*
X155143600Y-88823600D03*
X155143600Y-88323600D03*
X155143600Y-87823600D03*
X155143600Y-87323600D03*
X155143600Y-86823600D03*
X155143600Y-86323600D03*
X155143600Y-85823600D03*
X155143600Y-85323600D03*
X155143600Y-84823600D03*
X155143600Y-84323600D03*
X155143600Y-83823600D03*
X155143600Y-83323600D03*
X155143600Y-82823600D03*
D37*
X153218600Y-80898600D03*
X152718600Y-80898600D03*
X152218600Y-80898600D03*
X151718600Y-80898600D03*
X151218600Y-80898600D03*
X150718600Y-80898600D03*
X150218600Y-80898600D03*
X149718600Y-80898600D03*
X149218600Y-80898600D03*
X148718600Y-80898600D03*
X148218600Y-80898600D03*
X147718600Y-80898600D03*
X147218600Y-80898600D03*
X146718600Y-80898600D03*
X146218600Y-80898600D03*
X145718600Y-80898600D03*
X145218600Y-80898600D03*
X144718600Y-80898600D03*
X144218600Y-80898600D03*
X143718600Y-80898600D03*
X143218600Y-80898600D03*
X142718600Y-80898600D03*
X142218600Y-80898600D03*
X141718600Y-80898600D03*
X141218600Y-80898600D03*
X140718600Y-80898600D03*
X140218600Y-80898600D03*
X139718600Y-80898600D03*
X139218600Y-80898600D03*
X138718600Y-80898600D03*
X138218600Y-80898600D03*
X137718600Y-80898600D03*
X137218600Y-80898600D03*
X136718600Y-80898600D03*
X136218600Y-80898600D03*
X135718600Y-80898600D03*
X135218600Y-80898600D03*
X134718600Y-80898600D03*
X134218600Y-80898600D03*
X133718600Y-80898600D03*
X133218600Y-80898600D03*
X132718600Y-80898600D03*
X132218600Y-80898600D03*
X131718600Y-80898600D03*
%TD*%
D20*
%TO.C,R28*%
X121977100Y-57061200D03*
X121977100Y-56041200D03*
%TD*%
D38*
%TO.C,BT2*%
X199238600Y-132080000D03*
X182838600Y-132080000D03*
%TD*%
D13*
%TO.C,R46*%
X203555600Y-88636524D03*
X203555600Y-89656524D03*
%TD*%
D16*
%TO.C,C20*%
X112203000Y-105251200D03*
X111243000Y-105251200D03*
%TD*%
D19*
%TO.C,R8*%
X98808000Y-71699200D03*
X97788000Y-71699200D03*
%TD*%
D39*
%TO.C,R13*%
X208203800Y-54455700D03*
X208203800Y-52630700D03*
%TD*%
D40*
%TO.C,C44*%
X181584600Y-64439340D03*
X183484600Y-64439340D03*
%TD*%
D12*
%TO.C,C14*%
X158826200Y-83492400D03*
X158826200Y-84452400D03*
%TD*%
D20*
%TO.C,R25*%
X126977500Y-57061200D03*
X126977500Y-56041200D03*
%TD*%
D25*
%TO.C,RN5*%
X152756866Y-58429400D03*
D26*
X151956866Y-58429400D03*
X151156866Y-58429400D03*
D25*
X150356866Y-58429400D03*
X150356866Y-60229400D03*
D26*
X151156866Y-60229400D03*
X151956866Y-60229400D03*
D25*
X152756866Y-60229400D03*
%TD*%
D16*
%TO.C,C5*%
X145448600Y-110248600D03*
X144488600Y-110248600D03*
%TD*%
D32*
%TO.C,C23*%
X93014800Y-88138000D03*
X94564800Y-88138000D03*
%TD*%
D19*
%TO.C,R36*%
X161190400Y-55600600D03*
X160170400Y-55600600D03*
%TD*%
%TO.C,R14*%
X97726803Y-90246199D03*
X96706803Y-90246199D03*
%TD*%
D13*
%TO.C,R45*%
X202565000Y-88636524D03*
X202565000Y-89656524D03*
%TD*%
D12*
%TO.C,C15*%
X159143600Y-91593600D03*
X159143600Y-92553600D03*
%TD*%
D41*
%TO.C,U5*%
X129402800Y-55761200D03*
X129402800Y-56411200D03*
X129402800Y-57061200D03*
X131302800Y-57061200D03*
X131302800Y-55761200D03*
%TD*%
D42*
%TO.C,J6*%
X95364600Y-73904200D03*
X95364600Y-72804200D03*
X95364600Y-71704200D03*
X95364600Y-70604200D03*
X95364600Y-69504200D03*
X95364600Y-68404200D03*
X95364600Y-67304200D03*
X95364600Y-66204200D03*
X95364600Y-65104200D03*
D43*
X94364600Y-63954200D03*
D44*
X84764600Y-63954200D03*
D45*
X94364600Y-78554200D03*
D44*
X84764600Y-79454200D03*
%TD*%
D15*
%TO.C,C9*%
X150218600Y-108694400D03*
X151178600Y-108694400D03*
%TD*%
D46*
%TO.C,C51*%
X87127600Y-111521400D03*
X85227600Y-111521400D03*
%TD*%
D15*
%TO.C,C22*%
X115043000Y-87917200D03*
X116003000Y-87917200D03*
%TD*%
D29*
%TO.C,C67*%
X210261200Y-109205090D03*
X210261200Y-107655090D03*
%TD*%
D47*
%TO.C,D14*%
X201295000Y-88469024D03*
X201295000Y-89869024D03*
%TD*%
D15*
%TO.C,C18*%
X97818000Y-70604200D03*
X98778000Y-70604200D03*
%TD*%
D16*
%TO.C,C7*%
X140448600Y-110248600D03*
X139488600Y-110248600D03*
%TD*%
D24*
%TO.C,C39*%
X124466100Y-96676200D03*
X124466100Y-95716200D03*
%TD*%
D15*
%TO.C,C13*%
X144350800Y-76898600D03*
X145310800Y-76898600D03*
%TD*%
D19*
%TO.C,R35*%
X161190400Y-54381400D03*
X160170400Y-54381400D03*
%TD*%
%TO.C,R50*%
X120169400Y-128738800D03*
X119149400Y-128738800D03*
%TD*%
D15*
%TO.C,C12*%
X139988600Y-76898600D03*
X140948600Y-76898600D03*
%TD*%
D23*
%TO.C,C50*%
X93162600Y-121341000D03*
X93162600Y-123241000D03*
%TD*%
D48*
%TO.C,C46*%
X135283300Y-49936400D03*
X135283300Y-51486400D03*
%TD*%
D24*
%TO.C,C49*%
X128171300Y-57061200D03*
X128171300Y-56101200D03*
%TD*%
D14*
%TO.C,R29*%
X129842800Y-58343800D03*
X130862800Y-58343800D03*
%TD*%
D49*
%TO.C,SW3*%
X146151360Y-136254600D03*
X150301360Y-136254600D03*
X146151360Y-138404600D03*
X150301360Y-138404600D03*
%TD*%
D15*
%TO.C,C21*%
X115043000Y-95537200D03*
X116003000Y-95537200D03*
%TD*%
D19*
%TO.C,R33*%
X140337000Y-73380600D03*
X139317000Y-73380600D03*
%TD*%
D50*
%TO.C,J3*%
X211290000Y-65620000D03*
X211290000Y-64820000D03*
D51*
X211290000Y-63670000D03*
X211290000Y-62670000D03*
X211290000Y-62170000D03*
X211290000Y-61170000D03*
D50*
X211290000Y-59220000D03*
X211290000Y-60020000D03*
D51*
X211290000Y-60670000D03*
X211290000Y-61670000D03*
X211290000Y-63170000D03*
X211290000Y-64170000D03*
%TD*%
D52*
%TO.C,U9*%
X168369000Y-99306000D03*
X169169000Y-99306000D03*
X169969000Y-99306000D03*
X170769000Y-99306000D03*
X171569000Y-99306000D03*
X172369000Y-99306000D03*
X173169000Y-99306000D03*
X173969000Y-99306000D03*
X174769000Y-99306000D03*
X175569000Y-99306000D03*
X176369000Y-99306000D03*
X177169000Y-99306000D03*
X177969000Y-99306000D03*
X178769000Y-99306000D03*
X179569000Y-99306000D03*
X180369000Y-99306000D03*
X181169000Y-99306000D03*
X181969000Y-99306000D03*
X182769000Y-99306000D03*
X183569000Y-99306000D03*
X184369000Y-99306000D03*
X185169000Y-99306000D03*
X185969000Y-99306000D03*
X186769000Y-99306000D03*
X187569000Y-99306000D03*
X188369000Y-99306000D03*
X189169000Y-99306000D03*
X189169000Y-87806000D03*
X188369000Y-87806000D03*
X187569000Y-87806000D03*
X186769000Y-87806000D03*
X185969000Y-87806000D03*
X185169000Y-87806000D03*
X184369000Y-87806000D03*
X183569000Y-87806000D03*
X182769000Y-87806000D03*
X181969000Y-87806000D03*
X181169000Y-87806000D03*
X180369000Y-87806000D03*
X179569000Y-87806000D03*
X178769000Y-87806000D03*
X177969000Y-87806000D03*
X177169000Y-87806000D03*
X176369000Y-87806000D03*
X175569000Y-87806000D03*
X174769000Y-87806000D03*
X173969000Y-87806000D03*
X173169000Y-87806000D03*
X172369000Y-87806000D03*
X171569000Y-87806000D03*
X170769000Y-87806000D03*
X169969000Y-87806000D03*
X169169000Y-87806000D03*
X168369000Y-87806000D03*
%TD*%
D33*
%TO.C,U1*%
X108809900Y-96367200D03*
X108809900Y-98517200D03*
X110509900Y-96367200D03*
X110509900Y-98517200D03*
D34*
X105909900Y-95537200D03*
X105909900Y-96807200D03*
X105909900Y-98077200D03*
X105909900Y-99347200D03*
X113409900Y-99347200D03*
X113409900Y-98077200D03*
X113409900Y-96807200D03*
X113409900Y-95537200D03*
%TD*%
D48*
%TO.C,C58*%
X92837000Y-126824800D03*
X92837000Y-128374800D03*
%TD*%
D53*
%TO.C,D10*%
X203089800Y-103505000D03*
X205189800Y-103505000D03*
%TD*%
D54*
%TO.C,U7*%
X107253000Y-106680000D03*
X107253000Y-107950000D03*
X107253000Y-109220000D03*
X107253000Y-110490000D03*
X112203000Y-110490000D03*
X112203000Y-109220000D03*
X112203000Y-107950000D03*
X112203000Y-106680000D03*
%TD*%
D46*
%TO.C,C60*%
X202946000Y-57124600D03*
X201046000Y-57124600D03*
%TD*%
D55*
%TO.C,D11*%
X197900400Y-63869000D03*
X197900400Y-61769000D03*
%TD*%
D56*
%TO.C,D6*%
X126542800Y-134825500D03*
X126542800Y-136700500D03*
%TD*%
D57*
%TO.C,C26*%
X127635000Y-102590600D03*
X126085000Y-102590600D03*
%TD*%
D49*
%TO.C,SW1*%
X168112800Y-136254600D03*
X172262800Y-136254600D03*
X168112800Y-138404600D03*
X172262800Y-138404600D03*
%TD*%
D58*
%TO.C,Y1*%
X123195600Y-97946200D03*
X123195600Y-96196200D03*
X121795600Y-96196200D03*
X121795600Y-97946200D03*
%TD*%
D59*
%TO.C,J9*%
X213309200Y-125144731D03*
X213309200Y-123894731D03*
X213309200Y-122644731D03*
X213309200Y-121394731D03*
D60*
X216009200Y-127394731D03*
X216009200Y-119144731D03*
%TD*%
D61*
%TO.C,D9*%
X210639900Y-124241600D03*
X210639900Y-122341600D03*
X208764900Y-123291600D03*
%TD*%
D19*
%TO.C,R52*%
X127052800Y-128738800D03*
X126032800Y-128738800D03*
%TD*%
D40*
%TO.C,C53*%
X89342400Y-116906200D03*
X91242400Y-116906200D03*
%TD*%
D24*
%TO.C,C57*%
X86715600Y-117878800D03*
X86715600Y-116918800D03*
%TD*%
D49*
%TO.C,SW4*%
X135170640Y-136254600D03*
X139320640Y-136254600D03*
X135170640Y-138404600D03*
X139320640Y-138404600D03*
%TD*%
D14*
%TO.C,R12*%
X206550800Y-64160400D03*
X207570800Y-64160400D03*
%TD*%
D62*
%TO.C,R37*%
X88793800Y-114988000D03*
X88793800Y-113338000D03*
%TD*%
D20*
%TO.C,R17*%
X127482600Y-99214400D03*
X127482600Y-98194400D03*
%TD*%
D13*
%TO.C,R32*%
X114129800Y-106680000D03*
X114129800Y-107700000D03*
%TD*%
D20*
%TO.C,R26*%
X125063300Y-57061200D03*
X125063300Y-56041200D03*
%TD*%
D25*
%TO.C,RN6*%
X156473732Y-58429400D03*
D26*
X155673732Y-58429400D03*
X154873732Y-58429400D03*
D25*
X154073732Y-58429400D03*
X154073732Y-60229400D03*
D26*
X154873732Y-60229400D03*
X155673732Y-60229400D03*
D25*
X156473732Y-60229400D03*
%TD*%
D23*
%TO.C,C61*%
X195467000Y-68650800D03*
X195467000Y-70550800D03*
%TD*%
D13*
%TO.C,R41*%
X191575800Y-69090800D03*
X191575800Y-70110800D03*
%TD*%
D14*
%TO.C,R21*%
X182024600Y-62823980D03*
X183044600Y-62823980D03*
%TD*%
D25*
%TO.C,RN4*%
X149040000Y-58429400D03*
D26*
X148240000Y-58429400D03*
X147440000Y-58429400D03*
D25*
X146640000Y-58429400D03*
X146640000Y-60229400D03*
D26*
X147440000Y-60229400D03*
X148240000Y-60229400D03*
D25*
X149040000Y-60229400D03*
%TD*%
D13*
%TO.C,R44*%
X198999800Y-76274200D03*
X198999800Y-77294200D03*
%TD*%
D24*
%TO.C,C4*%
X125793600Y-94053600D03*
X125793600Y-93093600D03*
%TD*%
D63*
%TO.C,U6*%
X95199800Y-91746199D03*
X95199800Y-91246199D03*
X95199800Y-90746199D03*
X95199800Y-90246199D03*
D64*
X94514800Y-89561199D03*
X94014800Y-89561199D03*
X93514800Y-89561199D03*
X93014800Y-89561199D03*
D65*
X92329800Y-90246199D03*
X92329800Y-90746199D03*
X92329800Y-91246199D03*
X92329800Y-91746199D03*
D66*
X93014800Y-92431199D03*
X93514800Y-92431199D03*
X94014800Y-92431199D03*
X94514800Y-92431199D03*
%TD*%
D12*
%TO.C,C41*%
X123943400Y-87773600D03*
X123943400Y-88733600D03*
%TD*%
D14*
%TO.C,R20*%
X181584600Y-70320060D03*
X182604600Y-70320060D03*
%TD*%
D19*
%TO.C,R39*%
X202946000Y-58851800D03*
X201926000Y-58851800D03*
%TD*%
D20*
%TO.C,R1*%
X104296200Y-96557200D03*
X104296200Y-95537200D03*
%TD*%
D67*
%TO.C,J14*%
X183349200Y-53334374D03*
X182349200Y-53334374D03*
X181349200Y-53334374D03*
X180349200Y-53334374D03*
X179349200Y-53334374D03*
X178349200Y-53334374D03*
D68*
X186339200Y-50534374D03*
X175359200Y-50534374D03*
%TD*%
D12*
%TO.C,C25*%
X159143600Y-103093600D03*
X159143600Y-104053600D03*
%TD*%
D14*
%TO.C,R51*%
X126032800Y-127482600D03*
X127052800Y-127482600D03*
%TD*%
D57*
%TO.C,C19*%
X126124000Y-104140000D03*
X124574000Y-104140000D03*
%TD*%
D69*
%TO.C,D2*%
X206310800Y-62920000D03*
D70*
X208010800Y-62920000D03*
X208010800Y-60920000D03*
X206110800Y-60920000D03*
%TD*%
D31*
%TO.C,D15*%
X215465900Y-90316165D03*
X213590900Y-90316165D03*
%TD*%
%TO.C,D13*%
X215465900Y-87976883D03*
X213590900Y-87976883D03*
%TD*%
D57*
%TO.C,C64*%
X139052600Y-54051200D03*
X137502600Y-54051200D03*
%TD*%
D12*
%TO.C,C68*%
X90301600Y-126824800D03*
X90301600Y-127784800D03*
%TD*%
D71*
%TO.C,D8*%
X131980300Y-49936400D03*
X128680300Y-49936400D03*
%TD*%
D56*
%TO.C,D12*%
X189747000Y-68683300D03*
X189747000Y-70558300D03*
%TD*%
D16*
%TO.C,C6*%
X133948600Y-110248600D03*
X132988600Y-110248600D03*
%TD*%
D72*
%TO.C,Q3*%
X127405300Y-130507500D03*
X125505300Y-130507500D03*
X126455300Y-132382500D03*
%TD*%
D73*
%TO.C,J2*%
X158594000Y-51938000D03*
X158094000Y-51938000D03*
X157594000Y-51938000D03*
X157094000Y-51938000D03*
X156594000Y-51938000D03*
X156094000Y-51938000D03*
X155594000Y-51938000D03*
X155094000Y-51938000D03*
X154594000Y-51938000D03*
X154094000Y-51938000D03*
X153594000Y-51938000D03*
X153094000Y-51938000D03*
X152594000Y-51938000D03*
X152094000Y-51938000D03*
X151594000Y-51938000D03*
X151094000Y-51938000D03*
X150594000Y-51938000D03*
X150094000Y-51938000D03*
X149594000Y-51938000D03*
X149094000Y-51938000D03*
X148594000Y-51938000D03*
X148094000Y-51938000D03*
X147594000Y-51938000D03*
X147094000Y-51938000D03*
X146594000Y-51938000D03*
X146094000Y-51938000D03*
X145594000Y-51938000D03*
X145094000Y-51938000D03*
X144594000Y-51938000D03*
X144094000Y-51938000D03*
X143594000Y-51938000D03*
X143094000Y-51938000D03*
X142594000Y-51938000D03*
X142094000Y-51938000D03*
X141594000Y-51938000D03*
X141094000Y-51938000D03*
X140594000Y-51938000D03*
X140094000Y-51938000D03*
X139594000Y-51938000D03*
X139094000Y-51938000D03*
D74*
X160244000Y-48038000D03*
X137444000Y-48038000D03*
%TD*%
D75*
%TO.C,J4*%
X101111700Y-52634374D03*
X102111700Y-52634374D03*
X103111700Y-52634374D03*
X104111700Y-52634374D03*
X105111700Y-52634374D03*
X106111700Y-52634374D03*
X107111700Y-52634374D03*
X108111700Y-52634374D03*
X109111700Y-52634374D03*
X110111700Y-52634374D03*
X111111700Y-52634374D03*
X112111700Y-52634374D03*
X113111700Y-52634374D03*
X114111700Y-52634374D03*
D76*
X98911700Y-50034374D03*
X116311700Y-50034374D03*
%TD*%
D12*
%TO.C,C38*%
X168369000Y-102306000D03*
X168369000Y-103266000D03*
%TD*%
D48*
%TO.C,C47*%
X133733900Y-49936400D03*
X133733900Y-51486400D03*
%TD*%
D20*
%TO.C,R27*%
X123520200Y-57061200D03*
X123520200Y-56041200D03*
%TD*%
D32*
%TO.C,C66*%
X100850400Y-55829200D03*
X102400400Y-55829200D03*
%TD*%
%TO.C,C65*%
X181349200Y-56057800D03*
X182899200Y-56057800D03*
%TD*%
D15*
%TO.C,C24*%
X168112800Y-134425800D03*
X169072800Y-134425800D03*
%TD*%
D19*
%TO.C,R5*%
X105188000Y-106680000D03*
X104168000Y-106680000D03*
%TD*%
%TO.C,R11*%
X207483300Y-59715400D03*
X206463300Y-59715400D03*
%TD*%
D24*
%TO.C,C11*%
X125793600Y-85323600D03*
X125793600Y-84363600D03*
%TD*%
D14*
%TO.C,R18*%
X157132080Y-134425800D03*
X158152080Y-134425800D03*
%TD*%
D40*
%TO.C,C30*%
X181584600Y-71935420D03*
X183484600Y-71935420D03*
%TD*%
D14*
%TO.C,R47*%
X211021200Y-90316166D03*
X212041200Y-90316166D03*
%TD*%
D77*
%TO.C,C43*%
X205867000Y-54455700D03*
X205867000Y-51505700D03*
%TD*%
D25*
%TO.C,RN2*%
X137889402Y-58429400D03*
D26*
X137089402Y-58429400D03*
X136289402Y-58429400D03*
D25*
X135489402Y-58429400D03*
X135489402Y-60229400D03*
D26*
X136289402Y-60229400D03*
X137089402Y-60229400D03*
D25*
X137889402Y-60229400D03*
%TD*%
D62*
%TO.C,R38*%
X87199400Y-114988000D03*
X87199400Y-113338000D03*
%TD*%
D29*
%TO.C,C34*%
X160083600Y-84620400D03*
X160083600Y-83070400D03*
%TD*%
D24*
%TO.C,C42*%
X123943400Y-86373600D03*
X123943400Y-85413600D03*
%TD*%
D16*
%TO.C,C2*%
X178449000Y-102306000D03*
X177489000Y-102306000D03*
%TD*%
D15*
%TO.C,C55*%
X93167200Y-119420800D03*
X94127200Y-119420800D03*
%TD*%
D59*
%TO.C,J8*%
X84862200Y-89851799D03*
X84862200Y-91101799D03*
D60*
X82162200Y-87601799D03*
X82162200Y-93351799D03*
%TD*%
D78*
%TO.C,U12*%
X201599800Y-80528200D03*
X201599800Y-79578200D03*
X201599800Y-78628200D03*
D79*
X198999800Y-78628200D03*
X198999800Y-80528200D03*
%TD*%
D12*
%TO.C,C1*%
X189169000Y-102306000D03*
X189169000Y-103266000D03*
%TD*%
D80*
%TO.C,Q1*%
X205310500Y-88284024D03*
X205310500Y-90184024D03*
X207185500Y-89234024D03*
%TD*%
D13*
%TO.C,R42*%
X201599800Y-76274200D03*
X201599800Y-77294200D03*
%TD*%
D24*
%TO.C,C17*%
X125793600Y-90053600D03*
X125793600Y-89093600D03*
%TD*%
D12*
%TO.C,C16*%
X159143600Y-97323600D03*
X159143600Y-98283600D03*
%TD*%
D72*
%TO.C,Q2*%
X120521900Y-130507500D03*
X118621900Y-130507500D03*
X119571900Y-132382500D03*
%TD*%
D20*
%TO.C,R24*%
X128346200Y-136253000D03*
X128346200Y-135233000D03*
%TD*%
D81*
%TO.C,U10*%
X91601600Y-119420800D03*
X90951600Y-119420800D03*
X90301600Y-119420800D03*
X89651600Y-119420800D03*
X89001600Y-119420800D03*
X88351600Y-119420800D03*
X87701600Y-119420800D03*
X87051600Y-119420800D03*
X86401600Y-119420800D03*
X85751600Y-119420800D03*
X85751600Y-125145800D03*
X86401600Y-125145800D03*
X87051600Y-125145800D03*
X87701600Y-125145800D03*
X88351600Y-125145800D03*
X89001600Y-125145800D03*
X89651600Y-125145800D03*
X90301600Y-125145800D03*
X90951600Y-125145800D03*
X91601600Y-125145800D03*
%TD*%
D82*
%TO.C,L2*%
X131752800Y-53162200D03*
X128952800Y-53162200D03*
%TD*%
D40*
%TO.C,C52*%
X88834400Y-111496000D03*
X90734400Y-111496000D03*
%TD*%
D56*
%TO.C,D5*%
X119659400Y-134825500D03*
X119659400Y-136700500D03*
%TD*%
D20*
%TO.C,R2*%
X104296200Y-88937200D03*
X104296200Y-87917200D03*
%TD*%
D19*
%TO.C,R10*%
X98808000Y-65104200D03*
X97788000Y-65104200D03*
%TD*%
D25*
%TO.C,RN3*%
X145323134Y-58429400D03*
D26*
X144523134Y-58429400D03*
X143723134Y-58429400D03*
D25*
X142923134Y-58429400D03*
X142923134Y-60229400D03*
D26*
X143723134Y-60229400D03*
X144523134Y-60229400D03*
D25*
X145323134Y-60229400D03*
%TD*%
D32*
%TO.C,C35*%
X150218600Y-109987600D03*
X151768600Y-109987600D03*
%TD*%
D14*
%TO.C,R49*%
X119149400Y-127482600D03*
X120169400Y-127482600D03*
%TD*%
D49*
%TO.C,SW2*%
X157132080Y-136254600D03*
X161282080Y-136254600D03*
X157132080Y-138404600D03*
X161282080Y-138404600D03*
%TD*%
D32*
%TO.C,C48*%
X132781100Y-55761200D03*
X134331100Y-55761200D03*
%TD*%
D23*
%TO.C,C62*%
X193167000Y-68650800D03*
X193167000Y-70550800D03*
%TD*%
D25*
%TO.C,RN1*%
X141606268Y-58429400D03*
D26*
X140806268Y-58429400D03*
X140006268Y-58429400D03*
D25*
X139206268Y-58429400D03*
X139206268Y-60229400D03*
D26*
X140006268Y-60229400D03*
X140806268Y-60229400D03*
D25*
X141606268Y-60229400D03*
%TD*%
D16*
%TO.C,C3*%
X174049000Y-102306000D03*
X173089000Y-102306000D03*
%TD*%
D19*
%TO.C,R30*%
X105188000Y-110490000D03*
X104168000Y-110490000D03*
%TD*%
M02*
