%TF.GenerationSoftware,KiCad,Pcbnew,8.0.2*%
%TF.CreationDate,2024-07-19T10:45:18+07:00*%
%TF.ProjectId,chroma-pixel-zeta,6368726f-6d61-42d7-9069-78656c2d7a65,rev?*%
%TF.SameCoordinates,Original*%
%TF.FileFunction,Soldermask,Bot*%
%TF.FilePolarity,Negative*%
%FSLAX46Y46*%
G04 Gerber Fmt 4.6, Leading zero omitted, Abs format (unit mm)*
G04 Created by KiCad (PCBNEW 8.0.2) date 2024-07-19 10:45:18*
%MOMM*%
%LPD*%
G01*
G04 APERTURE LIST*
%ADD10C,0.010000*%
%ADD11C,1.200000*%
%ADD12C,0.800000*%
%ADD13C,6.400000*%
%ADD14R,1.500000X1.600000*%
%ADD15C,1.600000*%
%ADD16C,3.000000*%
%ADD17C,1.050000*%
%ADD18C,1.300000*%
%ADD19C,1.100000*%
G04 APERTURE END LIST*
D10*
%TO.C,J3*%
X213103000Y-67443000D02*
X213165000Y-67453000D01*
X213225000Y-67469000D01*
X213284000Y-67492000D01*
X213340000Y-67520000D01*
X213393000Y-67555000D01*
X213441000Y-67594000D01*
X213486000Y-67639000D01*
X213525000Y-67687000D01*
X213560000Y-67740000D01*
X213588000Y-67796000D01*
X213611000Y-67855000D01*
X213627000Y-67915000D01*
X213637000Y-67977000D01*
X213640000Y-68040000D01*
X213637000Y-68103000D01*
X213627000Y-68165000D01*
X213611000Y-68225000D01*
X213588000Y-68284000D01*
X213560000Y-68340000D01*
X213525000Y-68393000D01*
X213486000Y-68441000D01*
X213441000Y-68486000D01*
X213393000Y-68525000D01*
X213340000Y-68560000D01*
X213284000Y-68588000D01*
X213225000Y-68611000D01*
X213165000Y-68627000D01*
X213103000Y-68637000D01*
X213040000Y-68640000D01*
X212240000Y-68640000D01*
X212177000Y-68637000D01*
X212115000Y-68627000D01*
X212055000Y-68611000D01*
X211996000Y-68588000D01*
X211940000Y-68560000D01*
X211887000Y-68525000D01*
X211839000Y-68486000D01*
X211794000Y-68441000D01*
X211755000Y-68393000D01*
X211720000Y-68340000D01*
X211692000Y-68284000D01*
X211669000Y-68225000D01*
X211653000Y-68165000D01*
X211643000Y-68103000D01*
X211640000Y-68040000D01*
X211643000Y-67977000D01*
X211653000Y-67915000D01*
X211669000Y-67855000D01*
X211692000Y-67796000D01*
X211720000Y-67740000D01*
X211755000Y-67687000D01*
X211794000Y-67639000D01*
X211839000Y-67594000D01*
X211887000Y-67555000D01*
X211940000Y-67520000D01*
X211996000Y-67492000D01*
X212055000Y-67469000D01*
X212115000Y-67453000D01*
X212177000Y-67443000D01*
X212240000Y-67440000D01*
X213040000Y-67440000D01*
X213103000Y-67443000D01*
G36*
X213103000Y-67443000D02*
G01*
X213165000Y-67453000D01*
X213225000Y-67469000D01*
X213284000Y-67492000D01*
X213340000Y-67520000D01*
X213393000Y-67555000D01*
X213441000Y-67594000D01*
X213486000Y-67639000D01*
X213525000Y-67687000D01*
X213560000Y-67740000D01*
X213588000Y-67796000D01*
X213611000Y-67855000D01*
X213627000Y-67915000D01*
X213637000Y-67977000D01*
X213640000Y-68040000D01*
X213637000Y-68103000D01*
X213627000Y-68165000D01*
X213611000Y-68225000D01*
X213588000Y-68284000D01*
X213560000Y-68340000D01*
X213525000Y-68393000D01*
X213486000Y-68441000D01*
X213441000Y-68486000D01*
X213393000Y-68525000D01*
X213340000Y-68560000D01*
X213284000Y-68588000D01*
X213225000Y-68611000D01*
X213165000Y-68627000D01*
X213103000Y-68637000D01*
X213040000Y-68640000D01*
X212240000Y-68640000D01*
X212177000Y-68637000D01*
X212115000Y-68627000D01*
X212055000Y-68611000D01*
X211996000Y-68588000D01*
X211940000Y-68560000D01*
X211887000Y-68525000D01*
X211839000Y-68486000D01*
X211794000Y-68441000D01*
X211755000Y-68393000D01*
X211720000Y-68340000D01*
X211692000Y-68284000D01*
X211669000Y-68225000D01*
X211653000Y-68165000D01*
X211643000Y-68103000D01*
X211640000Y-68040000D01*
X211643000Y-67977000D01*
X211653000Y-67915000D01*
X211669000Y-67855000D01*
X211692000Y-67796000D01*
X211720000Y-67740000D01*
X211755000Y-67687000D01*
X211794000Y-67639000D01*
X211839000Y-67594000D01*
X211887000Y-67555000D01*
X211940000Y-67520000D01*
X211996000Y-67492000D01*
X212055000Y-67469000D01*
X212115000Y-67453000D01*
X212177000Y-67443000D01*
X212240000Y-67440000D01*
X213040000Y-67440000D01*
X213103000Y-67443000D01*
G37*
X213103000Y-56203000D02*
X213165000Y-56213000D01*
X213225000Y-56229000D01*
X213284000Y-56252000D01*
X213340000Y-56280000D01*
X213393000Y-56315000D01*
X213441000Y-56354000D01*
X213486000Y-56399000D01*
X213525000Y-56447000D01*
X213560000Y-56500000D01*
X213588000Y-56556000D01*
X213611000Y-56615000D01*
X213627000Y-56675000D01*
X213637000Y-56737000D01*
X213640000Y-56800000D01*
X213637000Y-56863000D01*
X213627000Y-56925000D01*
X213611000Y-56985000D01*
X213588000Y-57044000D01*
X213560000Y-57100000D01*
X213525000Y-57153000D01*
X213486000Y-57201000D01*
X213441000Y-57246000D01*
X213393000Y-57285000D01*
X213340000Y-57320000D01*
X213284000Y-57348000D01*
X213225000Y-57371000D01*
X213165000Y-57387000D01*
X213103000Y-57397000D01*
X213040000Y-57400000D01*
X212240000Y-57400000D01*
X212177000Y-57397000D01*
X212115000Y-57387000D01*
X212055000Y-57371000D01*
X211996000Y-57348000D01*
X211940000Y-57320000D01*
X211887000Y-57285000D01*
X211839000Y-57246000D01*
X211794000Y-57201000D01*
X211755000Y-57153000D01*
X211720000Y-57100000D01*
X211692000Y-57044000D01*
X211669000Y-56985000D01*
X211653000Y-56925000D01*
X211643000Y-56863000D01*
X211640000Y-56800000D01*
X211643000Y-56737000D01*
X211653000Y-56675000D01*
X211669000Y-56615000D01*
X211692000Y-56556000D01*
X211720000Y-56500000D01*
X211755000Y-56447000D01*
X211794000Y-56399000D01*
X211839000Y-56354000D01*
X211887000Y-56315000D01*
X211940000Y-56280000D01*
X211996000Y-56252000D01*
X212055000Y-56229000D01*
X212115000Y-56213000D01*
X212177000Y-56203000D01*
X212240000Y-56200000D01*
X213040000Y-56200000D01*
X213103000Y-56203000D01*
G36*
X213103000Y-56203000D02*
G01*
X213165000Y-56213000D01*
X213225000Y-56229000D01*
X213284000Y-56252000D01*
X213340000Y-56280000D01*
X213393000Y-56315000D01*
X213441000Y-56354000D01*
X213486000Y-56399000D01*
X213525000Y-56447000D01*
X213560000Y-56500000D01*
X213588000Y-56556000D01*
X213611000Y-56615000D01*
X213627000Y-56675000D01*
X213637000Y-56737000D01*
X213640000Y-56800000D01*
X213637000Y-56863000D01*
X213627000Y-56925000D01*
X213611000Y-56985000D01*
X213588000Y-57044000D01*
X213560000Y-57100000D01*
X213525000Y-57153000D01*
X213486000Y-57201000D01*
X213441000Y-57246000D01*
X213393000Y-57285000D01*
X213340000Y-57320000D01*
X213284000Y-57348000D01*
X213225000Y-57371000D01*
X213165000Y-57387000D01*
X213103000Y-57397000D01*
X213040000Y-57400000D01*
X212240000Y-57400000D01*
X212177000Y-57397000D01*
X212115000Y-57387000D01*
X212055000Y-57371000D01*
X211996000Y-57348000D01*
X211940000Y-57320000D01*
X211887000Y-57285000D01*
X211839000Y-57246000D01*
X211794000Y-57201000D01*
X211755000Y-57153000D01*
X211720000Y-57100000D01*
X211692000Y-57044000D01*
X211669000Y-56985000D01*
X211653000Y-56925000D01*
X211643000Y-56863000D01*
X211640000Y-56800000D01*
X211643000Y-56737000D01*
X211653000Y-56675000D01*
X211669000Y-56615000D01*
X211692000Y-56556000D01*
X211720000Y-56500000D01*
X211755000Y-56447000D01*
X211794000Y-56399000D01*
X211839000Y-56354000D01*
X211887000Y-56315000D01*
X211940000Y-56280000D01*
X211996000Y-56252000D01*
X212055000Y-56229000D01*
X212115000Y-56213000D01*
X212177000Y-56203000D01*
X212240000Y-56200000D01*
X213040000Y-56200000D01*
X213103000Y-56203000D01*
G37*
X217303000Y-56203000D02*
X217365000Y-56213000D01*
X217425000Y-56229000D01*
X217484000Y-56252000D01*
X217540000Y-56280000D01*
X217593000Y-56315000D01*
X217641000Y-56354000D01*
X217686000Y-56399000D01*
X217725000Y-56447000D01*
X217760000Y-56500000D01*
X217788000Y-56556000D01*
X217811000Y-56615000D01*
X217827000Y-56675000D01*
X217837000Y-56737000D01*
X217840000Y-56800000D01*
X217837000Y-56863000D01*
X217827000Y-56925000D01*
X217811000Y-56985000D01*
X217788000Y-57044000D01*
X217760000Y-57100000D01*
X217725000Y-57153000D01*
X217686000Y-57201000D01*
X217641000Y-57246000D01*
X217593000Y-57285000D01*
X217540000Y-57320000D01*
X217484000Y-57348000D01*
X217425000Y-57371000D01*
X217365000Y-57387000D01*
X217303000Y-57397000D01*
X217240000Y-57400000D01*
X216040000Y-57400000D01*
X215977000Y-57397000D01*
X215915000Y-57387000D01*
X215855000Y-57371000D01*
X215796000Y-57348000D01*
X215740000Y-57320000D01*
X215687000Y-57285000D01*
X215639000Y-57246000D01*
X215594000Y-57201000D01*
X215555000Y-57153000D01*
X215520000Y-57100000D01*
X215492000Y-57044000D01*
X215469000Y-56985000D01*
X215453000Y-56925000D01*
X215443000Y-56863000D01*
X215440000Y-56800000D01*
X215443000Y-56737000D01*
X215453000Y-56675000D01*
X215469000Y-56615000D01*
X215492000Y-56556000D01*
X215520000Y-56500000D01*
X215555000Y-56447000D01*
X215594000Y-56399000D01*
X215639000Y-56354000D01*
X215687000Y-56315000D01*
X215740000Y-56280000D01*
X215796000Y-56252000D01*
X215855000Y-56229000D01*
X215915000Y-56213000D01*
X215977000Y-56203000D01*
X216040000Y-56200000D01*
X217240000Y-56200000D01*
X217303000Y-56203000D01*
G36*
X217303000Y-56203000D02*
G01*
X217365000Y-56213000D01*
X217425000Y-56229000D01*
X217484000Y-56252000D01*
X217540000Y-56280000D01*
X217593000Y-56315000D01*
X217641000Y-56354000D01*
X217686000Y-56399000D01*
X217725000Y-56447000D01*
X217760000Y-56500000D01*
X217788000Y-56556000D01*
X217811000Y-56615000D01*
X217827000Y-56675000D01*
X217837000Y-56737000D01*
X217840000Y-56800000D01*
X217837000Y-56863000D01*
X217827000Y-56925000D01*
X217811000Y-56985000D01*
X217788000Y-57044000D01*
X217760000Y-57100000D01*
X217725000Y-57153000D01*
X217686000Y-57201000D01*
X217641000Y-57246000D01*
X217593000Y-57285000D01*
X217540000Y-57320000D01*
X217484000Y-57348000D01*
X217425000Y-57371000D01*
X217365000Y-57387000D01*
X217303000Y-57397000D01*
X217240000Y-57400000D01*
X216040000Y-57400000D01*
X215977000Y-57397000D01*
X215915000Y-57387000D01*
X215855000Y-57371000D01*
X215796000Y-57348000D01*
X215740000Y-57320000D01*
X215687000Y-57285000D01*
X215639000Y-57246000D01*
X215594000Y-57201000D01*
X215555000Y-57153000D01*
X215520000Y-57100000D01*
X215492000Y-57044000D01*
X215469000Y-56985000D01*
X215453000Y-56925000D01*
X215443000Y-56863000D01*
X215440000Y-56800000D01*
X215443000Y-56737000D01*
X215453000Y-56675000D01*
X215469000Y-56615000D01*
X215492000Y-56556000D01*
X215520000Y-56500000D01*
X215555000Y-56447000D01*
X215594000Y-56399000D01*
X215639000Y-56354000D01*
X215687000Y-56315000D01*
X215740000Y-56280000D01*
X215796000Y-56252000D01*
X215855000Y-56229000D01*
X215915000Y-56213000D01*
X215977000Y-56203000D01*
X216040000Y-56200000D01*
X217240000Y-56200000D01*
X217303000Y-56203000D01*
G37*
X217303000Y-67443000D02*
X217365000Y-67453000D01*
X217425000Y-67469000D01*
X217484000Y-67492000D01*
X217540000Y-67520000D01*
X217593000Y-67555000D01*
X217641000Y-67594000D01*
X217686000Y-67639000D01*
X217725000Y-67687000D01*
X217760000Y-67740000D01*
X217788000Y-67796000D01*
X217811000Y-67855000D01*
X217827000Y-67915000D01*
X217837000Y-67977000D01*
X217840000Y-68040000D01*
X217837000Y-68103000D01*
X217827000Y-68165000D01*
X217811000Y-68225000D01*
X217788000Y-68284000D01*
X217760000Y-68340000D01*
X217725000Y-68393000D01*
X217686000Y-68441000D01*
X217641000Y-68486000D01*
X217593000Y-68525000D01*
X217540000Y-68560000D01*
X217484000Y-68588000D01*
X217425000Y-68611000D01*
X217365000Y-68627000D01*
X217303000Y-68637000D01*
X217240000Y-68640000D01*
X216040000Y-68640000D01*
X215977000Y-68637000D01*
X215915000Y-68627000D01*
X215855000Y-68611000D01*
X215796000Y-68588000D01*
X215740000Y-68560000D01*
X215687000Y-68525000D01*
X215639000Y-68486000D01*
X215594000Y-68441000D01*
X215555000Y-68393000D01*
X215520000Y-68340000D01*
X215492000Y-68284000D01*
X215469000Y-68225000D01*
X215453000Y-68165000D01*
X215443000Y-68103000D01*
X215440000Y-68040000D01*
X215443000Y-67977000D01*
X215453000Y-67915000D01*
X215469000Y-67855000D01*
X215492000Y-67796000D01*
X215520000Y-67740000D01*
X215555000Y-67687000D01*
X215594000Y-67639000D01*
X215639000Y-67594000D01*
X215687000Y-67555000D01*
X215740000Y-67520000D01*
X215796000Y-67492000D01*
X215855000Y-67469000D01*
X215915000Y-67453000D01*
X215977000Y-67443000D01*
X216040000Y-67440000D01*
X217240000Y-67440000D01*
X217303000Y-67443000D01*
G36*
X217303000Y-67443000D02*
G01*
X217365000Y-67453000D01*
X217425000Y-67469000D01*
X217484000Y-67492000D01*
X217540000Y-67520000D01*
X217593000Y-67555000D01*
X217641000Y-67594000D01*
X217686000Y-67639000D01*
X217725000Y-67687000D01*
X217760000Y-67740000D01*
X217788000Y-67796000D01*
X217811000Y-67855000D01*
X217827000Y-67915000D01*
X217837000Y-67977000D01*
X217840000Y-68040000D01*
X217837000Y-68103000D01*
X217827000Y-68165000D01*
X217811000Y-68225000D01*
X217788000Y-68284000D01*
X217760000Y-68340000D01*
X217725000Y-68393000D01*
X217686000Y-68441000D01*
X217641000Y-68486000D01*
X217593000Y-68525000D01*
X217540000Y-68560000D01*
X217484000Y-68588000D01*
X217425000Y-68611000D01*
X217365000Y-68627000D01*
X217303000Y-68637000D01*
X217240000Y-68640000D01*
X216040000Y-68640000D01*
X215977000Y-68637000D01*
X215915000Y-68627000D01*
X215855000Y-68611000D01*
X215796000Y-68588000D01*
X215740000Y-68560000D01*
X215687000Y-68525000D01*
X215639000Y-68486000D01*
X215594000Y-68441000D01*
X215555000Y-68393000D01*
X215520000Y-68340000D01*
X215492000Y-68284000D01*
X215469000Y-68225000D01*
X215453000Y-68165000D01*
X215443000Y-68103000D01*
X215440000Y-68040000D01*
X215443000Y-67977000D01*
X215453000Y-67915000D01*
X215469000Y-67855000D01*
X215492000Y-67796000D01*
X215520000Y-67740000D01*
X215555000Y-67687000D01*
X215594000Y-67639000D01*
X215639000Y-67594000D01*
X215687000Y-67555000D01*
X215740000Y-67520000D01*
X215796000Y-67492000D01*
X215855000Y-67469000D01*
X215915000Y-67453000D01*
X215977000Y-67443000D01*
X216040000Y-67440000D01*
X217240000Y-67440000D01*
X217303000Y-67443000D01*
G37*
%TD*%
D11*
%TO.C,J11*%
X82458200Y-103555800D03*
X88458200Y-103555800D03*
%TD*%
D12*
%TO.C,H3*%
X86249200Y-50634374D03*
X85546256Y-52331430D03*
X85546256Y-48937318D03*
X83849200Y-53034374D03*
D13*
X83849200Y-50634374D03*
D12*
X83849200Y-48234374D03*
X82152144Y-52331430D03*
X82152144Y-48937318D03*
X81449200Y-50634374D03*
%TD*%
%TO.C,H4*%
X83849200Y-134234374D03*
X85546256Y-134937318D03*
X82152144Y-134937318D03*
X86249200Y-136634374D03*
D13*
X83849200Y-136634374D03*
D12*
X81449200Y-136634374D03*
X85546256Y-138331430D03*
X82152144Y-138331430D03*
X83849200Y-139034374D03*
%TD*%
D14*
%TO.C,J12*%
X205764800Y-82087600D03*
D15*
X205764800Y-79587600D03*
X205764800Y-77587600D03*
X205764800Y-75087600D03*
D16*
X208474800Y-85157600D03*
X208474800Y-72017600D03*
%TD*%
D17*
%TO.C,BT2*%
X194538600Y-132080000D03*
D18*
X187088600Y-132080000D03*
%TD*%
D19*
%TO.C,J6*%
X84364600Y-66754200D03*
X84364600Y-74754200D03*
%TD*%
D12*
%TO.C,H1*%
X212249200Y-136634374D03*
X212952144Y-134937318D03*
X212952144Y-138331430D03*
X214649200Y-134234374D03*
D13*
X214649200Y-136634374D03*
D12*
X214649200Y-139034374D03*
X216346256Y-134937318D03*
X216346256Y-138331430D03*
X217049200Y-136634374D03*
%TD*%
%TO.C,H2*%
X212249200Y-50634374D03*
X212952144Y-48937318D03*
X212952144Y-52331430D03*
X214649200Y-48234374D03*
D13*
X214649200Y-50634374D03*
D12*
X214649200Y-53034374D03*
X216346256Y-48937318D03*
X216346256Y-52331430D03*
X217049200Y-50634374D03*
%TD*%
M02*
