%TF.GenerationSoftware,KiCad,Pcbnew,8.0.2*%
%TF.CreationDate,2024-07-19T10:45:18+07:00*%
%TF.ProjectId,chroma-pixel-zeta,6368726f-6d61-42d7-9069-78656c2d7a65,rev?*%
%TF.SameCoordinates,Original*%
%TF.FileFunction,Legend,Bot*%
%TF.FilePolarity,Positive*%
%FSLAX46Y46*%
G04 Gerber Fmt 4.6, Leading zero omitted, Abs format (unit mm)*
G04 Created by KiCad (PCBNEW 8.0.2) date 2024-07-19 10:45:18*
%MOMM*%
%LPD*%
G01*
G04 APERTURE LIST*
%ADD10C,0.250000*%
G04 APERTURE END LIST*
D10*
X217677059Y-110958933D02*
X217534202Y-111006552D01*
X217534202Y-111006552D02*
X217296107Y-111006552D01*
X217296107Y-111006552D02*
X217200869Y-110958933D01*
X217200869Y-110958933D02*
X217153250Y-110911313D01*
X217153250Y-110911313D02*
X217105631Y-110816075D01*
X217105631Y-110816075D02*
X217105631Y-110720837D01*
X217105631Y-110720837D02*
X217153250Y-110625599D01*
X217153250Y-110625599D02*
X217200869Y-110577980D01*
X217200869Y-110577980D02*
X217296107Y-110530361D01*
X217296107Y-110530361D02*
X217486583Y-110482742D01*
X217486583Y-110482742D02*
X217581821Y-110435123D01*
X217581821Y-110435123D02*
X217629440Y-110387504D01*
X217629440Y-110387504D02*
X217677059Y-110292266D01*
X217677059Y-110292266D02*
X217677059Y-110197028D01*
X217677059Y-110197028D02*
X217629440Y-110101790D01*
X217629440Y-110101790D02*
X217581821Y-110054171D01*
X217581821Y-110054171D02*
X217486583Y-110006552D01*
X217486583Y-110006552D02*
X217248488Y-110006552D01*
X217248488Y-110006552D02*
X217105631Y-110054171D01*
X216677059Y-111006552D02*
X216677059Y-110006552D01*
X216677059Y-110006552D02*
X216438964Y-110006552D01*
X216438964Y-110006552D02*
X216296107Y-110054171D01*
X216296107Y-110054171D02*
X216200869Y-110149409D01*
X216200869Y-110149409D02*
X216153250Y-110244647D01*
X216153250Y-110244647D02*
X216105631Y-110435123D01*
X216105631Y-110435123D02*
X216105631Y-110577980D01*
X216105631Y-110577980D02*
X216153250Y-110768456D01*
X216153250Y-110768456D02*
X216200869Y-110863694D01*
X216200869Y-110863694D02*
X216296107Y-110958933D01*
X216296107Y-110958933D02*
X216438964Y-111006552D01*
X216438964Y-111006552D02*
X216677059Y-111006552D01*
X215724678Y-110720837D02*
X215248488Y-110720837D01*
X215819916Y-111006552D02*
X215486583Y-110006552D01*
X215486583Y-110006552D02*
X215153250Y-111006552D01*
X217224679Y-106769105D02*
X217319917Y-106721486D01*
X217319917Y-106721486D02*
X217462774Y-106721486D01*
X217462774Y-106721486D02*
X217605631Y-106769105D01*
X217605631Y-106769105D02*
X217700869Y-106864343D01*
X217700869Y-106864343D02*
X217748488Y-106959581D01*
X217748488Y-106959581D02*
X217796107Y-107150057D01*
X217796107Y-107150057D02*
X217796107Y-107292914D01*
X217796107Y-107292914D02*
X217748488Y-107483390D01*
X217748488Y-107483390D02*
X217700869Y-107578628D01*
X217700869Y-107578628D02*
X217605631Y-107673867D01*
X217605631Y-107673867D02*
X217462774Y-107721486D01*
X217462774Y-107721486D02*
X217367536Y-107721486D01*
X217367536Y-107721486D02*
X217224679Y-107673867D01*
X217224679Y-107673867D02*
X217177060Y-107626247D01*
X217177060Y-107626247D02*
X217177060Y-107292914D01*
X217177060Y-107292914D02*
X217367536Y-107292914D01*
X216748488Y-107721486D02*
X216748488Y-106721486D01*
X216748488Y-106721486D02*
X216177060Y-107721486D01*
X216177060Y-107721486D02*
X216177060Y-106721486D01*
X215700869Y-107721486D02*
X215700869Y-106721486D01*
X215700869Y-106721486D02*
X215462774Y-106721486D01*
X215462774Y-106721486D02*
X215319917Y-106769105D01*
X215319917Y-106769105D02*
X215224679Y-106864343D01*
X215224679Y-106864343D02*
X215177060Y-106959581D01*
X215177060Y-106959581D02*
X215129441Y-107150057D01*
X215129441Y-107150057D02*
X215129441Y-107292914D01*
X215129441Y-107292914D02*
X215177060Y-107483390D01*
X215177060Y-107483390D02*
X215224679Y-107578628D01*
X215224679Y-107578628D02*
X215319917Y-107673867D01*
X215319917Y-107673867D02*
X215462774Y-107721486D01*
X215462774Y-107721486D02*
X215700869Y-107721486D01*
X217700869Y-108364019D02*
X217081822Y-108364019D01*
X217081822Y-108364019D02*
X217415155Y-108744971D01*
X217415155Y-108744971D02*
X217272298Y-108744971D01*
X217272298Y-108744971D02*
X217177060Y-108792590D01*
X217177060Y-108792590D02*
X217129441Y-108840209D01*
X217129441Y-108840209D02*
X217081822Y-108935447D01*
X217081822Y-108935447D02*
X217081822Y-109173542D01*
X217081822Y-109173542D02*
X217129441Y-109268780D01*
X217129441Y-109268780D02*
X217177060Y-109316400D01*
X217177060Y-109316400D02*
X217272298Y-109364019D01*
X217272298Y-109364019D02*
X217558012Y-109364019D01*
X217558012Y-109364019D02*
X217653250Y-109316400D01*
X217653250Y-109316400D02*
X217700869Y-109268780D01*
X216796107Y-108364019D02*
X216462774Y-109364019D01*
X216462774Y-109364019D02*
X216129441Y-108364019D01*
X215891345Y-108364019D02*
X215272298Y-108364019D01*
X215272298Y-108364019D02*
X215605631Y-108744971D01*
X215605631Y-108744971D02*
X215462774Y-108744971D01*
X215462774Y-108744971D02*
X215367536Y-108792590D01*
X215367536Y-108792590D02*
X215319917Y-108840209D01*
X215319917Y-108840209D02*
X215272298Y-108935447D01*
X215272298Y-108935447D02*
X215272298Y-109173542D01*
X215272298Y-109173542D02*
X215319917Y-109268780D01*
X215319917Y-109268780D02*
X215367536Y-109316400D01*
X215367536Y-109316400D02*
X215462774Y-109364019D01*
X215462774Y-109364019D02*
X215748488Y-109364019D01*
X215748488Y-109364019D02*
X215843726Y-109316400D01*
X215843726Y-109316400D02*
X215891345Y-109268780D01*
X217621488Y-122003819D02*
X217050060Y-122003819D01*
X217335774Y-123003819D02*
X217335774Y-122003819D01*
X216811964Y-122003819D02*
X216145298Y-123003819D01*
X216145298Y-122003819D02*
X216811964Y-123003819D01*
X216954822Y-120383505D02*
X217050060Y-120335886D01*
X217050060Y-120335886D02*
X217192917Y-120335886D01*
X217192917Y-120335886D02*
X217335774Y-120383505D01*
X217335774Y-120383505D02*
X217431012Y-120478743D01*
X217431012Y-120478743D02*
X217478631Y-120573981D01*
X217478631Y-120573981D02*
X217526250Y-120764457D01*
X217526250Y-120764457D02*
X217526250Y-120907314D01*
X217526250Y-120907314D02*
X217478631Y-121097790D01*
X217478631Y-121097790D02*
X217431012Y-121193028D01*
X217431012Y-121193028D02*
X217335774Y-121288267D01*
X217335774Y-121288267D02*
X217192917Y-121335886D01*
X217192917Y-121335886D02*
X217097679Y-121335886D01*
X217097679Y-121335886D02*
X216954822Y-121288267D01*
X216954822Y-121288267D02*
X216907203Y-121240647D01*
X216907203Y-121240647D02*
X216907203Y-120907314D01*
X216907203Y-120907314D02*
X217097679Y-120907314D01*
X216478631Y-121335886D02*
X216478631Y-120335886D01*
X216478631Y-120335886D02*
X215907203Y-121335886D01*
X215907203Y-121335886D02*
X215907203Y-120335886D01*
X215431012Y-121335886D02*
X215431012Y-120335886D01*
X215431012Y-120335886D02*
X215192917Y-120335886D01*
X215192917Y-120335886D02*
X215050060Y-120383505D01*
X215050060Y-120383505D02*
X214954822Y-120478743D01*
X214954822Y-120478743D02*
X214907203Y-120573981D01*
X214907203Y-120573981D02*
X214859584Y-120764457D01*
X214859584Y-120764457D02*
X214859584Y-120907314D01*
X214859584Y-120907314D02*
X214907203Y-121097790D01*
X214907203Y-121097790D02*
X214954822Y-121193028D01*
X214954822Y-121193028D02*
X215050060Y-121288267D01*
X215050060Y-121288267D02*
X215192917Y-121335886D01*
X215192917Y-121335886D02*
X215431012Y-121335886D01*
X217526250Y-112601466D02*
X217383393Y-112649085D01*
X217383393Y-112649085D02*
X217145298Y-112649085D01*
X217145298Y-112649085D02*
X217050060Y-112601466D01*
X217050060Y-112601466D02*
X217002441Y-112553846D01*
X217002441Y-112553846D02*
X216954822Y-112458608D01*
X216954822Y-112458608D02*
X216954822Y-112363370D01*
X216954822Y-112363370D02*
X217002441Y-112268132D01*
X217002441Y-112268132D02*
X217050060Y-112220513D01*
X217050060Y-112220513D02*
X217145298Y-112172894D01*
X217145298Y-112172894D02*
X217335774Y-112125275D01*
X217335774Y-112125275D02*
X217431012Y-112077656D01*
X217431012Y-112077656D02*
X217478631Y-112030037D01*
X217478631Y-112030037D02*
X217526250Y-111934799D01*
X217526250Y-111934799D02*
X217526250Y-111839561D01*
X217526250Y-111839561D02*
X217478631Y-111744323D01*
X217478631Y-111744323D02*
X217431012Y-111696704D01*
X217431012Y-111696704D02*
X217335774Y-111649085D01*
X217335774Y-111649085D02*
X217097679Y-111649085D01*
X217097679Y-111649085D02*
X216954822Y-111696704D01*
X215954822Y-112553846D02*
X216002441Y-112601466D01*
X216002441Y-112601466D02*
X216145298Y-112649085D01*
X216145298Y-112649085D02*
X216240536Y-112649085D01*
X216240536Y-112649085D02*
X216383393Y-112601466D01*
X216383393Y-112601466D02*
X216478631Y-112506227D01*
X216478631Y-112506227D02*
X216526250Y-112410989D01*
X216526250Y-112410989D02*
X216573869Y-112220513D01*
X216573869Y-112220513D02*
X216573869Y-112077656D01*
X216573869Y-112077656D02*
X216526250Y-111887180D01*
X216526250Y-111887180D02*
X216478631Y-111791942D01*
X216478631Y-111791942D02*
X216383393Y-111696704D01*
X216383393Y-111696704D02*
X216240536Y-111649085D01*
X216240536Y-111649085D02*
X216145298Y-111649085D01*
X216145298Y-111649085D02*
X216002441Y-111696704D01*
X216002441Y-111696704D02*
X215954822Y-111744323D01*
X215050060Y-112649085D02*
X215526250Y-112649085D01*
X215526250Y-112649085D02*
X215526250Y-111649085D01*
X216907203Y-124671752D02*
X217240536Y-124195561D01*
X217478631Y-124671752D02*
X217478631Y-123671752D01*
X217478631Y-123671752D02*
X217097679Y-123671752D01*
X217097679Y-123671752D02*
X217002441Y-123719371D01*
X217002441Y-123719371D02*
X216954822Y-123766990D01*
X216954822Y-123766990D02*
X216907203Y-123862228D01*
X216907203Y-123862228D02*
X216907203Y-124005085D01*
X216907203Y-124005085D02*
X216954822Y-124100323D01*
X216954822Y-124100323D02*
X217002441Y-124147942D01*
X217002441Y-124147942D02*
X217097679Y-124195561D01*
X217097679Y-124195561D02*
X217478631Y-124195561D01*
X216573869Y-123671752D02*
X215907203Y-124671752D01*
X215907203Y-123671752D02*
X216573869Y-124671752D01*
X217002441Y-125339685D02*
X217478631Y-125339685D01*
X217478631Y-125339685D02*
X217526250Y-125815875D01*
X217526250Y-125815875D02*
X217478631Y-125768256D01*
X217478631Y-125768256D02*
X217383393Y-125720637D01*
X217383393Y-125720637D02*
X217145298Y-125720637D01*
X217145298Y-125720637D02*
X217050060Y-125768256D01*
X217050060Y-125768256D02*
X217002441Y-125815875D01*
X217002441Y-125815875D02*
X216954822Y-125911113D01*
X216954822Y-125911113D02*
X216954822Y-126149208D01*
X216954822Y-126149208D02*
X217002441Y-126244446D01*
X217002441Y-126244446D02*
X217050060Y-126292066D01*
X217050060Y-126292066D02*
X217145298Y-126339685D01*
X217145298Y-126339685D02*
X217383393Y-126339685D01*
X217383393Y-126339685D02*
X217478631Y-126292066D01*
X217478631Y-126292066D02*
X217526250Y-126244446D01*
X216669107Y-125339685D02*
X216335774Y-126339685D01*
X216335774Y-126339685D02*
X216002441Y-125339685D01*
M02*
