M48
; DRILL file {KiCad 8.0.2} date 2024-07-19T10:45:16+0700
; FORMAT={-:-/ absolute / inch / decimal}
; #@! TF.CreationDate,2024-07-19T10:45:16+07:00
; #@! TF.GenerationSoftware,Kicad,Pcbnew,8.0.2
; #@! TF.FileFunction,Plated,1,4,PTH
FMAT,2
INCH
; #@! TA.AperFunction,Plated,PTH,ViaDrill
T1C0.0118
; #@! TA.AperFunction,Plated,PTH,ViaDrill
T2C0.0157
; #@! TA.AperFunction,Plated,PTH,ComponentDrill
T3C0.0197
; #@! TA.AperFunction,Plated,PTH,ComponentDrill
T4C0.0236
; #@! TA.AperFunction,Plated,PTH,ComponentDrill
T5C0.0374
; #@! TA.AperFunction,Plated,PTH,ComponentDrill
T6C0.0906
; #@! TA.AperFunction,Plated,PTH,ComponentDrill
T7C0.1260
%
G90
G05
T1
X3.223Y-2.186
X3.232Y-4.51
X3.235Y-3.418
X3.235Y-3.707
X3.254Y-5.184
X3.315Y-4.818
X3.346Y-5.03
X3.349Y-4.226
X3.422Y-2.698
X3.432Y-2.972
X3.432Y-3.241
X3.435Y-3.67
X3.453Y-4.974
X3.506Y-5.458
X3.549Y-1.905
X3.567Y-3.462
X3.6283Y-2.736
X3.6283Y-2.823
X3.633Y-2.272
X3.636Y-4.204
X3.662Y-3.427
X3.6643Y-2.65
X3.681Y-3.674
X3.705Y-2.607
X3.728Y-2.038
X3.744Y-5.338
X3.769Y-3.47
X3.804Y-2.563
X3.804Y-2.91
X3.805Y-2.866
X3.836Y-3.245
X3.852Y-2.739
X3.876Y-3.553
X3.876Y-3.632
X3.881Y-3.5926
X3.8913Y-3.4212
X3.894Y-4.106
X3.903Y-4.837
X3.9237Y-2.7797
X3.9238Y-2.6498
X3.9238Y-2.5632
X3.9248Y-2.8228
X3.967Y-3.745
X3.971Y-2.235
X4.0213Y-3.716
X4.0315Y-2.2405
X4.074Y-4.275
X4.075Y-4.2
X4.076Y-4.349
X4.0775Y-3.7614
X4.1048Y-3.8279
X4.1061Y-3.5279
X4.139Y-3.911
X4.14Y-3.861
X4.1416Y-3.6113
X4.171Y-4.351
X4.1985Y-3.5614
X4.2Y-3.811
X4.2118Y-4.5038
X4.217Y-2.216
X4.2279Y-3.0661
X4.2367Y-1.9699
X4.28Y-4.908
X4.289Y-5.336
X4.2957Y-2.167
X4.3144Y-2.25
X4.3173Y-3.5367
X4.3173Y-3.8363
X4.3203Y-4.5037
X4.3371Y-4.6011
X4.351Y-4.143
X4.362Y-4.692
X4.416Y-3.963
X4.417Y-4.113
X4.4288Y-4.5038
X4.473Y-4.3
X4.473Y-4.35
X4.495Y-3.511
X4.496Y-3.861
X4.529Y-3.7906
X4.55Y-4.172
X4.567Y-3.7906
X4.5937Y-3.4613
X4.665Y-2.135
X4.746Y-3.754
X4.746Y-3.7816
X4.746Y-3.8091
X4.746Y-3.8367
X4.746Y-3.8642
X4.746Y-3.8918
X4.751Y-1.973
X4.7678Y-3.739
X4.7678Y-3.905
X4.776Y-3.856
X4.7953Y-3.739
X4.7953Y-3.905
X4.8159Y-5.3241
X4.8229Y-3.739
X4.8229Y-3.905
X4.824Y-4.937
X4.85Y-4.674
X4.8504Y-3.739
X4.8504Y-3.905
X4.851Y-3.7678
X4.863Y-1.972
X4.865Y-4.3
X4.868Y-4.1
X4.878Y-3.739
X4.878Y-3.905
X4.879Y-3.334
X4.88Y-3.522
X4.885Y-4.326
X4.898Y-3.0271
X4.9Y-3.904
X4.923Y-3.321
X4.923Y-3.359
X4.923Y-3.507
X4.923Y-3.545
X4.923Y-3.665
X4.923Y-3.703
X4.925Y-4.039
X4.93Y-3.768
X4.956Y-3.99
X4.975Y-1.971
X4.99Y-3.295
X4.996Y-4.1
X4.998Y-3.906
X4.9991Y-2.1721
X5.025Y-3.961
X5.045Y-3.7453
X5.0461Y-2.1741
X5.052Y-3.7913
X5.059Y-2.6643
X5.076Y-2.297
X5.081Y-2.6437
X5.0889Y-5.3241
X5.152Y-5.051
X5.158Y-2.421
X5.162Y-3.295
X5.17Y-3.405
X5.17Y-3.9094
X5.175Y-4.0003
X5.1812Y-3.5551
X5.1857Y-2.8267
X5.187Y-3.956
X5.2063Y-2.7284
X5.227Y-2.554
X5.234Y-3.027
X5.235Y-3.5747
X5.235Y-4.371
X5.2477Y-2.6
X5.265Y-2.961
X5.2683Y-2.623
X5.273Y-4.371
X5.284Y-3.5944
X5.289Y-2.577
X5.294Y-4.444
X5.3118Y-4.4651
X5.3136Y-2.445
X5.3147Y-4.378
X5.3297Y-2.1953
X5.334Y-3.6141
X5.3399Y-3.8503
X5.3423Y-4.3055
X5.3657Y-2.472
X5.368Y-2.027
X5.384Y-3.6338
X5.3972Y-2.5251
X5.4034Y-5.4067
X5.411Y-3.393
X5.4135Y-2.1685
X5.423Y-4.231
X5.425Y-2.7284
X5.4287Y-2.5647
X5.435Y-3.654
X5.4427Y-2.998
X5.456Y-2.889
X5.456Y-2.927
X5.464Y-3.51
X5.469Y-4.617
X5.4745Y-2.1595
X5.478Y-3.131
X5.4806Y-2.4676
X5.492Y-4.371
X5.4965Y-4.6159
X5.497Y-4.497
X5.511Y-2.998
X5.512Y-2.582
X5.5239Y-4.6196
X5.529Y-4.371
X5.535Y-1.997
X5.538Y-3.2901
X5.5404Y-3.55
X5.541Y-4.598
X5.5436Y-2.469
X5.549Y-2.998
X5.553Y-2.889
X5.556Y-3.131
X5.558Y-3.481
X5.559Y-5.056
X5.561Y-4.64
X5.568Y-3.662
X5.575Y-2.533
X5.5802Y-2.8843
X5.6Y-4.74
X5.604Y-3.235
X5.612Y-3.481
X5.6169Y-3.8269
X5.621Y-4.715
X5.642Y-3.481
X5.644Y-3.269
X5.6523Y-3.6569
X5.6584Y-2.5527
X5.6592Y-3.1094
X5.66Y-1.945
X5.675Y-3.481
X5.683Y-2.998
X5.688Y-4.37
X5.6899Y-2.474
X5.6923Y-3.6362
X5.709Y-3.481
X5.721Y-2.706
X5.721Y-2.998
X5.7214Y-2.459
X5.726Y-4.371
X5.7373Y-3.6155
X5.74Y-3.481
X5.741Y-2.5302
X5.754Y-5.262
X5.76Y-2.9567
X5.791Y-3.5948
X5.7973Y-3.7761
X5.8022Y-3.4738
X5.806Y-2.5139
X5.807Y-2.454
X5.8157Y-2.991
X5.8333Y-2.4793
X5.8357Y-5.4067
X5.838Y-4.13
X5.84Y-3.0993
X5.8436Y-3.5741
X5.8574Y-3.4611
X5.878Y-2.6657
X5.894Y-3.137
X5.8946Y-3.8113
X5.9004Y-4.049
X5.903Y-2.447
X5.908Y-4.107
X5.914Y-3.233
X5.914Y-4.135
X5.9166Y-2.4863
X5.92Y-2.403
X5.933Y-3.048
X5.9406Y-3.2666
X5.9481Y-2.4657
X5.9483Y-3.431
X5.9483Y-3.837
X5.9483Y-3.87
X5.9483Y-3.907
X5.949Y-4.24
X5.964Y-2.999
X5.969Y-3.2616
X5.969Y-5.053
X5.98Y-4.279
X5.984Y-4.0612
X5.9921Y-3.2773
X6.002Y-3.001
X6.002Y-4.082
X6.009Y-4.33
X6.0123Y-3.094
X6.028Y-2.5038
X6.04Y-4.021
X6.048Y-4.088
X6.06Y-3.989
X6.061Y-3.432
X6.061Y-3.608
X6.066Y-2.407
X6.087Y-1.998
X6.129Y-2.403
X6.153Y-3.5925
X6.161Y-2.403
X6.173Y-1.945
X6.1748Y-2.6482
X6.1757Y-2.62
X6.1797Y-2.6823
X6.1831Y-3.3031
X6.19Y-4.714
X6.1959Y-2.903
X6.1959Y-2.9329
X6.2176Y-2.6307
X6.244Y-2.403
X6.253Y-3.258
X6.2596Y-5.2924
X6.2605Y-2.4654
X6.2605Y-2.513
X6.2605Y-2.562
X6.268Y-5.4067
X6.275Y-2.403
X6.291Y-3.595
X6.292Y-3.832
X6.292Y-3.869
X6.295Y-4.059
X6.295Y-4.096
X6.303Y-3.236
X6.307Y-2.403
X6.3102Y-2.4858
X6.3157Y-3.19
X6.319Y-3.897
X6.3193Y-3.862
X6.329Y-3.309
X6.3496Y-3.3716
X6.357Y-3.606
X6.3631Y-3.2373
X6.3704Y-3.3924
X6.3736Y-2.2456
X6.393Y-5.049
X6.3948Y-2.2245
X6.396Y-5.45
X6.397Y-3.8146
X6.409Y-2.04
X6.418Y-3.7968
X6.489Y-2.062
X6.592Y-2.062
X6.592Y-2.154
X6.602Y-4.028
X6.6283Y-4.0873
X6.629Y-3.409
X6.635Y-3.551
X6.66Y-3.958
X6.6906Y-5.2924
X6.695Y-1.945
X6.7Y-4.611
X6.7003Y-5.4067
X6.72Y-3.309
X6.722Y-4.027
X6.7222Y-4.5838
X6.723Y-3.963
X6.755Y-3.987
X6.758Y-3.309
X6.8151Y-4.0571
X6.818Y-3.957
X6.821Y-5.364
X6.826Y-5.449
X6.841Y-2.128
X6.852Y-4.057
X6.881Y-3.409
X6.897Y-4.554
X6.923Y-5.03
X6.964Y-3.6982
X6.9829Y-3.7188
X6.988Y-3.309
X6.988Y-4.058
X7.0018Y-3.7395
X7.0213Y-3.7602
X7.0216Y-2.1624
X7.025Y-3.308
X7.025Y-4.058
X7.0408Y-3.7808
X7.0553Y-3.5097
X7.0595Y-3.8015
X7.061Y-2.155
X7.07Y-3.957
X7.0741Y-3.5303
X7.0787Y-3.8222
X7.095Y-3.551
X7.0966Y-3.8431
X7.1Y-2.155
X7.101Y-3.976
X7.1174Y-3.8638
X7.12Y-3.5717
X7.1404Y-3.5923
X7.159Y-3.613
X7.179Y-1.985
X7.179Y-2.155
X7.218Y-2.156
X7.2334Y-3.6158
X7.236Y-4.709
X7.251Y-2.208
X7.2694Y-3.6154
X7.273Y-4.877
X7.298Y-3.616
X7.3276Y-3.6156
X7.418Y-4.028
X7.447Y-4.094
X7.448Y-3.409
X7.457Y-4.512
X7.544Y-5.064
X7.556Y-5.281
X7.777Y-3.666
X7.793Y-3.383
X7.798Y-3.043
X7.911Y-5.442
X7.936Y-2.974
X8.002Y-3.891
X8.063Y-5.254
X8.078Y-2.782
X8.145Y-4.112
X8.158Y-3.275
X8.173Y-4.854
X8.194Y-3.751
X8.202Y-4.253
X8.227Y-4.585
X8.241Y-2.468
X8.241Y-4.298
X8.242Y-2.4247
X8.246Y-4.817
X8.246Y-4.892
X8.251Y-5.404
X8.2526Y-3.9536
X8.261Y-3.804
X8.261Y-3.8536
X8.261Y-3.9036
X8.2614Y-3.6536
X8.2614Y-3.7036
X8.278Y-4.203
X8.286Y-2.892
X8.293Y-3.305
X8.308Y-3.586
X8.321Y-4.339
X8.321Y-4.377
X8.413Y-3.904
X8.4146Y-3.6536
X8.42Y-4.119
X8.442Y-4.487
X8.447Y-3.058
X8.469Y-4.209
X8.469Y-4.43
X8.472Y-2.786
X8.513Y-4.601
X8.529Y-5.161
X8.5494Y-3.8536
X8.5496Y-3.8036
X8.552Y-3.241
X8.555Y-3.616
T2
X3.312Y-4.39
X3.32Y-4.641
X3.363Y-4.538
X3.402Y-4.754
X3.402Y-4.873
X3.414Y-4.571
X3.504Y-4.849
X3.5808Y-4.8848
X3.592Y-4.55
X3.606Y-5.063
X3.616Y-4.389
X3.668Y-4.613
X3.6915Y-3.5825
X3.697Y-5.054
X3.698Y-4.992
X3.741Y-4.702
X3.77Y-4.654
X4.111Y-2.781
X4.24Y-3.341
X4.53Y-3.2961
X4.92Y-2.782
X5.235Y-2.073
X5.235Y-2.1075
X5.235Y-2.142
X6.0273Y-1.9993
X6.423Y-2.804
X6.76Y-2.497
X7.04Y-2.796
X7.0596Y-2.5176
X7.0596Y-2.557
X7.099Y-2.5176
X7.099Y-2.557
X7.265Y-2.41
X7.267Y-2.537
X7.267Y-2.831
X7.339Y-2.431
X7.339Y-2.774
X7.419Y-2.704
X7.461Y-2.608
X7.5656Y-2.2043
X7.5656Y-2.2436
X7.5656Y-2.283
X7.605Y-2.2043
X7.605Y-2.2436
X7.605Y-2.283
X7.605Y-2.821
X7.6444Y-2.2043
X7.6444Y-2.2436
X7.6444Y-2.283
X7.696Y-2.822
X7.7906Y-2.6036
X7.7906Y-2.643
X7.7906Y-2.6824
X7.83Y-2.6036
X7.83Y-2.643
X7.83Y-2.6824
X7.8694Y-2.6036
X7.8694Y-2.643
X7.8694Y-2.6824
X7.99Y-1.911
X8.08Y-2.398
X8.094Y-2.35
X8.123Y-2.491
X8.141Y-2.295
X8.176Y-2.295
X8.185Y-2.57
X8.221Y-2.57
X8.258Y-1.953
X8.26Y-2.276
X8.26Y-2.31
X8.26Y-2.598
X8.26Y-2.632
X8.346Y-4.779
X8.504Y-4.659
X8.504Y-5.048
T3
X3.2067Y-1.9935
X3.2067Y-5.3793
X3.2343Y-1.9267
X3.2343Y-2.0603
X3.2343Y-5.3125
X3.2343Y-5.4461
X3.3011Y-1.899
X3.3011Y-2.088
X3.3011Y-5.2848
X3.3011Y-5.4738
X3.368Y-1.9267
X3.368Y-2.0603
X3.368Y-5.3125
X3.368Y-5.4461
X3.3956Y-1.9935
X3.3956Y-5.3793
X8.3563Y-1.9935
X8.3563Y-5.3793
X8.3839Y-1.9267
X8.3839Y-2.0603
X8.3839Y-5.3125
X8.3839Y-5.4461
X8.4508Y-1.899
X8.4508Y-2.088
X8.4508Y-5.2848
X8.4508Y-5.4738
X8.5176Y-1.9267
X8.5176Y-2.0603
X8.5176Y-5.3125
X8.5176Y-5.4461
X8.5452Y-1.9935
X8.5452Y-5.3793
T5
X8.101Y-2.9562
X8.101Y-3.0546
X8.101Y-3.1334
X8.101Y-3.2318
T6
X8.2077Y-2.8353
X8.2077Y-3.3527
T7
X3.3011Y-1.9935
X3.3011Y-5.3793
X8.4508Y-1.9935
X8.4508Y-5.3793
T4
G00X8.3559Y-2.2362
M15
G01X8.3874Y-2.2362
M16
G05
G00X8.3559Y-2.6787
M15
G01X8.3874Y-2.6787
M16
G05
G00X8.5055Y-2.2362
M15
G01X8.5528Y-2.2362
M16
G05
G00X8.5055Y-2.6787
M15
G01X8.5528Y-2.6787
M16
G05
M30
