%TF.GenerationSoftware,KiCad,Pcbnew,8.0.1*%
%TF.CreationDate,2024-07-11T11:53:29+07:00*%
%TF.ProjectId,chroma-pixel-zeta,6368726f-6d61-42d7-9069-78656c2d7a65,rev?*%
%TF.SameCoordinates,Original*%
%TF.FileFunction,Copper,L3,Inr*%
%TF.FilePolarity,Positive*%
%FSLAX46Y46*%
G04 Gerber Fmt 4.6, Leading zero omitted, Abs format (unit mm)*
G04 Created by KiCad (PCBNEW 8.0.1) date 2024-07-11 11:53:29*
%MOMM*%
%LPD*%
G01*
G04 APERTURE LIST*
%TA.AperFunction,ComponentPad*%
%ADD10C,0.800000*%
%TD*%
%TA.AperFunction,ComponentPad*%
%ADD11C,6.400000*%
%TD*%
%TA.AperFunction,ComponentPad*%
%ADD12R,1.600000X1.500000*%
%TD*%
%TA.AperFunction,ComponentPad*%
%ADD13C,1.600000*%
%TD*%
%TA.AperFunction,ComponentPad*%
%ADD14C,3.000000*%
%TD*%
%TA.AperFunction,ComponentPad*%
%ADD15O,1.000000X2.100000*%
%TD*%
%TA.AperFunction,ComponentPad*%
%ADD16O,1.000000X1.800000*%
%TD*%
%TA.AperFunction,ViaPad*%
%ADD17C,0.400000*%
%TD*%
G04 APERTURE END LIST*
D10*
%TO.N,GND*%
%TO.C,H3*%
X56896000Y-40716200D03*
X56193056Y-42413256D03*
X56193056Y-39019144D03*
X54496000Y-43116200D03*
D11*
X54496000Y-40716200D03*
D10*
X54496000Y-38316200D03*
X52798944Y-42413256D03*
X52798944Y-39019144D03*
X52096000Y-40716200D03*
%TD*%
%TO.N,GND*%
%TO.C,H4*%
X57619600Y-148717000D03*
X56916656Y-150414056D03*
X56916656Y-147019944D03*
X55219600Y-151117000D03*
D11*
X55219600Y-148717000D03*
D10*
X55219600Y-146317000D03*
X53522544Y-150414056D03*
X53522544Y-147019944D03*
X52819600Y-148717000D03*
%TD*%
D12*
%TO.N,unconnected-(J12-VBUS-Pad1)*%
%TO.C,J12*%
X185476000Y-140334400D03*
D13*
%TO.N,unconnected-(J12-D--Pad2)*%
X187976000Y-140334400D03*
%TO.N,unconnected-(J12-D+-Pad3)*%
X189976000Y-140334400D03*
%TO.N,unconnected-(J12-GND-Pad4)*%
X192476000Y-140334400D03*
D14*
%TO.N,unconnected-(J12-Shield-Pad5)*%
X182406000Y-143044400D03*
X195546000Y-143044400D03*
%TD*%
D15*
%TO.N,/USB/SHIELD*%
%TO.C,J4*%
X201369200Y-144906200D03*
D16*
X201369200Y-149106200D03*
D15*
X210009200Y-144906200D03*
D16*
X210009200Y-149106200D03*
%TD*%
D10*
%TO.N,GND*%
%TO.C,H1*%
X232214456Y-40949544D03*
X231511512Y-42646600D03*
X231511512Y-39252488D03*
X229814456Y-43349544D03*
D11*
X229814456Y-40949544D03*
D10*
X229814456Y-38549544D03*
X228117400Y-42646600D03*
X228117400Y-39252488D03*
X227414456Y-40949544D03*
%TD*%
%TO.N,GND*%
%TO.C,H2*%
X231330200Y-149479000D03*
X230627256Y-151176056D03*
X230627256Y-147781944D03*
X228930200Y-151879000D03*
D11*
X228930200Y-149479000D03*
D10*
X228930200Y-147079000D03*
X227233144Y-151176056D03*
X227233144Y-147781944D03*
X226530200Y-149479000D03*
%TD*%
D17*
%TO.N,GND*%
X120332800Y-97114200D03*
X131839000Y-97114200D03*
X126835200Y-97114200D03*
%TO.N,+3V3*%
X127800400Y-97114200D03*
X121298000Y-97114200D03*
X132804200Y-97114200D03*
%TD*%
%TA.AperFunction,Conductor*%
%TO.N,+3V3*%
G36*
X233739239Y-36494685D02*
G01*
X233784994Y-36547489D01*
X233796200Y-36599000D01*
X233796200Y-152951000D01*
X233776515Y-153018039D01*
X233723711Y-153063794D01*
X233672200Y-153075000D01*
X229552022Y-153075000D01*
X229484983Y-153055315D01*
X229439228Y-153002511D01*
X229429284Y-152933353D01*
X229458309Y-152869797D01*
X229517087Y-152832023D01*
X229525366Y-152829899D01*
X229638009Y-152805104D01*
X229841266Y-152760364D01*
X230190703Y-152642625D01*
X230525362Y-152487795D01*
X230841319Y-152297690D01*
X231134870Y-152074538D01*
X231402573Y-151820956D01*
X231641290Y-151539917D01*
X231848222Y-151234716D01*
X232020943Y-150908930D01*
X232157427Y-150566379D01*
X232256075Y-150211081D01*
X232282432Y-150050311D01*
X232315729Y-149847213D01*
X232315729Y-149847210D01*
X232315731Y-149847199D01*
X232335694Y-149479000D01*
X232315731Y-149110801D01*
X232311533Y-149085196D01*
X232256077Y-148746931D01*
X232256076Y-148746930D01*
X232256075Y-148746919D01*
X232225613Y-148637204D01*
X232157431Y-148391634D01*
X232157429Y-148391628D01*
X232157428Y-148391627D01*
X232157427Y-148391621D01*
X232020943Y-148049070D01*
X231848222Y-147723284D01*
X231641290Y-147418083D01*
X231402573Y-147137044D01*
X231134870Y-146883462D01*
X230841319Y-146660310D01*
X230525362Y-146470205D01*
X230525361Y-146470204D01*
X230525357Y-146470202D01*
X230525353Y-146470200D01*
X230190713Y-146315379D01*
X230190708Y-146315377D01*
X230190703Y-146315375D01*
X230020372Y-146257983D01*
X229841265Y-146197635D01*
X229481146Y-146118367D01*
X229114571Y-146078500D01*
X229114570Y-146078500D01*
X228745830Y-146078500D01*
X228745828Y-146078500D01*
X228379253Y-146118367D01*
X228019134Y-146197635D01*
X227749012Y-146288650D01*
X227669697Y-146315375D01*
X227669694Y-146315376D01*
X227669686Y-146315379D01*
X227335046Y-146470200D01*
X227335042Y-146470202D01*
X227099738Y-146611779D01*
X227019081Y-146660310D01*
X226918610Y-146736685D01*
X226725530Y-146883461D01*
X226725530Y-146883462D01*
X226457826Y-147137044D01*
X226219109Y-147418083D01*
X226012179Y-147723282D01*
X226012173Y-147723291D01*
X225839461Y-148049061D01*
X225839455Y-148049073D01*
X225702970Y-148391628D01*
X225702968Y-148391634D01*
X225604328Y-148746905D01*
X225604322Y-148746931D01*
X225544670Y-149110786D01*
X225544669Y-149110799D01*
X225544669Y-149110801D01*
X225524706Y-149479000D01*
X225544170Y-149838004D01*
X225544669Y-149847196D01*
X225544670Y-149847213D01*
X225604322Y-150211068D01*
X225604328Y-150211094D01*
X225702968Y-150566365D01*
X225702970Y-150566371D01*
X225839455Y-150908926D01*
X225839461Y-150908938D01*
X226012173Y-151234708D01*
X226012176Y-151234713D01*
X226012178Y-151234716D01*
X226219110Y-151539917D01*
X226457827Y-151820956D01*
X226725530Y-152074538D01*
X227019081Y-152297690D01*
X227335038Y-152487795D01*
X227335040Y-152487796D01*
X227335042Y-152487797D01*
X227335046Y-152487799D01*
X227669686Y-152642620D01*
X227669697Y-152642625D01*
X228019134Y-152760364D01*
X228335034Y-152829899D01*
X228396275Y-152863535D01*
X228429609Y-152924940D01*
X228424453Y-152994619D01*
X228382444Y-153050450D01*
X228316920Y-153074705D01*
X228308378Y-153075000D01*
X50520200Y-153075000D01*
X50453161Y-153055315D01*
X50407406Y-153002511D01*
X50396200Y-152951000D01*
X50396200Y-148717002D01*
X51814106Y-148717002D01*
X51834069Y-149085196D01*
X51834070Y-149085213D01*
X51893722Y-149449068D01*
X51893728Y-149449094D01*
X51992368Y-149804365D01*
X51992370Y-149804371D01*
X52128855Y-150146926D01*
X52128861Y-150146938D01*
X52301573Y-150472708D01*
X52301579Y-150472717D01*
X52508509Y-150777916D01*
X52619794Y-150908930D01*
X52747227Y-151058956D01*
X53014930Y-151312538D01*
X53308481Y-151535690D01*
X53624438Y-151725795D01*
X53624440Y-151725796D01*
X53624442Y-151725797D01*
X53624446Y-151725799D01*
X53959086Y-151880620D01*
X53959097Y-151880625D01*
X54308534Y-151998364D01*
X54668652Y-152077632D01*
X55035230Y-152117500D01*
X55035236Y-152117500D01*
X55403964Y-152117500D01*
X55403970Y-152117500D01*
X55770548Y-152077632D01*
X56130666Y-151998364D01*
X56480103Y-151880625D01*
X56814762Y-151725795D01*
X57130719Y-151535690D01*
X57424270Y-151312538D01*
X57691973Y-151058956D01*
X57930690Y-150777917D01*
X58137622Y-150472716D01*
X58310343Y-150146930D01*
X58446827Y-149804379D01*
X58510460Y-149575195D01*
X200668699Y-149575195D01*
X200695618Y-149710522D01*
X200695621Y-149710532D01*
X200748421Y-149838004D01*
X200748428Y-149838017D01*
X200825085Y-149952741D01*
X200825088Y-149952745D01*
X200922654Y-150050311D01*
X200922658Y-150050314D01*
X201037382Y-150126971D01*
X201037395Y-150126978D01*
X201164867Y-150179778D01*
X201164872Y-150179780D01*
X201164876Y-150179780D01*
X201164877Y-150179781D01*
X201300204Y-150206700D01*
X201300207Y-150206700D01*
X201438195Y-150206700D01*
X201529241Y-150188589D01*
X201573528Y-150179780D01*
X201701011Y-150126975D01*
X201815742Y-150050314D01*
X201913314Y-149952742D01*
X201989975Y-149838011D01*
X202042780Y-149710528D01*
X202069700Y-149575195D01*
X209308699Y-149575195D01*
X209335618Y-149710522D01*
X209335621Y-149710532D01*
X209388421Y-149838004D01*
X209388428Y-149838017D01*
X209465085Y-149952741D01*
X209465088Y-149952745D01*
X209562654Y-150050311D01*
X209562658Y-150050314D01*
X209677382Y-150126971D01*
X209677395Y-150126978D01*
X209804867Y-150179778D01*
X209804872Y-150179780D01*
X209804876Y-150179780D01*
X209804877Y-150179781D01*
X209940204Y-150206700D01*
X209940207Y-150206700D01*
X210078195Y-150206700D01*
X210169241Y-150188589D01*
X210213528Y-150179780D01*
X210341011Y-150126975D01*
X210455742Y-150050314D01*
X210553314Y-149952742D01*
X210629975Y-149838011D01*
X210682780Y-149710528D01*
X210709700Y-149575193D01*
X210709700Y-148637207D01*
X210709700Y-148637204D01*
X210682781Y-148501877D01*
X210682780Y-148501876D01*
X210682780Y-148501872D01*
X210682778Y-148501867D01*
X210629978Y-148374395D01*
X210629971Y-148374382D01*
X210553314Y-148259658D01*
X210553311Y-148259654D01*
X210455745Y-148162088D01*
X210455741Y-148162085D01*
X210341017Y-148085428D01*
X210341004Y-148085421D01*
X210213532Y-148032621D01*
X210213522Y-148032618D01*
X210078195Y-148005700D01*
X210078193Y-148005700D01*
X209940207Y-148005700D01*
X209940205Y-148005700D01*
X209804877Y-148032618D01*
X209804867Y-148032621D01*
X209677395Y-148085421D01*
X209677382Y-148085428D01*
X209562658Y-148162085D01*
X209562654Y-148162088D01*
X209465088Y-148259654D01*
X209465085Y-148259658D01*
X209388428Y-148374382D01*
X209388421Y-148374395D01*
X209335621Y-148501867D01*
X209335618Y-148501877D01*
X209308700Y-148637204D01*
X209308700Y-148637207D01*
X209308700Y-149575193D01*
X209308700Y-149575195D01*
X209308699Y-149575195D01*
X202069700Y-149575195D01*
X202069700Y-149575193D01*
X202069700Y-148637207D01*
X202069700Y-148637204D01*
X202042781Y-148501877D01*
X202042780Y-148501876D01*
X202042780Y-148501872D01*
X202042778Y-148501867D01*
X201989978Y-148374395D01*
X201989971Y-148374382D01*
X201913314Y-148259658D01*
X201913311Y-148259654D01*
X201815745Y-148162088D01*
X201815741Y-148162085D01*
X201701017Y-148085428D01*
X201701004Y-148085421D01*
X201573532Y-148032621D01*
X201573522Y-148032618D01*
X201438195Y-148005700D01*
X201438193Y-148005700D01*
X201300207Y-148005700D01*
X201300205Y-148005700D01*
X201164877Y-148032618D01*
X201164867Y-148032621D01*
X201037395Y-148085421D01*
X201037382Y-148085428D01*
X200922658Y-148162085D01*
X200922654Y-148162088D01*
X200825088Y-148259654D01*
X200825085Y-148259658D01*
X200748428Y-148374382D01*
X200748421Y-148374395D01*
X200695621Y-148501867D01*
X200695618Y-148501877D01*
X200668700Y-148637204D01*
X200668700Y-148637207D01*
X200668700Y-149575193D01*
X200668700Y-149575195D01*
X200668699Y-149575195D01*
X58510460Y-149575195D01*
X58545475Y-149449081D01*
X58563837Y-149337077D01*
X58605129Y-149085213D01*
X58605129Y-149085210D01*
X58605131Y-149085199D01*
X58625094Y-148717000D01*
X58605131Y-148348801D01*
X58574520Y-148162086D01*
X58545477Y-147984931D01*
X58545476Y-147984930D01*
X58545475Y-147984919D01*
X58523348Y-147905226D01*
X58446831Y-147629634D01*
X58446829Y-147629628D01*
X58446828Y-147629627D01*
X58446827Y-147629621D01*
X58310343Y-147287070D01*
X58137622Y-146961284D01*
X57930690Y-146656083D01*
X57691973Y-146375044D01*
X57424270Y-146121462D01*
X57130719Y-145898310D01*
X56814762Y-145708205D01*
X56814761Y-145708204D01*
X56814757Y-145708202D01*
X56814753Y-145708200D01*
X56480113Y-145553379D01*
X56480108Y-145553377D01*
X56480103Y-145553375D01*
X56396469Y-145525195D01*
X200668699Y-145525195D01*
X200695618Y-145660522D01*
X200695621Y-145660532D01*
X200748421Y-145788004D01*
X200748428Y-145788017D01*
X200825085Y-145902741D01*
X200825088Y-145902745D01*
X200922654Y-146000311D01*
X200922658Y-146000314D01*
X201037382Y-146076971D01*
X201037395Y-146076978D01*
X201164867Y-146129778D01*
X201164872Y-146129780D01*
X201164876Y-146129780D01*
X201164877Y-146129781D01*
X201300204Y-146156700D01*
X201300207Y-146156700D01*
X201438195Y-146156700D01*
X201529241Y-146138589D01*
X201573528Y-146129780D01*
X201672124Y-146088940D01*
X201701004Y-146076978D01*
X201701004Y-146076977D01*
X201701011Y-146076975D01*
X201815742Y-146000314D01*
X201913314Y-145902742D01*
X201989975Y-145788011D01*
X201993474Y-145779565D01*
X202041456Y-145663724D01*
X202085296Y-145609320D01*
X202151590Y-145587255D01*
X202219290Y-145604534D01*
X202263403Y-145649174D01*
X202338685Y-145779565D01*
X202445835Y-145886715D01*
X202577065Y-145962481D01*
X202723434Y-146001700D01*
X202723436Y-146001700D01*
X202874964Y-146001700D01*
X202874966Y-146001700D01*
X203021335Y-145962481D01*
X203152565Y-145886715D01*
X203259715Y-145779565D01*
X203335481Y-145648335D01*
X203374700Y-145501966D01*
X203374700Y-145501965D01*
X208003700Y-145501965D01*
X208042919Y-145648336D01*
X208077482Y-145708200D01*
X208118685Y-145779565D01*
X208225835Y-145886715D01*
X208357065Y-145962481D01*
X208503434Y-146001700D01*
X208503436Y-146001700D01*
X208654964Y-146001700D01*
X208654966Y-146001700D01*
X208801335Y-145962481D01*
X208932565Y-145886715D01*
X209039715Y-145779565D01*
X209114995Y-145649175D01*
X209165562Y-145600960D01*
X209234169Y-145587737D01*
X209299034Y-145613705D01*
X209336943Y-145663723D01*
X209388423Y-145788008D01*
X209388428Y-145788017D01*
X209465085Y-145902741D01*
X209465088Y-145902745D01*
X209562654Y-146000311D01*
X209562658Y-146000314D01*
X209677382Y-146076971D01*
X209677395Y-146076978D01*
X209804867Y-146129778D01*
X209804872Y-146129780D01*
X209804876Y-146129780D01*
X209804877Y-146129781D01*
X209940204Y-146156700D01*
X209940207Y-146156700D01*
X210078195Y-146156700D01*
X210169241Y-146138589D01*
X210213528Y-146129780D01*
X210312124Y-146088940D01*
X210341004Y-146076978D01*
X210341004Y-146076977D01*
X210341011Y-146076975D01*
X210455742Y-146000314D01*
X210553314Y-145902742D01*
X210629975Y-145788011D01*
X210633474Y-145779565D01*
X210641940Y-145759124D01*
X210682780Y-145660528D01*
X210697355Y-145587255D01*
X210709700Y-145525195D01*
X210709700Y-144287204D01*
X210682781Y-144151877D01*
X210682780Y-144151876D01*
X210682780Y-144151872D01*
X210682778Y-144151867D01*
X210629978Y-144024395D01*
X210629971Y-144024382D01*
X210553314Y-143909658D01*
X210553311Y-143909654D01*
X210455745Y-143812088D01*
X210455741Y-143812085D01*
X210341017Y-143735428D01*
X210341004Y-143735421D01*
X210213532Y-143682621D01*
X210213522Y-143682618D01*
X210078195Y-143655700D01*
X210078193Y-143655700D01*
X209940207Y-143655700D01*
X209940205Y-143655700D01*
X209804877Y-143682618D01*
X209804867Y-143682621D01*
X209677395Y-143735421D01*
X209677382Y-143735428D01*
X209562658Y-143812085D01*
X209562654Y-143812088D01*
X209465088Y-143909654D01*
X209465085Y-143909658D01*
X209388428Y-144024382D01*
X209388421Y-144024395D01*
X209335621Y-144151867D01*
X209335618Y-144151877D01*
X209308700Y-144287204D01*
X209308700Y-145075955D01*
X209289015Y-145142994D01*
X209236211Y-145188749D01*
X209167053Y-145198693D01*
X209103497Y-145169668D01*
X209077313Y-145137956D01*
X209064931Y-145116510D01*
X209039715Y-145072835D01*
X208932565Y-144965685D01*
X208866950Y-144927802D01*
X208801336Y-144889919D01*
X208728150Y-144870309D01*
X208654966Y-144850700D01*
X208503434Y-144850700D01*
X208357063Y-144889919D01*
X208225835Y-144965685D01*
X208225832Y-144965687D01*
X208118687Y-145072832D01*
X208118685Y-145072835D01*
X208042919Y-145204063D01*
X208003700Y-145350434D01*
X208003700Y-145501965D01*
X203374700Y-145501965D01*
X203374700Y-145350434D01*
X203335481Y-145204065D01*
X203332379Y-145198693D01*
X203300221Y-145142994D01*
X203259715Y-145072835D01*
X203152565Y-144965685D01*
X203086950Y-144927802D01*
X203021336Y-144889919D01*
X202948150Y-144870309D01*
X202874966Y-144850700D01*
X202723434Y-144850700D01*
X202577063Y-144889919D01*
X202445835Y-144965685D01*
X202445832Y-144965687D01*
X202338687Y-145072832D01*
X202338685Y-145072835D01*
X202301087Y-145137956D01*
X202250519Y-145186171D01*
X202181912Y-145199393D01*
X202117047Y-145173425D01*
X202076519Y-145116510D01*
X202069700Y-145075955D01*
X202069700Y-144287204D01*
X202042781Y-144151877D01*
X202042780Y-144151876D01*
X202042780Y-144151872D01*
X202042778Y-144151867D01*
X201989978Y-144024395D01*
X201989971Y-144024382D01*
X201913314Y-143909658D01*
X201913311Y-143909654D01*
X201815745Y-143812088D01*
X201815741Y-143812085D01*
X201701017Y-143735428D01*
X201701004Y-143735421D01*
X201573532Y-143682621D01*
X201573522Y-143682618D01*
X201438195Y-143655700D01*
X201438193Y-143655700D01*
X201300207Y-143655700D01*
X201300205Y-143655700D01*
X201164877Y-143682618D01*
X201164867Y-143682621D01*
X201037395Y-143735421D01*
X201037382Y-143735428D01*
X200922658Y-143812085D01*
X200922654Y-143812088D01*
X200825088Y-143909654D01*
X200825085Y-143909658D01*
X200748428Y-144024382D01*
X200748421Y-144024395D01*
X200695621Y-144151867D01*
X200695618Y-144151877D01*
X200668700Y-144287204D01*
X200668700Y-144287207D01*
X200668700Y-145525193D01*
X200668700Y-145525195D01*
X200668699Y-145525195D01*
X56396469Y-145525195D01*
X56309772Y-145495983D01*
X56130665Y-145435635D01*
X55770546Y-145356367D01*
X55403971Y-145316500D01*
X55403970Y-145316500D01*
X55035230Y-145316500D01*
X55035228Y-145316500D01*
X54668653Y-145356367D01*
X54308534Y-145435635D01*
X54042738Y-145525193D01*
X53959097Y-145553375D01*
X53959094Y-145553376D01*
X53959086Y-145553379D01*
X53624446Y-145708200D01*
X53624442Y-145708202D01*
X53505833Y-145779567D01*
X53308481Y-145898310D01*
X53224067Y-145962480D01*
X53014930Y-146121461D01*
X53014930Y-146121462D01*
X52747226Y-146375044D01*
X52508509Y-146656083D01*
X52301579Y-146961282D01*
X52301573Y-146961291D01*
X52128861Y-147287061D01*
X52128855Y-147287073D01*
X51992370Y-147629628D01*
X51992368Y-147629634D01*
X51893728Y-147984905D01*
X51893722Y-147984931D01*
X51834070Y-148348786D01*
X51834069Y-148348803D01*
X51814106Y-148716997D01*
X51814106Y-148717002D01*
X50396200Y-148717002D01*
X50396200Y-143044404D01*
X180700732Y-143044404D01*
X180719777Y-143298554D01*
X180719778Y-143298557D01*
X180776492Y-143547037D01*
X180869607Y-143784288D01*
X180997041Y-144005012D01*
X181155950Y-144204277D01*
X181342783Y-144377632D01*
X181553366Y-144521205D01*
X181553371Y-144521207D01*
X181553372Y-144521208D01*
X181553373Y-144521209D01*
X181675328Y-144579938D01*
X181782992Y-144631787D01*
X181782993Y-144631787D01*
X181782996Y-144631789D01*
X182026542Y-144706913D01*
X182278565Y-144744900D01*
X182533435Y-144744900D01*
X182785458Y-144706913D01*
X183029004Y-144631789D01*
X183258634Y-144521205D01*
X183469217Y-144377632D01*
X183656050Y-144204277D01*
X183814959Y-144005012D01*
X183942393Y-143784288D01*
X184035508Y-143547037D01*
X184092222Y-143298557D01*
X184111268Y-143044404D01*
X193840732Y-143044404D01*
X193859777Y-143298554D01*
X193859778Y-143298557D01*
X193916492Y-143547037D01*
X194009607Y-143784288D01*
X194137041Y-144005012D01*
X194295950Y-144204277D01*
X194482783Y-144377632D01*
X194693366Y-144521205D01*
X194693371Y-144521207D01*
X194693372Y-144521208D01*
X194693373Y-144521209D01*
X194815328Y-144579938D01*
X194922992Y-144631787D01*
X194922993Y-144631787D01*
X194922996Y-144631789D01*
X195166542Y-144706913D01*
X195418565Y-144744900D01*
X195673435Y-144744900D01*
X195925458Y-144706913D01*
X196169004Y-144631789D01*
X196398634Y-144521205D01*
X196609217Y-144377632D01*
X196796050Y-144204277D01*
X196954959Y-144005012D01*
X197082393Y-143784288D01*
X197175508Y-143547037D01*
X197232222Y-143298557D01*
X197251268Y-143044400D01*
X197232222Y-142790243D01*
X197175508Y-142541763D01*
X197082393Y-142304512D01*
X196954959Y-142083788D01*
X196796050Y-141884523D01*
X196609217Y-141711168D01*
X196398634Y-141567595D01*
X196398630Y-141567593D01*
X196398627Y-141567591D01*
X196398626Y-141567590D01*
X196169006Y-141457012D01*
X196169008Y-141457012D01*
X195925466Y-141381889D01*
X195925462Y-141381888D01*
X195925458Y-141381887D01*
X195804231Y-141363614D01*
X195673440Y-141343900D01*
X195673435Y-141343900D01*
X195418565Y-141343900D01*
X195418559Y-141343900D01*
X195261609Y-141367557D01*
X195166542Y-141381887D01*
X195166539Y-141381888D01*
X195166533Y-141381889D01*
X194922992Y-141457012D01*
X194693373Y-141567590D01*
X194693372Y-141567591D01*
X194482782Y-141711168D01*
X194295952Y-141884521D01*
X194295950Y-141884523D01*
X194137041Y-142083788D01*
X194009608Y-142304509D01*
X193916492Y-142541762D01*
X193916490Y-142541769D01*
X193859777Y-142790245D01*
X193840732Y-143044395D01*
X193840732Y-143044404D01*
X184111268Y-143044404D01*
X184111268Y-143044400D01*
X184092222Y-142790243D01*
X184035508Y-142541763D01*
X183942393Y-142304512D01*
X183814959Y-142083788D01*
X183656050Y-141884523D01*
X183469217Y-141711168D01*
X183258634Y-141567595D01*
X183258630Y-141567593D01*
X183258627Y-141567591D01*
X183258626Y-141567590D01*
X183029006Y-141457012D01*
X183029008Y-141457012D01*
X182785466Y-141381889D01*
X182785462Y-141381888D01*
X182785458Y-141381887D01*
X182664231Y-141363614D01*
X182533440Y-141343900D01*
X182533435Y-141343900D01*
X182278565Y-141343900D01*
X182278559Y-141343900D01*
X182121609Y-141367557D01*
X182026542Y-141381887D01*
X182026539Y-141381888D01*
X182026533Y-141381889D01*
X181782992Y-141457012D01*
X181553373Y-141567590D01*
X181553372Y-141567591D01*
X181342782Y-141711168D01*
X181155952Y-141884521D01*
X181155950Y-141884523D01*
X180997041Y-142083788D01*
X180869608Y-142304509D01*
X180776492Y-142541762D01*
X180776490Y-142541769D01*
X180719777Y-142790245D01*
X180700732Y-143044395D01*
X180700732Y-143044404D01*
X50396200Y-143044404D01*
X50396200Y-141104152D01*
X184475500Y-141104152D01*
X184487131Y-141162629D01*
X184487132Y-141162630D01*
X184531447Y-141228952D01*
X184597769Y-141273267D01*
X184597770Y-141273268D01*
X184656247Y-141284899D01*
X184656250Y-141284900D01*
X184656252Y-141284900D01*
X186295750Y-141284900D01*
X186295751Y-141284899D01*
X186310568Y-141281952D01*
X186354229Y-141273268D01*
X186354229Y-141273267D01*
X186354231Y-141273267D01*
X186420552Y-141228952D01*
X186464867Y-141162631D01*
X186464867Y-141162629D01*
X186464868Y-141162629D01*
X186476499Y-141104152D01*
X186476500Y-141104150D01*
X186476500Y-140334400D01*
X186970659Y-140334400D01*
X186989975Y-140530529D01*
X187047188Y-140719133D01*
X187140086Y-140892932D01*
X187140090Y-140892939D01*
X187265116Y-141045283D01*
X187417460Y-141170309D01*
X187417467Y-141170313D01*
X187591266Y-141263211D01*
X187591269Y-141263211D01*
X187591273Y-141263214D01*
X187779868Y-141320424D01*
X187976000Y-141339741D01*
X188172132Y-141320424D01*
X188360727Y-141263214D01*
X188534538Y-141170310D01*
X188686883Y-141045283D01*
X188811910Y-140892938D01*
X188824657Y-140869090D01*
X188866642Y-140790543D01*
X188915604Y-140740699D01*
X188983742Y-140725238D01*
X189049421Y-140749070D01*
X189085358Y-140790543D01*
X189140086Y-140892932D01*
X189140090Y-140892939D01*
X189265116Y-141045283D01*
X189417460Y-141170309D01*
X189417467Y-141170313D01*
X189591266Y-141263211D01*
X189591269Y-141263211D01*
X189591273Y-141263214D01*
X189779868Y-141320424D01*
X189976000Y-141339741D01*
X190172132Y-141320424D01*
X190360727Y-141263214D01*
X190534538Y-141170310D01*
X190686883Y-141045283D01*
X190811910Y-140892938D01*
X190904814Y-140719127D01*
X190962024Y-140530532D01*
X190981341Y-140334400D01*
X191470659Y-140334400D01*
X191489975Y-140530529D01*
X191547188Y-140719133D01*
X191640086Y-140892932D01*
X191640090Y-140892939D01*
X191765116Y-141045283D01*
X191917460Y-141170309D01*
X191917467Y-141170313D01*
X192091266Y-141263211D01*
X192091269Y-141263211D01*
X192091273Y-141263214D01*
X192279868Y-141320424D01*
X192476000Y-141339741D01*
X192672132Y-141320424D01*
X192860727Y-141263214D01*
X193034538Y-141170310D01*
X193186883Y-141045283D01*
X193311910Y-140892938D01*
X193404814Y-140719127D01*
X193462024Y-140530532D01*
X193481341Y-140334400D01*
X193462024Y-140138268D01*
X193404814Y-139949673D01*
X193404811Y-139949669D01*
X193404811Y-139949666D01*
X193311913Y-139775867D01*
X193311909Y-139775860D01*
X193186883Y-139623516D01*
X193034539Y-139498490D01*
X193034532Y-139498486D01*
X192860733Y-139405588D01*
X192860727Y-139405586D01*
X192672132Y-139348376D01*
X192672129Y-139348375D01*
X192476000Y-139329059D01*
X192279870Y-139348375D01*
X192091266Y-139405588D01*
X191917467Y-139498486D01*
X191917460Y-139498490D01*
X191765116Y-139623516D01*
X191640090Y-139775860D01*
X191640086Y-139775867D01*
X191547188Y-139949666D01*
X191489975Y-140138270D01*
X191470659Y-140334400D01*
X190981341Y-140334400D01*
X190962024Y-140138268D01*
X190904814Y-139949673D01*
X190904811Y-139949669D01*
X190904811Y-139949666D01*
X190811913Y-139775867D01*
X190811909Y-139775860D01*
X190686883Y-139623516D01*
X190534539Y-139498490D01*
X190534532Y-139498486D01*
X190360733Y-139405588D01*
X190360727Y-139405586D01*
X190172132Y-139348376D01*
X190172129Y-139348375D01*
X189976000Y-139329059D01*
X189779870Y-139348375D01*
X189591266Y-139405588D01*
X189417467Y-139498486D01*
X189417460Y-139498490D01*
X189265116Y-139623516D01*
X189140090Y-139775860D01*
X189140085Y-139775867D01*
X189085358Y-139878256D01*
X189036396Y-139928101D01*
X188968258Y-139943561D01*
X188902578Y-139919729D01*
X188866642Y-139878256D01*
X188811914Y-139775867D01*
X188811909Y-139775860D01*
X188686883Y-139623516D01*
X188534539Y-139498490D01*
X188534532Y-139498486D01*
X188360733Y-139405588D01*
X188360727Y-139405586D01*
X188172132Y-139348376D01*
X188172129Y-139348375D01*
X187976000Y-139329059D01*
X187779870Y-139348375D01*
X187591266Y-139405588D01*
X187417467Y-139498486D01*
X187417460Y-139498490D01*
X187265116Y-139623516D01*
X187140090Y-139775860D01*
X187140086Y-139775867D01*
X187047188Y-139949666D01*
X186989975Y-140138270D01*
X186970659Y-140334400D01*
X186476500Y-140334400D01*
X186476500Y-139564649D01*
X186476499Y-139564647D01*
X186464868Y-139506170D01*
X186464867Y-139506169D01*
X186420552Y-139439847D01*
X186354230Y-139395532D01*
X186354229Y-139395531D01*
X186295752Y-139383900D01*
X186295748Y-139383900D01*
X184656252Y-139383900D01*
X184656247Y-139383900D01*
X184597770Y-139395531D01*
X184597769Y-139395532D01*
X184531447Y-139439847D01*
X184487132Y-139506169D01*
X184487131Y-139506170D01*
X184475500Y-139564647D01*
X184475500Y-141104152D01*
X50396200Y-141104152D01*
X50396200Y-97597211D01*
X53295500Y-97597211D01*
X53322598Y-97768301D01*
X53376127Y-97933045D01*
X53454768Y-98087388D01*
X53556586Y-98227528D01*
X53679072Y-98350014D01*
X53819212Y-98451832D01*
X53973555Y-98530473D01*
X54138299Y-98584002D01*
X54309389Y-98611100D01*
X54309390Y-98611100D01*
X54482610Y-98611100D01*
X54482611Y-98611100D01*
X54653701Y-98584002D01*
X54818445Y-98530473D01*
X54972788Y-98451832D01*
X55112928Y-98350014D01*
X55235414Y-98227528D01*
X55337232Y-98087388D01*
X55415873Y-97933045D01*
X55469402Y-97768301D01*
X55496500Y-97597211D01*
X60295500Y-97597211D01*
X60322598Y-97768301D01*
X60376127Y-97933045D01*
X60454768Y-98087388D01*
X60556586Y-98227528D01*
X60679072Y-98350014D01*
X60819212Y-98451832D01*
X60973555Y-98530473D01*
X61138299Y-98584002D01*
X61309389Y-98611100D01*
X61309390Y-98611100D01*
X61482610Y-98611100D01*
X61482611Y-98611100D01*
X61653701Y-98584002D01*
X61818445Y-98530473D01*
X61972788Y-98451832D01*
X62112928Y-98350014D01*
X62235414Y-98227528D01*
X62337232Y-98087388D01*
X62415873Y-97933045D01*
X62469402Y-97768301D01*
X62496500Y-97597211D01*
X62496500Y-97423989D01*
X62469402Y-97252899D01*
X62424337Y-97114203D01*
X119927308Y-97114203D01*
X119947152Y-97239500D01*
X119947152Y-97239501D01*
X119965605Y-97275717D01*
X120004750Y-97352542D01*
X120004752Y-97352544D01*
X120004754Y-97352547D01*
X120094452Y-97442245D01*
X120094454Y-97442246D01*
X120094458Y-97442250D01*
X120207496Y-97499846D01*
X120207497Y-97499846D01*
X120207499Y-97499847D01*
X120332797Y-97519692D01*
X120332800Y-97519692D01*
X120332803Y-97519692D01*
X120458100Y-97499847D01*
X120458101Y-97499847D01*
X120458102Y-97499846D01*
X120458104Y-97499846D01*
X120571142Y-97442250D01*
X120660850Y-97352542D01*
X120718446Y-97239504D01*
X120718446Y-97239502D01*
X120718447Y-97239501D01*
X120718447Y-97239500D01*
X120738292Y-97114203D01*
X126429708Y-97114203D01*
X126449552Y-97239500D01*
X126449552Y-97239501D01*
X126468005Y-97275717D01*
X126507150Y-97352542D01*
X126507152Y-97352544D01*
X126507154Y-97352547D01*
X126596852Y-97442245D01*
X126596854Y-97442246D01*
X126596858Y-97442250D01*
X126709896Y-97499846D01*
X126709897Y-97499846D01*
X126709899Y-97499847D01*
X126835197Y-97519692D01*
X126835200Y-97519692D01*
X126835203Y-97519692D01*
X126960500Y-97499847D01*
X126960501Y-97499847D01*
X126960502Y-97499846D01*
X126960504Y-97499846D01*
X127073542Y-97442250D01*
X127163250Y-97352542D01*
X127220846Y-97239504D01*
X127220846Y-97239502D01*
X127220847Y-97239501D01*
X127220847Y-97239500D01*
X127240692Y-97114203D01*
X131433508Y-97114203D01*
X131453352Y-97239500D01*
X131453352Y-97239501D01*
X131471805Y-97275717D01*
X131510950Y-97352542D01*
X131510952Y-97352544D01*
X131510954Y-97352547D01*
X131600652Y-97442245D01*
X131600654Y-97442246D01*
X131600658Y-97442250D01*
X131713696Y-97499846D01*
X131713697Y-97499846D01*
X131713699Y-97499847D01*
X131838997Y-97519692D01*
X131839000Y-97519692D01*
X131839003Y-97519692D01*
X131964300Y-97499847D01*
X131964301Y-97499847D01*
X131964302Y-97499846D01*
X131964304Y-97499846D01*
X132077342Y-97442250D01*
X132167050Y-97352542D01*
X132224646Y-97239504D01*
X132224646Y-97239502D01*
X132224647Y-97239501D01*
X132224647Y-97239500D01*
X132244492Y-97114203D01*
X132244492Y-97114196D01*
X132224647Y-96988899D01*
X132224647Y-96988898D01*
X132224646Y-96988896D01*
X132167050Y-96875858D01*
X132167046Y-96875854D01*
X132167045Y-96875852D01*
X132077347Y-96786154D01*
X132077344Y-96786152D01*
X132077342Y-96786150D01*
X131964304Y-96728554D01*
X131964303Y-96728553D01*
X131964300Y-96728552D01*
X131839003Y-96708708D01*
X131838997Y-96708708D01*
X131713699Y-96728552D01*
X131713698Y-96728552D01*
X131638337Y-96766951D01*
X131600658Y-96786150D01*
X131600657Y-96786151D01*
X131600652Y-96786154D01*
X131510954Y-96875852D01*
X131510951Y-96875857D01*
X131453352Y-96988898D01*
X131453352Y-96988899D01*
X131433508Y-97114196D01*
X131433508Y-97114203D01*
X127240692Y-97114203D01*
X127240692Y-97114196D01*
X127220847Y-96988899D01*
X127220847Y-96988898D01*
X127220846Y-96988896D01*
X127163250Y-96875858D01*
X127163246Y-96875854D01*
X127163245Y-96875852D01*
X127073547Y-96786154D01*
X127073544Y-96786152D01*
X127073542Y-96786150D01*
X126960504Y-96728554D01*
X126960503Y-96728553D01*
X126960500Y-96728552D01*
X126835203Y-96708708D01*
X126835197Y-96708708D01*
X126709899Y-96728552D01*
X126709898Y-96728552D01*
X126634537Y-96766951D01*
X126596858Y-96786150D01*
X126596857Y-96786151D01*
X126596852Y-96786154D01*
X126507154Y-96875852D01*
X126507151Y-96875857D01*
X126449552Y-96988898D01*
X126449552Y-96988899D01*
X126429708Y-97114196D01*
X126429708Y-97114203D01*
X120738292Y-97114203D01*
X120738292Y-97114196D01*
X120718447Y-96988899D01*
X120718447Y-96988898D01*
X120718446Y-96988896D01*
X120660850Y-96875858D01*
X120660846Y-96875854D01*
X120660845Y-96875852D01*
X120571147Y-96786154D01*
X120571144Y-96786152D01*
X120571142Y-96786150D01*
X120458104Y-96728554D01*
X120458103Y-96728553D01*
X120458100Y-96728552D01*
X120332803Y-96708708D01*
X120332797Y-96708708D01*
X120207499Y-96728552D01*
X120207498Y-96728552D01*
X120132137Y-96766951D01*
X120094458Y-96786150D01*
X120094457Y-96786151D01*
X120094452Y-96786154D01*
X120004754Y-96875852D01*
X120004751Y-96875857D01*
X119947152Y-96988898D01*
X119947152Y-96988899D01*
X119927308Y-97114196D01*
X119927308Y-97114203D01*
X62424337Y-97114203D01*
X62415873Y-97088155D01*
X62337232Y-96933812D01*
X62235414Y-96793672D01*
X62112928Y-96671186D01*
X61972788Y-96569368D01*
X61818445Y-96490727D01*
X61653701Y-96437198D01*
X61653699Y-96437197D01*
X61653698Y-96437197D01*
X61522271Y-96416381D01*
X61482611Y-96410100D01*
X61309389Y-96410100D01*
X61269728Y-96416381D01*
X61138302Y-96437197D01*
X60973552Y-96490728D01*
X60819211Y-96569368D01*
X60739256Y-96627459D01*
X60679072Y-96671186D01*
X60679070Y-96671188D01*
X60679069Y-96671188D01*
X60556588Y-96793669D01*
X60556588Y-96793670D01*
X60556586Y-96793672D01*
X60512859Y-96853856D01*
X60454768Y-96933811D01*
X60376128Y-97088152D01*
X60322597Y-97252902D01*
X60306816Y-97352542D01*
X60295500Y-97423989D01*
X60295500Y-97597211D01*
X55496500Y-97597211D01*
X55496500Y-97423989D01*
X55469402Y-97252899D01*
X55415873Y-97088155D01*
X55337232Y-96933812D01*
X55235414Y-96793672D01*
X55112928Y-96671186D01*
X54972788Y-96569368D01*
X54818445Y-96490727D01*
X54653701Y-96437198D01*
X54653699Y-96437197D01*
X54653698Y-96437197D01*
X54522271Y-96416381D01*
X54482611Y-96410100D01*
X54309389Y-96410100D01*
X54269728Y-96416381D01*
X54138302Y-96437197D01*
X53973552Y-96490728D01*
X53819211Y-96569368D01*
X53739256Y-96627459D01*
X53679072Y-96671186D01*
X53679070Y-96671188D01*
X53679069Y-96671188D01*
X53556588Y-96793669D01*
X53556588Y-96793670D01*
X53556586Y-96793672D01*
X53512859Y-96853856D01*
X53454768Y-96933811D01*
X53376128Y-97088152D01*
X53322597Y-97252902D01*
X53306816Y-97352542D01*
X53295500Y-97423989D01*
X53295500Y-97597211D01*
X50396200Y-97597211D01*
X50396200Y-40716202D01*
X51090506Y-40716202D01*
X51110469Y-41084396D01*
X51110470Y-41084413D01*
X51170122Y-41448268D01*
X51170128Y-41448294D01*
X51268768Y-41803565D01*
X51268770Y-41803571D01*
X51405255Y-42146126D01*
X51405261Y-42146138D01*
X51577973Y-42471908D01*
X51577979Y-42471917D01*
X51784909Y-42777116D01*
X51983114Y-43010460D01*
X52023627Y-43058156D01*
X52291330Y-43311738D01*
X52584881Y-43534890D01*
X52900838Y-43724995D01*
X52900840Y-43724996D01*
X52900842Y-43724997D01*
X52900846Y-43724999D01*
X52994297Y-43768234D01*
X53235497Y-43879825D01*
X53584934Y-43997564D01*
X53945052Y-44076832D01*
X54311630Y-44116700D01*
X54311636Y-44116700D01*
X54680364Y-44116700D01*
X54680370Y-44116700D01*
X55046948Y-44076832D01*
X55407066Y-43997564D01*
X55756503Y-43879825D01*
X56091162Y-43724995D01*
X56407119Y-43534890D01*
X56700670Y-43311738D01*
X56968373Y-43058156D01*
X57207090Y-42777117D01*
X57414022Y-42471916D01*
X57586743Y-42146130D01*
X57723227Y-41803579D01*
X57821875Y-41448281D01*
X57881531Y-41084399D01*
X57888842Y-40949546D01*
X226408962Y-40949546D01*
X226428925Y-41317740D01*
X226428926Y-41317757D01*
X226488578Y-41681612D01*
X226488584Y-41681638D01*
X226587224Y-42036909D01*
X226587226Y-42036915D01*
X226723711Y-42379470D01*
X226723717Y-42379482D01*
X226896429Y-42705252D01*
X226896432Y-42705257D01*
X226896434Y-42705260D01*
X226999900Y-42857860D01*
X227103365Y-43010460D01*
X227143879Y-43058156D01*
X227342083Y-43291500D01*
X227609786Y-43545082D01*
X227903337Y-43768234D01*
X228219294Y-43958339D01*
X228219296Y-43958340D01*
X228219298Y-43958341D01*
X228219302Y-43958343D01*
X228304077Y-43997564D01*
X228553953Y-44113169D01*
X228903390Y-44230908D01*
X229263508Y-44310176D01*
X229630086Y-44350044D01*
X229630092Y-44350044D01*
X229998820Y-44350044D01*
X229998826Y-44350044D01*
X230365404Y-44310176D01*
X230725522Y-44230908D01*
X231074959Y-44113169D01*
X231409618Y-43958339D01*
X231725575Y-43768234D01*
X232019126Y-43545082D01*
X232286829Y-43291500D01*
X232525546Y-43010461D01*
X232732478Y-42705260D01*
X232905199Y-42379474D01*
X233041683Y-42036923D01*
X233140331Y-41681625D01*
X233199987Y-41317743D01*
X233219950Y-40949544D01*
X233199987Y-40581345D01*
X233161729Y-40347986D01*
X233140333Y-40217475D01*
X233140332Y-40217474D01*
X233140331Y-40217463D01*
X233075547Y-39984131D01*
X233041687Y-39862178D01*
X233041685Y-39862172D01*
X233041684Y-39862171D01*
X233041683Y-39862165D01*
X232905199Y-39519614D01*
X232732478Y-39193828D01*
X232525546Y-38888627D01*
X232286829Y-38607588D01*
X232019126Y-38354006D01*
X231725575Y-38130854D01*
X231409618Y-37940749D01*
X231409617Y-37940748D01*
X231409613Y-37940746D01*
X231409609Y-37940744D01*
X231074969Y-37785923D01*
X231074964Y-37785921D01*
X231074959Y-37785919D01*
X230841929Y-37707402D01*
X230725521Y-37668179D01*
X230365402Y-37588911D01*
X229998827Y-37549044D01*
X229998826Y-37549044D01*
X229630086Y-37549044D01*
X229630084Y-37549044D01*
X229263509Y-37588911D01*
X228903390Y-37668179D01*
X228633268Y-37759194D01*
X228553953Y-37785919D01*
X228553950Y-37785920D01*
X228553942Y-37785923D01*
X228219302Y-37940744D01*
X228219298Y-37940746D01*
X227983994Y-38082323D01*
X227903337Y-38130854D01*
X227802866Y-38207229D01*
X227609786Y-38354005D01*
X227609786Y-38354006D01*
X227342082Y-38607588D01*
X227103365Y-38888627D01*
X226896435Y-39193826D01*
X226896429Y-39193835D01*
X226723717Y-39519605D01*
X226723711Y-39519617D01*
X226587226Y-39862172D01*
X226587224Y-39862178D01*
X226488584Y-40217449D01*
X226488578Y-40217475D01*
X226428926Y-40581330D01*
X226428925Y-40581347D01*
X226408962Y-40949541D01*
X226408962Y-40949546D01*
X57888842Y-40949546D01*
X57901494Y-40716200D01*
X57881531Y-40348001D01*
X57821875Y-39984119D01*
X57723227Y-39628821D01*
X57586743Y-39286270D01*
X57414022Y-38960484D01*
X57207090Y-38655283D01*
X56968373Y-38374244D01*
X56700670Y-38120662D01*
X56407119Y-37897510D01*
X56091162Y-37707405D01*
X56091161Y-37707404D01*
X56091157Y-37707402D01*
X56091153Y-37707400D01*
X55756513Y-37552579D01*
X55756508Y-37552577D01*
X55756503Y-37552575D01*
X55586172Y-37495183D01*
X55407065Y-37434835D01*
X55046946Y-37355567D01*
X54680371Y-37315700D01*
X54680370Y-37315700D01*
X54311630Y-37315700D01*
X54311628Y-37315700D01*
X53945053Y-37355567D01*
X53584934Y-37434835D01*
X53314812Y-37525850D01*
X53235497Y-37552575D01*
X53235494Y-37552576D01*
X53235486Y-37552579D01*
X52900846Y-37707400D01*
X52900842Y-37707402D01*
X52770340Y-37785923D01*
X52584881Y-37897510D01*
X52528008Y-37940744D01*
X52291330Y-38120661D01*
X52291330Y-38120662D01*
X52023626Y-38374244D01*
X51784909Y-38655283D01*
X51577979Y-38960482D01*
X51577973Y-38960491D01*
X51405261Y-39286261D01*
X51405255Y-39286273D01*
X51268770Y-39628828D01*
X51268768Y-39628834D01*
X51170128Y-39984105D01*
X51170122Y-39984131D01*
X51110470Y-40347986D01*
X51110469Y-40348003D01*
X51090506Y-40716197D01*
X51090506Y-40716202D01*
X50396200Y-40716202D01*
X50396200Y-36599000D01*
X50415885Y-36531961D01*
X50468689Y-36486206D01*
X50520200Y-36475000D01*
X233672200Y-36475000D01*
X233739239Y-36494685D01*
G37*
%TD.AperFunction*%
%TD*%
M02*
