%TF.GenerationSoftware,KiCad,Pcbnew,8.0.1*%
%TF.CreationDate,2024-07-11T11:53:29+07:00*%
%TF.ProjectId,chroma-pixel-zeta,6368726f-6d61-42d7-9069-78656c2d7a65,rev?*%
%TF.SameCoordinates,Original*%
%TF.FileFunction,Legend,Top*%
%TF.FilePolarity,Positive*%
%FSLAX46Y46*%
G04 Gerber Fmt 4.6, Leading zero omitted, Abs format (unit mm)*
G04 Created by KiCad (PCBNEW 8.0.1) date 2024-07-11 11:53:29*
%MOMM*%
%LPD*%
G01*
G04 APERTURE LIST*
%ADD10C,0.150000*%
%ADD11C,0.120000*%
%ADD12C,0.127000*%
%ADD13C,0.300000*%
%ADD14C,0.200000*%
%ADD15C,0.250000*%
G04 APERTURE END LIST*
D10*
X69243676Y-142931419D02*
X69243676Y-143645704D01*
X69243676Y-143645704D02*
X69196057Y-143788561D01*
X69196057Y-143788561D02*
X69100819Y-143883800D01*
X69100819Y-143883800D02*
X68957962Y-143931419D01*
X68957962Y-143931419D02*
X68862724Y-143931419D01*
X70243676Y-143931419D02*
X69672248Y-143931419D01*
X69957962Y-143931419D02*
X69957962Y-142931419D01*
X69957962Y-142931419D02*
X69862724Y-143074276D01*
X69862724Y-143074276D02*
X69767486Y-143169514D01*
X69767486Y-143169514D02*
X69672248Y-143217133D01*
X71148438Y-142931419D02*
X70672248Y-142931419D01*
X70672248Y-142931419D02*
X70624629Y-143407609D01*
X70624629Y-143407609D02*
X70672248Y-143359990D01*
X70672248Y-143359990D02*
X70767486Y-143312371D01*
X70767486Y-143312371D02*
X71005581Y-143312371D01*
X71005581Y-143312371D02*
X71100819Y-143359990D01*
X71100819Y-143359990D02*
X71148438Y-143407609D01*
X71148438Y-143407609D02*
X71196057Y-143502847D01*
X71196057Y-143502847D02*
X71196057Y-143740942D01*
X71196057Y-143740942D02*
X71148438Y-143836180D01*
X71148438Y-143836180D02*
X71100819Y-143883800D01*
X71100819Y-143883800D02*
X71005581Y-143931419D01*
X71005581Y-143931419D02*
X70767486Y-143931419D01*
X70767486Y-143931419D02*
X70672248Y-143883800D01*
X70672248Y-143883800D02*
X70624629Y-143836180D01*
X109286676Y-145391019D02*
X109286676Y-146105304D01*
X109286676Y-146105304D02*
X109239057Y-146248161D01*
X109239057Y-146248161D02*
X109143819Y-146343400D01*
X109143819Y-146343400D02*
X109000962Y-146391019D01*
X109000962Y-146391019D02*
X108905724Y-146391019D01*
X110286676Y-146391019D02*
X109715248Y-146391019D01*
X110000962Y-146391019D02*
X110000962Y-145391019D01*
X110000962Y-145391019D02*
X109905724Y-145533876D01*
X109905724Y-145533876D02*
X109810486Y-145629114D01*
X109810486Y-145629114D02*
X109715248Y-145676733D01*
X111143819Y-145724352D02*
X111143819Y-146391019D01*
X110905724Y-145343400D02*
X110667629Y-146057685D01*
X110667629Y-146057685D02*
X111286676Y-146057685D01*
X66117885Y-119200409D02*
X66260742Y-119248028D01*
X66260742Y-119248028D02*
X66308361Y-119295647D01*
X66308361Y-119295647D02*
X66355980Y-119390885D01*
X66355980Y-119390885D02*
X66355980Y-119533742D01*
X66355980Y-119533742D02*
X66308361Y-119628980D01*
X66308361Y-119628980D02*
X66260742Y-119676600D01*
X66260742Y-119676600D02*
X66165504Y-119724219D01*
X66165504Y-119724219D02*
X65784552Y-119724219D01*
X65784552Y-119724219D02*
X65784552Y-118724219D01*
X65784552Y-118724219D02*
X66117885Y-118724219D01*
X66117885Y-118724219D02*
X66213123Y-118771838D01*
X66213123Y-118771838D02*
X66260742Y-118819457D01*
X66260742Y-118819457D02*
X66308361Y-118914695D01*
X66308361Y-118914695D02*
X66308361Y-119009933D01*
X66308361Y-119009933D02*
X66260742Y-119105171D01*
X66260742Y-119105171D02*
X66213123Y-119152790D01*
X66213123Y-119152790D02*
X66117885Y-119200409D01*
X66117885Y-119200409D02*
X65784552Y-119200409D01*
X66641695Y-118724219D02*
X67213123Y-118724219D01*
X66927409Y-119724219D02*
X66927409Y-118724219D01*
X68070266Y-119724219D02*
X67498838Y-119724219D01*
X67784552Y-119724219D02*
X67784552Y-118724219D01*
X67784552Y-118724219D02*
X67689314Y-118867076D01*
X67689314Y-118867076D02*
X67594076Y-118962314D01*
X67594076Y-118962314D02*
X67498838Y-119009933D01*
X191929905Y-109318819D02*
X191929905Y-110128342D01*
X191929905Y-110128342D02*
X191977524Y-110223580D01*
X191977524Y-110223580D02*
X192025143Y-110271200D01*
X192025143Y-110271200D02*
X192120381Y-110318819D01*
X192120381Y-110318819D02*
X192310857Y-110318819D01*
X192310857Y-110318819D02*
X192406095Y-110271200D01*
X192406095Y-110271200D02*
X192453714Y-110223580D01*
X192453714Y-110223580D02*
X192501333Y-110128342D01*
X192501333Y-110128342D02*
X192501333Y-109318819D01*
X193501333Y-110318819D02*
X192929905Y-110318819D01*
X193215619Y-110318819D02*
X193215619Y-109318819D01*
X193215619Y-109318819D02*
X193120381Y-109461676D01*
X193120381Y-109461676D02*
X193025143Y-109556914D01*
X193025143Y-109556914D02*
X192929905Y-109604533D01*
X194453714Y-110318819D02*
X193882286Y-110318819D01*
X194168000Y-110318819D02*
X194168000Y-109318819D01*
X194168000Y-109318819D02*
X194072762Y-109461676D01*
X194072762Y-109461676D02*
X193977524Y-109556914D01*
X193977524Y-109556914D02*
X193882286Y-109604533D01*
X191405142Y-118743819D02*
X191071809Y-118267628D01*
X190833714Y-118743819D02*
X190833714Y-117743819D01*
X190833714Y-117743819D02*
X191214666Y-117743819D01*
X191214666Y-117743819D02*
X191309904Y-117791438D01*
X191309904Y-117791438D02*
X191357523Y-117839057D01*
X191357523Y-117839057D02*
X191405142Y-117934295D01*
X191405142Y-117934295D02*
X191405142Y-118077152D01*
X191405142Y-118077152D02*
X191357523Y-118172390D01*
X191357523Y-118172390D02*
X191309904Y-118220009D01*
X191309904Y-118220009D02*
X191214666Y-118267628D01*
X191214666Y-118267628D02*
X190833714Y-118267628D01*
X192262285Y-118077152D02*
X192262285Y-118743819D01*
X192024190Y-117696200D02*
X191786095Y-118410485D01*
X191786095Y-118410485D02*
X192405142Y-118410485D01*
X193309904Y-118743819D02*
X192738476Y-118743819D01*
X193024190Y-118743819D02*
X193024190Y-117743819D01*
X193024190Y-117743819D02*
X192928952Y-117886676D01*
X192928952Y-117886676D02*
X192833714Y-117981914D01*
X192833714Y-117981914D02*
X192738476Y-118029533D01*
X191405142Y-116753819D02*
X191071809Y-116277628D01*
X190833714Y-116753819D02*
X190833714Y-115753819D01*
X190833714Y-115753819D02*
X191214666Y-115753819D01*
X191214666Y-115753819D02*
X191309904Y-115801438D01*
X191309904Y-115801438D02*
X191357523Y-115849057D01*
X191357523Y-115849057D02*
X191405142Y-115944295D01*
X191405142Y-115944295D02*
X191405142Y-116087152D01*
X191405142Y-116087152D02*
X191357523Y-116182390D01*
X191357523Y-116182390D02*
X191309904Y-116230009D01*
X191309904Y-116230009D02*
X191214666Y-116277628D01*
X191214666Y-116277628D02*
X190833714Y-116277628D01*
X192262285Y-116087152D02*
X192262285Y-116753819D01*
X192024190Y-115706200D02*
X191786095Y-116420485D01*
X191786095Y-116420485D02*
X192405142Y-116420485D01*
X192976571Y-115753819D02*
X193071809Y-115753819D01*
X193071809Y-115753819D02*
X193167047Y-115801438D01*
X193167047Y-115801438D02*
X193214666Y-115849057D01*
X193214666Y-115849057D02*
X193262285Y-115944295D01*
X193262285Y-115944295D02*
X193309904Y-116134771D01*
X193309904Y-116134771D02*
X193309904Y-116372866D01*
X193309904Y-116372866D02*
X193262285Y-116563342D01*
X193262285Y-116563342D02*
X193214666Y-116658580D01*
X193214666Y-116658580D02*
X193167047Y-116706200D01*
X193167047Y-116706200D02*
X193071809Y-116753819D01*
X193071809Y-116753819D02*
X192976571Y-116753819D01*
X192976571Y-116753819D02*
X192881333Y-116706200D01*
X192881333Y-116706200D02*
X192833714Y-116658580D01*
X192833714Y-116658580D02*
X192786095Y-116563342D01*
X192786095Y-116563342D02*
X192738476Y-116372866D01*
X192738476Y-116372866D02*
X192738476Y-116134771D01*
X192738476Y-116134771D02*
X192786095Y-115944295D01*
X192786095Y-115944295D02*
X192833714Y-115849057D01*
X192833714Y-115849057D02*
X192881333Y-115801438D01*
X192881333Y-115801438D02*
X192976571Y-115753819D01*
X191405142Y-114763819D02*
X191071809Y-114287628D01*
X190833714Y-114763819D02*
X190833714Y-113763819D01*
X190833714Y-113763819D02*
X191214666Y-113763819D01*
X191214666Y-113763819D02*
X191309904Y-113811438D01*
X191309904Y-113811438D02*
X191357523Y-113859057D01*
X191357523Y-113859057D02*
X191405142Y-113954295D01*
X191405142Y-113954295D02*
X191405142Y-114097152D01*
X191405142Y-114097152D02*
X191357523Y-114192390D01*
X191357523Y-114192390D02*
X191309904Y-114240009D01*
X191309904Y-114240009D02*
X191214666Y-114287628D01*
X191214666Y-114287628D02*
X190833714Y-114287628D01*
X191738476Y-113763819D02*
X192357523Y-113763819D01*
X192357523Y-113763819D02*
X192024190Y-114144771D01*
X192024190Y-114144771D02*
X192167047Y-114144771D01*
X192167047Y-114144771D02*
X192262285Y-114192390D01*
X192262285Y-114192390D02*
X192309904Y-114240009D01*
X192309904Y-114240009D02*
X192357523Y-114335247D01*
X192357523Y-114335247D02*
X192357523Y-114573342D01*
X192357523Y-114573342D02*
X192309904Y-114668580D01*
X192309904Y-114668580D02*
X192262285Y-114716200D01*
X192262285Y-114716200D02*
X192167047Y-114763819D01*
X192167047Y-114763819D02*
X191881333Y-114763819D01*
X191881333Y-114763819D02*
X191786095Y-114716200D01*
X191786095Y-114716200D02*
X191738476Y-114668580D01*
X192833714Y-114763819D02*
X193024190Y-114763819D01*
X193024190Y-114763819D02*
X193119428Y-114716200D01*
X193119428Y-114716200D02*
X193167047Y-114668580D01*
X193167047Y-114668580D02*
X193262285Y-114525723D01*
X193262285Y-114525723D02*
X193309904Y-114335247D01*
X193309904Y-114335247D02*
X193309904Y-113954295D01*
X193309904Y-113954295D02*
X193262285Y-113859057D01*
X193262285Y-113859057D02*
X193214666Y-113811438D01*
X193214666Y-113811438D02*
X193119428Y-113763819D01*
X193119428Y-113763819D02*
X192928952Y-113763819D01*
X192928952Y-113763819D02*
X192833714Y-113811438D01*
X192833714Y-113811438D02*
X192786095Y-113859057D01*
X192786095Y-113859057D02*
X192738476Y-113954295D01*
X192738476Y-113954295D02*
X192738476Y-114192390D01*
X192738476Y-114192390D02*
X192786095Y-114287628D01*
X192786095Y-114287628D02*
X192833714Y-114335247D01*
X192833714Y-114335247D02*
X192928952Y-114382866D01*
X192928952Y-114382866D02*
X193119428Y-114382866D01*
X193119428Y-114382866D02*
X193214666Y-114335247D01*
X193214666Y-114335247D02*
X193262285Y-114287628D01*
X193262285Y-114287628D02*
X193309904Y-114192390D01*
X194533714Y-114808819D02*
X194533714Y-113808819D01*
X194533714Y-113808819D02*
X194771809Y-113808819D01*
X194771809Y-113808819D02*
X194914666Y-113856438D01*
X194914666Y-113856438D02*
X195009904Y-113951676D01*
X195009904Y-113951676D02*
X195057523Y-114046914D01*
X195057523Y-114046914D02*
X195105142Y-114237390D01*
X195105142Y-114237390D02*
X195105142Y-114380247D01*
X195105142Y-114380247D02*
X195057523Y-114570723D01*
X195057523Y-114570723D02*
X195009904Y-114665961D01*
X195009904Y-114665961D02*
X194914666Y-114761200D01*
X194914666Y-114761200D02*
X194771809Y-114808819D01*
X194771809Y-114808819D02*
X194533714Y-114808819D01*
X196057523Y-114808819D02*
X195486095Y-114808819D01*
X195771809Y-114808819D02*
X195771809Y-113808819D01*
X195771809Y-113808819D02*
X195676571Y-113951676D01*
X195676571Y-113951676D02*
X195581333Y-114046914D01*
X195581333Y-114046914D02*
X195486095Y-114094533D01*
X196438476Y-113904057D02*
X196486095Y-113856438D01*
X196486095Y-113856438D02*
X196581333Y-113808819D01*
X196581333Y-113808819D02*
X196819428Y-113808819D01*
X196819428Y-113808819D02*
X196914666Y-113856438D01*
X196914666Y-113856438D02*
X196962285Y-113904057D01*
X196962285Y-113904057D02*
X197009904Y-113999295D01*
X197009904Y-113999295D02*
X197009904Y-114094533D01*
X197009904Y-114094533D02*
X196962285Y-114237390D01*
X196962285Y-114237390D02*
X196390857Y-114808819D01*
X196390857Y-114808819D02*
X197009904Y-114808819D01*
X194458714Y-117603819D02*
X194458714Y-116603819D01*
X194458714Y-116603819D02*
X194696809Y-116603819D01*
X194696809Y-116603819D02*
X194839666Y-116651438D01*
X194839666Y-116651438D02*
X194934904Y-116746676D01*
X194934904Y-116746676D02*
X194982523Y-116841914D01*
X194982523Y-116841914D02*
X195030142Y-117032390D01*
X195030142Y-117032390D02*
X195030142Y-117175247D01*
X195030142Y-117175247D02*
X194982523Y-117365723D01*
X194982523Y-117365723D02*
X194934904Y-117460961D01*
X194934904Y-117460961D02*
X194839666Y-117556200D01*
X194839666Y-117556200D02*
X194696809Y-117603819D01*
X194696809Y-117603819D02*
X194458714Y-117603819D01*
X195982523Y-117603819D02*
X195411095Y-117603819D01*
X195696809Y-117603819D02*
X195696809Y-116603819D01*
X195696809Y-116603819D02*
X195601571Y-116746676D01*
X195601571Y-116746676D02*
X195506333Y-116841914D01*
X195506333Y-116841914D02*
X195411095Y-116889533D01*
X196934904Y-117603819D02*
X196363476Y-117603819D01*
X196649190Y-117603819D02*
X196649190Y-116603819D01*
X196649190Y-116603819D02*
X196553952Y-116746676D01*
X196553952Y-116746676D02*
X196458714Y-116841914D01*
X196458714Y-116841914D02*
X196363476Y-116889533D01*
X187725142Y-116068580D02*
X187677523Y-116116200D01*
X187677523Y-116116200D02*
X187534666Y-116163819D01*
X187534666Y-116163819D02*
X187439428Y-116163819D01*
X187439428Y-116163819D02*
X187296571Y-116116200D01*
X187296571Y-116116200D02*
X187201333Y-116020961D01*
X187201333Y-116020961D02*
X187153714Y-115925723D01*
X187153714Y-115925723D02*
X187106095Y-115735247D01*
X187106095Y-115735247D02*
X187106095Y-115592390D01*
X187106095Y-115592390D02*
X187153714Y-115401914D01*
X187153714Y-115401914D02*
X187201333Y-115306676D01*
X187201333Y-115306676D02*
X187296571Y-115211438D01*
X187296571Y-115211438D02*
X187439428Y-115163819D01*
X187439428Y-115163819D02*
X187534666Y-115163819D01*
X187534666Y-115163819D02*
X187677523Y-115211438D01*
X187677523Y-115211438D02*
X187725142Y-115259057D01*
X188582285Y-115163819D02*
X188391809Y-115163819D01*
X188391809Y-115163819D02*
X188296571Y-115211438D01*
X188296571Y-115211438D02*
X188248952Y-115259057D01*
X188248952Y-115259057D02*
X188153714Y-115401914D01*
X188153714Y-115401914D02*
X188106095Y-115592390D01*
X188106095Y-115592390D02*
X188106095Y-115973342D01*
X188106095Y-115973342D02*
X188153714Y-116068580D01*
X188153714Y-116068580D02*
X188201333Y-116116200D01*
X188201333Y-116116200D02*
X188296571Y-116163819D01*
X188296571Y-116163819D02*
X188487047Y-116163819D01*
X188487047Y-116163819D02*
X188582285Y-116116200D01*
X188582285Y-116116200D02*
X188629904Y-116068580D01*
X188629904Y-116068580D02*
X188677523Y-115973342D01*
X188677523Y-115973342D02*
X188677523Y-115735247D01*
X188677523Y-115735247D02*
X188629904Y-115640009D01*
X188629904Y-115640009D02*
X188582285Y-115592390D01*
X188582285Y-115592390D02*
X188487047Y-115544771D01*
X188487047Y-115544771D02*
X188296571Y-115544771D01*
X188296571Y-115544771D02*
X188201333Y-115592390D01*
X188201333Y-115592390D02*
X188153714Y-115640009D01*
X188153714Y-115640009D02*
X188106095Y-115735247D01*
X189058476Y-115259057D02*
X189106095Y-115211438D01*
X189106095Y-115211438D02*
X189201333Y-115163819D01*
X189201333Y-115163819D02*
X189439428Y-115163819D01*
X189439428Y-115163819D02*
X189534666Y-115211438D01*
X189534666Y-115211438D02*
X189582285Y-115259057D01*
X189582285Y-115259057D02*
X189629904Y-115354295D01*
X189629904Y-115354295D02*
X189629904Y-115449533D01*
X189629904Y-115449533D02*
X189582285Y-115592390D01*
X189582285Y-115592390D02*
X189010857Y-116163819D01*
X189010857Y-116163819D02*
X189629904Y-116163819D01*
X187725142Y-113058580D02*
X187677523Y-113106200D01*
X187677523Y-113106200D02*
X187534666Y-113153819D01*
X187534666Y-113153819D02*
X187439428Y-113153819D01*
X187439428Y-113153819D02*
X187296571Y-113106200D01*
X187296571Y-113106200D02*
X187201333Y-113010961D01*
X187201333Y-113010961D02*
X187153714Y-112915723D01*
X187153714Y-112915723D02*
X187106095Y-112725247D01*
X187106095Y-112725247D02*
X187106095Y-112582390D01*
X187106095Y-112582390D02*
X187153714Y-112391914D01*
X187153714Y-112391914D02*
X187201333Y-112296676D01*
X187201333Y-112296676D02*
X187296571Y-112201438D01*
X187296571Y-112201438D02*
X187439428Y-112153819D01*
X187439428Y-112153819D02*
X187534666Y-112153819D01*
X187534666Y-112153819D02*
X187677523Y-112201438D01*
X187677523Y-112201438D02*
X187725142Y-112249057D01*
X188582285Y-112153819D02*
X188391809Y-112153819D01*
X188391809Y-112153819D02*
X188296571Y-112201438D01*
X188296571Y-112201438D02*
X188248952Y-112249057D01*
X188248952Y-112249057D02*
X188153714Y-112391914D01*
X188153714Y-112391914D02*
X188106095Y-112582390D01*
X188106095Y-112582390D02*
X188106095Y-112963342D01*
X188106095Y-112963342D02*
X188153714Y-113058580D01*
X188153714Y-113058580D02*
X188201333Y-113106200D01*
X188201333Y-113106200D02*
X188296571Y-113153819D01*
X188296571Y-113153819D02*
X188487047Y-113153819D01*
X188487047Y-113153819D02*
X188582285Y-113106200D01*
X188582285Y-113106200D02*
X188629904Y-113058580D01*
X188629904Y-113058580D02*
X188677523Y-112963342D01*
X188677523Y-112963342D02*
X188677523Y-112725247D01*
X188677523Y-112725247D02*
X188629904Y-112630009D01*
X188629904Y-112630009D02*
X188582285Y-112582390D01*
X188582285Y-112582390D02*
X188487047Y-112534771D01*
X188487047Y-112534771D02*
X188296571Y-112534771D01*
X188296571Y-112534771D02*
X188201333Y-112582390D01*
X188201333Y-112582390D02*
X188153714Y-112630009D01*
X188153714Y-112630009D02*
X188106095Y-112725247D01*
X189629904Y-113153819D02*
X189058476Y-113153819D01*
X189344190Y-113153819D02*
X189344190Y-112153819D01*
X189344190Y-112153819D02*
X189248952Y-112296676D01*
X189248952Y-112296676D02*
X189153714Y-112391914D01*
X189153714Y-112391914D02*
X189058476Y-112439533D01*
X187725142Y-110048580D02*
X187677523Y-110096200D01*
X187677523Y-110096200D02*
X187534666Y-110143819D01*
X187534666Y-110143819D02*
X187439428Y-110143819D01*
X187439428Y-110143819D02*
X187296571Y-110096200D01*
X187296571Y-110096200D02*
X187201333Y-110000961D01*
X187201333Y-110000961D02*
X187153714Y-109905723D01*
X187153714Y-109905723D02*
X187106095Y-109715247D01*
X187106095Y-109715247D02*
X187106095Y-109572390D01*
X187106095Y-109572390D02*
X187153714Y-109381914D01*
X187153714Y-109381914D02*
X187201333Y-109286676D01*
X187201333Y-109286676D02*
X187296571Y-109191438D01*
X187296571Y-109191438D02*
X187439428Y-109143819D01*
X187439428Y-109143819D02*
X187534666Y-109143819D01*
X187534666Y-109143819D02*
X187677523Y-109191438D01*
X187677523Y-109191438D02*
X187725142Y-109239057D01*
X188582285Y-109143819D02*
X188391809Y-109143819D01*
X188391809Y-109143819D02*
X188296571Y-109191438D01*
X188296571Y-109191438D02*
X188248952Y-109239057D01*
X188248952Y-109239057D02*
X188153714Y-109381914D01*
X188153714Y-109381914D02*
X188106095Y-109572390D01*
X188106095Y-109572390D02*
X188106095Y-109953342D01*
X188106095Y-109953342D02*
X188153714Y-110048580D01*
X188153714Y-110048580D02*
X188201333Y-110096200D01*
X188201333Y-110096200D02*
X188296571Y-110143819D01*
X188296571Y-110143819D02*
X188487047Y-110143819D01*
X188487047Y-110143819D02*
X188582285Y-110096200D01*
X188582285Y-110096200D02*
X188629904Y-110048580D01*
X188629904Y-110048580D02*
X188677523Y-109953342D01*
X188677523Y-109953342D02*
X188677523Y-109715247D01*
X188677523Y-109715247D02*
X188629904Y-109620009D01*
X188629904Y-109620009D02*
X188582285Y-109572390D01*
X188582285Y-109572390D02*
X188487047Y-109524771D01*
X188487047Y-109524771D02*
X188296571Y-109524771D01*
X188296571Y-109524771D02*
X188201333Y-109572390D01*
X188201333Y-109572390D02*
X188153714Y-109620009D01*
X188153714Y-109620009D02*
X188106095Y-109715247D01*
X189296571Y-109143819D02*
X189391809Y-109143819D01*
X189391809Y-109143819D02*
X189487047Y-109191438D01*
X189487047Y-109191438D02*
X189534666Y-109239057D01*
X189534666Y-109239057D02*
X189582285Y-109334295D01*
X189582285Y-109334295D02*
X189629904Y-109524771D01*
X189629904Y-109524771D02*
X189629904Y-109762866D01*
X189629904Y-109762866D02*
X189582285Y-109953342D01*
X189582285Y-109953342D02*
X189534666Y-110048580D01*
X189534666Y-110048580D02*
X189487047Y-110096200D01*
X189487047Y-110096200D02*
X189391809Y-110143819D01*
X189391809Y-110143819D02*
X189296571Y-110143819D01*
X189296571Y-110143819D02*
X189201333Y-110096200D01*
X189201333Y-110096200D02*
X189153714Y-110048580D01*
X189153714Y-110048580D02*
X189106095Y-109953342D01*
X189106095Y-109953342D02*
X189058476Y-109762866D01*
X189058476Y-109762866D02*
X189058476Y-109524771D01*
X189058476Y-109524771D02*
X189106095Y-109334295D01*
X189106095Y-109334295D02*
X189153714Y-109239057D01*
X189153714Y-109239057D02*
X189201333Y-109191438D01*
X189201333Y-109191438D02*
X189296571Y-109143819D01*
X65759142Y-67620780D02*
X65711523Y-67668400D01*
X65711523Y-67668400D02*
X65568666Y-67716019D01*
X65568666Y-67716019D02*
X65473428Y-67716019D01*
X65473428Y-67716019D02*
X65330571Y-67668400D01*
X65330571Y-67668400D02*
X65235333Y-67573161D01*
X65235333Y-67573161D02*
X65187714Y-67477923D01*
X65187714Y-67477923D02*
X65140095Y-67287447D01*
X65140095Y-67287447D02*
X65140095Y-67144590D01*
X65140095Y-67144590D02*
X65187714Y-66954114D01*
X65187714Y-66954114D02*
X65235333Y-66858876D01*
X65235333Y-66858876D02*
X65330571Y-66763638D01*
X65330571Y-66763638D02*
X65473428Y-66716019D01*
X65473428Y-66716019D02*
X65568666Y-66716019D01*
X65568666Y-66716019D02*
X65711523Y-66763638D01*
X65711523Y-66763638D02*
X65759142Y-66811257D01*
X66663904Y-66716019D02*
X66187714Y-66716019D01*
X66187714Y-66716019D02*
X66140095Y-67192209D01*
X66140095Y-67192209D02*
X66187714Y-67144590D01*
X66187714Y-67144590D02*
X66282952Y-67096971D01*
X66282952Y-67096971D02*
X66521047Y-67096971D01*
X66521047Y-67096971D02*
X66616285Y-67144590D01*
X66616285Y-67144590D02*
X66663904Y-67192209D01*
X66663904Y-67192209D02*
X66711523Y-67287447D01*
X66711523Y-67287447D02*
X66711523Y-67525542D01*
X66711523Y-67525542D02*
X66663904Y-67620780D01*
X66663904Y-67620780D02*
X66616285Y-67668400D01*
X66616285Y-67668400D02*
X66521047Y-67716019D01*
X66521047Y-67716019D02*
X66282952Y-67716019D01*
X66282952Y-67716019D02*
X66187714Y-67668400D01*
X66187714Y-67668400D02*
X66140095Y-67620780D01*
X67663904Y-67716019D02*
X67092476Y-67716019D01*
X67378190Y-67716019D02*
X67378190Y-66716019D01*
X67378190Y-66716019D02*
X67282952Y-66858876D01*
X67282952Y-66858876D02*
X67187714Y-66954114D01*
X67187714Y-66954114D02*
X67092476Y-67001733D01*
X65759142Y-65110780D02*
X65711523Y-65158400D01*
X65711523Y-65158400D02*
X65568666Y-65206019D01*
X65568666Y-65206019D02*
X65473428Y-65206019D01*
X65473428Y-65206019D02*
X65330571Y-65158400D01*
X65330571Y-65158400D02*
X65235333Y-65063161D01*
X65235333Y-65063161D02*
X65187714Y-64967923D01*
X65187714Y-64967923D02*
X65140095Y-64777447D01*
X65140095Y-64777447D02*
X65140095Y-64634590D01*
X65140095Y-64634590D02*
X65187714Y-64444114D01*
X65187714Y-64444114D02*
X65235333Y-64348876D01*
X65235333Y-64348876D02*
X65330571Y-64253638D01*
X65330571Y-64253638D02*
X65473428Y-64206019D01*
X65473428Y-64206019D02*
X65568666Y-64206019D01*
X65568666Y-64206019D02*
X65711523Y-64253638D01*
X65711523Y-64253638D02*
X65759142Y-64301257D01*
X66663904Y-64206019D02*
X66187714Y-64206019D01*
X66187714Y-64206019D02*
X66140095Y-64682209D01*
X66140095Y-64682209D02*
X66187714Y-64634590D01*
X66187714Y-64634590D02*
X66282952Y-64586971D01*
X66282952Y-64586971D02*
X66521047Y-64586971D01*
X66521047Y-64586971D02*
X66616285Y-64634590D01*
X66616285Y-64634590D02*
X66663904Y-64682209D01*
X66663904Y-64682209D02*
X66711523Y-64777447D01*
X66711523Y-64777447D02*
X66711523Y-65015542D01*
X66711523Y-65015542D02*
X66663904Y-65110780D01*
X66663904Y-65110780D02*
X66616285Y-65158400D01*
X66616285Y-65158400D02*
X66521047Y-65206019D01*
X66521047Y-65206019D02*
X66282952Y-65206019D01*
X66282952Y-65206019D02*
X66187714Y-65158400D01*
X66187714Y-65158400D02*
X66140095Y-65110780D01*
X67330571Y-64206019D02*
X67425809Y-64206019D01*
X67425809Y-64206019D02*
X67521047Y-64253638D01*
X67521047Y-64253638D02*
X67568666Y-64301257D01*
X67568666Y-64301257D02*
X67616285Y-64396495D01*
X67616285Y-64396495D02*
X67663904Y-64586971D01*
X67663904Y-64586971D02*
X67663904Y-64825066D01*
X67663904Y-64825066D02*
X67616285Y-65015542D01*
X67616285Y-65015542D02*
X67568666Y-65110780D01*
X67568666Y-65110780D02*
X67521047Y-65158400D01*
X67521047Y-65158400D02*
X67425809Y-65206019D01*
X67425809Y-65206019D02*
X67330571Y-65206019D01*
X67330571Y-65206019D02*
X67235333Y-65158400D01*
X67235333Y-65158400D02*
X67187714Y-65110780D01*
X67187714Y-65110780D02*
X67140095Y-65015542D01*
X67140095Y-65015542D02*
X67092476Y-64825066D01*
X67092476Y-64825066D02*
X67092476Y-64586971D01*
X67092476Y-64586971D02*
X67140095Y-64396495D01*
X67140095Y-64396495D02*
X67187714Y-64301257D01*
X67187714Y-64301257D02*
X67235333Y-64253638D01*
X67235333Y-64253638D02*
X67330571Y-64206019D01*
X65759142Y-72640780D02*
X65711523Y-72688400D01*
X65711523Y-72688400D02*
X65568666Y-72736019D01*
X65568666Y-72736019D02*
X65473428Y-72736019D01*
X65473428Y-72736019D02*
X65330571Y-72688400D01*
X65330571Y-72688400D02*
X65235333Y-72593161D01*
X65235333Y-72593161D02*
X65187714Y-72497923D01*
X65187714Y-72497923D02*
X65140095Y-72307447D01*
X65140095Y-72307447D02*
X65140095Y-72164590D01*
X65140095Y-72164590D02*
X65187714Y-71974114D01*
X65187714Y-71974114D02*
X65235333Y-71878876D01*
X65235333Y-71878876D02*
X65330571Y-71783638D01*
X65330571Y-71783638D02*
X65473428Y-71736019D01*
X65473428Y-71736019D02*
X65568666Y-71736019D01*
X65568666Y-71736019D02*
X65711523Y-71783638D01*
X65711523Y-71783638D02*
X65759142Y-71831257D01*
X66663904Y-71736019D02*
X66187714Y-71736019D01*
X66187714Y-71736019D02*
X66140095Y-72212209D01*
X66140095Y-72212209D02*
X66187714Y-72164590D01*
X66187714Y-72164590D02*
X66282952Y-72116971D01*
X66282952Y-72116971D02*
X66521047Y-72116971D01*
X66521047Y-72116971D02*
X66616285Y-72164590D01*
X66616285Y-72164590D02*
X66663904Y-72212209D01*
X66663904Y-72212209D02*
X66711523Y-72307447D01*
X66711523Y-72307447D02*
X66711523Y-72545542D01*
X66711523Y-72545542D02*
X66663904Y-72640780D01*
X66663904Y-72640780D02*
X66616285Y-72688400D01*
X66616285Y-72688400D02*
X66521047Y-72736019D01*
X66521047Y-72736019D02*
X66282952Y-72736019D01*
X66282952Y-72736019D02*
X66187714Y-72688400D01*
X66187714Y-72688400D02*
X66140095Y-72640780D01*
X67044857Y-71736019D02*
X67663904Y-71736019D01*
X67663904Y-71736019D02*
X67330571Y-72116971D01*
X67330571Y-72116971D02*
X67473428Y-72116971D01*
X67473428Y-72116971D02*
X67568666Y-72164590D01*
X67568666Y-72164590D02*
X67616285Y-72212209D01*
X67616285Y-72212209D02*
X67663904Y-72307447D01*
X67663904Y-72307447D02*
X67663904Y-72545542D01*
X67663904Y-72545542D02*
X67616285Y-72640780D01*
X67616285Y-72640780D02*
X67568666Y-72688400D01*
X67568666Y-72688400D02*
X67473428Y-72736019D01*
X67473428Y-72736019D02*
X67187714Y-72736019D01*
X67187714Y-72736019D02*
X67092476Y-72688400D01*
X67092476Y-72688400D02*
X67044857Y-72640780D01*
X65759142Y-70130780D02*
X65711523Y-70178400D01*
X65711523Y-70178400D02*
X65568666Y-70226019D01*
X65568666Y-70226019D02*
X65473428Y-70226019D01*
X65473428Y-70226019D02*
X65330571Y-70178400D01*
X65330571Y-70178400D02*
X65235333Y-70083161D01*
X65235333Y-70083161D02*
X65187714Y-69987923D01*
X65187714Y-69987923D02*
X65140095Y-69797447D01*
X65140095Y-69797447D02*
X65140095Y-69654590D01*
X65140095Y-69654590D02*
X65187714Y-69464114D01*
X65187714Y-69464114D02*
X65235333Y-69368876D01*
X65235333Y-69368876D02*
X65330571Y-69273638D01*
X65330571Y-69273638D02*
X65473428Y-69226019D01*
X65473428Y-69226019D02*
X65568666Y-69226019D01*
X65568666Y-69226019D02*
X65711523Y-69273638D01*
X65711523Y-69273638D02*
X65759142Y-69321257D01*
X66663904Y-69226019D02*
X66187714Y-69226019D01*
X66187714Y-69226019D02*
X66140095Y-69702209D01*
X66140095Y-69702209D02*
X66187714Y-69654590D01*
X66187714Y-69654590D02*
X66282952Y-69606971D01*
X66282952Y-69606971D02*
X66521047Y-69606971D01*
X66521047Y-69606971D02*
X66616285Y-69654590D01*
X66616285Y-69654590D02*
X66663904Y-69702209D01*
X66663904Y-69702209D02*
X66711523Y-69797447D01*
X66711523Y-69797447D02*
X66711523Y-70035542D01*
X66711523Y-70035542D02*
X66663904Y-70130780D01*
X66663904Y-70130780D02*
X66616285Y-70178400D01*
X66616285Y-70178400D02*
X66521047Y-70226019D01*
X66521047Y-70226019D02*
X66282952Y-70226019D01*
X66282952Y-70226019D02*
X66187714Y-70178400D01*
X66187714Y-70178400D02*
X66140095Y-70130780D01*
X67092476Y-69321257D02*
X67140095Y-69273638D01*
X67140095Y-69273638D02*
X67235333Y-69226019D01*
X67235333Y-69226019D02*
X67473428Y-69226019D01*
X67473428Y-69226019D02*
X67568666Y-69273638D01*
X67568666Y-69273638D02*
X67616285Y-69321257D01*
X67616285Y-69321257D02*
X67663904Y-69416495D01*
X67663904Y-69416495D02*
X67663904Y-69511733D01*
X67663904Y-69511733D02*
X67616285Y-69654590D01*
X67616285Y-69654590D02*
X67044857Y-70226019D01*
X67044857Y-70226019D02*
X67663904Y-70226019D01*
D11*
%TO.C,J15*%
X62983200Y-151076600D02*
X64008200Y-151076600D01*
X62983200Y-152186600D02*
X62983200Y-151076600D01*
X64008200Y-151076600D02*
X64008200Y-150536600D01*
X66163200Y-146566600D02*
X66988200Y-146566600D01*
X66988200Y-146566600D02*
X66988200Y-144766600D01*
X73118200Y-146566600D02*
X73943200Y-146566600D01*
X76098200Y-150536600D02*
X76098200Y-151076600D01*
X76098200Y-151076600D02*
X77123200Y-151076600D01*
X77123200Y-151076600D02*
X77123200Y-152186600D01*
X77123200Y-152186600D02*
X62983200Y-152186600D01*
%TO.C,J14*%
X103026200Y-153536200D02*
X104051200Y-153536200D01*
X103026200Y-154646200D02*
X103026200Y-153536200D01*
X104051200Y-153536200D02*
X104051200Y-152996200D01*
X106206200Y-149026200D02*
X107031200Y-149026200D01*
X107031200Y-149026200D02*
X107031200Y-147226200D01*
X113161200Y-149026200D02*
X113986200Y-149026200D01*
X116141200Y-152996200D02*
X116141200Y-153536200D01*
X116141200Y-153536200D02*
X117166200Y-153536200D01*
X117166200Y-153536200D02*
X117166200Y-154646200D01*
X117166200Y-154646200D02*
X103026200Y-154646200D01*
%TO.C,BT1*%
X63203600Y-119969400D02*
X63203600Y-125969400D01*
X64903600Y-127969400D02*
X63203600Y-125969400D01*
X64903600Y-127969400D02*
X68903600Y-127969400D01*
X68903600Y-127969400D02*
X70603600Y-125969400D01*
X70603600Y-119969400D02*
X70603600Y-125969400D01*
X63197952Y-119978727D02*
G75*
G02*
X64503600Y-119969400I655648J-390674D01*
G01*
X69294983Y-119973985D02*
G75*
G02*
X64503600Y-119969400I-2391383J4504582D01*
G01*
X69296228Y-119975428D02*
G75*
G02*
X70607322Y-119969401I657372J-393972D01*
G01*
%TO.C,U11*%
X193168000Y-110704000D02*
X192368000Y-110704000D01*
X193168000Y-110704000D02*
X193968000Y-110704000D01*
X193168000Y-113824000D02*
X192368000Y-113824000D01*
X193168000Y-113824000D02*
X193968000Y-113824000D01*
X191868000Y-110754000D02*
X191628000Y-110424000D01*
X192108000Y-110424000D01*
X191868000Y-110754000D01*
G36*
X191868000Y-110754000D02*
G01*
X191628000Y-110424000D01*
X192108000Y-110424000D01*
X191868000Y-110754000D01*
G37*
%TO.C,R41*%
X191894359Y-119079000D02*
X192201641Y-119079000D01*
X191894359Y-119839000D02*
X192201641Y-119839000D01*
%TO.C,R40*%
X191894359Y-117089000D02*
X192201641Y-117089000D01*
X191894359Y-117849000D02*
X192201641Y-117849000D01*
%TO.C,R39*%
X191894359Y-115099000D02*
X192201641Y-115099000D01*
X191894359Y-115859000D02*
X192201641Y-115859000D01*
%TO.C,D12*%
X194063000Y-115044000D02*
X194063000Y-116964000D01*
X194063000Y-116964000D02*
X196748000Y-116964000D01*
X196748000Y-115044000D02*
X194063000Y-115044000D01*
%TO.C,D11*%
X194063000Y-118149000D02*
X194063000Y-119849000D01*
X194063000Y-118149000D02*
X196723000Y-118149000D01*
X194063000Y-119849000D02*
X196723000Y-119849000D01*
%TO.C,C62*%
X188106748Y-116654000D02*
X188629252Y-116654000D01*
X188106748Y-118124000D02*
X188629252Y-118124000D01*
%TO.C,C61*%
X188106748Y-113644000D02*
X188629252Y-113644000D01*
X188106748Y-115114000D02*
X188629252Y-115114000D01*
%TO.C,C60*%
X188106748Y-110634000D02*
X188629252Y-110634000D01*
X188106748Y-112104000D02*
X188629252Y-112104000D01*
%TO.C,C40*%
X111453100Y-83987564D02*
X111453100Y-84203236D01*
X112173100Y-83987564D02*
X112173100Y-84203236D01*
%TO.C,R19*%
X121730800Y-62384159D02*
X121730800Y-62691441D01*
X122490800Y-62384159D02*
X122490800Y-62691441D01*
%TO.C,C28*%
X221737600Y-83823636D02*
X221737600Y-83607964D01*
X222457600Y-83823636D02*
X222457600Y-83607964D01*
%TO.C,C59*%
X81984164Y-69741200D02*
X82199836Y-69741200D01*
X81984164Y-70461200D02*
X82199836Y-70461200D01*
%TO.C,C37*%
X158623836Y-70595200D02*
X158408164Y-70595200D01*
X158623836Y-71315200D02*
X158408164Y-71315200D01*
D12*
%TO.C,J5*%
X123873000Y-41502200D02*
X123873000Y-39227200D01*
X124673000Y-41502200D02*
X123873000Y-41502200D01*
X128673000Y-37252200D02*
X125073000Y-37252200D01*
X129073000Y-41502200D02*
X129873000Y-41502200D01*
X129873000Y-41502200D02*
X129873000Y-39227200D01*
D13*
X129423000Y-42212200D02*
G75*
G02*
X129223000Y-42212200I-100000J0D01*
G01*
X129223000Y-42212200D02*
G75*
G02*
X129423000Y-42212200I100000J0D01*
G01*
D11*
%TO.C,R7*%
X213414841Y-119558600D02*
X213107559Y-119558600D01*
X213414841Y-120318600D02*
X213107559Y-120318600D01*
%TO.C,R15*%
X68161844Y-58123600D02*
X67854562Y-58123600D01*
X68161844Y-58883600D02*
X67854562Y-58883600D01*
%TO.C,R31*%
X93519959Y-97591000D02*
X93827241Y-97591000D01*
X93519959Y-98351000D02*
X93827241Y-98351000D01*
%TO.C,R23*%
X56112141Y-70245334D02*
X55804859Y-70245334D01*
X56112141Y-71005334D02*
X55804859Y-71005334D01*
%TO.C,R34*%
X125246159Y-129083800D02*
X125553441Y-129083800D01*
X125246159Y-129843800D02*
X125553441Y-129843800D01*
%TO.C,C36*%
X165208164Y-70595200D02*
X165423836Y-70595200D01*
X165208164Y-71315200D02*
X165423836Y-71315200D01*
%TO.C,J12*%
X181666000Y-152914400D02*
X181666000Y-153434400D01*
X181666000Y-153434400D02*
X196286000Y-153434400D01*
X182316000Y-137954400D02*
X182316000Y-141284400D01*
X182316000Y-137954400D02*
X195636000Y-137954400D01*
X182316000Y-152914400D02*
X181666000Y-152914400D01*
X182316000Y-152914400D02*
X182316000Y-144804400D01*
X184576000Y-137734400D02*
X186376000Y-137734400D01*
X195636000Y-137954400D02*
X195636000Y-141284400D01*
X195636000Y-144804400D02*
X195636000Y-152914400D01*
X196286000Y-152914400D02*
X195636000Y-152914400D01*
X196286000Y-153434400D02*
X196286000Y-152914400D01*
%TO.C,C10*%
X120705600Y-62675636D02*
X120705600Y-62459964D01*
X121425600Y-62675636D02*
X121425600Y-62459964D01*
%TO.C,C27*%
X221737600Y-78066303D02*
X221737600Y-77850631D01*
X222457600Y-78066303D02*
X222457600Y-77850631D01*
%TO.C,R6*%
X93519959Y-93611000D02*
X93827241Y-93611000D01*
X93519959Y-94371000D02*
X93827241Y-94371000D01*
%TO.C,Y2*%
X109093400Y-72063600D02*
X109093400Y-74463600D01*
X109093400Y-74463600D02*
X110693400Y-74463600D01*
X110693400Y-74463600D02*
X110693400Y-72063600D01*
%TO.C,J4*%
X201109200Y-146181200D02*
X201109200Y-148101200D01*
X201109200Y-151816200D02*
X201109200Y-150111200D01*
X210269200Y-148101200D02*
X210269200Y-146181200D01*
X210269200Y-150111200D02*
X210269200Y-151816200D01*
X210269200Y-151816200D02*
X201109200Y-151816200D01*
%TO.C,U8*%
X189757900Y-123956600D02*
X188957900Y-123956600D01*
X189757900Y-123956600D02*
X190557900Y-123956600D01*
X189757900Y-127076600D02*
X188957900Y-127076600D01*
X189757900Y-127076600D02*
X191557900Y-127076600D01*
%TO.C,JP7*%
X88643600Y-100181000D02*
X88643600Y-99581000D01*
X89343600Y-98881000D02*
X90743600Y-98881000D01*
X90743600Y-100881000D02*
X89343600Y-100881000D01*
X91443600Y-99581000D02*
X91443600Y-100181000D01*
X88643600Y-99581000D02*
G75*
G02*
X89343600Y-98881000I699999J1D01*
G01*
X89343600Y-100881000D02*
G75*
G02*
X88643600Y-100181000I-1J699999D01*
G01*
X90743600Y-98881000D02*
G75*
G02*
X91443600Y-99581000I0J-700000D01*
G01*
X91443600Y-100181000D02*
G75*
G02*
X90743600Y-100881000I-700000J0D01*
G01*
%TO.C,R16*%
X67854562Y-59130201D02*
X68161844Y-59130201D01*
X67854562Y-59890201D02*
X68161844Y-59890201D01*
%TO.C,C56*%
X66261420Y-78471200D02*
X66542580Y-78471200D01*
X66261420Y-79491200D02*
X66542580Y-79491200D01*
%TO.C,J7*%
X165167000Y-146926600D02*
X165167000Y-150456600D01*
X165232000Y-146926600D02*
X165167000Y-146926600D01*
X165232000Y-150456600D02*
X165167000Y-150456600D01*
X174112000Y-145601600D02*
X174112000Y-146926600D01*
X174177000Y-146926600D02*
X174112000Y-146926600D01*
X174177000Y-146926600D02*
X174177000Y-150456600D01*
X174177000Y-150456600D02*
X174112000Y-150456600D01*
%TO.C,C29*%
X156956000Y-88827364D02*
X156956000Y-89043036D01*
X157676000Y-88827364D02*
X157676000Y-89043036D01*
%TO.C,R9*%
X213414841Y-115578600D02*
X213107559Y-115578600D01*
X213414841Y-116338600D02*
X213107559Y-116338600D01*
%TO.C,D4*%
X182497800Y-123851600D02*
X182497800Y-126536600D01*
X184417800Y-123851600D02*
X182497800Y-123851600D01*
X184417800Y-126536600D02*
X184417800Y-123851600D01*
%TO.C,R22*%
X194033700Y-125670241D02*
X194033700Y-125362959D01*
X194793700Y-125670241D02*
X194793700Y-125362959D01*
%TO.C,C54*%
X66261420Y-75961200D02*
X66542580Y-75961200D01*
X66261420Y-76981200D02*
X66542580Y-76981200D01*
%TO.C,U4*%
X93341500Y-78489000D02*
X101341500Y-78489000D01*
X93351500Y-72269000D02*
X101341500Y-72269000D01*
X93111500Y-73069000D02*
X92631500Y-73069000D01*
X93111500Y-72589000D01*
X93111500Y-73069000D01*
G36*
X93111500Y-73069000D02*
G01*
X92631500Y-73069000D01*
X93111500Y-72589000D01*
X93111500Y-73069000D01*
G37*
%TO.C,C8*%
X139207764Y-62687800D02*
X139423436Y-62687800D01*
X139207764Y-63407800D02*
X139423436Y-63407800D01*
%TO.C,D7*%
X218397200Y-143791200D02*
X218397200Y-145821200D01*
X218397200Y-143791200D02*
X219057200Y-143791200D01*
X220057200Y-143791200D02*
X220717200Y-143791200D01*
X220717200Y-145201200D02*
X220717200Y-143791200D01*
%TO.C,U2*%
X117705600Y-67612800D02*
X117705600Y-68562800D01*
X117705600Y-91832800D02*
X117705600Y-90882800D01*
X118655600Y-67612800D02*
X117705600Y-67612800D01*
X118655600Y-91832800D02*
X117705600Y-91832800D01*
X140975600Y-67612800D02*
X141925600Y-67612800D01*
X140975600Y-91832800D02*
X141925600Y-91832800D01*
X141925600Y-67612800D02*
X141925600Y-68562800D01*
X141925600Y-91832800D02*
X141925600Y-90882800D01*
X117103100Y-68562800D02*
X116763100Y-68092800D01*
X117443100Y-68092800D01*
X117103100Y-68562800D01*
G36*
X117103100Y-68562800D02*
G01*
X116763100Y-68092800D01*
X117443100Y-68092800D01*
X117103100Y-68562800D01*
G37*
%TO.C,R28*%
X161036759Y-138600000D02*
X161344041Y-138600000D01*
X161036759Y-139360000D02*
X161344041Y-139360000D01*
%TO.C,C20*%
X96455764Y-98211000D02*
X96671436Y-98211000D01*
X96455764Y-98931000D02*
X96671436Y-98931000D01*
%TO.C,R8*%
X213414841Y-117568600D02*
X213107559Y-117568600D01*
X213414841Y-118328600D02*
X213107559Y-118328600D01*
%TO.C,R13*%
X209872936Y-137708000D02*
X210327064Y-137708000D01*
X209872936Y-139178000D02*
X210327064Y-139178000D01*
%TO.C,C44*%
X185905000Y-125777852D02*
X185905000Y-125255348D01*
X187375000Y-125777852D02*
X187375000Y-125255348D01*
%TO.C,C14*%
X146130600Y-71614964D02*
X146130600Y-71830636D01*
X146850600Y-71614964D02*
X146850600Y-71830636D01*
%TO.C,R25*%
X161270400Y-130376359D02*
X161270400Y-130683641D01*
X162030400Y-130376359D02*
X162030400Y-130683641D01*
%TO.C,C5*%
X132423436Y-96037800D02*
X132207764Y-96037800D01*
X132423436Y-96757800D02*
X132207764Y-96757800D01*
%TO.C,C23*%
X64440620Y-54885401D02*
X64721780Y-54885401D01*
X64440620Y-55905401D02*
X64721780Y-55905401D01*
%TO.C,R36*%
X132916959Y-144044400D02*
X133224241Y-144044400D01*
X132916959Y-144804400D02*
X133224241Y-144804400D01*
%TO.C,R14*%
X68161844Y-57123600D02*
X67854562Y-57123600D01*
X68161844Y-57883600D02*
X67854562Y-57883600D01*
%TO.C,C15*%
X146130600Y-78114964D02*
X146130600Y-78330636D01*
X146850600Y-78114964D02*
X146850600Y-78330636D01*
%TO.C,U5*%
X156200400Y-132835000D02*
X154800400Y-132835000D01*
X156210400Y-135155000D02*
X154800400Y-135155000D01*
X156820400Y-135435000D02*
X156340400Y-135435000D01*
X156580400Y-135105000D01*
X156820400Y-135435000D01*
G36*
X156820400Y-135435000D02*
G01*
X156340400Y-135435000D01*
X156580400Y-135105000D01*
X156820400Y-135435000D01*
G37*
%TO.C,C9*%
X137937764Y-94483600D02*
X138153436Y-94483600D01*
X137937764Y-95203600D02*
X138153436Y-95203600D01*
%TO.C,C51*%
X66140748Y-68206200D02*
X66663252Y-68206200D01*
X66140748Y-69676200D02*
X66663252Y-69676200D01*
%TO.C,JP6*%
X88643600Y-96631000D02*
X88643600Y-96031000D01*
X89343600Y-95331000D02*
X90743600Y-95331000D01*
X90743600Y-97331000D02*
X89343600Y-97331000D01*
X91443600Y-96031000D02*
X91443600Y-96631000D01*
X88643600Y-96031000D02*
G75*
G02*
X89343600Y-95331000I699999J1D01*
G01*
X89343600Y-97331000D02*
G75*
G02*
X88643600Y-96631000I-1J699999D01*
G01*
X90743600Y-95331000D02*
G75*
G02*
X91443600Y-96031000I0J-700000D01*
G01*
X91443600Y-96631000D02*
G75*
G02*
X90743600Y-97331000I-700000J0D01*
G01*
%TO.C,C22*%
X103417564Y-79050800D02*
X103633236Y-79050800D01*
X103417564Y-79770800D02*
X103633236Y-79770800D01*
%TO.C,C18*%
X213389036Y-111628600D02*
X213173364Y-111628600D01*
X213389036Y-112348600D02*
X213173364Y-112348600D01*
%TO.C,JP3*%
X163420400Y-135380000D02*
X163420400Y-134780000D01*
X164120400Y-134080000D02*
X165520400Y-134080000D01*
X165520400Y-136080000D02*
X164120400Y-136080000D01*
X166220400Y-134780000D02*
X166220400Y-135380000D01*
X163420400Y-134780000D02*
G75*
G02*
X164120400Y-134080000I700000J0D01*
G01*
X164120400Y-136080000D02*
G75*
G02*
X163420400Y-135380000I0J700000D01*
G01*
X165520400Y-134080000D02*
G75*
G02*
X166220400Y-134780000I1J-699999D01*
G01*
X166220400Y-135380000D02*
G75*
G02*
X165520400Y-136080000I-699999J-1D01*
G01*
%TO.C,C7*%
X127423436Y-96037800D02*
X127207764Y-96037800D01*
X127423436Y-96757800D02*
X127207764Y-96757800D01*
%TO.C,C39*%
X111453100Y-82453236D02*
X111453100Y-82237564D01*
X112173100Y-82453236D02*
X112173100Y-82237564D01*
%TO.C,C13*%
X132707764Y-62687800D02*
X132923436Y-62687800D01*
X132707764Y-63407800D02*
X132923436Y-63407800D01*
%TO.C,R35*%
X132916959Y-142054400D02*
X133224241Y-142054400D01*
X132916959Y-142814400D02*
X133224241Y-142814400D01*
%TO.C,C12*%
X127707764Y-62687800D02*
X127923436Y-62687800D01*
X127707764Y-63407800D02*
X127923436Y-63407800D01*
%TO.C,C50*%
X66140748Y-65696200D02*
X66663252Y-65696200D01*
X66140748Y-67166200D02*
X66663252Y-67166200D01*
%TO.C,C46*%
X160880400Y-133849420D02*
X160880400Y-134130580D01*
X161900400Y-133849420D02*
X161900400Y-134130580D01*
%TO.C,C49*%
X159310400Y-130442164D02*
X159310400Y-130657836D01*
X160030400Y-130442164D02*
X160030400Y-130657836D01*
%TO.C,R29*%
X161036759Y-136610000D02*
X161344041Y-136610000D01*
X161036759Y-137370000D02*
X161344041Y-137370000D01*
%TO.C,SW3*%
X229930800Y-78402000D02*
X229930800Y-82802000D01*
X229930800Y-82802000D02*
X230050800Y-82802000D01*
X230050800Y-78402000D02*
X229930800Y-78402000D01*
X231060800Y-82802000D02*
X232200800Y-82802000D01*
X232200800Y-78402000D02*
X231060800Y-78402000D01*
X233210800Y-82802000D02*
X233330800Y-82802000D01*
X233330800Y-78402000D02*
X233210800Y-78402000D01*
X233330800Y-82802000D02*
X233330800Y-78402000D01*
%TO.C,C45*%
X195216600Y-125777852D02*
X195216600Y-125255348D01*
X196686600Y-125777852D02*
X196686600Y-125255348D01*
%TO.C,J11*%
X48296000Y-94910600D02*
X50796000Y-94910600D01*
X48296000Y-100110600D02*
X48296000Y-94910600D01*
X50796000Y-94410600D02*
X53996000Y-94410600D01*
X50796000Y-94910600D02*
X50796000Y-94410600D01*
X50796000Y-100110600D02*
X48296000Y-100110600D01*
X50796000Y-100610600D02*
X50796000Y-100110600D01*
X51996000Y-100610600D02*
X50796000Y-100610600D01*
X51996000Y-100610600D02*
X51996000Y-102610600D01*
X54596000Y-100610600D02*
X54596000Y-102610600D01*
X56596000Y-94410600D02*
X65496000Y-94410600D01*
X61096000Y-100610600D02*
X54596000Y-100610600D01*
X65496000Y-94410600D02*
X65496000Y-100610600D01*
X65496000Y-100610600D02*
X64296000Y-100610600D01*
%TO.C,C21*%
X103417564Y-77080800D02*
X103633236Y-77080800D01*
X103417564Y-77800800D02*
X103633236Y-77800800D01*
%TO.C,R33*%
X125246159Y-127093800D02*
X125553441Y-127093800D01*
X125246159Y-127853800D02*
X125553441Y-127853800D01*
%TO.C,U9*%
X154816000Y-74405200D02*
X155216000Y-74405200D01*
X154816000Y-85005200D02*
X154816000Y-74405200D01*
X155216000Y-85005200D02*
X154816000Y-85005200D01*
X177016000Y-74405200D02*
X177416000Y-74405200D01*
X177016000Y-85005200D02*
X177416000Y-85005200D01*
X177416000Y-85005200D02*
X177416000Y-74405200D01*
X155216000Y-85405200D02*
X154886000Y-85645200D01*
X154886000Y-85165200D01*
X155216000Y-85405200D01*
G36*
X155216000Y-85405200D02*
G01*
X154886000Y-85645200D01*
X154886000Y-85165200D01*
X155216000Y-85405200D01*
G37*
%TO.C,U1*%
X93006900Y-86701400D02*
X101006900Y-86701400D01*
X93016900Y-80481400D02*
X101006900Y-80481400D01*
X92776900Y-81281400D02*
X92296900Y-81281400D01*
X92776900Y-80801400D01*
X92776900Y-81281400D01*
G36*
X92776900Y-81281400D02*
G01*
X92296900Y-81281400D01*
X92776900Y-80801400D01*
X92776900Y-81281400D01*
G37*
%TO.C,C58*%
X66261420Y-80981200D02*
X66542580Y-80981200D01*
X66261420Y-82001200D02*
X66542580Y-82001200D01*
%TO.C,D10*%
X200313500Y-127511400D02*
X200313500Y-129211400D01*
X200313500Y-127511400D02*
X202973500Y-127511400D01*
X200313500Y-129211400D02*
X202973500Y-129211400D01*
%TO.C,U7*%
X99353600Y-91801000D02*
X97403600Y-91801000D01*
X99353600Y-91801000D02*
X101303600Y-91801000D01*
X99353600Y-96921000D02*
X97403600Y-96921000D01*
X99353600Y-96921000D02*
X101303600Y-96921000D01*
X96653600Y-91896000D02*
X96413600Y-91566000D01*
X96893600Y-91566000D01*
X96653600Y-91896000D01*
G36*
X96653600Y-91896000D02*
G01*
X96413600Y-91566000D01*
X96893600Y-91566000D01*
X96653600Y-91896000D01*
G37*
%TO.C,D6*%
X51149300Y-76637000D02*
X51149300Y-78557000D01*
X51149300Y-78557000D02*
X53834300Y-78557000D01*
X53834300Y-76637000D02*
X51149300Y-76637000D01*
%TO.C,C26*%
X111720200Y-88299820D02*
X111720200Y-88580980D01*
X112740200Y-88299820D02*
X112740200Y-88580980D01*
%TO.C,SW1*%
X229930800Y-60418800D02*
X229930800Y-64818800D01*
X229930800Y-64818800D02*
X230050800Y-64818800D01*
X230050800Y-60418800D02*
X229930800Y-60418800D01*
X231060800Y-64818800D02*
X232200800Y-64818800D01*
X232200800Y-60418800D02*
X231060800Y-60418800D01*
X233210800Y-64818800D02*
X233330800Y-64818800D01*
X233330800Y-60418800D02*
X233210800Y-60418800D01*
X233330800Y-64818800D02*
X233330800Y-60418800D01*
%TO.C,Y1*%
X108442600Y-84870400D02*
X111242600Y-84870400D01*
X111242600Y-84870400D02*
X111242600Y-81570400D01*
%TO.C,J9*%
X167717000Y-36757200D02*
X167717000Y-37197200D01*
X167717000Y-40357200D02*
X167717000Y-39917200D01*
X169407000Y-40357200D02*
X167717000Y-40357200D01*
X174377000Y-40357200D02*
X174377000Y-42157200D01*
X174377000Y-40357200D02*
X176067000Y-40357200D01*
X176067000Y-36757200D02*
X167717000Y-36757200D01*
X176067000Y-37197200D02*
X176067000Y-36757200D01*
X176067000Y-40357200D02*
X176067000Y-39917200D01*
%TO.C,D9*%
X170357400Y-45844700D02*
X170357400Y-45194700D01*
X170357400Y-45844700D02*
X170357400Y-46494700D01*
X173477400Y-45844700D02*
X173477400Y-45194700D01*
X173477400Y-45844700D02*
X173477400Y-46494700D01*
X173757400Y-44922200D02*
X173427400Y-44682200D01*
X173757400Y-44442200D01*
X173757400Y-44922200D01*
G36*
X173757400Y-44922200D02*
G01*
X173427400Y-44682200D01*
X173757400Y-44442200D01*
X173757400Y-44922200D01*
G37*
%TO.C,C53*%
X66140748Y-73226200D02*
X66663252Y-73226200D01*
X66140748Y-74696200D02*
X66663252Y-74696200D01*
%TO.C,C57*%
X81984164Y-67771200D02*
X82199836Y-67771200D01*
X81984164Y-68491200D02*
X82199836Y-68491200D01*
%TO.C,SW4*%
X229930800Y-87393600D02*
X229930800Y-91793600D01*
X229930800Y-91793600D02*
X230050800Y-91793600D01*
X230050800Y-87393600D02*
X229930800Y-87393600D01*
X231060800Y-91793600D02*
X232200800Y-91793600D01*
X232200800Y-87393600D02*
X231060800Y-87393600D01*
X233210800Y-91793600D02*
X233330800Y-91793600D01*
X233330800Y-87393600D02*
X233210800Y-87393600D01*
X233330800Y-91793600D02*
X233330800Y-87393600D01*
%TO.C,R12*%
X215236359Y-134113000D02*
X215543641Y-134113000D01*
X215236359Y-134873000D02*
X215543641Y-134873000D01*
%TO.C,R37*%
X66164742Y-83478700D02*
X66639258Y-83478700D01*
X66164742Y-84523700D02*
X66639258Y-84523700D01*
%TO.C,R17*%
X112739200Y-84999641D02*
X112739200Y-84692359D01*
X113499200Y-84999641D02*
X113499200Y-84692359D01*
%TO.C,R32*%
X93519959Y-99581000D02*
X93827241Y-99581000D01*
X93519959Y-100341000D02*
X93827241Y-100341000D01*
%TO.C,R26*%
X161036759Y-142580000D02*
X161344041Y-142580000D01*
X161036759Y-143340000D02*
X161344041Y-143340000D01*
%TO.C,R21*%
X184723400Y-125670241D02*
X184723400Y-125362959D01*
X185483400Y-125670241D02*
X185483400Y-125362959D01*
%TO.C,C4*%
X112780600Y-79830636D02*
X112780600Y-79614964D01*
X113500600Y-79830636D02*
X113500600Y-79614964D01*
%TO.C,J6*%
X216607200Y-148903600D02*
X216607200Y-149343600D01*
X216607200Y-152063600D02*
X216607200Y-152503600D01*
X216607200Y-152503600D02*
X222457200Y-152503600D01*
X218297200Y-148903600D02*
X216607200Y-148903600D01*
X218297200Y-148903600D02*
X218297200Y-147103600D01*
X220767200Y-148903600D02*
X222457200Y-148903600D01*
X222457200Y-148903600D02*
X222457200Y-149343600D01*
X222457200Y-152503600D02*
X222457200Y-152063600D01*
%TO.C,JP2*%
X163420400Y-138930000D02*
X163420400Y-138330000D01*
X164120400Y-137630000D02*
X165520400Y-137630000D01*
X165520400Y-139630000D02*
X164120400Y-139630000D01*
X166220400Y-138330000D02*
X166220400Y-138930000D01*
X163420400Y-138330000D02*
G75*
G02*
X164120400Y-137630000I700000J0D01*
G01*
X164120400Y-139630000D02*
G75*
G02*
X163420400Y-138930000I0J700000D01*
G01*
X165520400Y-137630000D02*
G75*
G02*
X166220400Y-138330000I1J-699999D01*
G01*
X166220400Y-138930000D02*
G75*
G02*
X165520400Y-139630000I-699999J-1D01*
G01*
D12*
%TO.C,U6*%
X63057600Y-56755000D02*
X63057600Y-57009000D01*
X63057600Y-59498200D02*
X63057600Y-59752200D01*
X63057600Y-59752200D02*
X63311600Y-59752200D01*
X63311600Y-56755000D02*
X63057600Y-56755000D01*
X65800800Y-59752200D02*
X66054800Y-59752200D01*
X66054800Y-56755000D02*
X65800800Y-56755000D01*
X66054800Y-57009000D02*
X66054800Y-56755000D01*
X66054800Y-59752200D02*
X66054800Y-59498200D01*
D14*
X67018003Y-59453600D02*
G75*
G02*
X66794397Y-59453600I-111803J0D01*
G01*
X66794397Y-59453600D02*
G75*
G02*
X67018003Y-59453600I111803J0D01*
G01*
D11*
%TO.C,C41*%
X110930400Y-74335764D02*
X110930400Y-74551436D01*
X111650400Y-74335764D02*
X111650400Y-74551436D01*
%TO.C,R20*%
X189604259Y-122926800D02*
X189911541Y-122926800D01*
X189604259Y-123686800D02*
X189911541Y-123686800D01*
%TO.C,R1*%
X103391759Y-73090800D02*
X103699041Y-73090800D01*
X103391759Y-73850800D02*
X103699041Y-73850800D01*
%TO.C,C25*%
X146130600Y-89614964D02*
X146130600Y-89830636D01*
X146850600Y-89614964D02*
X146850600Y-89830636D01*
%TO.C,C19*%
X110145400Y-88299820D02*
X110145400Y-88580980D01*
X111165400Y-88299820D02*
X111165400Y-88580980D01*
%TO.C,D2*%
X215410000Y-130848000D02*
X216710000Y-130848000D01*
X216710000Y-127728000D02*
X215440000Y-127728000D01*
X215060000Y-127778000D02*
X214820000Y-127448000D01*
X215300000Y-127448000D01*
X215060000Y-127778000D01*
G36*
X215060000Y-127778000D02*
G01*
X214820000Y-127448000D01*
X215300000Y-127448000D01*
X215060000Y-127778000D01*
G37*
%TO.C,D8*%
X154500400Y-141280000D02*
X154500400Y-143280000D01*
X154500400Y-141280000D02*
X158510400Y-141280000D01*
X154500400Y-143280000D02*
X158510400Y-143280000D01*
%TO.C,J1*%
X217463800Y-109286200D02*
X231473800Y-109286200D01*
X217463800Y-111206200D02*
X217463800Y-109286200D01*
X217463800Y-122806200D02*
X217463800Y-123256200D01*
X217463800Y-123256200D02*
X221073800Y-123256200D01*
X222773800Y-123256200D02*
X227473800Y-123256200D01*
X228773800Y-123256200D02*
X230573800Y-123256200D01*
X233383800Y-120156200D02*
X233383800Y-113786200D01*
X233383800Y-120156200D02*
X233533800Y-120156200D01*
X233533800Y-110766200D02*
X233533800Y-110506200D01*
X233733800Y-110966200D02*
X233533800Y-110766200D01*
X233733800Y-110966200D02*
X233733800Y-113276200D01*
X233733800Y-113276200D02*
X233383800Y-113786200D01*
X233733800Y-120366200D02*
X233533800Y-120156200D01*
X233733800Y-122226200D02*
X233533800Y-122426200D01*
X233733800Y-122226200D02*
X233733800Y-120366200D01*
%TO.C,C6*%
X120923436Y-96037800D02*
X120707764Y-96037800D01*
X120923436Y-96757800D02*
X120707764Y-96757800D01*
%TO.C,JP4*%
X163420400Y-131830000D02*
X163420400Y-131230000D01*
X164120400Y-130530000D02*
X165520400Y-130530000D01*
X165520400Y-132530000D02*
X164120400Y-132530000D01*
X166220400Y-131230000D02*
X166220400Y-131830000D01*
X163420400Y-131230000D02*
G75*
G02*
X164120400Y-130530000I699999J1D01*
G01*
X164120400Y-132530000D02*
G75*
G02*
X163420400Y-131830000I-1J699999D01*
G01*
X165520400Y-130530000D02*
G75*
G02*
X166220400Y-131230000I0J-700000D01*
G01*
X166220400Y-131830000D02*
G75*
G02*
X165520400Y-132530000I-700000J0D01*
G01*
D10*
%TO.C,J2*%
X130346200Y-146986200D02*
X153846200Y-146986200D01*
X130346200Y-150811200D02*
X130346200Y-146986200D01*
X131921200Y-152886200D02*
X152271200Y-152886200D01*
X153846200Y-150811200D02*
X153846200Y-146986200D01*
D15*
X132471200Y-146536200D02*
G75*
G02*
X132221200Y-146536200I-125000J0D01*
G01*
X132221200Y-146536200D02*
G75*
G02*
X132471200Y-146536200I125000J0D01*
G01*
D11*
%TO.C,C38*%
X155356000Y-88827364D02*
X155356000Y-89043036D01*
X156076000Y-88827364D02*
X156076000Y-89043036D01*
%TO.C,C47*%
X158370400Y-133849420D02*
X158370400Y-134130580D01*
X159390400Y-133849420D02*
X159390400Y-134130580D01*
%TO.C,R27*%
X161036759Y-140590000D02*
X161344041Y-140590000D01*
X161036759Y-141350000D02*
X161344041Y-141350000D01*
%TO.C,C24*%
X221737600Y-66551636D02*
X221737600Y-66335964D01*
X222457600Y-66551636D02*
X222457600Y-66335964D01*
%TO.C,R5*%
X93519959Y-91621000D02*
X93827241Y-91621000D01*
X93519959Y-92381000D02*
X93827241Y-92381000D01*
%TO.C,R11*%
X215236359Y-132123000D02*
X215543641Y-132123000D01*
X215236359Y-132883000D02*
X215543641Y-132883000D01*
%TO.C,C11*%
X112780600Y-71100636D02*
X112780600Y-70884964D01*
X113500600Y-71100636D02*
X113500600Y-70884964D01*
%TO.C,R18*%
X221717600Y-72361441D02*
X221717600Y-72054159D01*
X222477600Y-72361441D02*
X222477600Y-72054159D01*
%TO.C,C30*%
X192140800Y-125777852D02*
X192140800Y-125255348D01*
X193610800Y-125777852D02*
X193610800Y-125255348D01*
%TO.C,C43*%
X204358748Y-137733000D02*
X205781252Y-137733000D01*
X204358748Y-139553000D02*
X205781252Y-139553000D01*
%TO.C,R38*%
X66164742Y-85988700D02*
X66639258Y-85988700D01*
X66164742Y-87033700D02*
X66639258Y-87033700D01*
%TO.C,C34*%
X147010020Y-72931400D02*
X147291180Y-72931400D01*
X147010020Y-73951400D02*
X147291180Y-73951400D01*
%TO.C,C42*%
X110930400Y-72191436D02*
X110930400Y-71975764D01*
X111650400Y-72191436D02*
X111650400Y-71975764D01*
%TO.C,D3*%
X192826200Y-127511400D02*
X192826200Y-129211400D01*
X192826200Y-127511400D02*
X195486200Y-127511400D01*
X192826200Y-129211400D02*
X195486200Y-129211400D01*
%TO.C,C2*%
X165423836Y-88095200D02*
X165208164Y-88095200D01*
X165423836Y-88815200D02*
X165208164Y-88815200D01*
%TO.C,C55*%
X81984164Y-65801200D02*
X82199836Y-65801200D01*
X81984164Y-66521200D02*
X82199836Y-66521200D01*
%TO.C,J8*%
X51153600Y-54809200D02*
X51153600Y-60659200D01*
X51153600Y-60659200D02*
X51593600Y-60659200D01*
X51593600Y-54809200D02*
X51153600Y-54809200D01*
X54753600Y-54809200D02*
X54313600Y-54809200D01*
X54753600Y-56499200D02*
X54753600Y-54809200D01*
X54753600Y-56499200D02*
X56553600Y-56499200D01*
X54753600Y-58969200D02*
X54753600Y-60659200D01*
X54753600Y-60659200D02*
X54313600Y-60659200D01*
%TO.C,C1*%
X176156000Y-88827364D02*
X176156000Y-89043036D01*
X176876000Y-88827364D02*
X176876000Y-89043036D01*
%TO.C,C17*%
X112780600Y-75830636D02*
X112780600Y-75614964D01*
X113500600Y-75830636D02*
X113500600Y-75614964D01*
%TO.C,J10*%
X135860000Y-36556600D02*
X135860000Y-38296600D01*
X135860000Y-42356600D02*
X135860000Y-41016600D01*
X137350000Y-42356600D02*
X135860000Y-42356600D01*
X149670000Y-42356600D02*
X149670000Y-43556600D01*
X149670000Y-42356600D02*
X151160000Y-42356600D01*
X151160000Y-36556600D02*
X135860000Y-36556600D01*
X151160000Y-38296600D02*
X151160000Y-36556600D01*
X151160000Y-42356600D02*
X151160000Y-41016600D01*
%TO.C,C16*%
X146130600Y-83614964D02*
X146130600Y-83830636D01*
X146850600Y-83614964D02*
X146850600Y-83830636D01*
%TO.C,R24*%
X56112141Y-77217000D02*
X55804859Y-77217000D01*
X56112141Y-77977000D02*
X55804859Y-77977000D01*
%TO.C,JP5*%
X88643600Y-93081000D02*
X88643600Y-92481000D01*
X89343600Y-91781000D02*
X90743600Y-91781000D01*
X90743600Y-93781000D02*
X89343600Y-93781000D01*
X91443600Y-92481000D02*
X91443600Y-93081000D01*
X88643600Y-92481000D02*
G75*
G02*
X89343600Y-91781000I699999J1D01*
G01*
X89343600Y-93781000D02*
G75*
G02*
X88643600Y-93081000I-1J699999D01*
G01*
X90743600Y-91781000D02*
G75*
G02*
X91443600Y-92481000I0J-700000D01*
G01*
X91443600Y-93081000D02*
G75*
G02*
X90743600Y-93781000I-700000J0D01*
G01*
%TO.C,JP1*%
X163420400Y-142480000D02*
X163420400Y-141880000D01*
X164120400Y-141180000D02*
X165520400Y-141180000D01*
X165520400Y-143180000D02*
X164120400Y-143180000D01*
X166220400Y-141880000D02*
X166220400Y-142480000D01*
X163420400Y-141880000D02*
G75*
G02*
X164120400Y-141180000I700000J0D01*
G01*
X164120400Y-143180000D02*
G75*
G02*
X163420400Y-142480000I0J700000D01*
G01*
X165520400Y-141180000D02*
G75*
G02*
X166220400Y-141880000I1J-699999D01*
G01*
X166220400Y-142480000D02*
G75*
G02*
X165520400Y-143180000I-699999J-1D01*
G01*
%TO.C,U10*%
X74812700Y-95192400D02*
X72612700Y-95192400D01*
X74812700Y-95192400D02*
X77012700Y-95192400D01*
X74812700Y-101962400D02*
X72612700Y-101962400D01*
X74812700Y-101962400D02*
X77012700Y-101962400D01*
X70952700Y-95652400D02*
X70622700Y-95892400D01*
X70622700Y-95412400D01*
X70952700Y-95652400D01*
G36*
X70952700Y-95652400D02*
G01*
X70622700Y-95892400D01*
X70622700Y-95412400D01*
X70952700Y-95652400D01*
G37*
%TO.C,L2*%
X156328336Y-137140000D02*
X157532464Y-137140000D01*
X156328336Y-139860000D02*
X157532464Y-139860000D01*
%TO.C,C52*%
X66140748Y-70716200D02*
X66663252Y-70716200D01*
X66140748Y-72186200D02*
X66663252Y-72186200D01*
%TO.C,D5*%
X51149300Y-69665334D02*
X51149300Y-71585334D01*
X51149300Y-71585334D02*
X53834300Y-71585334D01*
X53834300Y-69665334D02*
X51149300Y-69665334D01*
%TO.C,R2*%
X103391759Y-75080800D02*
X103699041Y-75080800D01*
X103391759Y-75840800D02*
X103699041Y-75840800D01*
%TO.C,R10*%
X213414841Y-113588600D02*
X213107559Y-113588600D01*
X213414841Y-114348600D02*
X213107559Y-114348600D01*
%TO.C,C35*%
X138200020Y-95626800D02*
X138481180Y-95626800D01*
X138200020Y-96646800D02*
X138481180Y-96646800D01*
%TO.C,SW2*%
X229930800Y-69410400D02*
X229930800Y-73810400D01*
X229930800Y-73810400D02*
X230050800Y-73810400D01*
X230050800Y-69410400D02*
X229930800Y-69410400D01*
X231060800Y-73810400D02*
X232200800Y-73810400D01*
X232200800Y-69410400D02*
X231060800Y-69410400D01*
X233210800Y-73810400D02*
X233330800Y-73810400D01*
X233330800Y-69410400D02*
X233210800Y-69410400D01*
X233330800Y-73810400D02*
X233330800Y-69410400D01*
%TO.C,C48*%
X155760980Y-130310000D02*
X155479820Y-130310000D01*
X155760980Y-131330000D02*
X155479820Y-131330000D01*
%TO.C,C3*%
X161023836Y-88095200D02*
X160808164Y-88095200D01*
X161023836Y-88815200D02*
X160808164Y-88815200D01*
%TO.C,R30*%
X93519959Y-95601000D02*
X93827241Y-95601000D01*
X93519959Y-96361000D02*
X93827241Y-96361000D01*
%TD*%
M02*
