%TF.GenerationSoftware,KiCad,Pcbnew,8.0.2*%
%TF.CreationDate,2024-07-19T10:45:18+07:00*%
%TF.ProjectId,chroma-pixel-zeta,6368726f-6d61-42d7-9069-78656c2d7a65,rev?*%
%TF.SameCoordinates,Original*%
%TF.FileFunction,Legend,Top*%
%TF.FilePolarity,Positive*%
%FSLAX46Y46*%
G04 Gerber Fmt 4.6, Leading zero omitted, Abs format (unit mm)*
G04 Created by KiCad (PCBNEW 8.0.2) date 2024-07-19 10:45:18*
%MOMM*%
%LPD*%
G01*
G04 APERTURE LIST*
%ADD10C,0.150000*%
%ADD11C,0.000000*%
%ADD12C,0.250000*%
%ADD13C,0.300000*%
%ADD14C,0.100000*%
%ADD15C,0.120000*%
%ADD16C,0.127000*%
%ADD17C,0.200000*%
G04 APERTURE END LIST*
D10*
X166344600Y-55041800D02*
X164109400Y-55041800D01*
X170053000Y-52552600D02*
X170053000Y-55346600D01*
X162941000Y-55778400D02*
X162941000Y-56210200D01*
X162941000Y-56210200D02*
X162941000Y-60782200D01*
X101574600Y-80137000D02*
X101574600Y-83235800D01*
X101574600Y-83235800D02*
X101574600Y-84150200D01*
X102692200Y-79019400D02*
X101574600Y-80137000D01*
X102692200Y-80645000D02*
X101574600Y-81762600D01*
X121437400Y-83007200D02*
X119583200Y-84861400D01*
X119583200Y-84861400D02*
X118059200Y-84861400D01*
X163677600Y-55041800D02*
X162941000Y-55778400D01*
X164109400Y-55041800D02*
X163677600Y-55041800D01*
X116433600Y-84861400D02*
X118059200Y-84861400D01*
X167436800Y-53949600D02*
X166344600Y-55041800D01*
X101574600Y-84150200D02*
X102209600Y-84785200D01*
D11*
G36*
X216427600Y-102908100D02*
G01*
X214243200Y-102908100D01*
X215335400Y-101815900D01*
X216427600Y-102908100D01*
G37*
D10*
X121437400Y-75869800D02*
X121437400Y-83007200D01*
X164769800Y-53949600D02*
X163677600Y-55041800D01*
D12*
X135825589Y-132411409D02*
X135968446Y-132459028D01*
X135968446Y-132459028D02*
X136016065Y-132506647D01*
X136016065Y-132506647D02*
X136063684Y-132601885D01*
X136063684Y-132601885D02*
X136063684Y-132744742D01*
X136063684Y-132744742D02*
X136016065Y-132839980D01*
X136016065Y-132839980D02*
X135968446Y-132887600D01*
X135968446Y-132887600D02*
X135873208Y-132935219D01*
X135873208Y-132935219D02*
X135492256Y-132935219D01*
X135492256Y-132935219D02*
X135492256Y-131935219D01*
X135492256Y-131935219D02*
X135825589Y-131935219D01*
X135825589Y-131935219D02*
X135920827Y-131982838D01*
X135920827Y-131982838D02*
X135968446Y-132030457D01*
X135968446Y-132030457D02*
X136016065Y-132125695D01*
X136016065Y-132125695D02*
X136016065Y-132220933D01*
X136016065Y-132220933D02*
X135968446Y-132316171D01*
X135968446Y-132316171D02*
X135920827Y-132363790D01*
X135920827Y-132363790D02*
X135825589Y-132411409D01*
X135825589Y-132411409D02*
X135492256Y-132411409D01*
X136349399Y-131935219D02*
X136920827Y-131935219D01*
X136635113Y-132935219D02*
X136635113Y-131935219D01*
X137254161Y-132935219D02*
X137254161Y-131935219D01*
X137254161Y-131935219D02*
X137825589Y-132935219D01*
X137825589Y-132935219D02*
X137825589Y-131935219D01*
X138825589Y-132935219D02*
X138254161Y-132935219D01*
X138539875Y-132935219D02*
X138539875Y-131935219D01*
X138539875Y-131935219D02*
X138444637Y-132078076D01*
X138444637Y-132078076D02*
X138349399Y-132173314D01*
X138349399Y-132173314D02*
X138254161Y-132220933D01*
X168624891Y-132935219D02*
X168291558Y-132459028D01*
X168053463Y-132935219D02*
X168053463Y-131935219D01*
X168053463Y-131935219D02*
X168434415Y-131935219D01*
X168434415Y-131935219D02*
X168529653Y-131982838D01*
X168529653Y-131982838D02*
X168577272Y-132030457D01*
X168577272Y-132030457D02*
X168624891Y-132125695D01*
X168624891Y-132125695D02*
X168624891Y-132268552D01*
X168624891Y-132268552D02*
X168577272Y-132363790D01*
X168577272Y-132363790D02*
X168529653Y-132411409D01*
X168529653Y-132411409D02*
X168434415Y-132459028D01*
X168434415Y-132459028D02*
X168053463Y-132459028D01*
X169053463Y-132411409D02*
X169386796Y-132411409D01*
X169529653Y-132935219D02*
X169053463Y-132935219D01*
X169053463Y-132935219D02*
X169053463Y-131935219D01*
X169053463Y-131935219D02*
X169529653Y-131935219D01*
X169910606Y-132887600D02*
X170053463Y-132935219D01*
X170053463Y-132935219D02*
X170291558Y-132935219D01*
X170291558Y-132935219D02*
X170386796Y-132887600D01*
X170386796Y-132887600D02*
X170434415Y-132839980D01*
X170434415Y-132839980D02*
X170482034Y-132744742D01*
X170482034Y-132744742D02*
X170482034Y-132649504D01*
X170482034Y-132649504D02*
X170434415Y-132554266D01*
X170434415Y-132554266D02*
X170386796Y-132506647D01*
X170386796Y-132506647D02*
X170291558Y-132459028D01*
X170291558Y-132459028D02*
X170101082Y-132411409D01*
X170101082Y-132411409D02*
X170005844Y-132363790D01*
X170005844Y-132363790D02*
X169958225Y-132316171D01*
X169958225Y-132316171D02*
X169910606Y-132220933D01*
X169910606Y-132220933D02*
X169910606Y-132125695D01*
X169910606Y-132125695D02*
X169958225Y-132030457D01*
X169958225Y-132030457D02*
X170005844Y-131982838D01*
X170005844Y-131982838D02*
X170101082Y-131935219D01*
X170101082Y-131935219D02*
X170339177Y-131935219D01*
X170339177Y-131935219D02*
X170482034Y-131982838D01*
X170910606Y-132411409D02*
X171243939Y-132411409D01*
X171386796Y-132935219D02*
X170910606Y-132935219D01*
X170910606Y-132935219D02*
X170910606Y-131935219D01*
X170910606Y-131935219D02*
X171386796Y-131935219D01*
X171672511Y-131935219D02*
X172243939Y-131935219D01*
X171958225Y-132935219D02*
X171958225Y-131935219D01*
D13*
X81377310Y-85957628D02*
X81377310Y-84457628D01*
X82020168Y-84600485D02*
X82091596Y-84529057D01*
X82091596Y-84529057D02*
X82234454Y-84457628D01*
X82234454Y-84457628D02*
X82591596Y-84457628D01*
X82591596Y-84457628D02*
X82734454Y-84529057D01*
X82734454Y-84529057D02*
X82805882Y-84600485D01*
X82805882Y-84600485D02*
X82877311Y-84743342D01*
X82877311Y-84743342D02*
X82877311Y-84886200D01*
X82877311Y-84886200D02*
X82805882Y-85100485D01*
X82805882Y-85100485D02*
X81948739Y-85957628D01*
X81948739Y-85957628D02*
X82877311Y-85957628D01*
X83448739Y-85886200D02*
X83663025Y-85957628D01*
X83663025Y-85957628D02*
X84020167Y-85957628D01*
X84020167Y-85957628D02*
X84163025Y-85886200D01*
X84163025Y-85886200D02*
X84234453Y-85814771D01*
X84234453Y-85814771D02*
X84305882Y-85671914D01*
X84305882Y-85671914D02*
X84305882Y-85529057D01*
X84305882Y-85529057D02*
X84234453Y-85386200D01*
X84234453Y-85386200D02*
X84163025Y-85314771D01*
X84163025Y-85314771D02*
X84020167Y-85243342D01*
X84020167Y-85243342D02*
X83734453Y-85171914D01*
X83734453Y-85171914D02*
X83591596Y-85100485D01*
X83591596Y-85100485D02*
X83520167Y-85029057D01*
X83520167Y-85029057D02*
X83448739Y-84886200D01*
X83448739Y-84886200D02*
X83448739Y-84743342D01*
X83448739Y-84743342D02*
X83520167Y-84600485D01*
X83520167Y-84600485D02*
X83591596Y-84529057D01*
X83591596Y-84529057D02*
X83734453Y-84457628D01*
X83734453Y-84457628D02*
X84091596Y-84457628D01*
X84091596Y-84457628D02*
X84305882Y-84529057D01*
X86091595Y-85957628D02*
X86091595Y-84457628D01*
X86091595Y-84457628D02*
X86591595Y-85529057D01*
X86591595Y-85529057D02*
X87091595Y-84457628D01*
X87091595Y-84457628D02*
X87091595Y-85957628D01*
X88091596Y-84457628D02*
X88377310Y-84457628D01*
X88377310Y-84457628D02*
X88520167Y-84529057D01*
X88520167Y-84529057D02*
X88663024Y-84671914D01*
X88663024Y-84671914D02*
X88734453Y-84957628D01*
X88734453Y-84957628D02*
X88734453Y-85457628D01*
X88734453Y-85457628D02*
X88663024Y-85743342D01*
X88663024Y-85743342D02*
X88520167Y-85886200D01*
X88520167Y-85886200D02*
X88377310Y-85957628D01*
X88377310Y-85957628D02*
X88091596Y-85957628D01*
X88091596Y-85957628D02*
X87948739Y-85886200D01*
X87948739Y-85886200D02*
X87805881Y-85743342D01*
X87805881Y-85743342D02*
X87734453Y-85457628D01*
X87734453Y-85457628D02*
X87734453Y-84957628D01*
X87734453Y-84957628D02*
X87805881Y-84671914D01*
X87805881Y-84671914D02*
X87948739Y-84529057D01*
X87948739Y-84529057D02*
X88091596Y-84457628D01*
X89377310Y-85957628D02*
X89377310Y-84457628D01*
X89377310Y-84457628D02*
X90234453Y-85957628D01*
X90234453Y-85957628D02*
X90234453Y-84457628D01*
X91234454Y-84457628D02*
X91520168Y-84457628D01*
X91520168Y-84457628D02*
X91663025Y-84529057D01*
X91663025Y-84529057D02*
X91805882Y-84671914D01*
X91805882Y-84671914D02*
X91877311Y-84957628D01*
X91877311Y-84957628D02*
X91877311Y-85457628D01*
X91877311Y-85457628D02*
X91805882Y-85743342D01*
X91805882Y-85743342D02*
X91663025Y-85886200D01*
X91663025Y-85886200D02*
X91520168Y-85957628D01*
X91520168Y-85957628D02*
X91234454Y-85957628D01*
X91234454Y-85957628D02*
X91091597Y-85886200D01*
X91091597Y-85886200D02*
X90948739Y-85743342D01*
X90948739Y-85743342D02*
X90877311Y-85457628D01*
X90877311Y-85457628D02*
X90877311Y-84957628D01*
X90877311Y-84957628D02*
X90948739Y-84671914D01*
X90948739Y-84671914D02*
X91091597Y-84529057D01*
X91091597Y-84529057D02*
X91234454Y-84457628D01*
X93591597Y-85529057D02*
X94305883Y-85529057D01*
X93448740Y-85957628D02*
X93948740Y-84457628D01*
X93948740Y-84457628D02*
X94448740Y-85957628D01*
X94948739Y-85957628D02*
X94948739Y-84457628D01*
X94948739Y-84457628D02*
X95448739Y-85529057D01*
X95448739Y-85529057D02*
X95948739Y-84457628D01*
X95948739Y-84457628D02*
X95948739Y-85957628D01*
X96663025Y-85957628D02*
X96663025Y-84457628D01*
X96663025Y-84457628D02*
X97234454Y-84457628D01*
X97234454Y-84457628D02*
X97377311Y-84529057D01*
X97377311Y-84529057D02*
X97448740Y-84600485D01*
X97448740Y-84600485D02*
X97520168Y-84743342D01*
X97520168Y-84743342D02*
X97520168Y-84957628D01*
X97520168Y-84957628D02*
X97448740Y-85100485D01*
X97448740Y-85100485D02*
X97377311Y-85171914D01*
X97377311Y-85171914D02*
X97234454Y-85243342D01*
X97234454Y-85243342D02*
X96663025Y-85243342D01*
D12*
X160251130Y-65311019D02*
X160870177Y-65311019D01*
X160870177Y-65311019D02*
X160536844Y-65691971D01*
X160536844Y-65691971D02*
X160679701Y-65691971D01*
X160679701Y-65691971D02*
X160774939Y-65739590D01*
X160774939Y-65739590D02*
X160822558Y-65787209D01*
X160822558Y-65787209D02*
X160870177Y-65882447D01*
X160870177Y-65882447D02*
X160870177Y-66120542D01*
X160870177Y-66120542D02*
X160822558Y-66215780D01*
X160822558Y-66215780D02*
X160774939Y-66263400D01*
X160774939Y-66263400D02*
X160679701Y-66311019D01*
X160679701Y-66311019D02*
X160393987Y-66311019D01*
X160393987Y-66311019D02*
X160298749Y-66263400D01*
X160298749Y-66263400D02*
X160251130Y-66215780D01*
X161298749Y-65644352D02*
X162060654Y-65930066D01*
X162060654Y-65930066D02*
X161298749Y-66215780D01*
X163013034Y-66311019D02*
X162536844Y-66311019D01*
X162536844Y-66311019D02*
X162536844Y-65311019D01*
X163917796Y-66215780D02*
X163870177Y-66263400D01*
X163870177Y-66263400D02*
X163727320Y-66311019D01*
X163727320Y-66311019D02*
X163632082Y-66311019D01*
X163632082Y-66311019D02*
X163489225Y-66263400D01*
X163489225Y-66263400D02*
X163393987Y-66168161D01*
X163393987Y-66168161D02*
X163346368Y-66072923D01*
X163346368Y-66072923D02*
X163298749Y-65882447D01*
X163298749Y-65882447D02*
X163298749Y-65739590D01*
X163298749Y-65739590D02*
X163346368Y-65549114D01*
X163346368Y-65549114D02*
X163393987Y-65453876D01*
X163393987Y-65453876D02*
X163489225Y-65358638D01*
X163489225Y-65358638D02*
X163632082Y-65311019D01*
X163632082Y-65311019D02*
X163727320Y-65311019D01*
X163727320Y-65311019D02*
X163870177Y-65358638D01*
X163870177Y-65358638D02*
X163917796Y-65406257D01*
X164346368Y-66311019D02*
X164346368Y-65311019D01*
X164346368Y-65311019D02*
X164584463Y-65311019D01*
X164584463Y-65311019D02*
X164727320Y-65358638D01*
X164727320Y-65358638D02*
X164822558Y-65453876D01*
X164822558Y-65453876D02*
X164870177Y-65549114D01*
X164870177Y-65549114D02*
X164917796Y-65739590D01*
X164917796Y-65739590D02*
X164917796Y-65882447D01*
X164917796Y-65882447D02*
X164870177Y-66072923D01*
X164870177Y-66072923D02*
X164822558Y-66168161D01*
X164822558Y-66168161D02*
X164727320Y-66263400D01*
X164727320Y-66263400D02*
X164584463Y-66311019D01*
X164584463Y-66311019D02*
X164346368Y-66311019D01*
X166108273Y-66311019D02*
X166108273Y-65311019D01*
X166536844Y-65406257D02*
X166584463Y-65358638D01*
X166584463Y-65358638D02*
X166679701Y-65311019D01*
X166679701Y-65311019D02*
X166917796Y-65311019D01*
X166917796Y-65311019D02*
X167013034Y-65358638D01*
X167013034Y-65358638D02*
X167060653Y-65406257D01*
X167060653Y-65406257D02*
X167108272Y-65501495D01*
X167108272Y-65501495D02*
X167108272Y-65596733D01*
X167108272Y-65596733D02*
X167060653Y-65739590D01*
X167060653Y-65739590D02*
X166489225Y-66311019D01*
X166489225Y-66311019D02*
X167108272Y-66311019D01*
X168108272Y-66215780D02*
X168060653Y-66263400D01*
X168060653Y-66263400D02*
X167917796Y-66311019D01*
X167917796Y-66311019D02*
X167822558Y-66311019D01*
X167822558Y-66311019D02*
X167679701Y-66263400D01*
X167679701Y-66263400D02*
X167584463Y-66168161D01*
X167584463Y-66168161D02*
X167536844Y-66072923D01*
X167536844Y-66072923D02*
X167489225Y-65882447D01*
X167489225Y-65882447D02*
X167489225Y-65739590D01*
X167489225Y-65739590D02*
X167536844Y-65549114D01*
X167536844Y-65549114D02*
X167584463Y-65453876D01*
X167584463Y-65453876D02*
X167679701Y-65358638D01*
X167679701Y-65358638D02*
X167822558Y-65311019D01*
X167822558Y-65311019D02*
X167917796Y-65311019D01*
X167917796Y-65311019D02*
X168060653Y-65358638D01*
X168060653Y-65358638D02*
X168108272Y-65406257D01*
X120671568Y-74728009D02*
X121004901Y-74728009D01*
X121147758Y-75251819D02*
X120671568Y-75251819D01*
X120671568Y-75251819D02*
X120671568Y-74251819D01*
X120671568Y-74251819D02*
X121147758Y-74251819D01*
X121576330Y-75251819D02*
X121576330Y-74251819D01*
X121576330Y-74251819D02*
X122147758Y-75251819D01*
X122147758Y-75251819D02*
X122147758Y-74251819D01*
D13*
X144884225Y-56188828D02*
X144169939Y-56188828D01*
X144169939Y-56188828D02*
X144169939Y-54688828D01*
X146241368Y-56045971D02*
X146169940Y-56117400D01*
X146169940Y-56117400D02*
X145955654Y-56188828D01*
X145955654Y-56188828D02*
X145812797Y-56188828D01*
X145812797Y-56188828D02*
X145598511Y-56117400D01*
X145598511Y-56117400D02*
X145455654Y-55974542D01*
X145455654Y-55974542D02*
X145384225Y-55831685D01*
X145384225Y-55831685D02*
X145312797Y-55545971D01*
X145312797Y-55545971D02*
X145312797Y-55331685D01*
X145312797Y-55331685D02*
X145384225Y-55045971D01*
X145384225Y-55045971D02*
X145455654Y-54903114D01*
X145455654Y-54903114D02*
X145598511Y-54760257D01*
X145598511Y-54760257D02*
X145812797Y-54688828D01*
X145812797Y-54688828D02*
X145955654Y-54688828D01*
X145955654Y-54688828D02*
X146169940Y-54760257D01*
X146169940Y-54760257D02*
X146241368Y-54831685D01*
X146884225Y-56188828D02*
X146884225Y-54688828D01*
X146884225Y-54688828D02*
X147241368Y-54688828D01*
X147241368Y-54688828D02*
X147455654Y-54760257D01*
X147455654Y-54760257D02*
X147598511Y-54903114D01*
X147598511Y-54903114D02*
X147669940Y-55045971D01*
X147669940Y-55045971D02*
X147741368Y-55331685D01*
X147741368Y-55331685D02*
X147741368Y-55545971D01*
X147741368Y-55545971D02*
X147669940Y-55831685D01*
X147669940Y-55831685D02*
X147598511Y-55974542D01*
X147598511Y-55974542D02*
X147455654Y-56117400D01*
X147455654Y-56117400D02*
X147241368Y-56188828D01*
X147241368Y-56188828D02*
X146884225Y-56188828D01*
X150384225Y-56188828D02*
X149884225Y-55474542D01*
X149527082Y-56188828D02*
X149527082Y-54688828D01*
X149527082Y-54688828D02*
X150098511Y-54688828D01*
X150098511Y-54688828D02*
X150241368Y-54760257D01*
X150241368Y-54760257D02*
X150312797Y-54831685D01*
X150312797Y-54831685D02*
X150384225Y-54974542D01*
X150384225Y-54974542D02*
X150384225Y-55188828D01*
X150384225Y-55188828D02*
X150312797Y-55331685D01*
X150312797Y-55331685D02*
X150241368Y-55403114D01*
X150241368Y-55403114D02*
X150098511Y-55474542D01*
X150098511Y-55474542D02*
X149527082Y-55474542D01*
X151812797Y-54760257D02*
X151669940Y-54688828D01*
X151669940Y-54688828D02*
X151455654Y-54688828D01*
X151455654Y-54688828D02*
X151241368Y-54760257D01*
X151241368Y-54760257D02*
X151098511Y-54903114D01*
X151098511Y-54903114D02*
X151027082Y-55045971D01*
X151027082Y-55045971D02*
X150955654Y-55331685D01*
X150955654Y-55331685D02*
X150955654Y-55545971D01*
X150955654Y-55545971D02*
X151027082Y-55831685D01*
X151027082Y-55831685D02*
X151098511Y-55974542D01*
X151098511Y-55974542D02*
X151241368Y-56117400D01*
X151241368Y-56117400D02*
X151455654Y-56188828D01*
X151455654Y-56188828D02*
X151598511Y-56188828D01*
X151598511Y-56188828D02*
X151812797Y-56117400D01*
X151812797Y-56117400D02*
X151884225Y-56045971D01*
X151884225Y-56045971D02*
X151884225Y-55545971D01*
X151884225Y-55545971D02*
X151598511Y-55545971D01*
X153027082Y-55403114D02*
X153241368Y-55474542D01*
X153241368Y-55474542D02*
X153312797Y-55545971D01*
X153312797Y-55545971D02*
X153384225Y-55688828D01*
X153384225Y-55688828D02*
X153384225Y-55903114D01*
X153384225Y-55903114D02*
X153312797Y-56045971D01*
X153312797Y-56045971D02*
X153241368Y-56117400D01*
X153241368Y-56117400D02*
X153098511Y-56188828D01*
X153098511Y-56188828D02*
X152527082Y-56188828D01*
X152527082Y-56188828D02*
X152527082Y-54688828D01*
X152527082Y-54688828D02*
X153027082Y-54688828D01*
X153027082Y-54688828D02*
X153169940Y-54760257D01*
X153169940Y-54760257D02*
X153241368Y-54831685D01*
X153241368Y-54831685D02*
X153312797Y-54974542D01*
X153312797Y-54974542D02*
X153312797Y-55117400D01*
X153312797Y-55117400D02*
X153241368Y-55260257D01*
X153241368Y-55260257D02*
X153169940Y-55331685D01*
X153169940Y-55331685D02*
X153027082Y-55403114D01*
X153027082Y-55403114D02*
X152527082Y-55403114D01*
D12*
X103796377Y-79328519D02*
X103224949Y-79328519D01*
X103510663Y-79328519D02*
X103510663Y-78328519D01*
X103510663Y-78328519D02*
X103415425Y-78471376D01*
X103415425Y-78471376D02*
X103320187Y-78566614D01*
X103320187Y-78566614D02*
X103224949Y-78614233D01*
X104224949Y-78661852D02*
X104986854Y-78947566D01*
X104986854Y-78947566D02*
X104224949Y-79233280D01*
X105463044Y-79328519D02*
X105463044Y-78328519D01*
X105463044Y-78328519D02*
X105701139Y-78328519D01*
X105701139Y-78328519D02*
X105843996Y-78376138D01*
X105843996Y-78376138D02*
X105939234Y-78471376D01*
X105939234Y-78471376D02*
X105986853Y-78566614D01*
X105986853Y-78566614D02*
X106034472Y-78757090D01*
X106034472Y-78757090D02*
X106034472Y-78899947D01*
X106034472Y-78899947D02*
X105986853Y-79090423D01*
X105986853Y-79090423D02*
X105939234Y-79185661D01*
X105939234Y-79185661D02*
X105843996Y-79280900D01*
X105843996Y-79280900D02*
X105701139Y-79328519D01*
X105701139Y-79328519D02*
X105463044Y-79328519D01*
X106463044Y-78328519D02*
X106463044Y-79138042D01*
X106463044Y-79138042D02*
X106510663Y-79233280D01*
X106510663Y-79233280D02*
X106558282Y-79280900D01*
X106558282Y-79280900D02*
X106653520Y-79328519D01*
X106653520Y-79328519D02*
X106843996Y-79328519D01*
X106843996Y-79328519D02*
X106939234Y-79280900D01*
X106939234Y-79280900D02*
X106986853Y-79233280D01*
X106986853Y-79233280D02*
X107034472Y-79138042D01*
X107034472Y-79138042D02*
X107034472Y-78328519D01*
X107463044Y-79042804D02*
X107939234Y-79042804D01*
X107367806Y-79328519D02*
X107701139Y-78328519D01*
X107701139Y-78328519D02*
X108034472Y-79328519D01*
X108843996Y-79328519D02*
X108367806Y-79328519D01*
X108367806Y-79328519D02*
X108367806Y-78328519D01*
X110510663Y-79233280D02*
X110463044Y-79280900D01*
X110463044Y-79280900D02*
X110320187Y-79328519D01*
X110320187Y-79328519D02*
X110224949Y-79328519D01*
X110224949Y-79328519D02*
X110082092Y-79280900D01*
X110082092Y-79280900D02*
X109986854Y-79185661D01*
X109986854Y-79185661D02*
X109939235Y-79090423D01*
X109939235Y-79090423D02*
X109891616Y-78899947D01*
X109891616Y-78899947D02*
X109891616Y-78757090D01*
X109891616Y-78757090D02*
X109939235Y-78566614D01*
X109939235Y-78566614D02*
X109986854Y-78471376D01*
X109986854Y-78471376D02*
X110082092Y-78376138D01*
X110082092Y-78376138D02*
X110224949Y-78328519D01*
X110224949Y-78328519D02*
X110320187Y-78328519D01*
X110320187Y-78328519D02*
X110463044Y-78376138D01*
X110463044Y-78376138D02*
X110510663Y-78423757D01*
X110891616Y-79280900D02*
X111034473Y-79328519D01*
X111034473Y-79328519D02*
X111272568Y-79328519D01*
X111272568Y-79328519D02*
X111367806Y-79280900D01*
X111367806Y-79280900D02*
X111415425Y-79233280D01*
X111415425Y-79233280D02*
X111463044Y-79138042D01*
X111463044Y-79138042D02*
X111463044Y-79042804D01*
X111463044Y-79042804D02*
X111415425Y-78947566D01*
X111415425Y-78947566D02*
X111367806Y-78899947D01*
X111367806Y-78899947D02*
X111272568Y-78852328D01*
X111272568Y-78852328D02*
X111082092Y-78804709D01*
X111082092Y-78804709D02*
X110986854Y-78757090D01*
X110986854Y-78757090D02*
X110939235Y-78709471D01*
X110939235Y-78709471D02*
X110891616Y-78614233D01*
X110891616Y-78614233D02*
X110891616Y-78518995D01*
X110891616Y-78518995D02*
X110939235Y-78423757D01*
X110939235Y-78423757D02*
X110986854Y-78376138D01*
X110986854Y-78376138D02*
X111082092Y-78328519D01*
X111082092Y-78328519D02*
X111320187Y-78328519D01*
X111320187Y-78328519D02*
X111463044Y-78376138D01*
X125313225Y-138980419D02*
X124837035Y-138980419D01*
X124837035Y-138980419D02*
X124837035Y-137980419D01*
X125646559Y-138456609D02*
X125979892Y-138456609D01*
X126122749Y-138980419D02*
X125646559Y-138980419D01*
X125646559Y-138980419D02*
X125646559Y-137980419D01*
X125646559Y-137980419D02*
X126122749Y-137980419D01*
X126551321Y-138980419D02*
X126551321Y-137980419D01*
X126551321Y-137980419D02*
X126789416Y-137980419D01*
X126789416Y-137980419D02*
X126932273Y-138028038D01*
X126932273Y-138028038D02*
X127027511Y-138123276D01*
X127027511Y-138123276D02*
X127075130Y-138218514D01*
X127075130Y-138218514D02*
X127122749Y-138408990D01*
X127122749Y-138408990D02*
X127122749Y-138551847D01*
X127122749Y-138551847D02*
X127075130Y-138742323D01*
X127075130Y-138742323D02*
X127027511Y-138837561D01*
X127027511Y-138837561D02*
X126932273Y-138932800D01*
X126932273Y-138932800D02*
X126789416Y-138980419D01*
X126789416Y-138980419D02*
X126551321Y-138980419D01*
X128075130Y-138980419D02*
X127503702Y-138980419D01*
X127789416Y-138980419D02*
X127789416Y-137980419D01*
X127789416Y-137980419D02*
X127694178Y-138123276D01*
X127694178Y-138123276D02*
X127598940Y-138218514D01*
X127598940Y-138218514D02*
X127503702Y-138266133D01*
X120496901Y-60138059D02*
X120639758Y-60185678D01*
X120639758Y-60185678D02*
X120687377Y-60233297D01*
X120687377Y-60233297D02*
X120734996Y-60328535D01*
X120734996Y-60328535D02*
X120734996Y-60471392D01*
X120734996Y-60471392D02*
X120687377Y-60566630D01*
X120687377Y-60566630D02*
X120639758Y-60614250D01*
X120639758Y-60614250D02*
X120544520Y-60661869D01*
X120544520Y-60661869D02*
X120163568Y-60661869D01*
X120163568Y-60661869D02*
X120163568Y-59661869D01*
X120163568Y-59661869D02*
X120496901Y-59661869D01*
X120496901Y-59661869D02*
X120592139Y-59709488D01*
X120592139Y-59709488D02*
X120639758Y-59757107D01*
X120639758Y-59757107D02*
X120687377Y-59852345D01*
X120687377Y-59852345D02*
X120687377Y-59947583D01*
X120687377Y-59947583D02*
X120639758Y-60042821D01*
X120639758Y-60042821D02*
X120592139Y-60090440D01*
X120592139Y-60090440D02*
X120496901Y-60138059D01*
X120496901Y-60138059D02*
X120163568Y-60138059D01*
X121639758Y-60661869D02*
X121163568Y-60661869D01*
X121163568Y-60661869D02*
X121163568Y-59661869D01*
X122734997Y-60138059D02*
X123068330Y-60138059D01*
X123211187Y-60661869D02*
X122734997Y-60661869D01*
X122734997Y-60661869D02*
X122734997Y-59661869D01*
X122734997Y-59661869D02*
X123211187Y-59661869D01*
X123639759Y-60661869D02*
X123639759Y-59661869D01*
X123639759Y-59661869D02*
X124211187Y-60661869D01*
X124211187Y-60661869D02*
X124211187Y-59661869D01*
X125401663Y-59614250D02*
X124544521Y-60899964D01*
X125734997Y-60661869D02*
X125734997Y-59661869D01*
X125734997Y-59661869D02*
X126115949Y-59661869D01*
X126115949Y-59661869D02*
X126211187Y-59709488D01*
X126211187Y-59709488D02*
X126258806Y-59757107D01*
X126258806Y-59757107D02*
X126306425Y-59852345D01*
X126306425Y-59852345D02*
X126306425Y-59995202D01*
X126306425Y-59995202D02*
X126258806Y-60090440D01*
X126258806Y-60090440D02*
X126211187Y-60138059D01*
X126211187Y-60138059D02*
X126115949Y-60185678D01*
X126115949Y-60185678D02*
X125734997Y-60185678D01*
X126639759Y-59661869D02*
X126877854Y-60661869D01*
X126877854Y-60661869D02*
X127068330Y-59947583D01*
X127068330Y-59947583D02*
X127258806Y-60661869D01*
X127258806Y-60661869D02*
X127496902Y-59661869D01*
X127877854Y-60661869D02*
X127877854Y-59661869D01*
X127877854Y-59661869D02*
X128211187Y-60376154D01*
X128211187Y-60376154D02*
X128544520Y-59661869D01*
X128544520Y-59661869D02*
X128544520Y-60661869D01*
X125505718Y-48388257D02*
X125553337Y-48340638D01*
X125553337Y-48340638D02*
X125648575Y-48293019D01*
X125648575Y-48293019D02*
X125886670Y-48293019D01*
X125886670Y-48293019D02*
X125981908Y-48340638D01*
X125981908Y-48340638D02*
X126029527Y-48388257D01*
X126029527Y-48388257D02*
X126077146Y-48483495D01*
X126077146Y-48483495D02*
X126077146Y-48578733D01*
X126077146Y-48578733D02*
X126029527Y-48721590D01*
X126029527Y-48721590D02*
X125458099Y-49293019D01*
X125458099Y-49293019D02*
X126077146Y-49293019D01*
X126981908Y-48293019D02*
X126505718Y-48293019D01*
X126505718Y-48293019D02*
X126458099Y-48769209D01*
X126458099Y-48769209D02*
X126505718Y-48721590D01*
X126505718Y-48721590D02*
X126600956Y-48673971D01*
X126600956Y-48673971D02*
X126839051Y-48673971D01*
X126839051Y-48673971D02*
X126934289Y-48721590D01*
X126934289Y-48721590D02*
X126981908Y-48769209D01*
X126981908Y-48769209D02*
X127029527Y-48864447D01*
X127029527Y-48864447D02*
X127029527Y-49102542D01*
X127029527Y-49102542D02*
X126981908Y-49197780D01*
X126981908Y-49197780D02*
X126934289Y-49245400D01*
X126934289Y-49245400D02*
X126839051Y-49293019D01*
X126839051Y-49293019D02*
X126600956Y-49293019D01*
X126600956Y-49293019D02*
X126505718Y-49245400D01*
X126505718Y-49245400D02*
X126458099Y-49197780D01*
D13*
X205082228Y-125765220D02*
X206296514Y-125765220D01*
X206296514Y-125765220D02*
X206439371Y-125693791D01*
X206439371Y-125693791D02*
X206510800Y-125622363D01*
X206510800Y-125622363D02*
X206582228Y-125479505D01*
X206582228Y-125479505D02*
X206582228Y-125193791D01*
X206582228Y-125193791D02*
X206510800Y-125050934D01*
X206510800Y-125050934D02*
X206439371Y-124979505D01*
X206439371Y-124979505D02*
X206296514Y-124908077D01*
X206296514Y-124908077D02*
X205082228Y-124908077D01*
X206153657Y-124265219D02*
X206153657Y-123550934D01*
X206582228Y-124408076D02*
X205082228Y-123908076D01*
X205082228Y-123908076D02*
X206582228Y-123408076D01*
X206582228Y-122050934D02*
X205867942Y-122550934D01*
X206582228Y-122908077D02*
X205082228Y-122908077D01*
X205082228Y-122908077D02*
X205082228Y-122336648D01*
X205082228Y-122336648D02*
X205153657Y-122193791D01*
X205153657Y-122193791D02*
X205225085Y-122122362D01*
X205225085Y-122122362D02*
X205367942Y-122050934D01*
X205367942Y-122050934D02*
X205582228Y-122050934D01*
X205582228Y-122050934D02*
X205725085Y-122122362D01*
X205725085Y-122122362D02*
X205796514Y-122193791D01*
X205796514Y-122193791D02*
X205867942Y-122336648D01*
X205867942Y-122336648D02*
X205867942Y-122908077D01*
X205082228Y-121622362D02*
X205082228Y-120765220D01*
X206582228Y-121193791D02*
X205082228Y-121193791D01*
D12*
X106153887Y-115733104D02*
X106630077Y-115733104D01*
X106058649Y-116018819D02*
X106391982Y-115018819D01*
X106391982Y-115018819D02*
X106725315Y-116018819D01*
X107011030Y-115114057D02*
X107058649Y-115066438D01*
X107058649Y-115066438D02*
X107153887Y-115018819D01*
X107153887Y-115018819D02*
X107391982Y-115018819D01*
X107391982Y-115018819D02*
X107487220Y-115066438D01*
X107487220Y-115066438D02*
X107534839Y-115114057D01*
X107534839Y-115114057D02*
X107582458Y-115209295D01*
X107582458Y-115209295D02*
X107582458Y-115304533D01*
X107582458Y-115304533D02*
X107534839Y-115447390D01*
X107534839Y-115447390D02*
X106963411Y-116018819D01*
X106963411Y-116018819D02*
X107582458Y-116018819D01*
X111665687Y-115733104D02*
X112141877Y-115733104D01*
X111570449Y-116018819D02*
X111903782Y-115018819D01*
X111903782Y-115018819D02*
X112237115Y-116018819D01*
X112760925Y-115018819D02*
X112856163Y-115018819D01*
X112856163Y-115018819D02*
X112951401Y-115066438D01*
X112951401Y-115066438D02*
X112999020Y-115114057D01*
X112999020Y-115114057D02*
X113046639Y-115209295D01*
X113046639Y-115209295D02*
X113094258Y-115399771D01*
X113094258Y-115399771D02*
X113094258Y-115637866D01*
X113094258Y-115637866D02*
X113046639Y-115828342D01*
X113046639Y-115828342D02*
X112999020Y-115923580D01*
X112999020Y-115923580D02*
X112951401Y-115971200D01*
X112951401Y-115971200D02*
X112856163Y-116018819D01*
X112856163Y-116018819D02*
X112760925Y-116018819D01*
X112760925Y-116018819D02*
X112665687Y-115971200D01*
X112665687Y-115971200D02*
X112618068Y-115923580D01*
X112618068Y-115923580D02*
X112570449Y-115828342D01*
X112570449Y-115828342D02*
X112522830Y-115637866D01*
X112522830Y-115637866D02*
X112522830Y-115399771D01*
X112522830Y-115399771D02*
X112570449Y-115209295D01*
X112570449Y-115209295D02*
X112618068Y-115114057D01*
X112618068Y-115114057D02*
X112665687Y-115066438D01*
X112665687Y-115066438D02*
X112760925Y-115018819D01*
X167061521Y-56786019D02*
X167061521Y-55786019D01*
X167490092Y-55881257D02*
X167537711Y-55833638D01*
X167537711Y-55833638D02*
X167632949Y-55786019D01*
X167632949Y-55786019D02*
X167871044Y-55786019D01*
X167871044Y-55786019D02*
X167966282Y-55833638D01*
X167966282Y-55833638D02*
X168013901Y-55881257D01*
X168013901Y-55881257D02*
X168061520Y-55976495D01*
X168061520Y-55976495D02*
X168061520Y-56071733D01*
X168061520Y-56071733D02*
X168013901Y-56214590D01*
X168013901Y-56214590D02*
X167442473Y-56786019D01*
X167442473Y-56786019D02*
X168061520Y-56786019D01*
X169061520Y-56690780D02*
X169013901Y-56738400D01*
X169013901Y-56738400D02*
X168871044Y-56786019D01*
X168871044Y-56786019D02*
X168775806Y-56786019D01*
X168775806Y-56786019D02*
X168632949Y-56738400D01*
X168632949Y-56738400D02*
X168537711Y-56643161D01*
X168537711Y-56643161D02*
X168490092Y-56547923D01*
X168490092Y-56547923D02*
X168442473Y-56357447D01*
X168442473Y-56357447D02*
X168442473Y-56214590D01*
X168442473Y-56214590D02*
X168490092Y-56024114D01*
X168490092Y-56024114D02*
X168537711Y-55928876D01*
X168537711Y-55928876D02*
X168632949Y-55833638D01*
X168632949Y-55833638D02*
X168775806Y-55786019D01*
X168775806Y-55786019D02*
X168871044Y-55786019D01*
X168871044Y-55786019D02*
X169013901Y-55833638D01*
X169013901Y-55833638D02*
X169061520Y-55881257D01*
X170823425Y-56786019D02*
X170490092Y-56309828D01*
X170251997Y-56786019D02*
X170251997Y-55786019D01*
X170251997Y-55786019D02*
X170632949Y-55786019D01*
X170632949Y-55786019D02*
X170728187Y-55833638D01*
X170728187Y-55833638D02*
X170775806Y-55881257D01*
X170775806Y-55881257D02*
X170823425Y-55976495D01*
X170823425Y-55976495D02*
X170823425Y-56119352D01*
X170823425Y-56119352D02*
X170775806Y-56214590D01*
X170775806Y-56214590D02*
X170728187Y-56262209D01*
X170728187Y-56262209D02*
X170632949Y-56309828D01*
X170632949Y-56309828D02*
X170251997Y-56309828D01*
X171251997Y-56786019D02*
X171251997Y-55786019D01*
X171251997Y-55786019D02*
X171632949Y-55786019D01*
X171632949Y-55786019D02*
X171728187Y-55833638D01*
X171728187Y-55833638D02*
X171775806Y-55881257D01*
X171775806Y-55881257D02*
X171823425Y-55976495D01*
X171823425Y-55976495D02*
X171823425Y-56119352D01*
X171823425Y-56119352D02*
X171775806Y-56214590D01*
X171775806Y-56214590D02*
X171728187Y-56262209D01*
X171728187Y-56262209D02*
X171632949Y-56309828D01*
X171632949Y-56309828D02*
X171251997Y-56309828D01*
X172251997Y-55786019D02*
X172251997Y-56595542D01*
X172251997Y-56595542D02*
X172299616Y-56690780D01*
X172299616Y-56690780D02*
X172347235Y-56738400D01*
X172347235Y-56738400D02*
X172442473Y-56786019D01*
X172442473Y-56786019D02*
X172632949Y-56786019D01*
X172632949Y-56786019D02*
X172728187Y-56738400D01*
X172728187Y-56738400D02*
X172775806Y-56690780D01*
X172775806Y-56690780D02*
X172823425Y-56595542D01*
X172823425Y-56595542D02*
X172823425Y-55786019D01*
D13*
X206510800Y-101141652D02*
X206582228Y-100927367D01*
X206582228Y-100927367D02*
X206582228Y-100570224D01*
X206582228Y-100570224D02*
X206510800Y-100427367D01*
X206510800Y-100427367D02*
X206439371Y-100355938D01*
X206439371Y-100355938D02*
X206296514Y-100284509D01*
X206296514Y-100284509D02*
X206153657Y-100284509D01*
X206153657Y-100284509D02*
X206010800Y-100355938D01*
X206010800Y-100355938D02*
X205939371Y-100427367D01*
X205939371Y-100427367D02*
X205867942Y-100570224D01*
X205867942Y-100570224D02*
X205796514Y-100855938D01*
X205796514Y-100855938D02*
X205725085Y-100998795D01*
X205725085Y-100998795D02*
X205653657Y-101070224D01*
X205653657Y-101070224D02*
X205510800Y-101141652D01*
X205510800Y-101141652D02*
X205367942Y-101141652D01*
X205367942Y-101141652D02*
X205225085Y-101070224D01*
X205225085Y-101070224D02*
X205153657Y-100998795D01*
X205153657Y-100998795D02*
X205082228Y-100855938D01*
X205082228Y-100855938D02*
X205082228Y-100498795D01*
X205082228Y-100498795D02*
X205153657Y-100284509D01*
X205082228Y-99855938D02*
X205082228Y-98998796D01*
X206582228Y-99427367D02*
X205082228Y-99427367D01*
X206010800Y-98498796D02*
X206010800Y-97355939D01*
X206582228Y-95927367D02*
X206582228Y-96641653D01*
X206582228Y-96641653D02*
X205082228Y-96641653D01*
X206582228Y-95427367D02*
X205082228Y-95427367D01*
X206582228Y-94713081D02*
X205082228Y-94713081D01*
X205082228Y-94713081D02*
X206582228Y-93855938D01*
X206582228Y-93855938D02*
X205082228Y-93855938D01*
X206582228Y-93141652D02*
X205082228Y-93141652D01*
X206582228Y-92284509D02*
X205725085Y-92927366D01*
X205082228Y-92284509D02*
X205939371Y-93141652D01*
X83494111Y-61730800D02*
X83708397Y-61802228D01*
X83708397Y-61802228D02*
X84065539Y-61802228D01*
X84065539Y-61802228D02*
X84208397Y-61730800D01*
X84208397Y-61730800D02*
X84279825Y-61659371D01*
X84279825Y-61659371D02*
X84351254Y-61516514D01*
X84351254Y-61516514D02*
X84351254Y-61373657D01*
X84351254Y-61373657D02*
X84279825Y-61230800D01*
X84279825Y-61230800D02*
X84208397Y-61159371D01*
X84208397Y-61159371D02*
X84065539Y-61087942D01*
X84065539Y-61087942D02*
X83779825Y-61016514D01*
X83779825Y-61016514D02*
X83636968Y-60945085D01*
X83636968Y-60945085D02*
X83565539Y-60873657D01*
X83565539Y-60873657D02*
X83494111Y-60730800D01*
X83494111Y-60730800D02*
X83494111Y-60587942D01*
X83494111Y-60587942D02*
X83565539Y-60445085D01*
X83565539Y-60445085D02*
X83636968Y-60373657D01*
X83636968Y-60373657D02*
X83779825Y-60302228D01*
X83779825Y-60302228D02*
X84136968Y-60302228D01*
X84136968Y-60302228D02*
X84351254Y-60373657D01*
X84994110Y-61802228D02*
X84994110Y-60302228D01*
X84994110Y-60302228D02*
X85351253Y-60302228D01*
X85351253Y-60302228D02*
X85565539Y-60373657D01*
X85565539Y-60373657D02*
X85708396Y-60516514D01*
X85708396Y-60516514D02*
X85779825Y-60659371D01*
X85779825Y-60659371D02*
X85851253Y-60945085D01*
X85851253Y-60945085D02*
X85851253Y-61159371D01*
X85851253Y-61159371D02*
X85779825Y-61445085D01*
X85779825Y-61445085D02*
X85708396Y-61587942D01*
X85708396Y-61587942D02*
X85565539Y-61730800D01*
X85565539Y-61730800D02*
X85351253Y-61802228D01*
X85351253Y-61802228D02*
X84994110Y-61802228D01*
X88494110Y-61659371D02*
X88422682Y-61730800D01*
X88422682Y-61730800D02*
X88208396Y-61802228D01*
X88208396Y-61802228D02*
X88065539Y-61802228D01*
X88065539Y-61802228D02*
X87851253Y-61730800D01*
X87851253Y-61730800D02*
X87708396Y-61587942D01*
X87708396Y-61587942D02*
X87636967Y-61445085D01*
X87636967Y-61445085D02*
X87565539Y-61159371D01*
X87565539Y-61159371D02*
X87565539Y-60945085D01*
X87565539Y-60945085D02*
X87636967Y-60659371D01*
X87636967Y-60659371D02*
X87708396Y-60516514D01*
X87708396Y-60516514D02*
X87851253Y-60373657D01*
X87851253Y-60373657D02*
X88065539Y-60302228D01*
X88065539Y-60302228D02*
X88208396Y-60302228D01*
X88208396Y-60302228D02*
X88422682Y-60373657D01*
X88422682Y-60373657D02*
X88494110Y-60445085D01*
X89065539Y-61373657D02*
X89779825Y-61373657D01*
X88922682Y-61802228D02*
X89422682Y-60302228D01*
X89422682Y-60302228D02*
X89922682Y-61802228D01*
X91279824Y-61802228D02*
X90779824Y-61087942D01*
X90422681Y-61802228D02*
X90422681Y-60302228D01*
X90422681Y-60302228D02*
X90994110Y-60302228D01*
X90994110Y-60302228D02*
X91136967Y-60373657D01*
X91136967Y-60373657D02*
X91208396Y-60445085D01*
X91208396Y-60445085D02*
X91279824Y-60587942D01*
X91279824Y-60587942D02*
X91279824Y-60802228D01*
X91279824Y-60802228D02*
X91208396Y-60945085D01*
X91208396Y-60945085D02*
X91136967Y-61016514D01*
X91136967Y-61016514D02*
X90994110Y-61087942D01*
X90994110Y-61087942D02*
X90422681Y-61087942D01*
X91922681Y-61802228D02*
X91922681Y-60302228D01*
X91922681Y-60302228D02*
X92279824Y-60302228D01*
X92279824Y-60302228D02*
X92494110Y-60373657D01*
X92494110Y-60373657D02*
X92636967Y-60516514D01*
X92636967Y-60516514D02*
X92708396Y-60659371D01*
X92708396Y-60659371D02*
X92779824Y-60945085D01*
X92779824Y-60945085D02*
X92779824Y-61159371D01*
X92779824Y-61159371D02*
X92708396Y-61445085D01*
X92708396Y-61445085D02*
X92636967Y-61587942D01*
X92636967Y-61587942D02*
X92494110Y-61730800D01*
X92494110Y-61730800D02*
X92279824Y-61802228D01*
X92279824Y-61802228D02*
X91922681Y-61802228D01*
D12*
X103939234Y-77582257D02*
X103843996Y-77534638D01*
X103843996Y-77534638D02*
X103748758Y-77439400D01*
X103748758Y-77439400D02*
X103605901Y-77296542D01*
X103605901Y-77296542D02*
X103510663Y-77248923D01*
X103510663Y-77248923D02*
X103415425Y-77248923D01*
X103463044Y-77487019D02*
X103367806Y-77439400D01*
X103367806Y-77439400D02*
X103272568Y-77344161D01*
X103272568Y-77344161D02*
X103224949Y-77153685D01*
X103224949Y-77153685D02*
X103224949Y-76820352D01*
X103224949Y-76820352D02*
X103272568Y-76629876D01*
X103272568Y-76629876D02*
X103367806Y-76534638D01*
X103367806Y-76534638D02*
X103463044Y-76487019D01*
X103463044Y-76487019D02*
X103653520Y-76487019D01*
X103653520Y-76487019D02*
X103748758Y-76534638D01*
X103748758Y-76534638D02*
X103843996Y-76629876D01*
X103843996Y-76629876D02*
X103891615Y-76820352D01*
X103891615Y-76820352D02*
X103891615Y-77153685D01*
X103891615Y-77153685D02*
X103843996Y-77344161D01*
X103843996Y-77344161D02*
X103748758Y-77439400D01*
X103748758Y-77439400D02*
X103653520Y-77487019D01*
X103653520Y-77487019D02*
X103463044Y-77487019D01*
X104272568Y-77439400D02*
X104415425Y-77487019D01*
X104415425Y-77487019D02*
X104653520Y-77487019D01*
X104653520Y-77487019D02*
X104748758Y-77439400D01*
X104748758Y-77439400D02*
X104796377Y-77391780D01*
X104796377Y-77391780D02*
X104843996Y-77296542D01*
X104843996Y-77296542D02*
X104843996Y-77201304D01*
X104843996Y-77201304D02*
X104796377Y-77106066D01*
X104796377Y-77106066D02*
X104748758Y-77058447D01*
X104748758Y-77058447D02*
X104653520Y-77010828D01*
X104653520Y-77010828D02*
X104463044Y-76963209D01*
X104463044Y-76963209D02*
X104367806Y-76915590D01*
X104367806Y-76915590D02*
X104320187Y-76867971D01*
X104320187Y-76867971D02*
X104272568Y-76772733D01*
X104272568Y-76772733D02*
X104272568Y-76677495D01*
X104272568Y-76677495D02*
X104320187Y-76582257D01*
X104320187Y-76582257D02*
X104367806Y-76534638D01*
X104367806Y-76534638D02*
X104463044Y-76487019D01*
X104463044Y-76487019D02*
X104701139Y-76487019D01*
X104701139Y-76487019D02*
X104843996Y-76534638D01*
X105272568Y-77487019D02*
X105272568Y-76487019D01*
X105272568Y-76487019D02*
X105653520Y-76487019D01*
X105653520Y-76487019D02*
X105748758Y-76534638D01*
X105748758Y-76534638D02*
X105796377Y-76582257D01*
X105796377Y-76582257D02*
X105843996Y-76677495D01*
X105843996Y-76677495D02*
X105843996Y-76820352D01*
X105843996Y-76820352D02*
X105796377Y-76915590D01*
X105796377Y-76915590D02*
X105748758Y-76963209D01*
X105748758Y-76963209D02*
X105653520Y-77010828D01*
X105653520Y-77010828D02*
X105272568Y-77010828D01*
X106272568Y-77487019D02*
X106272568Y-76487019D01*
X108082091Y-77391780D02*
X108034472Y-77439400D01*
X108034472Y-77439400D02*
X107891615Y-77487019D01*
X107891615Y-77487019D02*
X107796377Y-77487019D01*
X107796377Y-77487019D02*
X107653520Y-77439400D01*
X107653520Y-77439400D02*
X107558282Y-77344161D01*
X107558282Y-77344161D02*
X107510663Y-77248923D01*
X107510663Y-77248923D02*
X107463044Y-77058447D01*
X107463044Y-77058447D02*
X107463044Y-76915590D01*
X107463044Y-76915590D02*
X107510663Y-76725114D01*
X107510663Y-76725114D02*
X107558282Y-76629876D01*
X107558282Y-76629876D02*
X107653520Y-76534638D01*
X107653520Y-76534638D02*
X107796377Y-76487019D01*
X107796377Y-76487019D02*
X107891615Y-76487019D01*
X107891615Y-76487019D02*
X108034472Y-76534638D01*
X108034472Y-76534638D02*
X108082091Y-76582257D01*
X108463044Y-77439400D02*
X108605901Y-77487019D01*
X108605901Y-77487019D02*
X108843996Y-77487019D01*
X108843996Y-77487019D02*
X108939234Y-77439400D01*
X108939234Y-77439400D02*
X108986853Y-77391780D01*
X108986853Y-77391780D02*
X109034472Y-77296542D01*
X109034472Y-77296542D02*
X109034472Y-77201304D01*
X109034472Y-77201304D02*
X108986853Y-77106066D01*
X108986853Y-77106066D02*
X108939234Y-77058447D01*
X108939234Y-77058447D02*
X108843996Y-77010828D01*
X108843996Y-77010828D02*
X108653520Y-76963209D01*
X108653520Y-76963209D02*
X108558282Y-76915590D01*
X108558282Y-76915590D02*
X108510663Y-76867971D01*
X108510663Y-76867971D02*
X108463044Y-76772733D01*
X108463044Y-76772733D02*
X108463044Y-76677495D01*
X108463044Y-76677495D02*
X108510663Y-76582257D01*
X108510663Y-76582257D02*
X108558282Y-76534638D01*
X108558282Y-76534638D02*
X108653520Y-76487019D01*
X108653520Y-76487019D02*
X108891615Y-76487019D01*
X108891615Y-76487019D02*
X109034472Y-76534638D01*
X109463044Y-77106066D02*
X110224949Y-77106066D01*
X110653520Y-77439400D02*
X110796377Y-77487019D01*
X110796377Y-77487019D02*
X111034472Y-77487019D01*
X111034472Y-77487019D02*
X111129710Y-77439400D01*
X111129710Y-77439400D02*
X111177329Y-77391780D01*
X111177329Y-77391780D02*
X111224948Y-77296542D01*
X111224948Y-77296542D02*
X111224948Y-77201304D01*
X111224948Y-77201304D02*
X111177329Y-77106066D01*
X111177329Y-77106066D02*
X111129710Y-77058447D01*
X111129710Y-77058447D02*
X111034472Y-77010828D01*
X111034472Y-77010828D02*
X110843996Y-76963209D01*
X110843996Y-76963209D02*
X110748758Y-76915590D01*
X110748758Y-76915590D02*
X110701139Y-76867971D01*
X110701139Y-76867971D02*
X110653520Y-76772733D01*
X110653520Y-76772733D02*
X110653520Y-76677495D01*
X110653520Y-76677495D02*
X110701139Y-76582257D01*
X110701139Y-76582257D02*
X110748758Y-76534638D01*
X110748758Y-76534638D02*
X110843996Y-76487019D01*
X110843996Y-76487019D02*
X111082091Y-76487019D01*
X111082091Y-76487019D02*
X111224948Y-76534638D01*
X111653520Y-76963209D02*
X111986853Y-76963209D01*
X112129710Y-77487019D02*
X111653520Y-77487019D01*
X111653520Y-77487019D02*
X111653520Y-76487019D01*
X111653520Y-76487019D02*
X112129710Y-76487019D01*
X113034472Y-77487019D02*
X112558282Y-77487019D01*
X112558282Y-77487019D02*
X112558282Y-76487019D01*
X157263219Y-132411409D02*
X157406076Y-132459028D01*
X157406076Y-132459028D02*
X157453695Y-132506647D01*
X157453695Y-132506647D02*
X157501314Y-132601885D01*
X157501314Y-132601885D02*
X157501314Y-132744742D01*
X157501314Y-132744742D02*
X157453695Y-132839980D01*
X157453695Y-132839980D02*
X157406076Y-132887600D01*
X157406076Y-132887600D02*
X157310838Y-132935219D01*
X157310838Y-132935219D02*
X156929886Y-132935219D01*
X156929886Y-132935219D02*
X156929886Y-131935219D01*
X156929886Y-131935219D02*
X157263219Y-131935219D01*
X157263219Y-131935219D02*
X157358457Y-131982838D01*
X157358457Y-131982838D02*
X157406076Y-132030457D01*
X157406076Y-132030457D02*
X157453695Y-132125695D01*
X157453695Y-132125695D02*
X157453695Y-132220933D01*
X157453695Y-132220933D02*
X157406076Y-132316171D01*
X157406076Y-132316171D02*
X157358457Y-132363790D01*
X157358457Y-132363790D02*
X157263219Y-132411409D01*
X157263219Y-132411409D02*
X156929886Y-132411409D01*
X158120362Y-131935219D02*
X158310838Y-131935219D01*
X158310838Y-131935219D02*
X158406076Y-131982838D01*
X158406076Y-131982838D02*
X158501314Y-132078076D01*
X158501314Y-132078076D02*
X158548933Y-132268552D01*
X158548933Y-132268552D02*
X158548933Y-132601885D01*
X158548933Y-132601885D02*
X158501314Y-132792361D01*
X158501314Y-132792361D02*
X158406076Y-132887600D01*
X158406076Y-132887600D02*
X158310838Y-132935219D01*
X158310838Y-132935219D02*
X158120362Y-132935219D01*
X158120362Y-132935219D02*
X158025124Y-132887600D01*
X158025124Y-132887600D02*
X157929886Y-132792361D01*
X157929886Y-132792361D02*
X157882267Y-132601885D01*
X157882267Y-132601885D02*
X157882267Y-132268552D01*
X157882267Y-132268552D02*
X157929886Y-132078076D01*
X157929886Y-132078076D02*
X158025124Y-131982838D01*
X158025124Y-131982838D02*
X158120362Y-131935219D01*
X159167981Y-131935219D02*
X159358457Y-131935219D01*
X159358457Y-131935219D02*
X159453695Y-131982838D01*
X159453695Y-131982838D02*
X159548933Y-132078076D01*
X159548933Y-132078076D02*
X159596552Y-132268552D01*
X159596552Y-132268552D02*
X159596552Y-132601885D01*
X159596552Y-132601885D02*
X159548933Y-132792361D01*
X159548933Y-132792361D02*
X159453695Y-132887600D01*
X159453695Y-132887600D02*
X159358457Y-132935219D01*
X159358457Y-132935219D02*
X159167981Y-132935219D01*
X159167981Y-132935219D02*
X159072743Y-132887600D01*
X159072743Y-132887600D02*
X158977505Y-132792361D01*
X158977505Y-132792361D02*
X158929886Y-132601885D01*
X158929886Y-132601885D02*
X158929886Y-132268552D01*
X158929886Y-132268552D02*
X158977505Y-132078076D01*
X158977505Y-132078076D02*
X159072743Y-131982838D01*
X159072743Y-131982838D02*
X159167981Y-131935219D01*
X159882267Y-131935219D02*
X160453695Y-131935219D01*
X160167981Y-132935219D02*
X160167981Y-131935219D01*
X160977505Y-131935219D02*
X161072743Y-131935219D01*
X161072743Y-131935219D02*
X161167981Y-131982838D01*
X161167981Y-131982838D02*
X161215600Y-132030457D01*
X161215600Y-132030457D02*
X161263219Y-132125695D01*
X161263219Y-132125695D02*
X161310838Y-132316171D01*
X161310838Y-132316171D02*
X161310838Y-132554266D01*
X161310838Y-132554266D02*
X161263219Y-132744742D01*
X161263219Y-132744742D02*
X161215600Y-132839980D01*
X161215600Y-132839980D02*
X161167981Y-132887600D01*
X161167981Y-132887600D02*
X161072743Y-132935219D01*
X161072743Y-132935219D02*
X160977505Y-132935219D01*
X160977505Y-132935219D02*
X160882267Y-132887600D01*
X160882267Y-132887600D02*
X160834648Y-132839980D01*
X160834648Y-132839980D02*
X160787029Y-132744742D01*
X160787029Y-132744742D02*
X160739410Y-132554266D01*
X160739410Y-132554266D02*
X160739410Y-132316171D01*
X160739410Y-132316171D02*
X160787029Y-132125695D01*
X160787029Y-132125695D02*
X160834648Y-132030457D01*
X160834648Y-132030457D02*
X160882267Y-131982838D01*
X160882267Y-131982838D02*
X160977505Y-131935219D01*
X160822558Y-62678819D02*
X160346368Y-62678819D01*
X160346368Y-62678819D02*
X160346368Y-61678819D01*
X161727320Y-62583580D02*
X161679701Y-62631200D01*
X161679701Y-62631200D02*
X161536844Y-62678819D01*
X161536844Y-62678819D02*
X161441606Y-62678819D01*
X161441606Y-62678819D02*
X161298749Y-62631200D01*
X161298749Y-62631200D02*
X161203511Y-62535961D01*
X161203511Y-62535961D02*
X161155892Y-62440723D01*
X161155892Y-62440723D02*
X161108273Y-62250247D01*
X161108273Y-62250247D02*
X161108273Y-62107390D01*
X161108273Y-62107390D02*
X161155892Y-61916914D01*
X161155892Y-61916914D02*
X161203511Y-61821676D01*
X161203511Y-61821676D02*
X161298749Y-61726438D01*
X161298749Y-61726438D02*
X161441606Y-61678819D01*
X161441606Y-61678819D02*
X161536844Y-61678819D01*
X161536844Y-61678819D02*
X161679701Y-61726438D01*
X161679701Y-61726438D02*
X161727320Y-61774057D01*
X162155892Y-62678819D02*
X162155892Y-61678819D01*
X162155892Y-61678819D02*
X162393987Y-61678819D01*
X162393987Y-61678819D02*
X162536844Y-61726438D01*
X162536844Y-61726438D02*
X162632082Y-61821676D01*
X162632082Y-61821676D02*
X162679701Y-61916914D01*
X162679701Y-61916914D02*
X162727320Y-62107390D01*
X162727320Y-62107390D02*
X162727320Y-62250247D01*
X162727320Y-62250247D02*
X162679701Y-62440723D01*
X162679701Y-62440723D02*
X162632082Y-62535961D01*
X162632082Y-62535961D02*
X162536844Y-62631200D01*
X162536844Y-62631200D02*
X162393987Y-62678819D01*
X162393987Y-62678819D02*
X162155892Y-62678819D01*
X163917797Y-62678819D02*
X163917797Y-61678819D01*
X163917797Y-61678819D02*
X164155892Y-61678819D01*
X164155892Y-61678819D02*
X164298749Y-61726438D01*
X164298749Y-61726438D02*
X164393987Y-61821676D01*
X164393987Y-61821676D02*
X164441606Y-61916914D01*
X164441606Y-61916914D02*
X164489225Y-62107390D01*
X164489225Y-62107390D02*
X164489225Y-62250247D01*
X164489225Y-62250247D02*
X164441606Y-62440723D01*
X164441606Y-62440723D02*
X164393987Y-62535961D01*
X164393987Y-62535961D02*
X164298749Y-62631200D01*
X164298749Y-62631200D02*
X164155892Y-62678819D01*
X164155892Y-62678819D02*
X163917797Y-62678819D01*
X164870178Y-62393104D02*
X165346368Y-62393104D01*
X164774940Y-62678819D02*
X165108273Y-61678819D01*
X165108273Y-61678819D02*
X165441606Y-62678819D01*
X165632083Y-61678819D02*
X166203511Y-61678819D01*
X165917797Y-62678819D02*
X165917797Y-61678819D01*
X166489226Y-62393104D02*
X166965416Y-62393104D01*
X166393988Y-62678819D02*
X166727321Y-61678819D01*
X166727321Y-61678819D02*
X167060654Y-62678819D01*
X167393988Y-62297866D02*
X168155893Y-62297866D01*
X168584464Y-62631200D02*
X168727321Y-62678819D01*
X168727321Y-62678819D02*
X168965416Y-62678819D01*
X168965416Y-62678819D02*
X169060654Y-62631200D01*
X169060654Y-62631200D02*
X169108273Y-62583580D01*
X169108273Y-62583580D02*
X169155892Y-62488342D01*
X169155892Y-62488342D02*
X169155892Y-62393104D01*
X169155892Y-62393104D02*
X169108273Y-62297866D01*
X169108273Y-62297866D02*
X169060654Y-62250247D01*
X169060654Y-62250247D02*
X168965416Y-62202628D01*
X168965416Y-62202628D02*
X168774940Y-62155009D01*
X168774940Y-62155009D02*
X168679702Y-62107390D01*
X168679702Y-62107390D02*
X168632083Y-62059771D01*
X168632083Y-62059771D02*
X168584464Y-61964533D01*
X168584464Y-61964533D02*
X168584464Y-61869295D01*
X168584464Y-61869295D02*
X168632083Y-61774057D01*
X168632083Y-61774057D02*
X168679702Y-61726438D01*
X168679702Y-61726438D02*
X168774940Y-61678819D01*
X168774940Y-61678819D02*
X169013035Y-61678819D01*
X169013035Y-61678819D02*
X169155892Y-61726438D01*
X169584464Y-62155009D02*
X169917797Y-62155009D01*
X170060654Y-62678819D02*
X169584464Y-62678819D01*
X169584464Y-62678819D02*
X169584464Y-61678819D01*
X169584464Y-61678819D02*
X170060654Y-61678819D01*
X170965416Y-62678819D02*
X170489226Y-62678819D01*
X170489226Y-62678819D02*
X170489226Y-61678819D01*
X108909787Y-115733104D02*
X109385977Y-115733104D01*
X108814549Y-116018819D02*
X109147882Y-115018819D01*
X109147882Y-115018819D02*
X109481215Y-116018819D01*
X110338358Y-116018819D02*
X109766930Y-116018819D01*
X110052644Y-116018819D02*
X110052644Y-115018819D01*
X110052644Y-115018819D02*
X109957406Y-115161676D01*
X109957406Y-115161676D02*
X109862168Y-115256914D01*
X109862168Y-115256914D02*
X109766930Y-115304533D01*
D13*
X81377310Y-97895628D02*
X81377310Y-96395628D01*
X82020168Y-96538485D02*
X82091596Y-96467057D01*
X82091596Y-96467057D02*
X82234454Y-96395628D01*
X82234454Y-96395628D02*
X82591596Y-96395628D01*
X82591596Y-96395628D02*
X82734454Y-96467057D01*
X82734454Y-96467057D02*
X82805882Y-96538485D01*
X82805882Y-96538485D02*
X82877311Y-96681342D01*
X82877311Y-96681342D02*
X82877311Y-96824200D01*
X82877311Y-96824200D02*
X82805882Y-97038485D01*
X82805882Y-97038485D02*
X81948739Y-97895628D01*
X81948739Y-97895628D02*
X82877311Y-97895628D01*
X83448739Y-97824200D02*
X83663025Y-97895628D01*
X83663025Y-97895628D02*
X84020167Y-97895628D01*
X84020167Y-97895628D02*
X84163025Y-97824200D01*
X84163025Y-97824200D02*
X84234453Y-97752771D01*
X84234453Y-97752771D02*
X84305882Y-97609914D01*
X84305882Y-97609914D02*
X84305882Y-97467057D01*
X84305882Y-97467057D02*
X84234453Y-97324200D01*
X84234453Y-97324200D02*
X84163025Y-97252771D01*
X84163025Y-97252771D02*
X84020167Y-97181342D01*
X84020167Y-97181342D02*
X83734453Y-97109914D01*
X83734453Y-97109914D02*
X83591596Y-97038485D01*
X83591596Y-97038485D02*
X83520167Y-96967057D01*
X83520167Y-96967057D02*
X83448739Y-96824200D01*
X83448739Y-96824200D02*
X83448739Y-96681342D01*
X83448739Y-96681342D02*
X83520167Y-96538485D01*
X83520167Y-96538485D02*
X83591596Y-96467057D01*
X83591596Y-96467057D02*
X83734453Y-96395628D01*
X83734453Y-96395628D02*
X84091596Y-96395628D01*
X84091596Y-96395628D02*
X84305882Y-96467057D01*
X86020167Y-97467057D02*
X86734453Y-97467057D01*
X85877310Y-97895628D02*
X86377310Y-96395628D01*
X86377310Y-96395628D02*
X86877310Y-97895628D01*
X87377309Y-96395628D02*
X87377309Y-97609914D01*
X87377309Y-97609914D02*
X87448738Y-97752771D01*
X87448738Y-97752771D02*
X87520167Y-97824200D01*
X87520167Y-97824200D02*
X87663024Y-97895628D01*
X87663024Y-97895628D02*
X87948738Y-97895628D01*
X87948738Y-97895628D02*
X88091595Y-97824200D01*
X88091595Y-97824200D02*
X88163024Y-97752771D01*
X88163024Y-97752771D02*
X88234452Y-97609914D01*
X88234452Y-97609914D02*
X88234452Y-96395628D01*
X88948738Y-97895628D02*
X88948738Y-96395628D01*
X88948738Y-96395628D02*
X89305881Y-96395628D01*
X89305881Y-96395628D02*
X89520167Y-96467057D01*
X89520167Y-96467057D02*
X89663024Y-96609914D01*
X89663024Y-96609914D02*
X89734453Y-96752771D01*
X89734453Y-96752771D02*
X89805881Y-97038485D01*
X89805881Y-97038485D02*
X89805881Y-97252771D01*
X89805881Y-97252771D02*
X89734453Y-97538485D01*
X89734453Y-97538485D02*
X89663024Y-97681342D01*
X89663024Y-97681342D02*
X89520167Y-97824200D01*
X89520167Y-97824200D02*
X89305881Y-97895628D01*
X89305881Y-97895628D02*
X88948738Y-97895628D01*
X90448738Y-97895628D02*
X90448738Y-96395628D01*
X91448739Y-96395628D02*
X91734453Y-96395628D01*
X91734453Y-96395628D02*
X91877310Y-96467057D01*
X91877310Y-96467057D02*
X92020167Y-96609914D01*
X92020167Y-96609914D02*
X92091596Y-96895628D01*
X92091596Y-96895628D02*
X92091596Y-97395628D01*
X92091596Y-97395628D02*
X92020167Y-97681342D01*
X92020167Y-97681342D02*
X91877310Y-97824200D01*
X91877310Y-97824200D02*
X91734453Y-97895628D01*
X91734453Y-97895628D02*
X91448739Y-97895628D01*
X91448739Y-97895628D02*
X91305882Y-97824200D01*
X91305882Y-97824200D02*
X91163024Y-97681342D01*
X91163024Y-97681342D02*
X91091596Y-97395628D01*
X91091596Y-97395628D02*
X91091596Y-96895628D01*
X91091596Y-96895628D02*
X91163024Y-96609914D01*
X91163024Y-96609914D02*
X91305882Y-96467057D01*
X91305882Y-96467057D02*
X91448739Y-96395628D01*
X206582228Y-111272008D02*
X205082228Y-111272008D01*
X205225085Y-110629150D02*
X205153657Y-110557722D01*
X205153657Y-110557722D02*
X205082228Y-110414865D01*
X205082228Y-110414865D02*
X205082228Y-110057722D01*
X205082228Y-110057722D02*
X205153657Y-109914865D01*
X205153657Y-109914865D02*
X205225085Y-109843436D01*
X205225085Y-109843436D02*
X205367942Y-109772007D01*
X205367942Y-109772007D02*
X205510800Y-109772007D01*
X205510800Y-109772007D02*
X205725085Y-109843436D01*
X205725085Y-109843436D02*
X206582228Y-110700579D01*
X206582228Y-110700579D02*
X206582228Y-109772007D01*
X206439371Y-108272008D02*
X206510800Y-108343436D01*
X206510800Y-108343436D02*
X206582228Y-108557722D01*
X206582228Y-108557722D02*
X206582228Y-108700579D01*
X206582228Y-108700579D02*
X206510800Y-108914865D01*
X206510800Y-108914865D02*
X206367942Y-109057722D01*
X206367942Y-109057722D02*
X206225085Y-109129151D01*
X206225085Y-109129151D02*
X205939371Y-109200579D01*
X205939371Y-109200579D02*
X205725085Y-109200579D01*
X205725085Y-109200579D02*
X205439371Y-109129151D01*
X205439371Y-109129151D02*
X205296514Y-109057722D01*
X205296514Y-109057722D02*
X205153657Y-108914865D01*
X205153657Y-108914865D02*
X205082228Y-108700579D01*
X205082228Y-108700579D02*
X205082228Y-108557722D01*
X205082228Y-108557722D02*
X205153657Y-108343436D01*
X205153657Y-108343436D02*
X205225085Y-108272008D01*
D12*
X146806309Y-132411409D02*
X146949166Y-132459028D01*
X146949166Y-132459028D02*
X146996785Y-132506647D01*
X146996785Y-132506647D02*
X147044404Y-132601885D01*
X147044404Y-132601885D02*
X147044404Y-132744742D01*
X147044404Y-132744742D02*
X146996785Y-132839980D01*
X146996785Y-132839980D02*
X146949166Y-132887600D01*
X146949166Y-132887600D02*
X146853928Y-132935219D01*
X146853928Y-132935219D02*
X146472976Y-132935219D01*
X146472976Y-132935219D02*
X146472976Y-131935219D01*
X146472976Y-131935219D02*
X146806309Y-131935219D01*
X146806309Y-131935219D02*
X146901547Y-131982838D01*
X146901547Y-131982838D02*
X146949166Y-132030457D01*
X146949166Y-132030457D02*
X146996785Y-132125695D01*
X146996785Y-132125695D02*
X146996785Y-132220933D01*
X146996785Y-132220933D02*
X146949166Y-132316171D01*
X146949166Y-132316171D02*
X146901547Y-132363790D01*
X146901547Y-132363790D02*
X146806309Y-132411409D01*
X146806309Y-132411409D02*
X146472976Y-132411409D01*
X147330119Y-131935219D02*
X147901547Y-131935219D01*
X147615833Y-132935219D02*
X147615833Y-131935219D01*
X148234881Y-132935219D02*
X148234881Y-131935219D01*
X148234881Y-131935219D02*
X148806309Y-132935219D01*
X148806309Y-132935219D02*
X148806309Y-131935219D01*
X149472976Y-131935219D02*
X149568214Y-131935219D01*
X149568214Y-131935219D02*
X149663452Y-131982838D01*
X149663452Y-131982838D02*
X149711071Y-132030457D01*
X149711071Y-132030457D02*
X149758690Y-132125695D01*
X149758690Y-132125695D02*
X149806309Y-132316171D01*
X149806309Y-132316171D02*
X149806309Y-132554266D01*
X149806309Y-132554266D02*
X149758690Y-132744742D01*
X149758690Y-132744742D02*
X149711071Y-132839980D01*
X149711071Y-132839980D02*
X149663452Y-132887600D01*
X149663452Y-132887600D02*
X149568214Y-132935219D01*
X149568214Y-132935219D02*
X149472976Y-132935219D01*
X149472976Y-132935219D02*
X149377738Y-132887600D01*
X149377738Y-132887600D02*
X149330119Y-132839980D01*
X149330119Y-132839980D02*
X149282500Y-132744742D01*
X149282500Y-132744742D02*
X149234881Y-132554266D01*
X149234881Y-132554266D02*
X149234881Y-132316171D01*
X149234881Y-132316171D02*
X149282500Y-132125695D01*
X149282500Y-132125695D02*
X149330119Y-132030457D01*
X149330119Y-132030457D02*
X149377738Y-131982838D01*
X149377738Y-131982838D02*
X149472976Y-131935219D01*
D13*
X199709453Y-129874228D02*
X199209453Y-129159942D01*
X198852310Y-129874228D02*
X198852310Y-128374228D01*
X198852310Y-128374228D02*
X199423739Y-128374228D01*
X199423739Y-128374228D02*
X199566596Y-128445657D01*
X199566596Y-128445657D02*
X199638025Y-128517085D01*
X199638025Y-128517085D02*
X199709453Y-128659942D01*
X199709453Y-128659942D02*
X199709453Y-128874228D01*
X199709453Y-128874228D02*
X199638025Y-129017085D01*
X199638025Y-129017085D02*
X199566596Y-129088514D01*
X199566596Y-129088514D02*
X199423739Y-129159942D01*
X199423739Y-129159942D02*
X198852310Y-129159942D01*
X200138025Y-128374228D02*
X200995168Y-128374228D01*
X200566596Y-129874228D02*
X200566596Y-128374228D01*
X202352310Y-129731371D02*
X202280882Y-129802800D01*
X202280882Y-129802800D02*
X202066596Y-129874228D01*
X202066596Y-129874228D02*
X201923739Y-129874228D01*
X201923739Y-129874228D02*
X201709453Y-129802800D01*
X201709453Y-129802800D02*
X201566596Y-129659942D01*
X201566596Y-129659942D02*
X201495167Y-129517085D01*
X201495167Y-129517085D02*
X201423739Y-129231371D01*
X201423739Y-129231371D02*
X201423739Y-129017085D01*
X201423739Y-129017085D02*
X201495167Y-128731371D01*
X201495167Y-128731371D02*
X201566596Y-128588514D01*
X201566596Y-128588514D02*
X201709453Y-128445657D01*
X201709453Y-128445657D02*
X201923739Y-128374228D01*
X201923739Y-128374228D02*
X202066596Y-128374228D01*
X202066596Y-128374228D02*
X202280882Y-128445657D01*
X202280882Y-128445657D02*
X202352310Y-128517085D01*
X202995167Y-129302800D02*
X204138025Y-129302800D01*
X205352310Y-129088514D02*
X205566596Y-129159942D01*
X205566596Y-129159942D02*
X205638025Y-129231371D01*
X205638025Y-129231371D02*
X205709453Y-129374228D01*
X205709453Y-129374228D02*
X205709453Y-129588514D01*
X205709453Y-129588514D02*
X205638025Y-129731371D01*
X205638025Y-129731371D02*
X205566596Y-129802800D01*
X205566596Y-129802800D02*
X205423739Y-129874228D01*
X205423739Y-129874228D02*
X204852310Y-129874228D01*
X204852310Y-129874228D02*
X204852310Y-128374228D01*
X204852310Y-128374228D02*
X205352310Y-128374228D01*
X205352310Y-128374228D02*
X205495168Y-128445657D01*
X205495168Y-128445657D02*
X205566596Y-128517085D01*
X205566596Y-128517085D02*
X205638025Y-128659942D01*
X205638025Y-128659942D02*
X205638025Y-128802800D01*
X205638025Y-128802800D02*
X205566596Y-128945657D01*
X205566596Y-128945657D02*
X205495168Y-129017085D01*
X205495168Y-129017085D02*
X205352310Y-129088514D01*
X205352310Y-129088514D02*
X204852310Y-129088514D01*
X206280882Y-129445657D02*
X206995168Y-129445657D01*
X206138025Y-129874228D02*
X206638025Y-128374228D01*
X206638025Y-128374228D02*
X207138025Y-129874228D01*
X207423739Y-128374228D02*
X208280882Y-128374228D01*
X207852310Y-129874228D02*
X207852310Y-128374228D01*
D12*
X116909663Y-73600819D02*
X116909663Y-72600819D01*
X116909663Y-72600819D02*
X117147758Y-72600819D01*
X117147758Y-72600819D02*
X117290615Y-72648438D01*
X117290615Y-72648438D02*
X117385853Y-72743676D01*
X117385853Y-72743676D02*
X117433472Y-72838914D01*
X117433472Y-72838914D02*
X117481091Y-73029390D01*
X117481091Y-73029390D02*
X117481091Y-73172247D01*
X117481091Y-73172247D02*
X117433472Y-73362723D01*
X117433472Y-73362723D02*
X117385853Y-73457961D01*
X117385853Y-73457961D02*
X117290615Y-73553200D01*
X117290615Y-73553200D02*
X117147758Y-73600819D01*
X117147758Y-73600819D02*
X116909663Y-73600819D01*
X117909663Y-72600819D02*
X117909663Y-73410342D01*
X117909663Y-73410342D02*
X117957282Y-73505580D01*
X117957282Y-73505580D02*
X118004901Y-73553200D01*
X118004901Y-73553200D02*
X118100139Y-73600819D01*
X118100139Y-73600819D02*
X118290615Y-73600819D01*
X118290615Y-73600819D02*
X118385853Y-73553200D01*
X118385853Y-73553200D02*
X118433472Y-73505580D01*
X118433472Y-73505580D02*
X118481091Y-73410342D01*
X118481091Y-73410342D02*
X118481091Y-72600819D01*
X118909663Y-73315104D02*
X119385853Y-73315104D01*
X118814425Y-73600819D02*
X119147758Y-72600819D01*
X119147758Y-72600819D02*
X119481091Y-73600819D01*
X120290615Y-73600819D02*
X119814425Y-73600819D01*
X119814425Y-73600819D02*
X119814425Y-72600819D01*
X120623949Y-73219866D02*
X121385854Y-73219866D01*
X122195377Y-73077009D02*
X121862044Y-73077009D01*
X121862044Y-73600819D02*
X121862044Y-72600819D01*
X121862044Y-72600819D02*
X122338234Y-72600819D01*
X123195377Y-73600819D02*
X122719187Y-73600819D01*
X122719187Y-73600819D02*
X122719187Y-72600819D01*
X123481092Y-73315104D02*
X123957282Y-73315104D01*
X123385854Y-73600819D02*
X123719187Y-72600819D01*
X123719187Y-72600819D02*
X124052520Y-73600819D01*
X124338235Y-73553200D02*
X124481092Y-73600819D01*
X124481092Y-73600819D02*
X124719187Y-73600819D01*
X124719187Y-73600819D02*
X124814425Y-73553200D01*
X124814425Y-73553200D02*
X124862044Y-73505580D01*
X124862044Y-73505580D02*
X124909663Y-73410342D01*
X124909663Y-73410342D02*
X124909663Y-73315104D01*
X124909663Y-73315104D02*
X124862044Y-73219866D01*
X124862044Y-73219866D02*
X124814425Y-73172247D01*
X124814425Y-73172247D02*
X124719187Y-73124628D01*
X124719187Y-73124628D02*
X124528711Y-73077009D01*
X124528711Y-73077009D02*
X124433473Y-73029390D01*
X124433473Y-73029390D02*
X124385854Y-72981771D01*
X124385854Y-72981771D02*
X124338235Y-72886533D01*
X124338235Y-72886533D02*
X124338235Y-72791295D01*
X124338235Y-72791295D02*
X124385854Y-72696057D01*
X124385854Y-72696057D02*
X124433473Y-72648438D01*
X124433473Y-72648438D02*
X124528711Y-72600819D01*
X124528711Y-72600819D02*
X124766806Y-72600819D01*
X124766806Y-72600819D02*
X124909663Y-72648438D01*
X125338235Y-73600819D02*
X125338235Y-72600819D01*
X125338235Y-73077009D02*
X125909663Y-73077009D01*
X125909663Y-73600819D02*
X125909663Y-72600819D01*
X123177377Y-48293019D02*
X122701187Y-48293019D01*
X122701187Y-48293019D02*
X122653568Y-48769209D01*
X122653568Y-48769209D02*
X122701187Y-48721590D01*
X122701187Y-48721590D02*
X122796425Y-48673971D01*
X122796425Y-48673971D02*
X123034520Y-48673971D01*
X123034520Y-48673971D02*
X123129758Y-48721590D01*
X123129758Y-48721590D02*
X123177377Y-48769209D01*
X123177377Y-48769209D02*
X123224996Y-48864447D01*
X123224996Y-48864447D02*
X123224996Y-49102542D01*
X123224996Y-49102542D02*
X123177377Y-49197780D01*
X123177377Y-49197780D02*
X123129758Y-49245400D01*
X123129758Y-49245400D02*
X123034520Y-49293019D01*
X123034520Y-49293019D02*
X122796425Y-49293019D01*
X122796425Y-49293019D02*
X122701187Y-49245400D01*
X122701187Y-49245400D02*
X122653568Y-49197780D01*
X123844044Y-48293019D02*
X123939282Y-48293019D01*
X123939282Y-48293019D02*
X124034520Y-48340638D01*
X124034520Y-48340638D02*
X124082139Y-48388257D01*
X124082139Y-48388257D02*
X124129758Y-48483495D01*
X124129758Y-48483495D02*
X124177377Y-48673971D01*
X124177377Y-48673971D02*
X124177377Y-48912066D01*
X124177377Y-48912066D02*
X124129758Y-49102542D01*
X124129758Y-49102542D02*
X124082139Y-49197780D01*
X124082139Y-49197780D02*
X124034520Y-49245400D01*
X124034520Y-49245400D02*
X123939282Y-49293019D01*
X123939282Y-49293019D02*
X123844044Y-49293019D01*
X123844044Y-49293019D02*
X123748806Y-49245400D01*
X123748806Y-49245400D02*
X123701187Y-49197780D01*
X123701187Y-49197780D02*
X123653568Y-49102542D01*
X123653568Y-49102542D02*
X123605949Y-48912066D01*
X123605949Y-48912066D02*
X123605949Y-48673971D01*
X123605949Y-48673971D02*
X123653568Y-48483495D01*
X123653568Y-48483495D02*
X123701187Y-48388257D01*
X123701187Y-48388257D02*
X123748806Y-48340638D01*
X123748806Y-48340638D02*
X123844044Y-48293019D01*
D13*
X175460853Y-59084428D02*
X174746567Y-59084428D01*
X174746567Y-59084428D02*
X174746567Y-57584428D01*
X176817996Y-58941571D02*
X176746568Y-59013000D01*
X176746568Y-59013000D02*
X176532282Y-59084428D01*
X176532282Y-59084428D02*
X176389425Y-59084428D01*
X176389425Y-59084428D02*
X176175139Y-59013000D01*
X176175139Y-59013000D02*
X176032282Y-58870142D01*
X176032282Y-58870142D02*
X175960853Y-58727285D01*
X175960853Y-58727285D02*
X175889425Y-58441571D01*
X175889425Y-58441571D02*
X175889425Y-58227285D01*
X175889425Y-58227285D02*
X175960853Y-57941571D01*
X175960853Y-57941571D02*
X176032282Y-57798714D01*
X176032282Y-57798714D02*
X176175139Y-57655857D01*
X176175139Y-57655857D02*
X176389425Y-57584428D01*
X176389425Y-57584428D02*
X176532282Y-57584428D01*
X176532282Y-57584428D02*
X176746568Y-57655857D01*
X176746568Y-57655857D02*
X176817996Y-57727285D01*
X177460853Y-59084428D02*
X177460853Y-57584428D01*
X177460853Y-57584428D02*
X177817996Y-57584428D01*
X177817996Y-57584428D02*
X178032282Y-57655857D01*
X178032282Y-57655857D02*
X178175139Y-57798714D01*
X178175139Y-57798714D02*
X178246568Y-57941571D01*
X178246568Y-57941571D02*
X178317996Y-58227285D01*
X178317996Y-58227285D02*
X178317996Y-58441571D01*
X178317996Y-58441571D02*
X178246568Y-58727285D01*
X178246568Y-58727285D02*
X178175139Y-58870142D01*
X178175139Y-58870142D02*
X178032282Y-59013000D01*
X178032282Y-59013000D02*
X177817996Y-59084428D01*
X177817996Y-59084428D02*
X177460853Y-59084428D01*
X179889425Y-57584428D02*
X180746568Y-57584428D01*
X180317996Y-59084428D02*
X180317996Y-57584428D01*
X181532282Y-57584428D02*
X181817996Y-57584428D01*
X181817996Y-57584428D02*
X181960853Y-57655857D01*
X181960853Y-57655857D02*
X182103710Y-57798714D01*
X182103710Y-57798714D02*
X182175139Y-58084428D01*
X182175139Y-58084428D02*
X182175139Y-58584428D01*
X182175139Y-58584428D02*
X182103710Y-58870142D01*
X182103710Y-58870142D02*
X181960853Y-59013000D01*
X181960853Y-59013000D02*
X181817996Y-59084428D01*
X181817996Y-59084428D02*
X181532282Y-59084428D01*
X181532282Y-59084428D02*
X181389425Y-59013000D01*
X181389425Y-59013000D02*
X181246567Y-58870142D01*
X181246567Y-58870142D02*
X181175139Y-58584428D01*
X181175139Y-58584428D02*
X181175139Y-58084428D01*
X181175139Y-58084428D02*
X181246567Y-57798714D01*
X181246567Y-57798714D02*
X181389425Y-57655857D01*
X181389425Y-57655857D02*
X181532282Y-57584428D01*
X182817996Y-57584428D02*
X182817996Y-58798714D01*
X182817996Y-58798714D02*
X182889425Y-58941571D01*
X182889425Y-58941571D02*
X182960854Y-59013000D01*
X182960854Y-59013000D02*
X183103711Y-59084428D01*
X183103711Y-59084428D02*
X183389425Y-59084428D01*
X183389425Y-59084428D02*
X183532282Y-59013000D01*
X183532282Y-59013000D02*
X183603711Y-58941571D01*
X183603711Y-58941571D02*
X183675139Y-58798714D01*
X183675139Y-58798714D02*
X183675139Y-57584428D01*
X185246568Y-58941571D02*
X185175140Y-59013000D01*
X185175140Y-59013000D02*
X184960854Y-59084428D01*
X184960854Y-59084428D02*
X184817997Y-59084428D01*
X184817997Y-59084428D02*
X184603711Y-59013000D01*
X184603711Y-59013000D02*
X184460854Y-58870142D01*
X184460854Y-58870142D02*
X184389425Y-58727285D01*
X184389425Y-58727285D02*
X184317997Y-58441571D01*
X184317997Y-58441571D02*
X184317997Y-58227285D01*
X184317997Y-58227285D02*
X184389425Y-57941571D01*
X184389425Y-57941571D02*
X184460854Y-57798714D01*
X184460854Y-57798714D02*
X184603711Y-57655857D01*
X184603711Y-57655857D02*
X184817997Y-57584428D01*
X184817997Y-57584428D02*
X184960854Y-57584428D01*
X184960854Y-57584428D02*
X185175140Y-57655857D01*
X185175140Y-57655857D02*
X185246568Y-57727285D01*
X185889425Y-59084428D02*
X185889425Y-57584428D01*
X185889425Y-58298714D02*
X186746568Y-58298714D01*
X186746568Y-59084428D02*
X186746568Y-57584428D01*
D12*
X119896656Y-49293019D02*
X119325228Y-49293019D01*
X119610942Y-49293019D02*
X119610942Y-48293019D01*
X119610942Y-48293019D02*
X119515704Y-48435876D01*
X119515704Y-48435876D02*
X119420466Y-48531114D01*
X119420466Y-48531114D02*
X119325228Y-48578733D01*
X120515704Y-48293019D02*
X120610942Y-48293019D01*
X120610942Y-48293019D02*
X120706180Y-48340638D01*
X120706180Y-48340638D02*
X120753799Y-48388257D01*
X120753799Y-48388257D02*
X120801418Y-48483495D01*
X120801418Y-48483495D02*
X120849037Y-48673971D01*
X120849037Y-48673971D02*
X120849037Y-48912066D01*
X120849037Y-48912066D02*
X120801418Y-49102542D01*
X120801418Y-49102542D02*
X120753799Y-49197780D01*
X120753799Y-49197780D02*
X120706180Y-49245400D01*
X120706180Y-49245400D02*
X120610942Y-49293019D01*
X120610942Y-49293019D02*
X120515704Y-49293019D01*
X120515704Y-49293019D02*
X120420466Y-49245400D01*
X120420466Y-49245400D02*
X120372847Y-49197780D01*
X120372847Y-49197780D02*
X120325228Y-49102542D01*
X120325228Y-49102542D02*
X120277609Y-48912066D01*
X120277609Y-48912066D02*
X120277609Y-48673971D01*
X120277609Y-48673971D02*
X120325228Y-48483495D01*
X120325228Y-48483495D02*
X120372847Y-48388257D01*
X120372847Y-48388257D02*
X120420466Y-48340638D01*
X120420466Y-48340638D02*
X120515704Y-48293019D01*
X121468085Y-48293019D02*
X121563323Y-48293019D01*
X121563323Y-48293019D02*
X121658561Y-48340638D01*
X121658561Y-48340638D02*
X121706180Y-48388257D01*
X121706180Y-48388257D02*
X121753799Y-48483495D01*
X121753799Y-48483495D02*
X121801418Y-48673971D01*
X121801418Y-48673971D02*
X121801418Y-48912066D01*
X121801418Y-48912066D02*
X121753799Y-49102542D01*
X121753799Y-49102542D02*
X121706180Y-49197780D01*
X121706180Y-49197780D02*
X121658561Y-49245400D01*
X121658561Y-49245400D02*
X121563323Y-49293019D01*
X121563323Y-49293019D02*
X121468085Y-49293019D01*
X121468085Y-49293019D02*
X121372847Y-49245400D01*
X121372847Y-49245400D02*
X121325228Y-49197780D01*
X121325228Y-49197780D02*
X121277609Y-49102542D01*
X121277609Y-49102542D02*
X121229990Y-48912066D01*
X121229990Y-48912066D02*
X121229990Y-48673971D01*
X121229990Y-48673971D02*
X121277609Y-48483495D01*
X121277609Y-48483495D02*
X121325228Y-48388257D01*
X121325228Y-48388257D02*
X121372847Y-48340638D01*
X121372847Y-48340638D02*
X121468085Y-48293019D01*
D13*
X104080496Y-59541628D02*
X103366210Y-59541628D01*
X103366210Y-59541628D02*
X103366210Y-58041628D01*
X105437639Y-59398771D02*
X105366211Y-59470200D01*
X105366211Y-59470200D02*
X105151925Y-59541628D01*
X105151925Y-59541628D02*
X105009068Y-59541628D01*
X105009068Y-59541628D02*
X104794782Y-59470200D01*
X104794782Y-59470200D02*
X104651925Y-59327342D01*
X104651925Y-59327342D02*
X104580496Y-59184485D01*
X104580496Y-59184485D02*
X104509068Y-58898771D01*
X104509068Y-58898771D02*
X104509068Y-58684485D01*
X104509068Y-58684485D02*
X104580496Y-58398771D01*
X104580496Y-58398771D02*
X104651925Y-58255914D01*
X104651925Y-58255914D02*
X104794782Y-58113057D01*
X104794782Y-58113057D02*
X105009068Y-58041628D01*
X105009068Y-58041628D02*
X105151925Y-58041628D01*
X105151925Y-58041628D02*
X105366211Y-58113057D01*
X105366211Y-58113057D02*
X105437639Y-58184485D01*
X106080496Y-59541628D02*
X106080496Y-58041628D01*
X106080496Y-58041628D02*
X106437639Y-58041628D01*
X106437639Y-58041628D02*
X106651925Y-58113057D01*
X106651925Y-58113057D02*
X106794782Y-58255914D01*
X106794782Y-58255914D02*
X106866211Y-58398771D01*
X106866211Y-58398771D02*
X106937639Y-58684485D01*
X106937639Y-58684485D02*
X106937639Y-58898771D01*
X106937639Y-58898771D02*
X106866211Y-59184485D01*
X106866211Y-59184485D02*
X106794782Y-59327342D01*
X106794782Y-59327342D02*
X106651925Y-59470200D01*
X106651925Y-59470200D02*
X106437639Y-59541628D01*
X106437639Y-59541628D02*
X106080496Y-59541628D01*
X108651925Y-59470200D02*
X108866211Y-59541628D01*
X108866211Y-59541628D02*
X109223353Y-59541628D01*
X109223353Y-59541628D02*
X109366211Y-59470200D01*
X109366211Y-59470200D02*
X109437639Y-59398771D01*
X109437639Y-59398771D02*
X109509068Y-59255914D01*
X109509068Y-59255914D02*
X109509068Y-59113057D01*
X109509068Y-59113057D02*
X109437639Y-58970200D01*
X109437639Y-58970200D02*
X109366211Y-58898771D01*
X109366211Y-58898771D02*
X109223353Y-58827342D01*
X109223353Y-58827342D02*
X108937639Y-58755914D01*
X108937639Y-58755914D02*
X108794782Y-58684485D01*
X108794782Y-58684485D02*
X108723353Y-58613057D01*
X108723353Y-58613057D02*
X108651925Y-58470200D01*
X108651925Y-58470200D02*
X108651925Y-58327342D01*
X108651925Y-58327342D02*
X108723353Y-58184485D01*
X108723353Y-58184485D02*
X108794782Y-58113057D01*
X108794782Y-58113057D02*
X108937639Y-58041628D01*
X108937639Y-58041628D02*
X109294782Y-58041628D01*
X109294782Y-58041628D02*
X109509068Y-58113057D01*
X110151924Y-59541628D02*
X110151924Y-58041628D01*
X110151924Y-58041628D02*
X110723353Y-58041628D01*
X110723353Y-58041628D02*
X110866210Y-58113057D01*
X110866210Y-58113057D02*
X110937639Y-58184485D01*
X110937639Y-58184485D02*
X111009067Y-58327342D01*
X111009067Y-58327342D02*
X111009067Y-58541628D01*
X111009067Y-58541628D02*
X110937639Y-58684485D01*
X110937639Y-58684485D02*
X110866210Y-58755914D01*
X110866210Y-58755914D02*
X110723353Y-58827342D01*
X110723353Y-58827342D02*
X110151924Y-58827342D01*
X111651924Y-59541628D02*
X111651924Y-58041628D01*
D12*
X103177330Y-80170019D02*
X103796377Y-80170019D01*
X103796377Y-80170019D02*
X103463044Y-80550971D01*
X103463044Y-80550971D02*
X103605901Y-80550971D01*
X103605901Y-80550971D02*
X103701139Y-80598590D01*
X103701139Y-80598590D02*
X103748758Y-80646209D01*
X103748758Y-80646209D02*
X103796377Y-80741447D01*
X103796377Y-80741447D02*
X103796377Y-80979542D01*
X103796377Y-80979542D02*
X103748758Y-81074780D01*
X103748758Y-81074780D02*
X103701139Y-81122400D01*
X103701139Y-81122400D02*
X103605901Y-81170019D01*
X103605901Y-81170019D02*
X103320187Y-81170019D01*
X103320187Y-81170019D02*
X103224949Y-81122400D01*
X103224949Y-81122400D02*
X103177330Y-81074780D01*
X104224949Y-80503352D02*
X104986854Y-80789066D01*
X104986854Y-80789066D02*
X104224949Y-81074780D01*
X105415425Y-81122400D02*
X105558282Y-81170019D01*
X105558282Y-81170019D02*
X105796377Y-81170019D01*
X105796377Y-81170019D02*
X105891615Y-81122400D01*
X105891615Y-81122400D02*
X105939234Y-81074780D01*
X105939234Y-81074780D02*
X105986853Y-80979542D01*
X105986853Y-80979542D02*
X105986853Y-80884304D01*
X105986853Y-80884304D02*
X105939234Y-80789066D01*
X105939234Y-80789066D02*
X105891615Y-80741447D01*
X105891615Y-80741447D02*
X105796377Y-80693828D01*
X105796377Y-80693828D02*
X105605901Y-80646209D01*
X105605901Y-80646209D02*
X105510663Y-80598590D01*
X105510663Y-80598590D02*
X105463044Y-80550971D01*
X105463044Y-80550971D02*
X105415425Y-80455733D01*
X105415425Y-80455733D02*
X105415425Y-80360495D01*
X105415425Y-80360495D02*
X105463044Y-80265257D01*
X105463044Y-80265257D02*
X105510663Y-80217638D01*
X105510663Y-80217638D02*
X105605901Y-80170019D01*
X105605901Y-80170019D02*
X105843996Y-80170019D01*
X105843996Y-80170019D02*
X105986853Y-80217638D01*
X106415425Y-81170019D02*
X106415425Y-80170019D01*
X106891615Y-81170019D02*
X106891615Y-80170019D01*
X106891615Y-80170019D02*
X107463043Y-81170019D01*
X107463043Y-81170019D02*
X107463043Y-80170019D01*
X108463043Y-80217638D02*
X108367805Y-80170019D01*
X108367805Y-80170019D02*
X108224948Y-80170019D01*
X108224948Y-80170019D02*
X108082091Y-80217638D01*
X108082091Y-80217638D02*
X107986853Y-80312876D01*
X107986853Y-80312876D02*
X107939234Y-80408114D01*
X107939234Y-80408114D02*
X107891615Y-80598590D01*
X107891615Y-80598590D02*
X107891615Y-80741447D01*
X107891615Y-80741447D02*
X107939234Y-80931923D01*
X107939234Y-80931923D02*
X107986853Y-81027161D01*
X107986853Y-81027161D02*
X108082091Y-81122400D01*
X108082091Y-81122400D02*
X108224948Y-81170019D01*
X108224948Y-81170019D02*
X108320186Y-81170019D01*
X108320186Y-81170019D02*
X108463043Y-81122400D01*
X108463043Y-81122400D02*
X108510662Y-81074780D01*
X108510662Y-81074780D02*
X108510662Y-80741447D01*
X108510662Y-80741447D02*
X108320186Y-80741447D01*
X109415424Y-81170019D02*
X108939234Y-81170019D01*
X108939234Y-81170019D02*
X108939234Y-80170019D01*
X109748758Y-80646209D02*
X110082091Y-80646209D01*
X110224948Y-81170019D02*
X109748758Y-81170019D01*
X109748758Y-81170019D02*
X109748758Y-80170019D01*
X109748758Y-80170019D02*
X110224948Y-80170019D01*
X111986853Y-81074780D02*
X111939234Y-81122400D01*
X111939234Y-81122400D02*
X111796377Y-81170019D01*
X111796377Y-81170019D02*
X111701139Y-81170019D01*
X111701139Y-81170019D02*
X111558282Y-81122400D01*
X111558282Y-81122400D02*
X111463044Y-81027161D01*
X111463044Y-81027161D02*
X111415425Y-80931923D01*
X111415425Y-80931923D02*
X111367806Y-80741447D01*
X111367806Y-80741447D02*
X111367806Y-80598590D01*
X111367806Y-80598590D02*
X111415425Y-80408114D01*
X111415425Y-80408114D02*
X111463044Y-80312876D01*
X111463044Y-80312876D02*
X111558282Y-80217638D01*
X111558282Y-80217638D02*
X111701139Y-80170019D01*
X111701139Y-80170019D02*
X111796377Y-80170019D01*
X111796377Y-80170019D02*
X111939234Y-80217638D01*
X111939234Y-80217638D02*
X111986853Y-80265257D01*
X112367806Y-81122400D02*
X112510663Y-81170019D01*
X112510663Y-81170019D02*
X112748758Y-81170019D01*
X112748758Y-81170019D02*
X112843996Y-81122400D01*
X112843996Y-81122400D02*
X112891615Y-81074780D01*
X112891615Y-81074780D02*
X112939234Y-80979542D01*
X112939234Y-80979542D02*
X112939234Y-80884304D01*
X112939234Y-80884304D02*
X112891615Y-80789066D01*
X112891615Y-80789066D02*
X112843996Y-80741447D01*
X112843996Y-80741447D02*
X112748758Y-80693828D01*
X112748758Y-80693828D02*
X112558282Y-80646209D01*
X112558282Y-80646209D02*
X112463044Y-80598590D01*
X112463044Y-80598590D02*
X112415425Y-80550971D01*
X112415425Y-80550971D02*
X112367806Y-80455733D01*
X112367806Y-80455733D02*
X112367806Y-80360495D01*
X112367806Y-80360495D02*
X112415425Y-80265257D01*
X112415425Y-80265257D02*
X112463044Y-80217638D01*
X112463044Y-80217638D02*
X112558282Y-80170019D01*
X112558282Y-80170019D02*
X112796377Y-80170019D01*
X112796377Y-80170019D02*
X112939234Y-80217638D01*
X114415425Y-81550971D02*
X114367806Y-81503352D01*
X114367806Y-81503352D02*
X114272568Y-81360495D01*
X114272568Y-81360495D02*
X114224949Y-81265257D01*
X114224949Y-81265257D02*
X114177330Y-81122400D01*
X114177330Y-81122400D02*
X114129711Y-80884304D01*
X114129711Y-80884304D02*
X114129711Y-80693828D01*
X114129711Y-80693828D02*
X114177330Y-80455733D01*
X114177330Y-80455733D02*
X114224949Y-80312876D01*
X114224949Y-80312876D02*
X114272568Y-80217638D01*
X114272568Y-80217638D02*
X114367806Y-80074780D01*
X114367806Y-80074780D02*
X114415425Y-80027161D01*
X114796378Y-81170019D02*
X114796378Y-80170019D01*
X114796378Y-80170019D02*
X115177330Y-80170019D01*
X115177330Y-80170019D02*
X115272568Y-80217638D01*
X115272568Y-80217638D02*
X115320187Y-80265257D01*
X115320187Y-80265257D02*
X115367806Y-80360495D01*
X115367806Y-80360495D02*
X115367806Y-80503352D01*
X115367806Y-80503352D02*
X115320187Y-80598590D01*
X115320187Y-80598590D02*
X115272568Y-80646209D01*
X115272568Y-80646209D02*
X115177330Y-80693828D01*
X115177330Y-80693828D02*
X114796378Y-80693828D01*
X116129711Y-80646209D02*
X116272568Y-80693828D01*
X116272568Y-80693828D02*
X116320187Y-80741447D01*
X116320187Y-80741447D02*
X116367806Y-80836685D01*
X116367806Y-80836685D02*
X116367806Y-80979542D01*
X116367806Y-80979542D02*
X116320187Y-81074780D01*
X116320187Y-81074780D02*
X116272568Y-81122400D01*
X116272568Y-81122400D02*
X116177330Y-81170019D01*
X116177330Y-81170019D02*
X115796378Y-81170019D01*
X115796378Y-81170019D02*
X115796378Y-80170019D01*
X115796378Y-80170019D02*
X116129711Y-80170019D01*
X116129711Y-80170019D02*
X116224949Y-80217638D01*
X116224949Y-80217638D02*
X116272568Y-80265257D01*
X116272568Y-80265257D02*
X116320187Y-80360495D01*
X116320187Y-80360495D02*
X116320187Y-80455733D01*
X116320187Y-80455733D02*
X116272568Y-80550971D01*
X116272568Y-80550971D02*
X116224949Y-80598590D01*
X116224949Y-80598590D02*
X116129711Y-80646209D01*
X116129711Y-80646209D02*
X115796378Y-80646209D01*
X117320187Y-81170019D02*
X116748759Y-81170019D01*
X117034473Y-81170019D02*
X117034473Y-80170019D01*
X117034473Y-80170019D02*
X116939235Y-80312876D01*
X116939235Y-80312876D02*
X116843997Y-80408114D01*
X116843997Y-80408114D02*
X116748759Y-80455733D01*
X117939235Y-80170019D02*
X118034473Y-80170019D01*
X118034473Y-80170019D02*
X118129711Y-80217638D01*
X118129711Y-80217638D02*
X118177330Y-80265257D01*
X118177330Y-80265257D02*
X118224949Y-80360495D01*
X118224949Y-80360495D02*
X118272568Y-80550971D01*
X118272568Y-80550971D02*
X118272568Y-80789066D01*
X118272568Y-80789066D02*
X118224949Y-80979542D01*
X118224949Y-80979542D02*
X118177330Y-81074780D01*
X118177330Y-81074780D02*
X118129711Y-81122400D01*
X118129711Y-81122400D02*
X118034473Y-81170019D01*
X118034473Y-81170019D02*
X117939235Y-81170019D01*
X117939235Y-81170019D02*
X117843997Y-81122400D01*
X117843997Y-81122400D02*
X117796378Y-81074780D01*
X117796378Y-81074780D02*
X117748759Y-80979542D01*
X117748759Y-80979542D02*
X117701140Y-80789066D01*
X117701140Y-80789066D02*
X117701140Y-80550971D01*
X117701140Y-80550971D02*
X117748759Y-80360495D01*
X117748759Y-80360495D02*
X117796378Y-80265257D01*
X117796378Y-80265257D02*
X117843997Y-80217638D01*
X117843997Y-80217638D02*
X117939235Y-80170019D01*
X118605902Y-81550971D02*
X118653521Y-81503352D01*
X118653521Y-81503352D02*
X118748759Y-81360495D01*
X118748759Y-81360495D02*
X118796378Y-81265257D01*
X118796378Y-81265257D02*
X118843997Y-81122400D01*
X118843997Y-81122400D02*
X118891616Y-80884304D01*
X118891616Y-80884304D02*
X118891616Y-80693828D01*
X118891616Y-80693828D02*
X118843997Y-80455733D01*
X118843997Y-80455733D02*
X118796378Y-80312876D01*
X118796378Y-80312876D02*
X118748759Y-80217638D01*
X118748759Y-80217638D02*
X118653521Y-80074780D01*
X118653521Y-80074780D02*
X118605902Y-80027161D01*
X118429825Y-138980419D02*
X117953635Y-138980419D01*
X117953635Y-138980419D02*
X117953635Y-137980419D01*
X118763159Y-138456609D02*
X119096492Y-138456609D01*
X119239349Y-138980419D02*
X118763159Y-138980419D01*
X118763159Y-138980419D02*
X118763159Y-137980419D01*
X118763159Y-137980419D02*
X119239349Y-137980419D01*
X119667921Y-138980419D02*
X119667921Y-137980419D01*
X119667921Y-137980419D02*
X119906016Y-137980419D01*
X119906016Y-137980419D02*
X120048873Y-138028038D01*
X120048873Y-138028038D02*
X120144111Y-138123276D01*
X120144111Y-138123276D02*
X120191730Y-138218514D01*
X120191730Y-138218514D02*
X120239349Y-138408990D01*
X120239349Y-138408990D02*
X120239349Y-138551847D01*
X120239349Y-138551847D02*
X120191730Y-138742323D01*
X120191730Y-138742323D02*
X120144111Y-138837561D01*
X120144111Y-138837561D02*
X120048873Y-138932800D01*
X120048873Y-138932800D02*
X119906016Y-138980419D01*
X119906016Y-138980419D02*
X119667921Y-138980419D01*
X120858397Y-137980419D02*
X120953635Y-137980419D01*
X120953635Y-137980419D02*
X121048873Y-138028038D01*
X121048873Y-138028038D02*
X121096492Y-138075657D01*
X121096492Y-138075657D02*
X121144111Y-138170895D01*
X121144111Y-138170895D02*
X121191730Y-138361371D01*
X121191730Y-138361371D02*
X121191730Y-138599466D01*
X121191730Y-138599466D02*
X121144111Y-138789942D01*
X121144111Y-138789942D02*
X121096492Y-138885180D01*
X121096492Y-138885180D02*
X121048873Y-138932800D01*
X121048873Y-138932800D02*
X120953635Y-138980419D01*
X120953635Y-138980419D02*
X120858397Y-138980419D01*
X120858397Y-138980419D02*
X120763159Y-138932800D01*
X120763159Y-138932800D02*
X120715540Y-138885180D01*
X120715540Y-138885180D02*
X120667921Y-138789942D01*
X120667921Y-138789942D02*
X120620302Y-138599466D01*
X120620302Y-138599466D02*
X120620302Y-138361371D01*
X120620302Y-138361371D02*
X120667921Y-138170895D01*
X120667921Y-138170895D02*
X120715540Y-138075657D01*
X120715540Y-138075657D02*
X120763159Y-138028038D01*
X120763159Y-138028038D02*
X120858397Y-137980419D01*
X160870177Y-64494919D02*
X160298749Y-64494919D01*
X160584463Y-64494919D02*
X160584463Y-63494919D01*
X160584463Y-63494919D02*
X160489225Y-63637776D01*
X160489225Y-63637776D02*
X160393987Y-63733014D01*
X160393987Y-63733014D02*
X160298749Y-63780633D01*
X161298749Y-63828252D02*
X162060654Y-64113966D01*
X162060654Y-64113966D02*
X161298749Y-64399680D01*
X163013034Y-64494919D02*
X162536844Y-64494919D01*
X162536844Y-64494919D02*
X162536844Y-63494919D01*
X163917796Y-64399680D02*
X163870177Y-64447300D01*
X163870177Y-64447300D02*
X163727320Y-64494919D01*
X163727320Y-64494919D02*
X163632082Y-64494919D01*
X163632082Y-64494919D02*
X163489225Y-64447300D01*
X163489225Y-64447300D02*
X163393987Y-64352061D01*
X163393987Y-64352061D02*
X163346368Y-64256823D01*
X163346368Y-64256823D02*
X163298749Y-64066347D01*
X163298749Y-64066347D02*
X163298749Y-63923490D01*
X163298749Y-63923490D02*
X163346368Y-63733014D01*
X163346368Y-63733014D02*
X163393987Y-63637776D01*
X163393987Y-63637776D02*
X163489225Y-63542538D01*
X163489225Y-63542538D02*
X163632082Y-63494919D01*
X163632082Y-63494919D02*
X163727320Y-63494919D01*
X163727320Y-63494919D02*
X163870177Y-63542538D01*
X163870177Y-63542538D02*
X163917796Y-63590157D01*
X164346368Y-64494919D02*
X164346368Y-63494919D01*
X164346368Y-63494919D02*
X164584463Y-63494919D01*
X164584463Y-63494919D02*
X164727320Y-63542538D01*
X164727320Y-63542538D02*
X164822558Y-63637776D01*
X164822558Y-63637776D02*
X164870177Y-63733014D01*
X164870177Y-63733014D02*
X164917796Y-63923490D01*
X164917796Y-63923490D02*
X164917796Y-64066347D01*
X164917796Y-64066347D02*
X164870177Y-64256823D01*
X164870177Y-64256823D02*
X164822558Y-64352061D01*
X164822558Y-64352061D02*
X164727320Y-64447300D01*
X164727320Y-64447300D02*
X164584463Y-64494919D01*
X164584463Y-64494919D02*
X164346368Y-64494919D01*
X166060654Y-64447300D02*
X166203511Y-64494919D01*
X166203511Y-64494919D02*
X166441606Y-64494919D01*
X166441606Y-64494919D02*
X166536844Y-64447300D01*
X166536844Y-64447300D02*
X166584463Y-64399680D01*
X166584463Y-64399680D02*
X166632082Y-64304442D01*
X166632082Y-64304442D02*
X166632082Y-64209204D01*
X166632082Y-64209204D02*
X166584463Y-64113966D01*
X166584463Y-64113966D02*
X166536844Y-64066347D01*
X166536844Y-64066347D02*
X166441606Y-64018728D01*
X166441606Y-64018728D02*
X166251130Y-63971109D01*
X166251130Y-63971109D02*
X166155892Y-63923490D01*
X166155892Y-63923490D02*
X166108273Y-63875871D01*
X166108273Y-63875871D02*
X166060654Y-63780633D01*
X166060654Y-63780633D02*
X166060654Y-63685395D01*
X166060654Y-63685395D02*
X166108273Y-63590157D01*
X166108273Y-63590157D02*
X166155892Y-63542538D01*
X166155892Y-63542538D02*
X166251130Y-63494919D01*
X166251130Y-63494919D02*
X166489225Y-63494919D01*
X166489225Y-63494919D02*
X166632082Y-63542538D01*
X167060654Y-64494919D02*
X167060654Y-63494919D01*
X167060654Y-63494919D02*
X167441606Y-63494919D01*
X167441606Y-63494919D02*
X167536844Y-63542538D01*
X167536844Y-63542538D02*
X167584463Y-63590157D01*
X167584463Y-63590157D02*
X167632082Y-63685395D01*
X167632082Y-63685395D02*
X167632082Y-63828252D01*
X167632082Y-63828252D02*
X167584463Y-63923490D01*
X167584463Y-63923490D02*
X167536844Y-63971109D01*
X167536844Y-63971109D02*
X167441606Y-64018728D01*
X167441606Y-64018728D02*
X167060654Y-64018728D01*
X168060654Y-64494919D02*
X168060654Y-63494919D01*
X169204378Y-57913209D02*
X169537711Y-57913209D01*
X169680568Y-58437019D02*
X169204378Y-58437019D01*
X169204378Y-58437019D02*
X169204378Y-57437019D01*
X169204378Y-57437019D02*
X169680568Y-57437019D01*
X170109140Y-58437019D02*
X170109140Y-57437019D01*
X170109140Y-57437019D02*
X170680568Y-58437019D01*
X170680568Y-58437019D02*
X170680568Y-57437019D01*
D10*
X173744095Y-66920219D02*
X174315523Y-66920219D01*
X174029809Y-67920219D02*
X174029809Y-66920219D01*
X174648857Y-67920219D02*
X174648857Y-66920219D01*
X174648857Y-66920219D02*
X175029809Y-66920219D01*
X175029809Y-66920219D02*
X175125047Y-66967838D01*
X175125047Y-66967838D02*
X175172666Y-67015457D01*
X175172666Y-67015457D02*
X175220285Y-67110695D01*
X175220285Y-67110695D02*
X175220285Y-67253552D01*
X175220285Y-67253552D02*
X175172666Y-67348790D01*
X175172666Y-67348790D02*
X175125047Y-67396409D01*
X175125047Y-67396409D02*
X175029809Y-67444028D01*
X175029809Y-67444028D02*
X174648857Y-67444028D01*
X175601238Y-67015457D02*
X175648857Y-66967838D01*
X175648857Y-66967838D02*
X175744095Y-66920219D01*
X175744095Y-66920219D02*
X175982190Y-66920219D01*
X175982190Y-66920219D02*
X176077428Y-66967838D01*
X176077428Y-66967838D02*
X176125047Y-67015457D01*
X176125047Y-67015457D02*
X176172666Y-67110695D01*
X176172666Y-67110695D02*
X176172666Y-67205933D01*
X176172666Y-67205933D02*
X176125047Y-67348790D01*
X176125047Y-67348790D02*
X175553619Y-67920219D01*
X175553619Y-67920219D02*
X176172666Y-67920219D01*
X181843419Y-122505694D02*
X180843419Y-122505694D01*
X180843419Y-122505694D02*
X180843419Y-122267599D01*
X180843419Y-122267599D02*
X180891038Y-122124742D01*
X180891038Y-122124742D02*
X180986276Y-122029504D01*
X180986276Y-122029504D02*
X181081514Y-121981885D01*
X181081514Y-121981885D02*
X181271990Y-121934266D01*
X181271990Y-121934266D02*
X181414847Y-121934266D01*
X181414847Y-121934266D02*
X181605323Y-121981885D01*
X181605323Y-121981885D02*
X181700561Y-122029504D01*
X181700561Y-122029504D02*
X181795800Y-122124742D01*
X181795800Y-122124742D02*
X181843419Y-122267599D01*
X181843419Y-122267599D02*
X181843419Y-122505694D01*
X180843419Y-121600932D02*
X180843419Y-120934266D01*
X180843419Y-120934266D02*
X181843419Y-121362837D01*
X176157095Y-62297419D02*
X176728523Y-62297419D01*
X176442809Y-63297419D02*
X176442809Y-62297419D01*
X177061857Y-63297419D02*
X177061857Y-62297419D01*
X177061857Y-62297419D02*
X177442809Y-62297419D01*
X177442809Y-62297419D02*
X177538047Y-62345038D01*
X177538047Y-62345038D02*
X177585666Y-62392657D01*
X177585666Y-62392657D02*
X177633285Y-62487895D01*
X177633285Y-62487895D02*
X177633285Y-62630752D01*
X177633285Y-62630752D02*
X177585666Y-62725990D01*
X177585666Y-62725990D02*
X177538047Y-62773609D01*
X177538047Y-62773609D02*
X177442809Y-62821228D01*
X177442809Y-62821228D02*
X177061857Y-62821228D01*
X178585666Y-63297419D02*
X178014238Y-63297419D01*
X178299952Y-63297419D02*
X178299952Y-62297419D01*
X178299952Y-62297419D02*
X178204714Y-62440276D01*
X178204714Y-62440276D02*
X178109476Y-62535514D01*
X178109476Y-62535514D02*
X178014238Y-62583133D01*
X105051166Y-82589019D02*
X105051166Y-83303304D01*
X105051166Y-83303304D02*
X105003547Y-83446161D01*
X105003547Y-83446161D02*
X104908309Y-83541400D01*
X104908309Y-83541400D02*
X104765452Y-83589019D01*
X104765452Y-83589019D02*
X104670214Y-83589019D01*
X105527357Y-83589019D02*
X105527357Y-82589019D01*
X105527357Y-82589019D02*
X105908309Y-82589019D01*
X105908309Y-82589019D02*
X106003547Y-82636638D01*
X106003547Y-82636638D02*
X106051166Y-82684257D01*
X106051166Y-82684257D02*
X106098785Y-82779495D01*
X106098785Y-82779495D02*
X106098785Y-82922352D01*
X106098785Y-82922352D02*
X106051166Y-83017590D01*
X106051166Y-83017590D02*
X106003547Y-83065209D01*
X106003547Y-83065209D02*
X105908309Y-83112828D01*
X105908309Y-83112828D02*
X105527357Y-83112828D01*
X106670214Y-83017590D02*
X106574976Y-82969971D01*
X106574976Y-82969971D02*
X106527357Y-82922352D01*
X106527357Y-82922352D02*
X106479738Y-82827114D01*
X106479738Y-82827114D02*
X106479738Y-82779495D01*
X106479738Y-82779495D02*
X106527357Y-82684257D01*
X106527357Y-82684257D02*
X106574976Y-82636638D01*
X106574976Y-82636638D02*
X106670214Y-82589019D01*
X106670214Y-82589019D02*
X106860690Y-82589019D01*
X106860690Y-82589019D02*
X106955928Y-82636638D01*
X106955928Y-82636638D02*
X107003547Y-82684257D01*
X107003547Y-82684257D02*
X107051166Y-82779495D01*
X107051166Y-82779495D02*
X107051166Y-82827114D01*
X107051166Y-82827114D02*
X107003547Y-82922352D01*
X107003547Y-82922352D02*
X106955928Y-82969971D01*
X106955928Y-82969971D02*
X106860690Y-83017590D01*
X106860690Y-83017590D02*
X106670214Y-83017590D01*
X106670214Y-83017590D02*
X106574976Y-83065209D01*
X106574976Y-83065209D02*
X106527357Y-83112828D01*
X106527357Y-83112828D02*
X106479738Y-83208066D01*
X106479738Y-83208066D02*
X106479738Y-83398542D01*
X106479738Y-83398542D02*
X106527357Y-83493780D01*
X106527357Y-83493780D02*
X106574976Y-83541400D01*
X106574976Y-83541400D02*
X106670214Y-83589019D01*
X106670214Y-83589019D02*
X106860690Y-83589019D01*
X106860690Y-83589019D02*
X106955928Y-83541400D01*
X106955928Y-83541400D02*
X107003547Y-83493780D01*
X107003547Y-83493780D02*
X107051166Y-83398542D01*
X107051166Y-83398542D02*
X107051166Y-83208066D01*
X107051166Y-83208066D02*
X107003547Y-83112828D01*
X107003547Y-83112828D02*
X106955928Y-83065209D01*
X106955928Y-83065209D02*
X106860690Y-83017590D01*
X102976567Y-84316219D02*
X103595614Y-84316219D01*
X103595614Y-84316219D02*
X103262281Y-84697171D01*
X103262281Y-84697171D02*
X103405138Y-84697171D01*
X103405138Y-84697171D02*
X103500376Y-84744790D01*
X103500376Y-84744790D02*
X103547995Y-84792409D01*
X103547995Y-84792409D02*
X103595614Y-84887647D01*
X103595614Y-84887647D02*
X103595614Y-85125742D01*
X103595614Y-85125742D02*
X103547995Y-85220980D01*
X103547995Y-85220980D02*
X103500376Y-85268600D01*
X103500376Y-85268600D02*
X103405138Y-85316219D01*
X103405138Y-85316219D02*
X103119424Y-85316219D01*
X103119424Y-85316219D02*
X103024186Y-85268600D01*
X103024186Y-85268600D02*
X102976567Y-85220980D01*
X108795614Y-85316219D02*
X108224186Y-85316219D01*
X108509900Y-85316219D02*
X108509900Y-84316219D01*
X108509900Y-84316219D02*
X108414662Y-84459076D01*
X108414662Y-84459076D02*
X108319424Y-84554314D01*
X108319424Y-84554314D02*
X108224186Y-84601933D01*
X111742695Y-65421619D02*
X112314123Y-65421619D01*
X112028409Y-66421619D02*
X112028409Y-65421619D01*
X112647457Y-66421619D02*
X112647457Y-65421619D01*
X112647457Y-65421619D02*
X113028409Y-65421619D01*
X113028409Y-65421619D02*
X113123647Y-65469238D01*
X113123647Y-65469238D02*
X113171266Y-65516857D01*
X113171266Y-65516857D02*
X113218885Y-65612095D01*
X113218885Y-65612095D02*
X113218885Y-65754952D01*
X113218885Y-65754952D02*
X113171266Y-65850190D01*
X113171266Y-65850190D02*
X113123647Y-65897809D01*
X113123647Y-65897809D02*
X113028409Y-65945428D01*
X113028409Y-65945428D02*
X112647457Y-65945428D01*
X113552219Y-65421619D02*
X114218885Y-65421619D01*
X114218885Y-65421619D02*
X113790314Y-66421619D01*
X200591895Y-50537219D02*
X201163323Y-50537219D01*
X200877609Y-51537219D02*
X200877609Y-50537219D01*
X201496657Y-51537219D02*
X201496657Y-50537219D01*
X201496657Y-50537219D02*
X201877609Y-50537219D01*
X201877609Y-50537219D02*
X201972847Y-50584838D01*
X201972847Y-50584838D02*
X202020466Y-50632457D01*
X202020466Y-50632457D02*
X202068085Y-50727695D01*
X202068085Y-50727695D02*
X202068085Y-50870552D01*
X202068085Y-50870552D02*
X202020466Y-50965790D01*
X202020466Y-50965790D02*
X201972847Y-51013409D01*
X201972847Y-51013409D02*
X201877609Y-51061028D01*
X201877609Y-51061028D02*
X201496657Y-51061028D01*
X202925228Y-50870552D02*
X202925228Y-51537219D01*
X202687133Y-50489600D02*
X202449038Y-51203885D01*
X202449038Y-51203885D02*
X203068085Y-51203885D01*
X165280552Y-52885685D02*
X165280552Y-53457113D01*
X165280552Y-53171399D02*
X164280552Y-53171399D01*
X164280552Y-53171399D02*
X164423409Y-53266637D01*
X164423409Y-53266637D02*
X164518647Y-53361875D01*
X164518647Y-53361875D02*
X164566266Y-53457113D01*
X164280552Y-48304732D02*
X164280552Y-47685685D01*
X164280552Y-47685685D02*
X164661504Y-48019018D01*
X164661504Y-48019018D02*
X164661504Y-47876161D01*
X164661504Y-47876161D02*
X164709123Y-47780923D01*
X164709123Y-47780923D02*
X164756742Y-47733304D01*
X164756742Y-47733304D02*
X164851980Y-47685685D01*
X164851980Y-47685685D02*
X165090075Y-47685685D01*
X165090075Y-47685685D02*
X165185313Y-47733304D01*
X165185313Y-47733304D02*
X165232933Y-47780923D01*
X165232933Y-47780923D02*
X165280552Y-47876161D01*
X165280552Y-47876161D02*
X165280552Y-48161875D01*
X165280552Y-48161875D02*
X165232933Y-48257113D01*
X165232933Y-48257113D02*
X165185313Y-48304732D01*
X191955895Y-51477019D02*
X192527323Y-51477019D01*
X192241609Y-52477019D02*
X192241609Y-51477019D01*
X192860657Y-52477019D02*
X192860657Y-51477019D01*
X192860657Y-51477019D02*
X193241609Y-51477019D01*
X193241609Y-51477019D02*
X193336847Y-51524638D01*
X193336847Y-51524638D02*
X193384466Y-51572257D01*
X193384466Y-51572257D02*
X193432085Y-51667495D01*
X193432085Y-51667495D02*
X193432085Y-51810352D01*
X193432085Y-51810352D02*
X193384466Y-51905590D01*
X193384466Y-51905590D02*
X193336847Y-51953209D01*
X193336847Y-51953209D02*
X193241609Y-52000828D01*
X193241609Y-52000828D02*
X192860657Y-52000828D01*
X193765419Y-51477019D02*
X194384466Y-51477019D01*
X194384466Y-51477019D02*
X194051133Y-51857971D01*
X194051133Y-51857971D02*
X194193990Y-51857971D01*
X194193990Y-51857971D02*
X194289228Y-51905590D01*
X194289228Y-51905590D02*
X194336847Y-51953209D01*
X194336847Y-51953209D02*
X194384466Y-52048447D01*
X194384466Y-52048447D02*
X194384466Y-52286542D01*
X194384466Y-52286542D02*
X194336847Y-52381780D01*
X194336847Y-52381780D02*
X194289228Y-52429400D01*
X194289228Y-52429400D02*
X194193990Y-52477019D01*
X194193990Y-52477019D02*
X193908276Y-52477019D01*
X193908276Y-52477019D02*
X193813038Y-52429400D01*
X193813038Y-52429400D02*
X193765419Y-52381780D01*
X118270495Y-54855219D02*
X118841923Y-54855219D01*
X118556209Y-55855219D02*
X118556209Y-54855219D01*
X119175257Y-55855219D02*
X119175257Y-54855219D01*
X119175257Y-54855219D02*
X119556209Y-54855219D01*
X119556209Y-54855219D02*
X119651447Y-54902838D01*
X119651447Y-54902838D02*
X119699066Y-54950457D01*
X119699066Y-54950457D02*
X119746685Y-55045695D01*
X119746685Y-55045695D02*
X119746685Y-55188552D01*
X119746685Y-55188552D02*
X119699066Y-55283790D01*
X119699066Y-55283790D02*
X119651447Y-55331409D01*
X119651447Y-55331409D02*
X119556209Y-55379028D01*
X119556209Y-55379028D02*
X119175257Y-55379028D01*
X120603828Y-54855219D02*
X120413352Y-54855219D01*
X120413352Y-54855219D02*
X120318114Y-54902838D01*
X120318114Y-54902838D02*
X120270495Y-54950457D01*
X120270495Y-54950457D02*
X120175257Y-55093314D01*
X120175257Y-55093314D02*
X120127638Y-55283790D01*
X120127638Y-55283790D02*
X120127638Y-55664742D01*
X120127638Y-55664742D02*
X120175257Y-55759980D01*
X120175257Y-55759980D02*
X120222876Y-55807600D01*
X120222876Y-55807600D02*
X120318114Y-55855219D01*
X120318114Y-55855219D02*
X120508590Y-55855219D01*
X120508590Y-55855219D02*
X120603828Y-55807600D01*
X120603828Y-55807600D02*
X120651447Y-55759980D01*
X120651447Y-55759980D02*
X120699066Y-55664742D01*
X120699066Y-55664742D02*
X120699066Y-55426647D01*
X120699066Y-55426647D02*
X120651447Y-55331409D01*
X120651447Y-55331409D02*
X120603828Y-55283790D01*
X120603828Y-55283790D02*
X120508590Y-55236171D01*
X120508590Y-55236171D02*
X120318114Y-55236171D01*
X120318114Y-55236171D02*
X120222876Y-55283790D01*
X120222876Y-55283790D02*
X120175257Y-55331409D01*
X120175257Y-55331409D02*
X120127638Y-55426647D01*
X112697819Y-85694733D02*
X113412104Y-85694733D01*
X113412104Y-85694733D02*
X113554961Y-85742352D01*
X113554961Y-85742352D02*
X113650200Y-85837590D01*
X113650200Y-85837590D02*
X113697819Y-85980447D01*
X113697819Y-85980447D02*
X113697819Y-86075685D01*
X113697819Y-85218542D02*
X112697819Y-85218542D01*
X112697819Y-85218542D02*
X112697819Y-84837590D01*
X112697819Y-84837590D02*
X112745438Y-84742352D01*
X112745438Y-84742352D02*
X112793057Y-84694733D01*
X112793057Y-84694733D02*
X112888295Y-84647114D01*
X112888295Y-84647114D02*
X113031152Y-84647114D01*
X113031152Y-84647114D02*
X113126390Y-84694733D01*
X113126390Y-84694733D02*
X113174009Y-84742352D01*
X113174009Y-84742352D02*
X113221628Y-84837590D01*
X113221628Y-84837590D02*
X113221628Y-85218542D01*
X113697819Y-84170923D02*
X113697819Y-83980447D01*
X113697819Y-83980447D02*
X113650200Y-83885209D01*
X113650200Y-83885209D02*
X113602580Y-83837590D01*
X113602580Y-83837590D02*
X113459723Y-83742352D01*
X113459723Y-83742352D02*
X113269247Y-83694733D01*
X113269247Y-83694733D02*
X112888295Y-83694733D01*
X112888295Y-83694733D02*
X112793057Y-83742352D01*
X112793057Y-83742352D02*
X112745438Y-83789971D01*
X112745438Y-83789971D02*
X112697819Y-83885209D01*
X112697819Y-83885209D02*
X112697819Y-84075685D01*
X112697819Y-84075685D02*
X112745438Y-84170923D01*
X112745438Y-84170923D02*
X112793057Y-84218542D01*
X112793057Y-84218542D02*
X112888295Y-84266161D01*
X112888295Y-84266161D02*
X113126390Y-84266161D01*
X113126390Y-84266161D02*
X113221628Y-84218542D01*
X113221628Y-84218542D02*
X113269247Y-84170923D01*
X113269247Y-84170923D02*
X113316866Y-84075685D01*
X113316866Y-84075685D02*
X113316866Y-83885209D01*
X113316866Y-83885209D02*
X113269247Y-83789971D01*
X113269247Y-83789971D02*
X113221628Y-83742352D01*
X113221628Y-83742352D02*
X113126390Y-83694733D01*
X167894185Y-52885685D02*
X167894185Y-53457113D01*
X167894185Y-53171399D02*
X166894185Y-53171399D01*
X166894185Y-53171399D02*
X167037042Y-53266637D01*
X167037042Y-53266637D02*
X167132280Y-53361875D01*
X167132280Y-53361875D02*
X167179899Y-53457113D01*
X166894185Y-48304732D02*
X166894185Y-47685685D01*
X166894185Y-47685685D02*
X167275137Y-48019018D01*
X167275137Y-48019018D02*
X167275137Y-47876161D01*
X167275137Y-47876161D02*
X167322756Y-47780923D01*
X167322756Y-47780923D02*
X167370375Y-47733304D01*
X167370375Y-47733304D02*
X167465613Y-47685685D01*
X167465613Y-47685685D02*
X167703708Y-47685685D01*
X167703708Y-47685685D02*
X167798946Y-47733304D01*
X167798946Y-47733304D02*
X167846566Y-47780923D01*
X167846566Y-47780923D02*
X167894185Y-47876161D01*
X167894185Y-47876161D02*
X167894185Y-48161875D01*
X167894185Y-48161875D02*
X167846566Y-48257113D01*
X167846566Y-48257113D02*
X167798946Y-48304732D01*
D14*
%TO.C,J11*%
X77658200Y-101055800D02*
X77658200Y-103555800D01*
X77658200Y-101055800D02*
X80358200Y-101055800D01*
X77658200Y-103555800D02*
X77658200Y-106055800D01*
X77658200Y-106055800D02*
X80358200Y-106055800D01*
X80358200Y-100555800D02*
X80358200Y-101055800D01*
X80358200Y-100555800D02*
X83658200Y-100555800D01*
X80358200Y-106555800D02*
X80358200Y-106055800D01*
X81658200Y-106555800D02*
X80358200Y-106555800D01*
X83258200Y-106555800D02*
X88658200Y-106555800D01*
X85258200Y-100555800D02*
X91658200Y-100555800D01*
X90258200Y-106555800D02*
X91658200Y-106555800D01*
X91658200Y-100555800D02*
X91658200Y-106555800D01*
D15*
%TO.C,C40*%
X124106100Y-97838364D02*
X124106100Y-98054036D01*
X124826100Y-97838364D02*
X124826100Y-98054036D01*
%TO.C,R19*%
X134383800Y-76234959D02*
X134383800Y-76542241D01*
X135143800Y-76234959D02*
X135143800Y-76542241D01*
%TO.C,R43*%
X211377559Y-87596883D02*
X211684841Y-87596883D01*
X211377559Y-88356883D02*
X211684841Y-88356883D01*
%TO.C,C28*%
X135542804Y-134065800D02*
X135758476Y-134065800D01*
X135542804Y-134785800D02*
X135758476Y-134785800D01*
%TO.C,C59*%
X91241600Y-127196964D02*
X91241600Y-127412636D01*
X91961600Y-127196964D02*
X91961600Y-127412636D01*
%TO.C,C37*%
X171276836Y-84446000D02*
X171061164Y-84446000D01*
X171276836Y-85166000D02*
X171061164Y-85166000D01*
D16*
%TO.C,J5*%
X212904200Y-106705090D02*
X215179200Y-106705090D01*
X212904200Y-107505090D02*
X212904200Y-106705090D01*
X212904200Y-111905090D02*
X212904200Y-112705090D01*
X212904200Y-112705090D02*
X215179200Y-112705090D01*
X217154200Y-111505090D02*
X217154200Y-107905090D01*
D13*
X212294200Y-112155090D02*
G75*
G02*
X212094200Y-112155090I-100000J0D01*
G01*
X212094200Y-112155090D02*
G75*
G02*
X212294200Y-112155090I100000J0D01*
G01*
D15*
%TO.C,R7*%
X98451641Y-66924200D02*
X98144359Y-66924200D01*
X98451641Y-67684200D02*
X98144359Y-67684200D01*
%TO.C,R15*%
X97370444Y-90866199D02*
X97063162Y-90866199D01*
X97370444Y-91626199D02*
X97063162Y-91626199D01*
%TO.C,R31*%
X115196600Y-107036359D02*
X115196600Y-107343641D01*
X115956600Y-107036359D02*
X115956600Y-107343641D01*
%TO.C,R23*%
X121006600Y-135896641D02*
X121006600Y-135589359D01*
X121766600Y-135896641D02*
X121766600Y-135589359D01*
%TO.C,R34*%
X139980641Y-73965800D02*
X139673359Y-73965800D01*
X139980641Y-74725800D02*
X139673359Y-74725800D01*
%TO.C,C45*%
X127262836Y-100986000D02*
X127047164Y-100986000D01*
X127262836Y-101706000D02*
X127047164Y-101706000D01*
%TO.C,U13*%
X189757000Y-61208600D02*
X191017000Y-61208600D01*
X189757000Y-64968600D02*
X189757000Y-61208600D01*
X196577000Y-61208600D02*
X195317000Y-61208600D01*
X196577000Y-64968600D02*
X196577000Y-61208600D01*
X189857000Y-66248600D02*
X189527000Y-66488600D01*
X189527000Y-66008600D01*
X189857000Y-66248600D01*
G36*
X189857000Y-66248600D02*
G01*
X189527000Y-66488600D01*
X189527000Y-66008600D01*
X189857000Y-66248600D01*
G37*
%TO.C,C63*%
X200864800Y-82776348D02*
X200864800Y-83298852D01*
X202334800Y-82776348D02*
X202334800Y-83298852D01*
%TO.C,C36*%
X177861164Y-84446000D02*
X178076836Y-84446000D01*
X177861164Y-85166000D02*
X178076836Y-85166000D01*
%TO.C,J12*%
X203164800Y-82987600D02*
X203164800Y-81187600D01*
X203384800Y-71927600D02*
X206714800Y-71927600D01*
X203384800Y-85247600D02*
X203384800Y-71927600D01*
X203384800Y-85247600D02*
X206714800Y-85247600D01*
X210234800Y-71927600D02*
X218344800Y-71927600D01*
X218344800Y-71277600D02*
X218344800Y-71927600D01*
X218344800Y-85247600D02*
X210234800Y-85247600D01*
X218344800Y-85247600D02*
X218344800Y-85897600D01*
X218344800Y-85897600D02*
X218864800Y-85897600D01*
X218864800Y-71277600D02*
X218344800Y-71277600D01*
X218864800Y-85897600D02*
X218864800Y-71277600D01*
%TO.C,R48*%
X199160159Y-81712800D02*
X199467441Y-81712800D01*
X199160159Y-82472800D02*
X199467441Y-82472800D01*
%TO.C,C10*%
X133358600Y-76526436D02*
X133358600Y-76310764D01*
X134078600Y-76526436D02*
X134078600Y-76310764D01*
%TO.C,C27*%
X146523524Y-134065800D02*
X146739196Y-134065800D01*
X146523524Y-134785800D02*
X146739196Y-134785800D01*
%TO.C,RN7*%
X157310598Y-59829400D02*
X157310598Y-58829400D01*
X160670598Y-59829400D02*
X160670598Y-58829400D01*
%TO.C,R6*%
X104831641Y-108205000D02*
X104524359Y-108205000D01*
X104831641Y-108965000D02*
X104524359Y-108965000D01*
%TO.C,Y2*%
X121746400Y-85873600D02*
X121746400Y-88273600D01*
X121746400Y-88273600D02*
X123346400Y-88273600D01*
X123346400Y-88273600D02*
X123346400Y-85873600D01*
%TO.C,TP5*%
X136230400Y-47955200D02*
G75*
G02*
X134330400Y-47955200I-950000J0D01*
G01*
X134330400Y-47955200D02*
G75*
G02*
X136230400Y-47955200I950000J0D01*
G01*
%TO.C,U8*%
X180974600Y-67634700D02*
X180974600Y-66834700D01*
X180974600Y-67634700D02*
X180974600Y-69434700D01*
X184094600Y-67634700D02*
X184094600Y-66834700D01*
X184094600Y-67634700D02*
X184094600Y-68434700D01*
%TO.C,JP7*%
X105978700Y-113952200D02*
X105978700Y-112552200D01*
X106678700Y-111852200D02*
X107278700Y-111852200D01*
X107278700Y-114652200D02*
X106678700Y-114652200D01*
X107978700Y-112552200D02*
X107978700Y-113952200D01*
X105978700Y-112552200D02*
G75*
G02*
X106678700Y-111852200I699999J1D01*
G01*
X106678700Y-114652200D02*
G75*
G02*
X105978700Y-113952200I0J700000D01*
G01*
X107278700Y-111852200D02*
G75*
G02*
X107978700Y-112552200I1J-699999D01*
G01*
X107978700Y-113952200D02*
G75*
G02*
X107278700Y-114652200I-700000J0D01*
G01*
%TO.C,R16*%
X97063162Y-91872800D02*
X97370444Y-91872800D01*
X97063162Y-92632800D02*
X97370444Y-92632800D01*
%TO.C,C56*%
X84910200Y-117244380D02*
X84910200Y-116963220D01*
X85930200Y-117244380D02*
X85930200Y-116963220D01*
%TO.C,J7*%
X211620400Y-92170449D02*
X211620400Y-92105449D01*
X211620400Y-101115449D02*
X211620400Y-101050449D01*
X215150400Y-92105449D02*
X211620400Y-92105449D01*
X215150400Y-92170449D02*
X215150400Y-92105449D01*
X215150400Y-101115449D02*
X211620400Y-101115449D01*
X215150400Y-101115449D02*
X215150400Y-101050449D01*
X216475400Y-101050449D02*
X215150400Y-101050449D01*
%TO.C,C29*%
X169609000Y-102678164D02*
X169609000Y-102893836D01*
X170329000Y-102678164D02*
X170329000Y-102893836D01*
%TO.C,R9*%
X98451641Y-72424200D02*
X98144359Y-72424200D01*
X98451641Y-73184200D02*
X98144359Y-73184200D01*
%TO.C,D4*%
X181514600Y-62153620D02*
X184199600Y-62153620D01*
X184199600Y-60233620D02*
X181514600Y-60233620D01*
X184199600Y-62153620D02*
X184199600Y-60233620D01*
%TO.C,C54*%
X93801620Y-117727000D02*
X94082780Y-117727000D01*
X93801620Y-118747000D02*
X94082780Y-118747000D01*
%TO.C,U4*%
X105659900Y-92932200D02*
X113659900Y-92932200D01*
X105669900Y-86712200D02*
X113659900Y-86712200D01*
X105429900Y-87512200D02*
X104949900Y-87512200D01*
X105429900Y-87032200D01*
X105429900Y-87512200D01*
G36*
X105429900Y-87512200D02*
G01*
X104949900Y-87512200D01*
X105429900Y-87032200D01*
X105429900Y-87512200D01*
G37*
%TO.C,C8*%
X151860764Y-76538600D02*
X152076436Y-76538600D01*
X151860764Y-77258600D02*
X152076436Y-77258600D01*
%TO.C,TP2*%
X175956000Y-69113400D02*
G75*
G02*
X174056000Y-69113400I-950000J0D01*
G01*
X174056000Y-69113400D02*
G75*
G02*
X175956000Y-69113400I950000J0D01*
G01*
%TO.C,D7*%
X182228600Y-121767600D02*
X182228600Y-121117600D01*
X182228600Y-121767600D02*
X182228600Y-122417600D01*
X185348600Y-121767600D02*
X185348600Y-121117600D01*
X185348600Y-121767600D02*
X185348600Y-122417600D01*
X182278600Y-122930100D02*
X181948600Y-123170100D01*
X181948600Y-122690100D01*
X182278600Y-122930100D01*
G36*
X182278600Y-122930100D02*
G01*
X181948600Y-123170100D01*
X181948600Y-122690100D01*
X182278600Y-122930100D01*
G37*
%TO.C,U2*%
X130358600Y-81463600D02*
X130358600Y-82413600D01*
X130358600Y-105683600D02*
X130358600Y-104733600D01*
X131308600Y-81463600D02*
X130358600Y-81463600D01*
X131308600Y-105683600D02*
X130358600Y-105683600D01*
X153628600Y-81463600D02*
X154578600Y-81463600D01*
X153628600Y-105683600D02*
X154578600Y-105683600D01*
X154578600Y-81463600D02*
X154578600Y-82413600D01*
X154578600Y-105683600D02*
X154578600Y-104733600D01*
X129756100Y-82413600D02*
X129416100Y-81943600D01*
X130096100Y-81943600D01*
X129756100Y-82413600D01*
G36*
X129756100Y-82413600D02*
G01*
X129416100Y-81943600D01*
X130096100Y-81943600D01*
X129756100Y-82413600D01*
G37*
%TO.C,R28*%
X121597100Y-56704841D02*
X121597100Y-56397559D01*
X122357100Y-56704841D02*
X122357100Y-56397559D01*
D16*
%TO.C,BT2*%
X181438600Y-124680000D02*
X181438600Y-130530000D01*
X181438600Y-124680000D02*
X185288600Y-124680000D01*
X181438600Y-139480000D02*
X181438600Y-133630000D01*
X185288600Y-124680000D02*
X185288600Y-127105000D01*
X185288600Y-137005000D02*
X185288600Y-139480000D01*
X185288600Y-139480000D02*
X181438600Y-139480000D01*
X185288600Y-127105000D02*
G75*
G02*
X198013601Y-130555001I5488304J-4949391D01*
G01*
X198013601Y-133604999D02*
G75*
G02*
X185288600Y-137055000I-7236697J1499390D01*
G01*
D13*
X179625403Y-131980000D02*
G75*
G02*
X179401797Y-131980000I-111803J0D01*
G01*
X179401797Y-131980000D02*
G75*
G02*
X179625403Y-131980000I111803J0D01*
G01*
D15*
%TO.C,R46*%
X203175600Y-88992883D02*
X203175600Y-89300165D01*
X203935600Y-88992883D02*
X203935600Y-89300165D01*
%TO.C,C20*%
X111830836Y-104891200D02*
X111615164Y-104891200D01*
X111830836Y-105611200D02*
X111615164Y-105611200D01*
%TO.C,R8*%
X98451641Y-71319200D02*
X98144359Y-71319200D01*
X98451641Y-72079200D02*
X98144359Y-72079200D01*
%TO.C,R13*%
X207468800Y-53770264D02*
X207468800Y-53316136D01*
X208938800Y-53770264D02*
X208938800Y-53316136D01*
%TO.C,C44*%
X182273348Y-63704340D02*
X182795852Y-63704340D01*
X182273348Y-65174340D02*
X182795852Y-65174340D01*
%TO.C,C14*%
X158466200Y-83864564D02*
X158466200Y-84080236D01*
X159186200Y-83864564D02*
X159186200Y-84080236D01*
%TO.C,R25*%
X126597500Y-56704841D02*
X126597500Y-56397559D01*
X127357500Y-56704841D02*
X127357500Y-56397559D01*
%TO.C,RN5*%
X149876866Y-59829400D02*
X149876866Y-58829400D01*
X153236866Y-59829400D02*
X153236866Y-58829400D01*
%TO.C,C5*%
X145076436Y-109888600D02*
X144860764Y-109888600D01*
X145076436Y-110608600D02*
X144860764Y-110608600D01*
%TO.C,TP1*%
X178369000Y-64490600D02*
G75*
G02*
X176469000Y-64490600I-950000J0D01*
G01*
X176469000Y-64490600D02*
G75*
G02*
X178369000Y-64490600I950000J0D01*
G01*
%TO.C,JP12*%
X169053000Y-51271400D02*
X169053000Y-49871400D01*
X169753000Y-49171400D02*
X170353000Y-49171400D01*
X170353000Y-51971400D02*
X169753000Y-51971400D01*
X171053000Y-49871400D02*
X171053000Y-51271400D01*
X169053000Y-49871400D02*
G75*
G02*
X169753000Y-49171400I700000J0D01*
G01*
X169753000Y-51971400D02*
G75*
G02*
X169053000Y-51271400I-1J699999D01*
G01*
X170353000Y-49171400D02*
G75*
G02*
X171053000Y-49871400I0J-700000D01*
G01*
X171053000Y-51271400D02*
G75*
G02*
X170353000Y-51971400I-699999J-1D01*
G01*
%TO.C,C23*%
X93649220Y-87628000D02*
X93930380Y-87628000D01*
X93649220Y-88648000D02*
X93930380Y-88648000D01*
%TO.C,R36*%
X160834041Y-55220600D02*
X160526759Y-55220600D01*
X160834041Y-55980600D02*
X160526759Y-55980600D01*
%TO.C,R14*%
X97370444Y-89866199D02*
X97063162Y-89866199D01*
X97370444Y-90626199D02*
X97063162Y-90626199D01*
%TO.C,R45*%
X202185000Y-88992883D02*
X202185000Y-89300165D01*
X202945000Y-88992883D02*
X202945000Y-89300165D01*
%TO.C,C15*%
X158783600Y-91965764D02*
X158783600Y-92181436D01*
X159503600Y-91965764D02*
X159503600Y-92181436D01*
%TO.C,U5*%
X129642800Y-55251200D02*
X131052800Y-55251200D01*
X129652800Y-57571200D02*
X131052800Y-57571200D01*
X129272800Y-55301200D02*
X129032800Y-54971200D01*
X129512800Y-54971200D01*
X129272800Y-55301200D01*
G36*
X129272800Y-55301200D02*
G01*
X129032800Y-54971200D01*
X129512800Y-54971200D01*
X129272800Y-55301200D01*
G37*
D14*
%TO.C,J6*%
X80364600Y-79079200D02*
X80364600Y-75579200D01*
X81519846Y-72979896D02*
X80364600Y-75579200D01*
X81864600Y-64329200D02*
X81864600Y-71355342D01*
X83364600Y-64329200D02*
X81864600Y-64329200D01*
X83364600Y-79079200D02*
X80364600Y-79079200D01*
X93364600Y-64329200D02*
X86064600Y-64329200D01*
X93414600Y-79079200D02*
X86114600Y-79079200D01*
X94864600Y-74454200D02*
X94864600Y-77554200D01*
X81864600Y-71355342D02*
G75*
G02*
X81519846Y-72979896I-4000016J4D01*
G01*
D15*
%TO.C,C9*%
X150590764Y-108334400D02*
X150806436Y-108334400D01*
X150590764Y-109054400D02*
X150806436Y-109054400D01*
%TO.C,C51*%
X86438852Y-110786400D02*
X85916348Y-110786400D01*
X86438852Y-112256400D02*
X85916348Y-112256400D01*
%TO.C,JP6*%
X108734600Y-113952200D02*
X108734600Y-112552200D01*
X109434600Y-111852200D02*
X110034600Y-111852200D01*
X110034600Y-114652200D02*
X109434600Y-114652200D01*
X110734600Y-112552200D02*
X110734600Y-113952200D01*
X108734600Y-112552200D02*
G75*
G02*
X109434600Y-111852200I699999J1D01*
G01*
X109434600Y-114652200D02*
G75*
G02*
X108734600Y-113952200I0J700000D01*
G01*
X110034600Y-111852200D02*
G75*
G02*
X110734600Y-112552200I1J-699999D01*
G01*
X110734600Y-113952200D02*
G75*
G02*
X110034600Y-114652200I-700000J0D01*
G01*
%TO.C,C22*%
X115415164Y-87557200D02*
X115630836Y-87557200D01*
X115415164Y-88277200D02*
X115630836Y-88277200D01*
%TO.C,C67*%
X209751200Y-108570670D02*
X209751200Y-108289510D01*
X210771200Y-108570670D02*
X210771200Y-108289510D01*
%TO.C,D14*%
X200695000Y-89869024D02*
X200695000Y-87909024D01*
X201895000Y-87909024D02*
X200695000Y-87909024D01*
X201895000Y-89869024D02*
X201895000Y-87909024D01*
%TO.C,C18*%
X98190164Y-70244200D02*
X98405836Y-70244200D01*
X98190164Y-70964200D02*
X98405836Y-70964200D01*
%TO.C,JP3*%
X119673850Y-51931800D02*
X119673850Y-50531800D01*
X120373850Y-49831800D02*
X120973850Y-49831800D01*
X120973850Y-52631800D02*
X120373850Y-52631800D01*
X121673850Y-50531800D02*
X121673850Y-51931800D01*
X119673850Y-50531800D02*
G75*
G02*
X120373850Y-49831800I699999J1D01*
G01*
X120373850Y-52631800D02*
G75*
G02*
X119673850Y-51931800I0J700000D01*
G01*
X120973850Y-49831800D02*
G75*
G02*
X121673850Y-50531800I1J-699999D01*
G01*
X121673850Y-51931800D02*
G75*
G02*
X120973850Y-52631800I-700000J0D01*
G01*
%TO.C,C7*%
X140076436Y-109888600D02*
X139860764Y-109888600D01*
X140076436Y-110608600D02*
X139860764Y-110608600D01*
%TO.C,C39*%
X124106100Y-96304036D02*
X124106100Y-96088364D01*
X124826100Y-96304036D02*
X124826100Y-96088364D01*
%TO.C,C13*%
X144722964Y-76538600D02*
X144938636Y-76538600D01*
X144722964Y-77258600D02*
X144938636Y-77258600D01*
%TO.C,R35*%
X160834041Y-54001400D02*
X160526759Y-54001400D01*
X160834041Y-54761400D02*
X160526759Y-54761400D01*
%TO.C,R50*%
X119813041Y-128358800D02*
X119505759Y-128358800D01*
X119813041Y-129118800D02*
X119505759Y-129118800D01*
%TO.C,C12*%
X140360764Y-76538600D02*
X140576436Y-76538600D01*
X140360764Y-77258600D02*
X140576436Y-77258600D01*
%TO.C,C50*%
X92427600Y-122029748D02*
X92427600Y-122552252D01*
X93897600Y-122029748D02*
X93897600Y-122552252D01*
%TO.C,C46*%
X134773300Y-50570820D02*
X134773300Y-50851980D01*
X135793300Y-50570820D02*
X135793300Y-50851980D01*
%TO.C,C49*%
X127811300Y-56689036D02*
X127811300Y-56473364D01*
X128531300Y-56689036D02*
X128531300Y-56473364D01*
%TO.C,R29*%
X130199159Y-57963800D02*
X130506441Y-57963800D01*
X130199159Y-58723800D02*
X130506441Y-58723800D01*
%TO.C,SW3*%
X146026360Y-135629600D02*
X146026360Y-135749600D01*
X146026360Y-136759600D02*
X146026360Y-137899600D01*
X146026360Y-138909600D02*
X146026360Y-139029600D01*
X146026360Y-139029600D02*
X150426360Y-139029600D01*
X150426360Y-135629600D02*
X146026360Y-135629600D01*
X150426360Y-135749600D02*
X150426360Y-135629600D01*
X150426360Y-137899600D02*
X150426360Y-136759600D01*
X150426360Y-139029600D02*
X150426360Y-138909600D01*
%TO.C,JP8*%
X103859900Y-85161400D02*
X103859900Y-84561400D01*
X104509900Y-83861400D02*
X107309900Y-83861400D01*
X107309900Y-85861400D02*
X104509900Y-85861400D01*
X107959900Y-84561400D02*
X107959900Y-85161400D01*
X103859900Y-84561400D02*
G75*
G02*
X104559900Y-83861400I700000J0D01*
G01*
X104559900Y-85861400D02*
G75*
G02*
X103859900Y-85161400I0J700000D01*
G01*
X107259900Y-83861400D02*
G75*
G02*
X107959900Y-84561400I1J-699999D01*
G01*
X107959900Y-85161400D02*
G75*
G02*
X107259900Y-85861400I-699999J-1D01*
G01*
%TO.C,C21*%
X115415164Y-95177200D02*
X115630836Y-95177200D01*
X115415164Y-95897200D02*
X115630836Y-95897200D01*
%TO.C,R33*%
X139980641Y-73000600D02*
X139673359Y-73000600D01*
X139980641Y-73760600D02*
X139673359Y-73760600D01*
%TO.C,TP7*%
X113954600Y-67614800D02*
G75*
G02*
X112054600Y-67614800I-950000J0D01*
G01*
X112054600Y-67614800D02*
G75*
G02*
X113954600Y-67614800I950000J0D01*
G01*
D17*
%TO.C,J3*%
X209930000Y-65660000D02*
G75*
G02*
X209730000Y-65660000I-100000J0D01*
G01*
X209730000Y-65660000D02*
G75*
G02*
X209930000Y-65660000I100000J0D01*
G01*
D15*
%TO.C,U9*%
X167469000Y-88256000D02*
X167869000Y-88256000D01*
X167469000Y-98856000D02*
X167469000Y-88256000D01*
X167869000Y-98856000D02*
X167469000Y-98856000D01*
X189669000Y-88256000D02*
X190069000Y-88256000D01*
X189669000Y-98856000D02*
X190069000Y-98856000D01*
X190069000Y-98856000D02*
X190069000Y-88256000D01*
X167869000Y-99256000D02*
X167539000Y-99496000D01*
X167539000Y-99016000D01*
X167869000Y-99256000D01*
G36*
X167869000Y-99256000D02*
G01*
X167539000Y-99496000D01*
X167539000Y-99016000D01*
X167869000Y-99256000D01*
G37*
%TO.C,U1*%
X105659900Y-100552200D02*
X113659900Y-100552200D01*
X105669900Y-94332200D02*
X113659900Y-94332200D01*
X105429900Y-95132200D02*
X104949900Y-95132200D01*
X105429900Y-94652200D01*
X105429900Y-95132200D01*
G36*
X105429900Y-95132200D02*
G01*
X104949900Y-95132200D01*
X105429900Y-94652200D01*
X105429900Y-95132200D01*
G37*
%TO.C,C58*%
X92327000Y-127459220D02*
X92327000Y-127740380D01*
X93347000Y-127459220D02*
X93347000Y-127740380D01*
%TO.C,TP4*%
X202803800Y-52730400D02*
G75*
G02*
X200903800Y-52730400I-950000J0D01*
G01*
X200903800Y-52730400D02*
G75*
G02*
X202803800Y-52730400I950000J0D01*
G01*
%TO.C,D10*%
X202529800Y-102655000D02*
X202529800Y-104355000D01*
X202529800Y-102655000D02*
X205189800Y-102655000D01*
X202529800Y-104355000D02*
X205189800Y-104355000D01*
%TO.C,U7*%
X109728000Y-106025000D02*
X107778000Y-106025000D01*
X109728000Y-106025000D02*
X111678000Y-106025000D01*
X109728000Y-111145000D02*
X107778000Y-111145000D01*
X109728000Y-111145000D02*
X111678000Y-111145000D01*
X107028000Y-106120000D02*
X106788000Y-105790000D01*
X107268000Y-105790000D01*
X107028000Y-106120000D01*
G36*
X107028000Y-106120000D02*
G01*
X106788000Y-105790000D01*
X107268000Y-105790000D01*
X107028000Y-106120000D01*
G37*
%TO.C,C60*%
X202257252Y-56389600D02*
X201734748Y-56389600D01*
X202257252Y-57859600D02*
X201734748Y-57859600D01*
%TO.C,D11*%
X197050400Y-64429000D02*
X197050400Y-61769000D01*
X197050400Y-64429000D02*
X198750400Y-64429000D01*
X198750400Y-64429000D02*
X198750400Y-61769000D01*
%TO.C,D6*%
X125582800Y-134078000D02*
X125582800Y-136763000D01*
X127502800Y-134078000D02*
X125582800Y-134078000D01*
X127502800Y-136763000D02*
X127502800Y-134078000D01*
%TO.C,JP14*%
X163825733Y-51971400D02*
X163825733Y-49171400D01*
X164525733Y-48521400D02*
X165125733Y-48521400D01*
X165125733Y-52621400D02*
X164525733Y-52621400D01*
X165825733Y-49171400D02*
X165825733Y-51971400D01*
X163825733Y-49221400D02*
G75*
G02*
X164525733Y-48521400I700000J0D01*
G01*
X164525733Y-52621400D02*
G75*
G02*
X163825733Y-51921400I-1J699999D01*
G01*
X165125733Y-48521400D02*
G75*
G02*
X165825733Y-49221400I0J-700000D01*
G01*
X165825733Y-51921400D02*
G75*
G02*
X165125733Y-52621400I-699999J-1D01*
G01*
%TO.C,C26*%
X127000580Y-102080600D02*
X126719420Y-102080600D01*
X127000580Y-103100600D02*
X126719420Y-103100600D01*
%TO.C,SW1*%
X167987800Y-135629600D02*
X167987800Y-135749600D01*
X167987800Y-136759600D02*
X167987800Y-137899600D01*
X167987800Y-138909600D02*
X167987800Y-139029600D01*
X167987800Y-139029600D02*
X172387800Y-139029600D01*
X172387800Y-135629600D02*
X167987800Y-135629600D01*
X172387800Y-135749600D02*
X172387800Y-135629600D01*
X172387800Y-137899600D02*
X172387800Y-136759600D01*
X172387800Y-139029600D02*
X172387800Y-138909600D01*
%TO.C,Y1*%
X121095600Y-98721200D02*
X123895600Y-98721200D01*
X123895600Y-98721200D02*
X123895600Y-95421200D01*
%TO.C,J9*%
X214209200Y-119094731D02*
X214649200Y-119094731D01*
X214209200Y-120784731D02*
X214209200Y-119094731D01*
X214209200Y-125754731D02*
X212409200Y-125754731D01*
X214209200Y-125754731D02*
X214209200Y-127444731D01*
X214209200Y-127444731D02*
X214649200Y-127444731D01*
X217369200Y-127444731D02*
X217809200Y-127444731D01*
X217809200Y-119094731D02*
X217369200Y-119094731D01*
X217809200Y-127444731D02*
X217809200Y-119094731D01*
%TO.C,D9*%
X209702400Y-121731600D02*
X209052400Y-121731600D01*
X209702400Y-121731600D02*
X210352400Y-121731600D01*
X209702400Y-124851600D02*
X209052400Y-124851600D01*
X209702400Y-124851600D02*
X210352400Y-124851600D01*
X211104900Y-125131600D02*
X210624900Y-125131600D01*
X210864900Y-124801600D01*
X211104900Y-125131600D01*
G36*
X211104900Y-125131600D02*
G01*
X210624900Y-125131600D01*
X210864900Y-124801600D01*
X211104900Y-125131600D01*
G37*
%TO.C,R52*%
X126696441Y-128358800D02*
X126389159Y-128358800D01*
X126696441Y-129118800D02*
X126389159Y-129118800D01*
%TO.C,TP3*%
X194167800Y-53670200D02*
G75*
G02*
X192267800Y-53670200I-950000J0D01*
G01*
X192267800Y-53670200D02*
G75*
G02*
X194167800Y-53670200I950000J0D01*
G01*
%TO.C,C53*%
X90031148Y-116171200D02*
X90553652Y-116171200D01*
X90031148Y-117641200D02*
X90553652Y-117641200D01*
%TO.C,C57*%
X86355600Y-117506636D02*
X86355600Y-117290964D01*
X87075600Y-117506636D02*
X87075600Y-117290964D01*
%TO.C,SW4*%
X135045640Y-135629600D02*
X135045640Y-135749600D01*
X135045640Y-136759600D02*
X135045640Y-137899600D01*
X135045640Y-138909600D02*
X135045640Y-139029600D01*
X135045640Y-139029600D02*
X139445640Y-139029600D01*
X139445640Y-135629600D02*
X135045640Y-135629600D01*
X139445640Y-135749600D02*
X139445640Y-135629600D01*
X139445640Y-137899600D02*
X139445640Y-136759600D01*
X139445640Y-139029600D02*
X139445640Y-138909600D01*
%TO.C,R12*%
X206907159Y-63780400D02*
X207214441Y-63780400D01*
X206907159Y-64540400D02*
X207214441Y-64540400D01*
%TO.C,R37*%
X88271300Y-114400258D02*
X88271300Y-113925742D01*
X89316300Y-114400258D02*
X89316300Y-113925742D01*
%TO.C,R17*%
X127102600Y-98858041D02*
X127102600Y-98550759D01*
X127862600Y-98858041D02*
X127862600Y-98550759D01*
%TO.C,R32*%
X113749800Y-107036359D02*
X113749800Y-107343641D01*
X114509800Y-107036359D02*
X114509800Y-107343641D01*
%TO.C,R26*%
X124683300Y-56704841D02*
X124683300Y-56397559D01*
X125443300Y-56704841D02*
X125443300Y-56397559D01*
%TO.C,RN6*%
X153593732Y-59829400D02*
X153593732Y-58829400D01*
X156953732Y-59829400D02*
X156953732Y-58829400D01*
%TO.C,C61*%
X194732000Y-69339548D02*
X194732000Y-69862052D01*
X196202000Y-69339548D02*
X196202000Y-69862052D01*
%TO.C,R41*%
X191195800Y-69447159D02*
X191195800Y-69754441D01*
X191955800Y-69447159D02*
X191955800Y-69754441D01*
%TO.C,R21*%
X182380959Y-62443980D02*
X182688241Y-62443980D01*
X182380959Y-63203980D02*
X182688241Y-63203980D01*
%TO.C,RN4*%
X146160000Y-59829400D02*
X146160000Y-58829400D01*
X149520000Y-59829400D02*
X149520000Y-58829400D01*
%TO.C,R44*%
X198619800Y-76630559D02*
X198619800Y-76937841D01*
X199379800Y-76630559D02*
X199379800Y-76937841D01*
%TO.C,C4*%
X125433600Y-93681436D02*
X125433600Y-93465764D01*
X126153600Y-93681436D02*
X126153600Y-93465764D01*
%TO.C,JP2*%
X122526000Y-51931800D02*
X122526000Y-50531800D01*
X123226000Y-49831800D02*
X123826000Y-49831800D01*
X123826000Y-52631800D02*
X123226000Y-52631800D01*
X124526000Y-50531800D02*
X124526000Y-51931800D01*
X122526000Y-50531800D02*
G75*
G02*
X123226000Y-49831800I699999J1D01*
G01*
X123226000Y-52631800D02*
G75*
G02*
X122526000Y-51931800I0J700000D01*
G01*
X123826000Y-49831800D02*
G75*
G02*
X124526000Y-50531800I1J-699999D01*
G01*
X124526000Y-51931800D02*
G75*
G02*
X123826000Y-52631800I-700000J0D01*
G01*
D16*
%TO.C,U6*%
X92266200Y-89497599D02*
X92266200Y-89751599D01*
X92266200Y-92240799D02*
X92266200Y-92494799D01*
X92266200Y-92494799D02*
X92520200Y-92494799D01*
X92520200Y-89497599D02*
X92266200Y-89497599D01*
X95009400Y-92494799D02*
X95263400Y-92494799D01*
X95263400Y-89497599D02*
X95009400Y-89497599D01*
X95263400Y-89751599D02*
X95263400Y-89497599D01*
X95263400Y-92494799D02*
X95263400Y-92240799D01*
D17*
X96226603Y-92196199D02*
G75*
G02*
X96002997Y-92196199I-111803J0D01*
G01*
X96002997Y-92196199D02*
G75*
G02*
X96226603Y-92196199I111803J0D01*
G01*
D15*
%TO.C,C41*%
X123583400Y-88145764D02*
X123583400Y-88361436D01*
X124303400Y-88145764D02*
X124303400Y-88361436D01*
%TO.C,R20*%
X181940959Y-69940060D02*
X182248241Y-69940060D01*
X181940959Y-70700060D02*
X182248241Y-70700060D01*
%TO.C,R39*%
X202589641Y-58471800D02*
X202282359Y-58471800D01*
X202589641Y-59231800D02*
X202282359Y-59231800D01*
%TO.C,R1*%
X103916200Y-96200841D02*
X103916200Y-95893559D01*
X104676200Y-96200841D02*
X104676200Y-95893559D01*
%TO.C,J14*%
X173779200Y-46824374D02*
X187919200Y-46824374D01*
X173779200Y-47934374D02*
X173779200Y-46824374D01*
X174804200Y-47934374D02*
X173779200Y-47934374D01*
X174804200Y-48474374D02*
X174804200Y-47934374D01*
X177784200Y-52444374D02*
X176959200Y-52444374D01*
X183914200Y-52444374D02*
X183914200Y-54244374D01*
X184739200Y-52444374D02*
X183914200Y-52444374D01*
X186894200Y-47934374D02*
X186894200Y-48474374D01*
X187919200Y-46824374D02*
X187919200Y-47934374D01*
X187919200Y-47934374D02*
X186894200Y-47934374D01*
%TO.C,C25*%
X158783600Y-103465764D02*
X158783600Y-103681436D01*
X159503600Y-103465764D02*
X159503600Y-103681436D01*
%TO.C,R51*%
X126389159Y-127102600D02*
X126696441Y-127102600D01*
X126389159Y-127862600D02*
X126696441Y-127862600D01*
%TO.C,C19*%
X125489580Y-103630000D02*
X125208420Y-103630000D01*
X125489580Y-104650000D02*
X125208420Y-104650000D01*
%TO.C,D2*%
X205500800Y-61270000D02*
X205500800Y-62540000D01*
X208620800Y-62570000D02*
X208620800Y-61270000D01*
X205550800Y-62920000D02*
X205220800Y-63160000D01*
X205220800Y-62680000D01*
X205550800Y-62920000D01*
G36*
X205550800Y-62920000D02*
G01*
X205220800Y-63160000D01*
X205220800Y-62680000D01*
X205550800Y-62920000D01*
G37*
%TO.C,D15*%
X213528400Y-91276165D02*
X216213400Y-91276165D01*
X216213400Y-89356165D02*
X213528400Y-89356165D01*
X216213400Y-91276165D02*
X216213400Y-89356165D01*
%TO.C,D13*%
X213528400Y-88936883D02*
X216213400Y-88936883D01*
X216213400Y-87016883D02*
X213528400Y-87016883D01*
X216213400Y-88936883D02*
X216213400Y-87016883D01*
%TO.C,C64*%
X138418180Y-53541200D02*
X138137020Y-53541200D01*
X138418180Y-54561200D02*
X138137020Y-54561200D01*
%TO.C,C68*%
X89941600Y-127196964D02*
X89941600Y-127412636D01*
X90661600Y-127196964D02*
X90661600Y-127412636D01*
%TO.C,D8*%
X132690300Y-48936400D02*
X128680300Y-48936400D01*
X132690300Y-50936400D02*
X128680300Y-50936400D01*
X132690300Y-50936400D02*
X132690300Y-48936400D01*
%TO.C,D12*%
X188787000Y-67935800D02*
X188787000Y-70620800D01*
X190707000Y-67935800D02*
X188787000Y-67935800D01*
X190707000Y-70620800D02*
X190707000Y-67935800D01*
%TO.C,C6*%
X133576436Y-109888600D02*
X133360764Y-109888600D01*
X133576436Y-110608600D02*
X133360764Y-110608600D01*
%TO.C,JP4*%
X128952800Y-60371000D02*
X128952800Y-59771000D01*
X129652800Y-59071000D02*
X131052800Y-59071000D01*
X131052800Y-61071000D02*
X129652800Y-61071000D01*
X131752800Y-59771000D02*
X131752800Y-60371000D01*
X128952800Y-59771000D02*
G75*
G02*
X129652800Y-59071000I700000J0D01*
G01*
X129652800Y-61071000D02*
G75*
G02*
X128952800Y-60371000I0J700000D01*
G01*
X131052800Y-59071000D02*
G75*
G02*
X131752800Y-59771000I1J-699999D01*
G01*
X131752800Y-60371000D02*
G75*
G02*
X131052800Y-61071000I-699999J-1D01*
G01*
%TO.C,Q3*%
X124895300Y-131445000D02*
X124895300Y-130795000D01*
X124895300Y-131445000D02*
X124895300Y-132095000D01*
X128015300Y-131445000D02*
X128015300Y-130795000D01*
X128015300Y-131445000D02*
X128015300Y-132095000D01*
X128295300Y-130522500D02*
X127965300Y-130282500D01*
X128295300Y-130042500D01*
X128295300Y-130522500D01*
G36*
X128295300Y-130522500D02*
G01*
X127965300Y-130282500D01*
X128295300Y-130042500D01*
X128295300Y-130522500D01*
G37*
D10*
%TO.C,J2*%
X137094000Y-49163000D02*
X137094000Y-52988000D01*
X159019000Y-47088000D02*
X138669000Y-47088000D01*
X160594000Y-49163000D02*
X160594000Y-52988000D01*
X160594000Y-52988000D02*
X137094000Y-52988000D01*
D12*
X158719000Y-53438000D02*
G75*
G02*
X158469000Y-53438000I-125000J0D01*
G01*
X158469000Y-53438000D02*
G75*
G02*
X158719000Y-53438000I125000J0D01*
G01*
D14*
%TO.C,J4*%
X98161700Y-48084374D02*
X98161700Y-48884374D01*
X98161700Y-48084374D02*
X98661700Y-48084374D01*
X98161700Y-51074374D02*
X98161700Y-52174374D01*
X98161700Y-52174374D02*
X100661700Y-52174374D01*
X98661700Y-46984374D02*
X98661700Y-48084374D01*
X114561700Y-52174374D02*
X117061700Y-52174374D01*
X116561700Y-46984374D02*
X98661700Y-46984374D01*
X116561700Y-46984374D02*
X116561700Y-48084374D01*
X116561700Y-48084374D02*
X117061700Y-48084374D01*
X117061700Y-48084374D02*
X117061700Y-48884374D01*
X117061700Y-51074374D02*
X117061700Y-52174374D01*
D15*
%TO.C,C38*%
X168009000Y-102678164D02*
X168009000Y-102893836D01*
X168729000Y-102678164D02*
X168729000Y-102893836D01*
%TO.C,C47*%
X133223900Y-50570820D02*
X133223900Y-50851980D01*
X134243900Y-50570820D02*
X134243900Y-50851980D01*
%TO.C,R27*%
X123140200Y-56704841D02*
X123140200Y-56397559D01*
X123900200Y-56704841D02*
X123900200Y-56397559D01*
%TO.C,C66*%
X101484820Y-55319200D02*
X101765980Y-55319200D01*
X101484820Y-56339200D02*
X101765980Y-56339200D01*
%TO.C,C65*%
X181983620Y-55547800D02*
X182264780Y-55547800D01*
X181983620Y-56567800D02*
X182264780Y-56567800D01*
%TO.C,C24*%
X168484964Y-134065800D02*
X168700636Y-134065800D01*
X168484964Y-134785800D02*
X168700636Y-134785800D01*
%TO.C,R5*%
X104831641Y-106300000D02*
X104524359Y-106300000D01*
X104831641Y-107060000D02*
X104524359Y-107060000D01*
%TO.C,TP6*%
X120482400Y-57048400D02*
G75*
G02*
X118582400Y-57048400I-950000J0D01*
G01*
X118582400Y-57048400D02*
G75*
G02*
X120482400Y-57048400I950000J0D01*
G01*
%TO.C,R11*%
X207126941Y-59335400D02*
X206819659Y-59335400D01*
X207126941Y-60095400D02*
X206819659Y-60095400D01*
%TO.C,C11*%
X125433600Y-84951436D02*
X125433600Y-84735764D01*
X126153600Y-84951436D02*
X126153600Y-84735764D01*
%TO.C,R18*%
X157488439Y-134045800D02*
X157795721Y-134045800D01*
X157488439Y-134805800D02*
X157795721Y-134805800D01*
%TO.C,C30*%
X182273348Y-71200420D02*
X182795852Y-71200420D01*
X182273348Y-72670420D02*
X182795852Y-72670420D01*
%TO.C,R47*%
X211377559Y-89936166D02*
X211684841Y-89936166D01*
X211377559Y-90696166D02*
X211684841Y-90696166D01*
%TO.C,C43*%
X204957000Y-53691952D02*
X204957000Y-52269448D01*
X206777000Y-53691952D02*
X206777000Y-52269448D01*
%TO.C,RN2*%
X135009402Y-59829400D02*
X135009402Y-58829400D01*
X138369402Y-59829400D02*
X138369402Y-58829400D01*
%TO.C,R38*%
X86676900Y-114400258D02*
X86676900Y-113925742D01*
X87721900Y-114400258D02*
X87721900Y-113925742D01*
%TO.C,C34*%
X159573600Y-83985980D02*
X159573600Y-83704820D01*
X160593600Y-83985980D02*
X160593600Y-83704820D01*
%TO.C,C42*%
X123583400Y-86001436D02*
X123583400Y-85785764D01*
X124303400Y-86001436D02*
X124303400Y-85785764D01*
%TO.C,C2*%
X178076836Y-101946000D02*
X177861164Y-101946000D01*
X178076836Y-102666000D02*
X177861164Y-102666000D01*
%TO.C,C55*%
X93539364Y-119060800D02*
X93755036Y-119060800D01*
X93539364Y-119780800D02*
X93755036Y-119780800D01*
%TO.C,J8*%
X80362200Y-87551799D02*
X80362200Y-93401799D01*
X80362200Y-93401799D02*
X80802200Y-93401799D01*
X80802200Y-87551799D02*
X80362200Y-87551799D01*
X83962200Y-87551799D02*
X83522200Y-87551799D01*
X83962200Y-89241799D02*
X83962200Y-87551799D01*
X83962200Y-89241799D02*
X85762200Y-89241799D01*
X83962200Y-91711799D02*
X83962200Y-93401799D01*
X83962200Y-93401799D02*
X83522200Y-93401799D01*
D16*
%TO.C,U12*%
X202823406Y-80578200D02*
G75*
G02*
X202376194Y-80578200I-223606J0D01*
G01*
X202376194Y-80578200D02*
G75*
G02*
X202823406Y-80578200I223606J0D01*
G01*
X202741219Y-80578200D02*
G75*
G02*
X202458381Y-80578200I-141419J0D01*
G01*
X202458381Y-80578200D02*
G75*
G02*
X202741219Y-80578200I141419J0D01*
G01*
X202699800Y-80578200D02*
G75*
G02*
X202499800Y-80578200I-100000J0D01*
G01*
X202499800Y-80578200D02*
G75*
G02*
X202699800Y-80578200I100000J0D01*
G01*
X202799800Y-80578200D02*
G75*
G02*
X202599800Y-80578200I-100000J0D01*
G01*
X202599800Y-80578200D02*
G75*
G02*
X202799800Y-80578200I100000J0D01*
G01*
D15*
%TO.C,C1*%
X188809000Y-102678164D02*
X188809000Y-102893836D01*
X189529000Y-102678164D02*
X189529000Y-102893836D01*
%TO.C,Q1*%
X206248000Y-87674024D02*
X205598000Y-87674024D01*
X206248000Y-87674024D02*
X206898000Y-87674024D01*
X206248000Y-90794024D02*
X205598000Y-90794024D01*
X206248000Y-90794024D02*
X206898000Y-90794024D01*
X205085500Y-87724024D02*
X204845500Y-87394024D01*
X205325500Y-87394024D01*
X205085500Y-87724024D01*
G36*
X205085500Y-87724024D02*
G01*
X204845500Y-87394024D01*
X205325500Y-87394024D01*
X205085500Y-87724024D01*
G37*
%TO.C,R42*%
X201219800Y-76630559D02*
X201219800Y-76937841D01*
X201979800Y-76630559D02*
X201979800Y-76937841D01*
%TO.C,C17*%
X125433600Y-89681436D02*
X125433600Y-89465764D01*
X126153600Y-89681436D02*
X126153600Y-89465764D01*
%TO.C,C16*%
X158783600Y-97695764D02*
X158783600Y-97911436D01*
X159503600Y-97695764D02*
X159503600Y-97911436D01*
%TO.C,Q2*%
X118011900Y-131445000D02*
X118011900Y-130795000D01*
X118011900Y-131445000D02*
X118011900Y-132095000D01*
X121131900Y-131445000D02*
X121131900Y-130795000D01*
X121131900Y-131445000D02*
X121131900Y-132095000D01*
X121411900Y-130522500D02*
X121081900Y-130282500D01*
X121411900Y-130042500D01*
X121411900Y-130522500D01*
G36*
X121411900Y-130522500D02*
G01*
X121081900Y-130282500D01*
X121411900Y-130042500D01*
X121411900Y-130522500D01*
G37*
%TO.C,R24*%
X127966200Y-135896641D02*
X127966200Y-135589359D01*
X128726200Y-135896641D02*
X128726200Y-135589359D01*
%TO.C,JP5*%
X111490500Y-113952200D02*
X111490500Y-112552200D01*
X112190500Y-111852200D02*
X112790500Y-111852200D01*
X112790500Y-114652200D02*
X112190500Y-114652200D01*
X113490500Y-112552200D02*
X113490500Y-113952200D01*
X111490500Y-112552200D02*
G75*
G02*
X112190500Y-111852200I699999J1D01*
G01*
X112190500Y-114652200D02*
G75*
G02*
X111490500Y-113952200I0J700000D01*
G01*
X112790500Y-111852200D02*
G75*
G02*
X113490500Y-112552200I1J-699999D01*
G01*
X113490500Y-113952200D02*
G75*
G02*
X112790500Y-114652200I-700000J0D01*
G01*
%TO.C,JP1*%
X125378150Y-51931800D02*
X125378150Y-50531800D01*
X126078150Y-49831800D02*
X126678150Y-49831800D01*
X126678150Y-52631800D02*
X126078150Y-52631800D01*
X127378150Y-50531800D02*
X127378150Y-51931800D01*
X125378150Y-50531800D02*
G75*
G02*
X126078150Y-49831800I699999J1D01*
G01*
X126078150Y-52631800D02*
G75*
G02*
X125378150Y-51931800I0J700000D01*
G01*
X126678150Y-49831800D02*
G75*
G02*
X127378150Y-50531800I1J-699999D01*
G01*
X127378150Y-51931800D02*
G75*
G02*
X126678150Y-52631800I-700000J0D01*
G01*
%TO.C,U10*%
X85291600Y-122283300D02*
X85291600Y-120083300D01*
X85291600Y-122283300D02*
X85291600Y-124483300D01*
X92061600Y-122283300D02*
X92061600Y-120083300D01*
X92061600Y-122283300D02*
X92061600Y-124483300D01*
X91601600Y-118423300D02*
X91361600Y-118093300D01*
X91841600Y-118093300D01*
X91601600Y-118423300D01*
G36*
X91601600Y-118423300D02*
G01*
X91361600Y-118093300D01*
X91841600Y-118093300D01*
X91601600Y-118423300D01*
G37*
%TO.C,L2*%
X130954864Y-51802200D02*
X129750736Y-51802200D01*
X130954864Y-54522200D02*
X129750736Y-54522200D01*
%TO.C,C52*%
X89523148Y-110761000D02*
X90045652Y-110761000D01*
X89523148Y-112231000D02*
X90045652Y-112231000D01*
%TO.C,D5*%
X118699400Y-134078000D02*
X118699400Y-136763000D01*
X120619400Y-134078000D02*
X118699400Y-134078000D01*
X120619400Y-136763000D02*
X120619400Y-134078000D01*
%TO.C,R2*%
X103916200Y-88580841D02*
X103916200Y-88273559D01*
X104676200Y-88580841D02*
X104676200Y-88273559D01*
%TO.C,JP9*%
X114043000Y-85561400D02*
X114043000Y-84161400D01*
X114743000Y-83461400D02*
X115343000Y-83461400D01*
X115343000Y-86261400D02*
X114743000Y-86261400D01*
X116043000Y-84161400D02*
X116043000Y-85561400D01*
X114043000Y-84161400D02*
G75*
G02*
X114743000Y-83461400I700000J0D01*
G01*
X114743000Y-86261400D02*
G75*
G02*
X114043000Y-85561400I-1J699999D01*
G01*
X115343000Y-83461400D02*
G75*
G02*
X116043000Y-84161400I0J-700000D01*
G01*
X116043000Y-85561400D02*
G75*
G02*
X115343000Y-86261400I-699999J-1D01*
G01*
%TO.C,R10*%
X98451641Y-64724200D02*
X98144359Y-64724200D01*
X98451641Y-65484200D02*
X98144359Y-65484200D01*
%TO.C,RN3*%
X142443134Y-59829400D02*
X142443134Y-58829400D01*
X145803134Y-59829400D02*
X145803134Y-58829400D01*
%TO.C,C35*%
X150853020Y-109477600D02*
X151134180Y-109477600D01*
X150853020Y-110497600D02*
X151134180Y-110497600D01*
%TO.C,R49*%
X119505759Y-127102600D02*
X119813041Y-127102600D01*
X119505759Y-127862600D02*
X119813041Y-127862600D01*
%TO.C,SW2*%
X157007080Y-135629600D02*
X157007080Y-135749600D01*
X157007080Y-136759600D02*
X157007080Y-137899600D01*
X157007080Y-138909600D02*
X157007080Y-139029600D01*
X157007080Y-139029600D02*
X161407080Y-139029600D01*
X161407080Y-135629600D02*
X157007080Y-135629600D01*
X161407080Y-135749600D02*
X161407080Y-135629600D01*
X161407080Y-137899600D02*
X161407080Y-136759600D01*
X161407080Y-139029600D02*
X161407080Y-138909600D01*
%TO.C,C48*%
X133415520Y-55251200D02*
X133696680Y-55251200D01*
X133415520Y-56271200D02*
X133696680Y-56271200D01*
%TO.C,C62*%
X192432000Y-69339548D02*
X192432000Y-69862052D01*
X193902000Y-69339548D02*
X193902000Y-69862052D01*
%TO.C,JP13*%
X166439366Y-51971400D02*
X166439366Y-49171400D01*
X167139366Y-48521400D02*
X167739366Y-48521400D01*
X167739366Y-52621400D02*
X167139366Y-52621400D01*
X168439366Y-49171400D02*
X168439366Y-51971400D01*
X166439366Y-49221400D02*
G75*
G02*
X167139366Y-48521400I700000J0D01*
G01*
X167139366Y-52621400D02*
G75*
G02*
X166439366Y-51921400I-1J699999D01*
G01*
X167739366Y-48521400D02*
G75*
G02*
X168439366Y-49221400I0J-700000D01*
G01*
X168439366Y-51921400D02*
G75*
G02*
X167739366Y-52621400I-699999J-1D01*
G01*
%TO.C,RN1*%
X138726268Y-59829400D02*
X138726268Y-58829400D01*
X142086268Y-59829400D02*
X142086268Y-58829400D01*
%TO.C,C3*%
X173676836Y-101946000D02*
X173461164Y-101946000D01*
X173676836Y-102666000D02*
X173461164Y-102666000D01*
%TO.C,R30*%
X104831641Y-110110000D02*
X104524359Y-110110000D01*
X104831641Y-110870000D02*
X104524359Y-110870000D01*
%TD*%
M02*
