M48
; DRILL file {KiCad 8.0.1} date 2024-07-11T11:53:26+0700
; FORMAT={-:-/ absolute / inch / decimal}
; #@! TF.CreationDate,2024-07-11T11:53:26+07:00
; #@! TF.GenerationSoftware,Kicad,Pcbnew,8.0.1
; #@! TF.FileFunction,Plated,1,4,PTH
FMAT,2
INCH
; #@! TA.AperFunction,Plated,PTH,ViaDrill
T1C0.0098
; #@! TA.AperFunction,Plated,PTH,ComponentDrill
T2C0.0197
; #@! TA.AperFunction,Plated,PTH,ComponentDrill
T3C0.0236
; #@! TA.AperFunction,Plated,PTH,ComponentDrill
T4C0.0374
; #@! TA.AperFunction,Plated,PTH,ComponentDrill
T5C0.0906
; #@! TA.AperFunction,Plated,PTH,ComponentDrill
T6C0.1260
%
G90
G05
T1
X4.7375Y-3.8234
X4.7755Y-3.8234
X4.9935Y-3.8234
X5.0315Y-3.8234
X5.1905Y-3.8234
X5.2285Y-3.8234
T2
X2.051Y-1.603
X2.0787Y-1.5362
X2.0787Y-1.6698
X2.0795Y-5.855
X2.1072Y-5.7882
X2.1072Y-5.9218
X2.1455Y-1.5085
X2.1455Y-1.6975
X2.174Y-5.7605
X2.174Y-5.9495
X2.2123Y-1.5362
X2.2123Y-1.6698
X2.24Y-1.603
X2.2408Y-5.7882
X2.2408Y-5.9218
X2.2685Y-5.855
X8.9185Y-5.885
X8.9462Y-5.8182
X8.9462Y-5.9518
X8.9533Y-1.6122
X8.981Y-1.5454
X8.981Y-1.679
X9.013Y-5.7905
X9.013Y-5.9795
X9.0478Y-1.5177
X9.0478Y-1.7067
X9.0798Y-5.8182
X9.0798Y-5.9518
X9.1075Y-5.885
X9.1146Y-1.5454
X9.1146Y-1.679
X9.1423Y-1.6122
T4
X7.3022Y-5.525
X7.4006Y-5.525
X7.4794Y-5.525
X7.5778Y-5.525
T5
X7.1813Y-5.6317
X7.6987Y-5.6317
T6
X2.1455Y-1.603
X2.174Y-5.855
X9.013Y-5.885
X9.0478Y-1.6122
T3
G00X7.9279Y-5.6833
M15
G01X7.9279Y-5.7266
M16
G05
G00X7.9279Y-5.8546
M15
G01X7.9279Y-5.8861
M16
G05
G00X8.2681Y-5.6833
M15
G01X8.2681Y-5.7266
M16
G05
G00X8.2681Y-5.8546
M15
G01X8.2681Y-5.8861
M16
G05
M30
