%TF.GenerationSoftware,KiCad,Pcbnew,8.0.1*%
%TF.CreationDate,2024-07-11T11:53:29+07:00*%
%TF.ProjectId,chroma-pixel-zeta,6368726f-6d61-42d7-9069-78656c2d7a65,rev?*%
%TF.SameCoordinates,Original*%
%TF.FileFunction,Soldermask,Bot*%
%TF.FilePolarity,Negative*%
%FSLAX46Y46*%
G04 Gerber Fmt 4.6, Leading zero omitted, Abs format (unit mm)*
G04 Created by KiCad (PCBNEW 8.0.1) date 2024-07-11 11:53:29*
%MOMM*%
%LPD*%
G01*
G04 APERTURE LIST*
%ADD10C,0.800000*%
%ADD11C,6.400000*%
%ADD12R,1.600000X1.500000*%
%ADD13C,1.600000*%
%ADD14C,3.000000*%
%ADD15C,0.650000*%
%ADD16O,1.000000X2.100000*%
%ADD17O,1.000000X1.800000*%
%ADD18C,1.700000*%
G04 APERTURE END LIST*
D10*
%TO.C,H3*%
X56896000Y-40716200D03*
X56193056Y-42413256D03*
X56193056Y-39019144D03*
X54496000Y-43116200D03*
D11*
X54496000Y-40716200D03*
D10*
X54496000Y-38316200D03*
X52798944Y-42413256D03*
X52798944Y-39019144D03*
X52096000Y-40716200D03*
%TD*%
%TO.C,H4*%
X57619600Y-148717000D03*
X56916656Y-150414056D03*
X56916656Y-147019944D03*
X55219600Y-151117000D03*
D11*
X55219600Y-148717000D03*
D10*
X55219600Y-146317000D03*
X53522544Y-150414056D03*
X53522544Y-147019944D03*
X52819600Y-148717000D03*
%TD*%
D12*
%TO.C,J12*%
X185476000Y-140334400D03*
D13*
X187976000Y-140334400D03*
X189976000Y-140334400D03*
X192476000Y-140334400D03*
D14*
X182406000Y-143044400D03*
X195546000Y-143044400D03*
%TD*%
D15*
%TO.C,J4*%
X202799200Y-145426200D03*
X208579200Y-145426200D03*
D16*
X201369200Y-144906200D03*
D17*
X201369200Y-149106200D03*
D16*
X210009200Y-144906200D03*
D17*
X210009200Y-149106200D03*
%TD*%
D18*
%TO.C,J11*%
X54396000Y-97510600D03*
X61396000Y-97510600D03*
%TD*%
D10*
%TO.C,H1*%
X232214456Y-40949544D03*
X231511512Y-42646600D03*
X231511512Y-39252488D03*
X229814456Y-43349544D03*
D11*
X229814456Y-40949544D03*
D10*
X229814456Y-38549544D03*
X228117400Y-42646600D03*
X228117400Y-39252488D03*
X227414456Y-40949544D03*
%TD*%
%TO.C,H2*%
X231330200Y-149479000D03*
X230627256Y-151176056D03*
X230627256Y-147781944D03*
X228930200Y-151879000D03*
D11*
X228930200Y-149479000D03*
D10*
X228930200Y-147079000D03*
X227233144Y-151176056D03*
X227233144Y-147781944D03*
X226530200Y-149479000D03*
%TD*%
M02*
