%TF.GenerationSoftware,KiCad,Pcbnew,8.0.1*%
%TF.CreationDate,2024-07-11T11:53:29+07:00*%
%TF.ProjectId,chroma-pixel-zeta,6368726f-6d61-42d7-9069-78656c2d7a65,rev?*%
%TF.SameCoordinates,Original*%
%TF.FileFunction,Soldermask,Top*%
%TF.FilePolarity,Negative*%
%FSLAX46Y46*%
G04 Gerber Fmt 4.6, Leading zero omitted, Abs format (unit mm)*
G04 Created by KiCad (PCBNEW 8.0.1) date 2024-07-11 11:53:29*
%MOMM*%
%LPD*%
G01*
G04 APERTURE LIST*
G04 Aperture macros list*
%AMRoundRect*
0 Rectangle with rounded corners*
0 $1 Rounding radius*
0 $2 $3 $4 $5 $6 $7 $8 $9 X,Y pos of 4 corners*
0 Add a 4 corners polygon primitive as box body*
4,1,4,$2,$3,$4,$5,$6,$7,$8,$9,$2,$3,0*
0 Add four circle primitives for the rounded corners*
1,1,$1+$1,$2,$3*
1,1,$1+$1,$4,$5*
1,1,$1+$1,$6,$7*
1,1,$1+$1,$8,$9*
0 Add four rect primitives between the rounded corners*
20,1,$1+$1,$2,$3,$4,$5,0*
20,1,$1+$1,$4,$5,$6,$7,0*
20,1,$1+$1,$6,$7,$8,$9,0*
20,1,$1+$1,$8,$9,$2,$3,0*%
%AMFreePoly0*
4,1,19,0.500000,-0.750000,0.000000,-0.750000,0.000000,-0.744911,-0.071157,-0.744911,-0.207708,-0.704816,-0.327430,-0.627875,-0.420627,-0.520320,-0.479746,-0.390866,-0.500000,-0.250000,-0.500000,0.250000,-0.479746,0.390866,-0.420627,0.520320,-0.327430,0.627875,-0.207708,0.704816,-0.071157,0.744911,0.000000,0.744911,0.000000,0.750000,0.500000,0.750000,0.500000,-0.750000,0.500000,-0.750000,
$1*%
%AMFreePoly1*
4,1,19,0.000000,0.744911,0.071157,0.744911,0.207708,0.704816,0.327430,0.627875,0.420627,0.520320,0.479746,0.390866,0.500000,0.250000,0.500000,-0.250000,0.479746,-0.390866,0.420627,-0.520320,0.327430,-0.627875,0.207708,-0.704816,0.071157,-0.744911,0.000000,-0.744911,0.000000,-0.750000,-0.500000,-0.750000,-0.500000,0.750000,0.000000,0.750000,0.000000,0.744911,0.000000,0.744911,
$1*%
G04 Aperture macros list end*
%ADD10R,0.610000X2.000000*%
%ADD11R,2.680000X3.600000*%
%ADD12R,1.780000X5.080000*%
%ADD13R,3.960000X3.960000*%
%ADD14RoundRect,0.150000X-0.512500X-0.150000X0.512500X-0.150000X0.512500X0.150000X-0.512500X0.150000X0*%
%ADD15RoundRect,0.135000X-0.135000X-0.185000X0.135000X-0.185000X0.135000X0.185000X-0.135000X0.185000X0*%
%ADD16RoundRect,0.243750X-0.243750X-0.456250X0.243750X-0.456250X0.243750X0.456250X-0.243750X0.456250X0*%
%ADD17RoundRect,0.112500X-0.187500X-0.112500X0.187500X-0.112500X0.187500X0.112500X-0.187500X0.112500X0*%
%ADD18RoundRect,0.250000X-0.250000X-0.475000X0.250000X-0.475000X0.250000X0.475000X-0.250000X0.475000X0*%
%ADD19C,0.800000*%
%ADD20C,6.400000*%
%ADD21RoundRect,0.140000X-0.170000X0.140000X-0.170000X-0.140000X0.170000X-0.140000X0.170000X0.140000X0*%
%ADD22RoundRect,0.135000X-0.185000X0.135000X-0.185000X-0.135000X0.185000X-0.135000X0.185000X0.135000X0*%
%ADD23RoundRect,0.140000X0.170000X-0.140000X0.170000X0.140000X-0.170000X0.140000X-0.170000X-0.140000X0*%
%ADD24RoundRect,0.140000X-0.140000X-0.170000X0.140000X-0.170000X0.140000X0.170000X-0.140000X0.170000X0*%
%ADD25RoundRect,0.140000X0.140000X0.170000X-0.140000X0.170000X-0.140000X-0.170000X0.140000X-0.170000X0*%
%ADD26RoundRect,0.102000X0.300000X0.775000X-0.300000X0.775000X-0.300000X-0.775000X0.300000X-0.775000X0*%
%ADD27RoundRect,0.102000X-0.600000X-0.900000X0.600000X-0.900000X0.600000X0.900000X-0.600000X0.900000X0*%
%ADD28RoundRect,0.135000X0.135000X0.185000X-0.135000X0.185000X-0.135000X-0.185000X0.135000X-0.185000X0*%
%ADD29R,1.600000X1.500000*%
%ADD30C,1.600000*%
%ADD31C,3.000000*%
%ADD32R,1.100000X0.600000*%
%ADD33C,0.650000*%
%ADD34R,0.600000X1.240000*%
%ADD35R,0.300000X1.240000*%
%ADD36O,1.000000X2.100000*%
%ADD37O,1.000000X1.800000*%
%ADD38RoundRect,0.150000X0.512500X0.150000X-0.512500X0.150000X-0.512500X-0.150000X0.512500X-0.150000X0*%
%ADD39FreePoly0,0.000000*%
%ADD40FreePoly1,0.000000*%
%ADD41RoundRect,0.225000X-0.225000X-0.250000X0.225000X-0.250000X0.225000X0.250000X-0.225000X0.250000X0*%
%ADD42R,0.740000X2.400000*%
%ADD43RoundRect,0.243750X-0.456250X0.243750X-0.456250X-0.243750X0.456250X-0.243750X0.456250X0.243750X0*%
%ADD44RoundRect,0.135000X0.185000X-0.135000X0.185000X0.135000X-0.185000X0.135000X-0.185000X-0.135000X0*%
%ADD45RoundRect,0.125000X-0.200000X-0.125000X0.200000X-0.125000X0.200000X0.125000X-0.200000X0.125000X0*%
%ADD46R,3.400000X4.300000*%
%ADD47R,0.450000X0.700000*%
%ADD48RoundRect,0.075000X-0.675000X-0.075000X0.675000X-0.075000X0.675000X0.075000X-0.675000X0.075000X0*%
%ADD49RoundRect,0.075000X-0.075000X-0.675000X0.075000X-0.675000X0.075000X0.675000X-0.075000X0.675000X0*%
%ADD50RoundRect,0.250000X-0.262500X-0.450000X0.262500X-0.450000X0.262500X0.450000X-0.262500X0.450000X0*%
%ADD51RoundRect,0.250000X0.475000X-0.250000X0.475000X0.250000X-0.475000X0.250000X-0.475000X-0.250000X0*%
%ADD52RoundRect,0.100000X0.225000X0.100000X-0.225000X0.100000X-0.225000X-0.100000X0.225000X-0.100000X0*%
%ADD53FreePoly0,180.000000*%
%ADD54FreePoly1,180.000000*%
%ADD55RoundRect,0.225000X-0.250000X0.225000X-0.250000X-0.225000X0.250000X-0.225000X0.250000X0.225000X0*%
%ADD56R,0.650000X1.050000*%
%ADD57C,1.700000*%
%ADD58R,2.200000X2.800000*%
%ADD59R,2.800000X2.800000*%
%ADD60R,0.458000X1.510000*%
%ADD61RoundRect,0.150000X-0.825000X-0.150000X0.825000X-0.150000X0.825000X0.150000X-0.825000X0.150000X0*%
%ADD62R,1.000000X1.150000*%
%ADD63R,0.700000X1.800000*%
%ADD64R,1.600000X2.200000*%
%ADD65RoundRect,0.150000X-0.150000X0.587500X-0.150000X-0.587500X0.150000X-0.587500X0.150000X0.587500X0*%
%ADD66RoundRect,0.200000X-0.200000X-0.275000X0.200000X-0.275000X0.200000X0.275000X-0.200000X0.275000X0*%
%ADD67RoundRect,0.033180X0.498820X0.203820X-0.498820X0.203820X-0.498820X-0.203820X0.498820X-0.203820X0*%
%ADD68RoundRect,0.033180X-0.203820X0.498820X-0.203820X-0.498820X0.203820X-0.498820X0.203820X0.498820X0*%
%ADD69RoundRect,0.033180X-0.498820X-0.203820X0.498820X-0.203820X0.498820X0.203820X-0.498820X0.203820X0*%
%ADD70RoundRect,0.033180X0.203820X-0.498820X0.203820X0.498820X-0.203820X0.498820X-0.203820X-0.498820X0*%
%ADD71RoundRect,0.102000X0.550000X0.550000X-0.550000X0.550000X-0.550000X-0.550000X0.550000X-0.550000X0*%
%ADD72RoundRect,0.175000X-0.175000X-0.325000X0.175000X-0.325000X0.175000X0.325000X-0.175000X0.325000X0*%
%ADD73RoundRect,0.150000X-0.200000X-0.150000X0.200000X-0.150000X0.200000X0.150000X-0.200000X0.150000X0*%
%ADD74RoundRect,0.225000X-0.225000X-0.375000X0.225000X-0.375000X0.225000X0.375000X-0.225000X0.375000X0*%
%ADD75R,1.200000X0.700000*%
%ADD76R,0.800000X1.000000*%
%ADD77R,1.200000X1.000000*%
%ADD78R,2.800000X1.000000*%
%ADD79R,1.900000X1.300000*%
%ADD80R,0.250000X1.100000*%
%ADD81R,1.700000X1.500000*%
%ADD82RoundRect,0.250000X-0.325000X-0.650000X0.325000X-0.650000X0.325000X0.650000X-0.325000X0.650000X0*%
%ADD83R,1.800000X0.700000*%
%ADD84R,2.200000X1.600000*%
%ADD85R,0.300000X1.300000*%
%ADD86R,1.800000X2.200000*%
%ADD87RoundRect,0.100000X-0.637500X-0.100000X0.637500X-0.100000X0.637500X0.100000X-0.637500X0.100000X0*%
%ADD88RoundRect,0.250000X-0.375000X-1.075000X0.375000X-1.075000X0.375000X1.075000X-0.375000X1.075000X0*%
%ADD89RoundRect,0.225000X0.225000X0.250000X-0.225000X0.250000X-0.225000X-0.250000X0.225000X-0.250000X0*%
G04 APERTURE END LIST*
D10*
%TO.C,J15*%
X67553200Y-145676600D03*
X68553200Y-145676600D03*
X69553200Y-145676600D03*
X70553200Y-145676600D03*
X71553200Y-145676600D03*
X72553200Y-145676600D03*
D11*
X64563200Y-148476600D03*
X75543200Y-148476600D03*
%TD*%
D10*
%TO.C,J14*%
X107596200Y-148136200D03*
X108596200Y-148136200D03*
X109596200Y-148136200D03*
X110596200Y-148136200D03*
X111596200Y-148136200D03*
X112596200Y-148136200D03*
D11*
X104606200Y-150936200D03*
X115586200Y-150936200D03*
%TD*%
D12*
%TO.C,BT1*%
X62203600Y-123469400D03*
X71603600Y-123469400D03*
D13*
X66903600Y-123469400D03*
%TD*%
D14*
%TO.C,U11*%
X192030500Y-111314000D03*
X192030500Y-112264000D03*
X192030500Y-113214000D03*
X194305500Y-113214000D03*
X194305500Y-111314000D03*
%TD*%
D15*
%TO.C,R41*%
X191538000Y-119459000D03*
X192558000Y-119459000D03*
%TD*%
%TO.C,R40*%
X191538000Y-117469000D03*
X192558000Y-117469000D03*
%TD*%
%TO.C,R39*%
X191538000Y-115479000D03*
X192558000Y-115479000D03*
%TD*%
D16*
%TO.C,D12*%
X194810500Y-116004000D03*
X196685500Y-116004000D03*
%TD*%
D17*
%TO.C,D11*%
X194623000Y-118999000D03*
X196723000Y-118999000D03*
%TD*%
D18*
%TO.C,C62*%
X187418000Y-117389000D03*
X189318000Y-117389000D03*
%TD*%
%TO.C,C61*%
X187418000Y-114379000D03*
X189318000Y-114379000D03*
%TD*%
%TO.C,C60*%
X187418000Y-111369000D03*
X189318000Y-111369000D03*
%TD*%
D19*
%TO.C,H3*%
X56896000Y-40716200D03*
X56193056Y-42413256D03*
X56193056Y-39019144D03*
X54496000Y-43116200D03*
D20*
X54496000Y-40716200D03*
D19*
X54496000Y-38316200D03*
X52798944Y-42413256D03*
X52798944Y-39019144D03*
X52096000Y-40716200D03*
%TD*%
D21*
%TO.C,C40*%
X111813100Y-83615400D03*
X111813100Y-84575400D03*
%TD*%
D22*
%TO.C,R19*%
X122110800Y-62027800D03*
X122110800Y-63047800D03*
%TD*%
D23*
%TO.C,C28*%
X222097600Y-84195800D03*
X222097600Y-83235800D03*
%TD*%
D24*
%TO.C,C59*%
X81612000Y-70101200D03*
X82572000Y-70101200D03*
%TD*%
D25*
%TO.C,C37*%
X158996000Y-70955200D03*
X158036000Y-70955200D03*
%TD*%
D19*
%TO.C,H4*%
X57619600Y-148717000D03*
X56916656Y-150414056D03*
X56916656Y-147019944D03*
X55219600Y-151117000D03*
D20*
X55219600Y-148717000D03*
D19*
X55219600Y-146317000D03*
X53522544Y-150414056D03*
X53522544Y-147019944D03*
X52819600Y-148717000D03*
%TD*%
D26*
%TO.C,J5*%
X128373000Y-41827200D03*
X127373000Y-41827200D03*
X126373000Y-41827200D03*
X125373000Y-41827200D03*
D27*
X129673000Y-37952200D03*
X124073000Y-37952200D03*
%TD*%
D28*
%TO.C,R7*%
X213771200Y-119938600D03*
X212751200Y-119938600D03*
%TD*%
%TO.C,R15*%
X68518203Y-58503600D03*
X67498203Y-58503600D03*
%TD*%
D15*
%TO.C,R31*%
X93163600Y-97971000D03*
X94183600Y-97971000D03*
%TD*%
D28*
%TO.C,R23*%
X56468500Y-70625334D03*
X55448500Y-70625334D03*
%TD*%
D15*
%TO.C,R34*%
X124889800Y-129463800D03*
X125909800Y-129463800D03*
%TD*%
D24*
%TO.C,C36*%
X164836000Y-70955200D03*
X165796000Y-70955200D03*
%TD*%
D29*
%TO.C,J12*%
X185476000Y-140334400D03*
D30*
X187976000Y-140334400D03*
X189976000Y-140334400D03*
X192476000Y-140334400D03*
D31*
X182406000Y-143044400D03*
X195546000Y-143044400D03*
%TD*%
D23*
%TO.C,C10*%
X121065600Y-63047800D03*
X121065600Y-62087800D03*
%TD*%
%TO.C,C27*%
X222097600Y-78438467D03*
X222097600Y-77478467D03*
%TD*%
D15*
%TO.C,R6*%
X93163600Y-93991000D03*
X94183600Y-93991000D03*
%TD*%
D32*
%TO.C,Y2*%
X109893400Y-73963600D03*
X109893400Y-72563600D03*
%TD*%
D33*
%TO.C,J4*%
X202799200Y-145426200D03*
X208579200Y-145426200D03*
D34*
X202489200Y-144306200D03*
X203289200Y-144306200D03*
D35*
X204439200Y-144306200D03*
X205439200Y-144306200D03*
X205939200Y-144306200D03*
X206939200Y-144306200D03*
D34*
X208089200Y-144306200D03*
X208889200Y-144306200D03*
X208889200Y-144306200D03*
X208089200Y-144306200D03*
D35*
X207439200Y-144306200D03*
X206439200Y-144306200D03*
X204939200Y-144306200D03*
X203939200Y-144306200D03*
D34*
X203289200Y-144306200D03*
X202489200Y-144306200D03*
D36*
X201369200Y-144906200D03*
D37*
X201369200Y-149106200D03*
D36*
X210009200Y-144906200D03*
D37*
X210009200Y-149106200D03*
%TD*%
D38*
%TO.C,U8*%
X190895400Y-126466600D03*
X190895400Y-125516600D03*
X190895400Y-124566600D03*
X188620400Y-124566600D03*
X188620400Y-126466600D03*
%TD*%
D39*
%TO.C,JP7*%
X89393600Y-99881000D03*
D40*
X90693600Y-99881000D03*
%TD*%
D15*
%TO.C,R16*%
X67498203Y-59510201D03*
X68518203Y-59510201D03*
%TD*%
D41*
%TO.C,C56*%
X65627000Y-78981200D03*
X67177000Y-78981200D03*
%TD*%
D42*
%TO.C,J7*%
X173482000Y-146741600D03*
X173482000Y-150641600D03*
X172212000Y-146741600D03*
X172212000Y-150641600D03*
X170942000Y-146741600D03*
X170942000Y-150641600D03*
X169672000Y-146741600D03*
X169672000Y-150641600D03*
X168402000Y-146741600D03*
X168402000Y-150641600D03*
X167132000Y-146741600D03*
X167132000Y-150641600D03*
X165862000Y-146741600D03*
X165862000Y-150641600D03*
%TD*%
D21*
%TO.C,C29*%
X157316000Y-88455200D03*
X157316000Y-89415200D03*
%TD*%
D28*
%TO.C,R9*%
X213771200Y-115958600D03*
X212751200Y-115958600D03*
%TD*%
D43*
%TO.C,D4*%
X183457800Y-124599100D03*
X183457800Y-126474100D03*
%TD*%
D44*
%TO.C,R22*%
X194413700Y-126026600D03*
X194413700Y-125006600D03*
%TD*%
D41*
%TO.C,C54*%
X65627000Y-76471200D03*
X67177000Y-76471200D03*
%TD*%
D45*
%TO.C,U4*%
X93591500Y-73474000D03*
X93591500Y-74744000D03*
X93591500Y-76014000D03*
X93591500Y-77284000D03*
X101091500Y-77284000D03*
X101091500Y-76014000D03*
X101091500Y-74744000D03*
X101091500Y-73474000D03*
D46*
X97341500Y-75379000D03*
%TD*%
D24*
%TO.C,C8*%
X138835600Y-63047800D03*
X139795600Y-63047800D03*
%TD*%
D47*
%TO.C,D7*%
X218907200Y-145521200D03*
X220207200Y-145521200D03*
X219557200Y-143521200D03*
%TD*%
D48*
%TO.C,U2*%
X117140600Y-68972800D03*
X117140600Y-69472800D03*
X117140600Y-69972800D03*
X117140600Y-70472800D03*
X117140600Y-70972800D03*
X117140600Y-71472800D03*
X117140600Y-71972800D03*
X117140600Y-72472800D03*
X117140600Y-72972800D03*
X117140600Y-73472800D03*
X117140600Y-73972800D03*
X117140600Y-74472800D03*
X117140600Y-74972800D03*
X117140600Y-75472800D03*
X117140600Y-75972800D03*
X117140600Y-76472800D03*
X117140600Y-76972800D03*
X117140600Y-77472800D03*
X117140600Y-77972800D03*
X117140600Y-78472800D03*
X117140600Y-78972800D03*
X117140600Y-79472800D03*
X117140600Y-79972800D03*
X117140600Y-80472800D03*
X117140600Y-80972800D03*
X117140600Y-81472800D03*
X117140600Y-81972800D03*
X117140600Y-82472800D03*
X117140600Y-82972800D03*
X117140600Y-83472800D03*
X117140600Y-83972800D03*
X117140600Y-84472800D03*
X117140600Y-84972800D03*
X117140600Y-85472800D03*
X117140600Y-85972800D03*
X117140600Y-86472800D03*
X117140600Y-86972800D03*
X117140600Y-87472800D03*
X117140600Y-87972800D03*
X117140600Y-88472800D03*
X117140600Y-88972800D03*
X117140600Y-89472800D03*
X117140600Y-89972800D03*
X117140600Y-90472800D03*
D49*
X119065600Y-92397800D03*
X119565600Y-92397800D03*
X120065600Y-92397800D03*
X120565600Y-92397800D03*
X121065600Y-92397800D03*
X121565600Y-92397800D03*
X122065600Y-92397800D03*
X122565600Y-92397800D03*
X123065600Y-92397800D03*
X123565600Y-92397800D03*
X124065600Y-92397800D03*
X124565600Y-92397800D03*
X125065600Y-92397800D03*
X125565600Y-92397800D03*
X126065600Y-92397800D03*
X126565600Y-92397800D03*
X127065600Y-92397800D03*
X127565600Y-92397800D03*
X128065600Y-92397800D03*
X128565600Y-92397800D03*
X129065600Y-92397800D03*
X129565600Y-92397800D03*
X130065600Y-92397800D03*
X130565600Y-92397800D03*
X131065600Y-92397800D03*
X131565600Y-92397800D03*
X132065600Y-92397800D03*
X132565600Y-92397800D03*
X133065600Y-92397800D03*
X133565600Y-92397800D03*
X134065600Y-92397800D03*
X134565600Y-92397800D03*
X135065600Y-92397800D03*
X135565600Y-92397800D03*
X136065600Y-92397800D03*
X136565600Y-92397800D03*
X137065600Y-92397800D03*
X137565600Y-92397800D03*
X138065600Y-92397800D03*
X138565600Y-92397800D03*
X139065600Y-92397800D03*
X139565600Y-92397800D03*
X140065600Y-92397800D03*
X140565600Y-92397800D03*
D48*
X142490600Y-90472800D03*
X142490600Y-89972800D03*
X142490600Y-89472800D03*
X142490600Y-88972800D03*
X142490600Y-88472800D03*
X142490600Y-87972800D03*
X142490600Y-87472800D03*
X142490600Y-86972800D03*
X142490600Y-86472800D03*
X142490600Y-85972800D03*
X142490600Y-85472800D03*
X142490600Y-84972800D03*
X142490600Y-84472800D03*
X142490600Y-83972800D03*
X142490600Y-83472800D03*
X142490600Y-82972800D03*
X142490600Y-82472800D03*
X142490600Y-81972800D03*
X142490600Y-81472800D03*
X142490600Y-80972800D03*
X142490600Y-80472800D03*
X142490600Y-79972800D03*
X142490600Y-79472800D03*
X142490600Y-78972800D03*
X142490600Y-78472800D03*
X142490600Y-77972800D03*
X142490600Y-77472800D03*
X142490600Y-76972800D03*
X142490600Y-76472800D03*
X142490600Y-75972800D03*
X142490600Y-75472800D03*
X142490600Y-74972800D03*
X142490600Y-74472800D03*
X142490600Y-73972800D03*
X142490600Y-73472800D03*
X142490600Y-72972800D03*
X142490600Y-72472800D03*
X142490600Y-71972800D03*
X142490600Y-71472800D03*
X142490600Y-70972800D03*
X142490600Y-70472800D03*
X142490600Y-69972800D03*
X142490600Y-69472800D03*
X142490600Y-68972800D03*
D49*
X140565600Y-67047800D03*
X140065600Y-67047800D03*
X139565600Y-67047800D03*
X139065600Y-67047800D03*
X138565600Y-67047800D03*
X138065600Y-67047800D03*
X137565600Y-67047800D03*
X137065600Y-67047800D03*
X136565600Y-67047800D03*
X136065600Y-67047800D03*
X135565600Y-67047800D03*
X135065600Y-67047800D03*
X134565600Y-67047800D03*
X134065600Y-67047800D03*
X133565600Y-67047800D03*
X133065600Y-67047800D03*
X132565600Y-67047800D03*
X132065600Y-67047800D03*
X131565600Y-67047800D03*
X131065600Y-67047800D03*
X130565600Y-67047800D03*
X130065600Y-67047800D03*
X129565600Y-67047800D03*
X129065600Y-67047800D03*
X128565600Y-67047800D03*
X128065600Y-67047800D03*
X127565600Y-67047800D03*
X127065600Y-67047800D03*
X126565600Y-67047800D03*
X126065600Y-67047800D03*
X125565600Y-67047800D03*
X125065600Y-67047800D03*
X124565600Y-67047800D03*
X124065600Y-67047800D03*
X123565600Y-67047800D03*
X123065600Y-67047800D03*
X122565600Y-67047800D03*
X122065600Y-67047800D03*
X121565600Y-67047800D03*
X121065600Y-67047800D03*
X120565600Y-67047800D03*
X120065600Y-67047800D03*
X119565600Y-67047800D03*
X119065600Y-67047800D03*
%TD*%
D15*
%TO.C,R28*%
X160680400Y-138980000D03*
X161700400Y-138980000D03*
%TD*%
D24*
%TO.C,C20*%
X96083600Y-98571000D03*
X97043600Y-98571000D03*
%TD*%
D28*
%TO.C,R8*%
X213771200Y-117948600D03*
X212751200Y-117948600D03*
%TD*%
D50*
%TO.C,R13*%
X209187500Y-138443000D03*
X211012500Y-138443000D03*
%TD*%
D51*
%TO.C,C44*%
X186640000Y-126466600D03*
X186640000Y-124566600D03*
%TD*%
D21*
%TO.C,C14*%
X146490600Y-71242800D03*
X146490600Y-72202800D03*
%TD*%
D22*
%TO.C,R25*%
X161650400Y-130020000D03*
X161650400Y-131040000D03*
%TD*%
D25*
%TO.C,C5*%
X132795600Y-96397800D03*
X131835600Y-96397800D03*
%TD*%
D41*
%TO.C,C23*%
X63806200Y-55395401D03*
X65356200Y-55395401D03*
%TD*%
D15*
%TO.C,R36*%
X132560600Y-144424400D03*
X133580600Y-144424400D03*
%TD*%
D28*
%TO.C,R14*%
X68518203Y-57503600D03*
X67498203Y-57503600D03*
%TD*%
D21*
%TO.C,C15*%
X146490600Y-77742800D03*
X146490600Y-78702800D03*
%TD*%
D52*
%TO.C,U5*%
X156450400Y-134645000D03*
X156450400Y-133995000D03*
X156450400Y-133345000D03*
X154550400Y-133345000D03*
X154550400Y-134645000D03*
%TD*%
D24*
%TO.C,C9*%
X137565600Y-94843600D03*
X138525600Y-94843600D03*
%TD*%
D18*
%TO.C,C51*%
X65452000Y-68941200D03*
X67352000Y-68941200D03*
%TD*%
D39*
%TO.C,JP6*%
X89393600Y-96331000D03*
D40*
X90693600Y-96331000D03*
%TD*%
D24*
%TO.C,C22*%
X103045400Y-79410800D03*
X104005400Y-79410800D03*
%TD*%
D25*
%TO.C,C18*%
X213761200Y-111988600D03*
X212801200Y-111988600D03*
%TD*%
D53*
%TO.C,JP3*%
X165470400Y-135080000D03*
D54*
X164170400Y-135080000D03*
%TD*%
D25*
%TO.C,C7*%
X127795600Y-96397800D03*
X126835600Y-96397800D03*
%TD*%
D23*
%TO.C,C39*%
X111813100Y-82825400D03*
X111813100Y-81865400D03*
%TD*%
D24*
%TO.C,C13*%
X132335600Y-63047800D03*
X133295600Y-63047800D03*
%TD*%
D15*
%TO.C,R35*%
X132560600Y-142434400D03*
X133580600Y-142434400D03*
%TD*%
D24*
%TO.C,C12*%
X127335600Y-63047800D03*
X128295600Y-63047800D03*
%TD*%
D18*
%TO.C,C50*%
X65452000Y-66431200D03*
X67352000Y-66431200D03*
%TD*%
D55*
%TO.C,C46*%
X161390400Y-133215000D03*
X161390400Y-134765000D03*
%TD*%
D21*
%TO.C,C49*%
X159670400Y-130070000D03*
X159670400Y-131030000D03*
%TD*%
D15*
%TO.C,R29*%
X160680400Y-136990000D03*
X161700400Y-136990000D03*
%TD*%
D56*
%TO.C,SW3*%
X230555800Y-82677000D03*
X230555800Y-78527000D03*
X232705800Y-82677000D03*
X232705800Y-78527000D03*
%TD*%
D51*
%TO.C,C45*%
X195951600Y-126466600D03*
X195951600Y-124566600D03*
%TD*%
D57*
%TO.C,J11*%
X54396000Y-97510600D03*
X61396000Y-97510600D03*
D58*
X55296000Y-93810600D03*
X53296000Y-101210600D03*
D59*
X62696000Y-101210600D03*
%TD*%
D24*
%TO.C,C21*%
X103045400Y-77440800D03*
X104005400Y-77440800D03*
%TD*%
D15*
%TO.C,R33*%
X124889800Y-127473800D03*
X125909800Y-127473800D03*
%TD*%
D60*
%TO.C,U9*%
X155716000Y-85455200D03*
X156516000Y-85455200D03*
X157316000Y-85455200D03*
X158116000Y-85455200D03*
X158916000Y-85455200D03*
X159716000Y-85455200D03*
X160516000Y-85455200D03*
X161316000Y-85455200D03*
X162116000Y-85455200D03*
X162916000Y-85455200D03*
X163716000Y-85455200D03*
X164516000Y-85455200D03*
X165316000Y-85455200D03*
X166116000Y-85455200D03*
X166916000Y-85455200D03*
X167716000Y-85455200D03*
X168516000Y-85455200D03*
X169316000Y-85455200D03*
X170116000Y-85455200D03*
X170916000Y-85455200D03*
X171716000Y-85455200D03*
X172516000Y-85455200D03*
X173316000Y-85455200D03*
X174116000Y-85455200D03*
X174916000Y-85455200D03*
X175716000Y-85455200D03*
X176516000Y-85455200D03*
X176516000Y-73955200D03*
X175716000Y-73955200D03*
X174916000Y-73955200D03*
X174116000Y-73955200D03*
X173316000Y-73955200D03*
X172516000Y-73955200D03*
X171716000Y-73955200D03*
X170916000Y-73955200D03*
X170116000Y-73955200D03*
X169316000Y-73955200D03*
X168516000Y-73955200D03*
X167716000Y-73955200D03*
X166916000Y-73955200D03*
X166116000Y-73955200D03*
X165316000Y-73955200D03*
X164516000Y-73955200D03*
X163716000Y-73955200D03*
X162916000Y-73955200D03*
X162116000Y-73955200D03*
X161316000Y-73955200D03*
X160516000Y-73955200D03*
X159716000Y-73955200D03*
X158916000Y-73955200D03*
X158116000Y-73955200D03*
X157316000Y-73955200D03*
X156516000Y-73955200D03*
X155716000Y-73955200D03*
%TD*%
D45*
%TO.C,U1*%
X93256900Y-81686400D03*
X93256900Y-82956400D03*
X93256900Y-84226400D03*
X93256900Y-85496400D03*
X100756900Y-85496400D03*
X100756900Y-84226400D03*
X100756900Y-82956400D03*
X100756900Y-81686400D03*
D46*
X97006900Y-83591400D03*
%TD*%
D41*
%TO.C,C58*%
X65627000Y-81491200D03*
X67177000Y-81491200D03*
%TD*%
D17*
%TO.C,D10*%
X200873500Y-128361400D03*
X202973500Y-128361400D03*
%TD*%
D61*
%TO.C,U7*%
X96878600Y-92456000D03*
X96878600Y-93726000D03*
X96878600Y-94996000D03*
X96878600Y-96266000D03*
X101828600Y-96266000D03*
X101828600Y-94996000D03*
X101828600Y-93726000D03*
X101828600Y-92456000D03*
%TD*%
D16*
%TO.C,D6*%
X51896800Y-77597000D03*
X53771800Y-77597000D03*
%TD*%
D55*
%TO.C,C26*%
X112230200Y-87665400D03*
X112230200Y-89215400D03*
%TD*%
D56*
%TO.C,SW1*%
X230555800Y-64693800D03*
X230555800Y-60543800D03*
X232705800Y-64693800D03*
X232705800Y-60543800D03*
%TD*%
D62*
%TO.C,Y1*%
X110542600Y-84095400D03*
X110542600Y-82345400D03*
X109142600Y-82345400D03*
X109142600Y-84095400D03*
%TD*%
D63*
%TO.C,J9*%
X173767000Y-41257200D03*
X172517000Y-41257200D03*
X171267000Y-41257200D03*
X170017000Y-41257200D03*
D64*
X176017000Y-38557200D03*
X167767000Y-38557200D03*
%TD*%
D19*
%TO.C,H1*%
X232214456Y-40949544D03*
X231511512Y-42646600D03*
X231511512Y-39252488D03*
X229814456Y-43349544D03*
D20*
X229814456Y-40949544D03*
D19*
X229814456Y-38549544D03*
X228117400Y-42646600D03*
X228117400Y-39252488D03*
X227414456Y-40949544D03*
%TD*%
D65*
%TO.C,D9*%
X172867400Y-44907200D03*
X170967400Y-44907200D03*
X171917400Y-46782200D03*
%TD*%
D18*
%TO.C,C53*%
X65452000Y-73961200D03*
X67352000Y-73961200D03*
%TD*%
D24*
%TO.C,C57*%
X81612000Y-68131200D03*
X82572000Y-68131200D03*
%TD*%
D56*
%TO.C,SW4*%
X230555800Y-91668600D03*
X230555800Y-87518600D03*
X232705800Y-91668600D03*
X232705800Y-87518600D03*
%TD*%
D15*
%TO.C,R12*%
X214880000Y-134493000D03*
X215900000Y-134493000D03*
%TD*%
D66*
%TO.C,R37*%
X65577000Y-84001200D03*
X67227000Y-84001200D03*
%TD*%
D44*
%TO.C,R17*%
X113119200Y-85356000D03*
X113119200Y-84336000D03*
%TD*%
D15*
%TO.C,R32*%
X93163600Y-99961000D03*
X94183600Y-99961000D03*
%TD*%
%TO.C,R26*%
X160680400Y-142960000D03*
X161700400Y-142960000D03*
%TD*%
D44*
%TO.C,R21*%
X185103400Y-126026600D03*
X185103400Y-125006600D03*
%TD*%
D23*
%TO.C,C4*%
X113140600Y-80202800D03*
X113140600Y-79242800D03*
%TD*%
D63*
%TO.C,J6*%
X218907200Y-148003600D03*
X220157200Y-148003600D03*
D64*
X216657200Y-150703600D03*
X222407200Y-150703600D03*
%TD*%
D53*
%TO.C,JP2*%
X165470400Y-138630000D03*
D54*
X164170400Y-138630000D03*
%TD*%
D67*
%TO.C,U6*%
X65991200Y-59003600D03*
X65991200Y-58503600D03*
X65991200Y-58003600D03*
X65991200Y-57503600D03*
D68*
X65306200Y-56818600D03*
X64806200Y-56818600D03*
X64306200Y-56818600D03*
X63806200Y-56818600D03*
D69*
X63121200Y-57503600D03*
X63121200Y-58003600D03*
X63121200Y-58503600D03*
X63121200Y-59003600D03*
D70*
X63806200Y-59688600D03*
X64306200Y-59688600D03*
X64806200Y-59688600D03*
X65306200Y-59688600D03*
D71*
X64556200Y-58253600D03*
%TD*%
D21*
%TO.C,C41*%
X111290400Y-73963600D03*
X111290400Y-74923600D03*
%TD*%
D15*
%TO.C,R20*%
X189247900Y-123306800D03*
X190267900Y-123306800D03*
%TD*%
%TO.C,R1*%
X103035400Y-73470800D03*
X104055400Y-73470800D03*
%TD*%
D21*
%TO.C,C25*%
X146490600Y-89242800D03*
X146490600Y-90202800D03*
%TD*%
D55*
%TO.C,C19*%
X110655400Y-87665400D03*
X110655400Y-89215400D03*
%TD*%
D72*
%TO.C,D2*%
X215060000Y-128538000D03*
D73*
X215060000Y-130238000D03*
X217060000Y-130238000D03*
X217060000Y-128338000D03*
%TD*%
D74*
%TO.C,D8*%
X155210400Y-142280000D03*
X158510400Y-142280000D03*
%TD*%
D75*
%TO.C,J1*%
X217623800Y-113506200D03*
X217623800Y-114606200D03*
X217623800Y-115706200D03*
X217623800Y-116806200D03*
X217623800Y-117906200D03*
X217623800Y-119006200D03*
X217623800Y-120106200D03*
X217623800Y-121206200D03*
X217623800Y-122156200D03*
D76*
X228123800Y-123106200D03*
D77*
X221923800Y-123106200D03*
D78*
X232273800Y-123106200D03*
D77*
X217623800Y-111956200D03*
D79*
X232723800Y-109606200D03*
%TD*%
D25*
%TO.C,C6*%
X121295600Y-96397800D03*
X120335600Y-96397800D03*
%TD*%
D39*
%TO.C,JP4*%
X164170400Y-131530000D03*
D40*
X165470400Y-131530000D03*
%TD*%
D80*
%TO.C,J2*%
X132346200Y-148036200D03*
X132846200Y-148036200D03*
X133346200Y-148036200D03*
X133846200Y-148036200D03*
X134346200Y-148036200D03*
X134846200Y-148036200D03*
X135346200Y-148036200D03*
X135846200Y-148036200D03*
X136346200Y-148036200D03*
X136846200Y-148036200D03*
X137346200Y-148036200D03*
X137846200Y-148036200D03*
X138346200Y-148036200D03*
X138846200Y-148036200D03*
X139346200Y-148036200D03*
X139846200Y-148036200D03*
X140346200Y-148036200D03*
X140846200Y-148036200D03*
X141346200Y-148036200D03*
X141846200Y-148036200D03*
X142346200Y-148036200D03*
X142846200Y-148036200D03*
X143346200Y-148036200D03*
X143846200Y-148036200D03*
X144346200Y-148036200D03*
X144846200Y-148036200D03*
X145346200Y-148036200D03*
X145846200Y-148036200D03*
X146346200Y-148036200D03*
X146846200Y-148036200D03*
X147346200Y-148036200D03*
X147846200Y-148036200D03*
X148346200Y-148036200D03*
X148846200Y-148036200D03*
X149346200Y-148036200D03*
X149846200Y-148036200D03*
X150346200Y-148036200D03*
X150846200Y-148036200D03*
X151346200Y-148036200D03*
X151846200Y-148036200D03*
D81*
X130696200Y-151936200D03*
X153496200Y-151936200D03*
%TD*%
D21*
%TO.C,C38*%
X155716000Y-88455200D03*
X155716000Y-89415200D03*
%TD*%
D55*
%TO.C,C47*%
X158880400Y-133215000D03*
X158880400Y-134765000D03*
%TD*%
D15*
%TO.C,R27*%
X160680400Y-140970000D03*
X161700400Y-140970000D03*
%TD*%
D23*
%TO.C,C24*%
X222097600Y-66923800D03*
X222097600Y-65963800D03*
%TD*%
D15*
%TO.C,R5*%
X93163600Y-92001000D03*
X94183600Y-92001000D03*
%TD*%
%TO.C,R11*%
X214880000Y-132503000D03*
X215900000Y-132503000D03*
%TD*%
D23*
%TO.C,C11*%
X113140600Y-71472800D03*
X113140600Y-70512800D03*
%TD*%
D44*
%TO.C,R18*%
X222097600Y-72717800D03*
X222097600Y-71697800D03*
%TD*%
D51*
%TO.C,C30*%
X192875800Y-126466600D03*
X192875800Y-124566600D03*
%TD*%
D82*
%TO.C,C43*%
X203595000Y-138643000D03*
X206545000Y-138643000D03*
%TD*%
D66*
%TO.C,R38*%
X65577000Y-86511200D03*
X67227000Y-86511200D03*
%TD*%
D19*
%TO.C,H2*%
X231330200Y-149479000D03*
X230627256Y-151176056D03*
X230627256Y-147781944D03*
X228930200Y-151879000D03*
D20*
X228930200Y-149479000D03*
D19*
X228930200Y-147079000D03*
X227233144Y-151176056D03*
X227233144Y-147781944D03*
X226530200Y-149479000D03*
%TD*%
D41*
%TO.C,C34*%
X146375600Y-73441400D03*
X147925600Y-73441400D03*
%TD*%
D23*
%TO.C,C42*%
X111290400Y-72563600D03*
X111290400Y-71603600D03*
%TD*%
D17*
%TO.C,D3*%
X193386200Y-128361400D03*
X195486200Y-128361400D03*
%TD*%
D25*
%TO.C,C2*%
X165796000Y-88455200D03*
X164836000Y-88455200D03*
%TD*%
D24*
%TO.C,C55*%
X81612000Y-66161200D03*
X82572000Y-66161200D03*
%TD*%
D83*
%TO.C,J8*%
X55653600Y-57109200D03*
X55653600Y-58359200D03*
D84*
X52953600Y-54859200D03*
X52953600Y-60609200D03*
%TD*%
D21*
%TO.C,C1*%
X176516000Y-88455200D03*
X176516000Y-89415200D03*
%TD*%
D23*
%TO.C,C17*%
X113140600Y-76202800D03*
X113140600Y-75242800D03*
%TD*%
D85*
%TO.C,J10*%
X149260000Y-42906600D03*
X148760000Y-42906600D03*
X148260000Y-42906600D03*
X147760000Y-42906600D03*
X147260000Y-42906600D03*
X146760000Y-42906600D03*
X146260000Y-42906600D03*
X145760000Y-42906600D03*
X145260000Y-42906600D03*
X144760000Y-42906600D03*
X144260000Y-42906600D03*
X143760000Y-42906600D03*
X143260000Y-42906600D03*
X142760000Y-42906600D03*
X142260000Y-42906600D03*
X141760000Y-42906600D03*
X141260000Y-42906600D03*
X140760000Y-42906600D03*
X140260000Y-42906600D03*
X139760000Y-42906600D03*
X139260000Y-42906600D03*
X138760000Y-42906600D03*
X138260000Y-42906600D03*
X137760000Y-42906600D03*
D86*
X151160000Y-39656600D03*
X135860000Y-39656600D03*
%TD*%
D21*
%TO.C,C16*%
X146490600Y-83242800D03*
X146490600Y-84202800D03*
%TD*%
D28*
%TO.C,R24*%
X56468500Y-77597000D03*
X55448500Y-77597000D03*
%TD*%
D39*
%TO.C,JP5*%
X89393600Y-92781000D03*
D40*
X90693600Y-92781000D03*
%TD*%
D53*
%TO.C,JP1*%
X165470400Y-142180000D03*
D54*
X164170400Y-142180000D03*
%TD*%
D87*
%TO.C,U10*%
X71950200Y-95652400D03*
X71950200Y-96302400D03*
X71950200Y-96952400D03*
X71950200Y-97602400D03*
X71950200Y-98252400D03*
X71950200Y-98902400D03*
X71950200Y-99552400D03*
X71950200Y-100202400D03*
X71950200Y-100852400D03*
X71950200Y-101502400D03*
X77675200Y-101502400D03*
X77675200Y-100852400D03*
X77675200Y-100202400D03*
X77675200Y-99552400D03*
X77675200Y-98902400D03*
X77675200Y-98252400D03*
X77675200Y-97602400D03*
X77675200Y-96952400D03*
X77675200Y-96302400D03*
X77675200Y-95652400D03*
%TD*%
D88*
%TO.C,L2*%
X155530400Y-138500000D03*
X158330400Y-138500000D03*
%TD*%
D18*
%TO.C,C52*%
X65452000Y-71451200D03*
X67352000Y-71451200D03*
%TD*%
D16*
%TO.C,D5*%
X51896800Y-70625334D03*
X53771800Y-70625334D03*
%TD*%
D15*
%TO.C,R2*%
X103035400Y-75460800D03*
X104055400Y-75460800D03*
%TD*%
D28*
%TO.C,R10*%
X213771200Y-113968600D03*
X212751200Y-113968600D03*
%TD*%
D41*
%TO.C,C35*%
X137565600Y-96136800D03*
X139115600Y-96136800D03*
%TD*%
D56*
%TO.C,SW2*%
X230555800Y-73685400D03*
X230555800Y-69535400D03*
X232705800Y-73685400D03*
X232705800Y-69535400D03*
%TD*%
D89*
%TO.C,C48*%
X156395400Y-130820000D03*
X154845400Y-130820000D03*
%TD*%
D25*
%TO.C,C3*%
X161396000Y-88455200D03*
X160436000Y-88455200D03*
%TD*%
D15*
%TO.C,R30*%
X93163600Y-95981000D03*
X94183600Y-95981000D03*
%TD*%
M02*
